<?xml version="1.0" standalone="no"?>
<!DOCTYPE svg PUBLIC "-//W3C//DTD SVG 1.1//EN" "http://www.w3.org/Graphics/SVG/1.1/DTD/svg11.dtd" >
<svg xmlns="http://www.w3.org/2000/svg">
<metadata>
This is a custom SVG webfont generated by Font Squirrel.
Copyright   : Copyright c 1993 Adobe Systems Incorporated  All Rights ReservedITC Officina Serif is a trademark of International Typeface Corporation
</metadata>
<defs>
<font id="ITCOfficinaSerifBold" horiz-adv-x="1138" >
<font-face units-per-em="2048" ascent="1638" descent="-410" />
<missing-glyph horiz-adv-x="606" />
<glyph unicode=" "  horiz-adv-x="606" />
<glyph unicode="&#x09;" horiz-adv-x="606" />
<glyph unicode="&#xa0;" horiz-adv-x="606" />
<glyph unicode="!" horiz-adv-x="720" d="M186 137q0 74 50.5 124t123.5 50q72 0 122 -51t50 -123q0 -70 -51 -121t-121 -51q-74 0 -124 51t-50 121zM211 1411q0 27 37 27h219q41 0 41 -27q0 -6 -2 -41l-45 -801q-2 -29 -10.5 -35t-32.5 -6h-117q-25 0 -33 6.5t-10 34.5l-45 801q-2 35 -2 41z" />
<glyph unicode="&#x22;" horiz-adv-x="1024" d="M193 1442q0 27 40 26h179q41 0 41 -26q0 -14 -2 -21l-43 -469q-2 -27 -9.5 -34t-33.5 -7h-84q-27 0 -34 7.5t-9 33.5l-43 469q-2 7 -2 21zM571 1442q0 27 41 26h179q41 0 40 -26q0 -14 -2 -21l-43 -469q-2 -27 -9 -34t-34 -7h-84q-27 0 -34 7.5t-9 33.5l-43 469 q-2 7 -2 21z" />
<glyph unicode="#" d="M111 338v113q0 27 8 34t35 7h100l35 342h-80q-29 0 -36 7t-7 36v110q0 29 7 36t36 7h100l35 334q2 25 13.5 32t35.5 7h92q43 0 43 -27q0 -4 -1 -9t-1 -7l-32 -330h202l35 334q2 25 12.5 32t34.5 7h96q41 0 41 -25q0 -2 -1 -9t-1 -9l-32 -330h104q27 0 34 -8t7 -35v-110 q0 -27 -7 -35t-34 -8h-123l-37 -342h105q27 0 34 -7.5t7 -33.5v-113q0 -27 -7.5 -35t-33.5 -8h-123l-37 -363q-2 -25 -13.5 -31.5t-35.5 -6.5h-96q-41 0 -41 26q0 2 1 9.5t1 9.5l37 356h-205l-35 -363q-4 -39 -51 -38h-92q-43 0 -43 26q0 2 1 9.5t1 9.5l34 356h-79 q-27 0 -35 8t-8 35zM438 492h203l37 342h-205z" />
<glyph unicode="$" d="M145 997q0 104 42 185.5t104.5 123.5t117 61t97.5 22v100q0 27 8 34t35 7h41q27 0 35 -7t8 -34v-100q78 -6 199.5 -40t121.5 -79q0 -10 -6 -23l-63 -139q-6 -16 -19 -16q-2 0 -43 20.5t-96 41t-94 20.5v-379q4 -2 41 -19.5t48 -24t46 -25.5t49 -30.5t44 -35t43.5 -42 t33.5 -46t29.5 -56.5t16.5 -63.5t7 -73.5q0 -100 -35.5 -178t-94 -122t-114 -67.5t-114.5 -34.5v-92q0 -27 -8.5 -34t-34.5 -7h-41q-27 0 -35 7.5t-8 33.5v92q-76 0 -216 34t-140 75q0 6 4 18l59 172q8 16 18 17q2 0 45 -20.5t109 -44t121 -29.5v401q-6 4 -50 21.5 t-60.5 25.5t-57.5 30.5t-60.5 40t-50 49.5t-45 62.5t-26 74.5t-11.5 93zM381 1014q0 -111 139 -174v334q-139 -35 -139 -160zM618 199q137 37 138 168q0 41 -13.5 73.5t-40 56t-41 33t-43.5 23.5v-354z" />
<glyph unicode="%" horiz-adv-x="1705" d="M102 1008q0 164 81 262t224.5 98t224.5 -98.5t81 -262t-81 -262t-224.5 -98.5t-224.5 97.5t-81 263.5zM307 1007.5q0 -100.5 19.5 -153.5t81 -53t81 53t19.5 153.5t-20.5 153.5t-80 53t-80 -53t-20.5 -153.5zM522 -14q0 8 8 28l486 1356q12 33 47 33h104q39 0 39 -25 q0 -10 -6 -28l-483 -1350q-12 -35 -47 -35h-105q-43 1 -43 21zM989 326q0 164 81 262t224.5 98t224 -98.5t80.5 -262t-80.5 -262t-224 -98.5t-224.5 97.5t-81 263.5zM1194 325.5q0 -100.5 19.5 -153.5t81 -53t81 53t19.5 153.5t-20.5 153.5t-80 53t-80 -53t-20.5 -153.5z " />
<glyph unicode="&#x26;" horiz-adv-x="1251" d="M80 354q0 41 7 78t22.5 70t30 59.5t41 53t42 43t45.5 37.5l41 29q10 7 39 26l31 16q-4 4 -34 34.5t-51.5 56.5t-48 65t-41 83t-14.5 87q0 154 123 250t279 96q158 0 262 -88t104 -238q0 -39 -10 -77t-31.5 -71.5t-40 -60t-50 -56.5t-48 -43t-47.5 -37t-33 -26l220 -258 q35 68 49 138.5t17 103.5t17 33q6 0 23 -4l150 -41q25 -8 24 -33q0 -84 -45 -204t-78 -171l146 -176q18 -23 18 -29q0 -12 -20 -30l-103 -93q-16 -12 -29 -12q-10 0 -30 21l-115 131q-33 -31 -57.5 -49.5t-73.5 -46t-115.5 -42t-148.5 -14.5q-215 0 -341 103.5t-126 285.5z M356 385q0 -90 60.5 -147.5t146.5 -57.5q125 0 225 113l-278 328q-39 -29 -62.5 -47.5t-57.5 -74t-34 -114.5zM436 1096q0 -35 17.5 -71t37 -57.5t48 -49t34.5 -35.5q4 4 26 22.5t32 27.5t28.5 30.5t27.5 39t17.5 43t8.5 50.5q0 68 -36 106.5t-97.5 38.5t-102.5 -41 t-41 -104z" />
<glyph unicode="'" horiz-adv-x="417" d="M78 1442q0 27 41 26h178q41 0 41 -26q0 -14 -2 -21l-43 -469q-2 -27 -9.5 -34t-33.5 -7h-84q-27 0 -34 7.5t-9 33.5l-43 469q-2 7 -2 21z" />
<glyph unicode="(" horiz-adv-x="909" d="M242 501.5q0 157.5 43 321.5t103.5 287t125 222.5t112.5 151.5t60 52q23 0 84 -41t61 -57q0 -14 -33.5 -62.5t-80.5 -126.5t-94.5 -180t-81 -252.5t-33.5 -314.5t33.5 -315.5t81 -254t94.5 -180.5t80.5 -126t33.5 -62q0 -16 -61 -57.5t-84 -41.5q-14 0 -61 52.5 t-111.5 153t-126 223t-103.5 286.5t-42 321.5z" />
<glyph unicode=")" horiz-adv-x="909" d="M78 -436q0 14 33.5 62t81 126t94.5 180.5t80.5 254t33.5 315.5t-33.5 314.5t-80.5 252.5t-94.5 180t-81 126t-33.5 63q0 16 61.5 57t83.5 41q12 0 60.5 -52t113 -151.5t125 -222.5t103.5 -287t43 -321.5t-42 -321.5t-103.5 -286.5t-126 -223t-111.5 -153t-62 -52.5 q-23 0 -84 41.5t-61 57.5z" />
<glyph unicode="*" d="M176 1053q0 2 6 26l41 125q10 33 27 33q8 0 29 -10l227 -121l-43 252q-2 10 -2 22q0 23 41 23h133q41 0 41 -23q0 -12 -2 -22l-43 -252l227 121q20 10 29 10q16 0 26 -33l41 -125q6 -25 7 -26q0 -20 -39 -25l-252 -39l184 -176q18 -18 18 -31q0 -16 -22 -30l-107 -76 q-20 -16 -30 -17q-16 0 -29 29l-117 230l-114 -230q-12 -29 -29 -29q-10 0 -31 17l-106 76q-23 14 -23 30q0 12 19 31l184 176l-252 39q-39 5 -39 25z" />
<glyph unicode="+" d="M104 459v135q0 20 7.5 27.5t27.5 7.5h328v327q0 23 6 29t29 6h135q23 0 29 -6t6 -29v-327h327q20 0 27.5 -7.5t7.5 -27.5v-135q0 -20 -7 -27.5t-28 -7.5h-327v-328q0 -23 -6.5 -29t-28.5 -6h-135q-23 0 -29 6.5t-6 28.5v328h-328q-20 0 -27.5 7.5t-7.5 27.5z" />
<glyph unicode="," horiz-adv-x="606" d="M66 -223q0 8 6 26l127 418q10 35 45 35h198q41 0 41 -23q0 -16 -10 -30l-244 -457q-16 -29 -28 -29l-25 7l-78 26q-32 13 -32 27z" />
<glyph unicode="-" horiz-adv-x="757" d="M86 449v149q0 29 8 36t35 7h500q27 0 35 -7t8 -36v-149q0 -27 -8.5 -35t-34.5 -8h-500q-27 0 -35 8t-8 35z" />
<glyph unicode="." horiz-adv-x="606" d="M109 160q0 80 57 137t137 57t137.5 -56t57.5 -138t-57.5 -138.5t-137.5 -56.5t-137 57.5t-57 137.5z" />
<glyph unicode="/" horiz-adv-x="909" d="M-41 -410q0 12 6 31l668 1825q12 37 55 37h121q37 0 37 -25q0 -14 -6 -33l-666 -1820q-14 -39 -55 -39h-119q-41 -1 -41 24z" />
<glyph unicode="0" d="M84 684q0 350 123 534.5t362 184.5q236 0 361 -184.5t125 -534.5t-124 -534.5t-361.5 -184.5t-361.5 184.5t-124 534.5zM344 684q0 -111 10.5 -194.5t34 -155.5t69.5 -110t111 -38q127 0 176.5 132.5t49.5 366t-49.5 365.5t-176.5 132q-66 0 -111.5 -38t-69 -109.5 t-34 -155.5t-10.5 -195z" />
<glyph unicode="1" d="M209 1098q0 14 24 32l326 238h143q27 0 34 -8t7 -33v-1137h162q18 0 23.5 -6t5.5 -22v-133q0 -16 -5 -22.5t-24 -6.5h-629q-18 0 -23 6t-5 23v133q0 16 5 22t23 6h207v869l-155 -94q-20 -12 -29 -13q-14 0 -29 27l-53 92q-8 17 -8 27z" />
<glyph unicode="2" d="M154 1057q0 35 24.5 88t72.5 113.5t138 102.5t203 42q184 0 286.5 -100.5t102.5 -288.5q0 -74 -18.5 -138.5t-42 -108.5t-69.5 -92t-79 -75t-92 -72t-88 -67q-86 -72 -112.5 -116t-33.5 -109h482q27 0 34 -8.5t7 -34.5v-150q0 -27 -7.5 -35t-33.5 -8h-740q-16 0 -21 6 t-5 29q0 35 1 65.5t1 53t3 45t4 36t6 32t6 24.5t9.5 23.5t9.5 20.5t11 23l12 25q35 74 101.5 141.5t134 116.5t131 100.5t103.5 118t40 144.5q0 88 -44 133t-124 45q-66 0 -110.5 -33t-61 -73t-33 -72.5t-32.5 -32.5q-10 0 -23 6l-131 49q-22 8 -22 31z" />
<glyph unicode="3" d="M111 78q0 4 4 20l41 146q6 20 22 20q6 0 48 -21.5t111 -42t140 -20.5q106 0 164.5 58.5t58.5 162.5q0 205 -254 205h-63q-27 0 -34 7.5t-7 33.5v137q0 27 7 35t34 8h68q223 0 223 193q0 74 -47 121t-123 47q-57 0 -103.5 -31t-73 -62.5t-34.5 -31.5t-19 10l-112 101 q-10 6 -10 20q0 16 24.5 49t67.5 70t116.5 63.5t157.5 26.5q178 0 290 -99.5t112 -263.5q0 -90 -34 -156.5t-69 -93t-90 -55.5q240 -86 240 -348q0 -193 -135.5 -307.5t-331.5 -114.5q-119 0 -254 39t-135 74z" />
<glyph unicode="4" d="M92 311v215l510 850q14 27 27 27q8 0 28 -8l123 -52q31 -12 31 -28q0 -8 -12 -29l-477 -811h313l33 330q2 25 9 33t34 8h141q27 0 34 -8.5t7 -34.5l2 -328h115q29 0 36 -7t7 -42v-115q0 -27 -8.5 -34t-34.5 -7h-115v-264q0 -27 -7 -34t-34 -7h-178q-27 0 -34 7.5t-7 33.5 v264h-500q-27 0 -35 7t-8 34z" />
<glyph unicode="5" d="M143 57q0 4 1 12.5t1 10.5l29 149q4 18 19 19q4 0 47 -15.5t108.5 -31t122.5 -15.5q143 0 224 77t81 198q0 98 -52 155.5t-155 57.5q-74 0 -124 -28t-74.5 -55.5t-32.5 -27.5q-4 0 -23 6l-122 39q-33 10 -33 27q0 14 2 20l63 674q2 29 9.5 34t33.5 5h600q27 0 35 -7 t8 -34v-131q0 -29 -7 -36t-36 -7h-422l-34 -326q96 61 209 62q180 0 285.5 -122t105.5 -302q0 -221 -142.5 -360.5t-388.5 -139.5q-113 0 -225.5 27.5t-112.5 64.5z" />
<glyph unicode="6" d="M145 565q0 406 170 622t443 216q55 0 102 -11.5t71.5 -26.5t24.5 -28q0 -6 -4 -18l-43 -143q-4 -20 -20 -21q-2 0 -50 16.5t-91 16.5q-250 0 -342 -348l4 -4q96 121 241 120q158 0 265.5 -119.5t107.5 -359.5q0 -238 -119 -375t-321.5 -137t-320.5 146.5t-118 453.5z M412 467q0 -281 180 -281q88 0 137 73t49 208q0 274 -182 274q-184 0 -184 -274z" />
<glyph unicode="7" d="M156 1176v151q0 27 8 34t35 7h739q27 0 34 -7t7 -34v-80l-457 -1251q-12 -31 -28 -31q-14 0 -23 2l-170 33q-41 8 -41 27q0 10 6 26l434 1080h-501q-27 0 -35 7t-8 36z" />
<glyph unicode="8" d="M96 356q0 250 291 363q-240 111 -240 325q0 147 121 253t310 106q180 0 303 -101.5t123 -254.5q0 -197 -232 -322q285 -133 285 -363q0 -160 -127 -278.5t-357 -118.5q-211 0 -344 102.5t-133 288.5zM356 371q0 -90 61.5 -140.5t158 -50.5t159 53.5t62.5 135.5 q0 158 -222 247l-12 7l-16 -9q-16 -8 -23.5 -12t-26 -15.5t-27.5 -18.5t-26.5 -21.5t-27.5 -26.5t-23.5 -29.5t-19.5 -35t-11.5 -39.5t-5.5 -45zM408 1020q0 -47 18 -85t54 -62.5t53.5 -33t52.5 -22.5q31 14 48 23.5t48 33t46 60.5t15 84q0 72 -46 121t-122 49 q-74 0 -120.5 -49t-46.5 -119z" />
<glyph unicode="9" d="M123 891q0 238 118.5 375t321.5 137t320.5 -146.5t117.5 -453.5q0 -406 -169.5 -622t-442.5 -216q-55 0 -102 11.5t-72 26.5t-25 28q0 6 5 18l43 144q4 20 20 20q2 0 50 -16.5t91 -16.5q250 0 342 348l-4 4q-96 -121 -241 -120q-158 0 -265.5 119.5t-107.5 359.5z M369 901q0 -274 182 -274q184 0 184 274q0 281 -180 281q-88 0 -137 -73t-49 -208z" />
<glyph unicode=":" horiz-adv-x="606" d="M109 160q0 80 57 137t137 57t137.5 -56t57.5 -138t-57.5 -138.5t-137.5 -56.5t-137 57.5t-57 137.5zM109 817q0 80 57 137.5t137 57.5t137.5 -56.5t57.5 -138.5t-57.5 -138t-137.5 -56t-137 57t-57 137z" />
<glyph unicode=";" horiz-adv-x="606" d="M66 -223q0 8 6 26l127 418q10 35 45 35h198q41 0 41 -23q0 -16 -10 -30l-244 -457q-16 -29 -28 -29l-25 7l-78 26q-32 13 -32 27zM109 817q0 80 57 137.5t137 57.5t137.5 -56.5t57.5 -138.5t-57.5 -138t-137.5 -56t-137 57t-57 137z" />
<glyph unicode="&#x3c;" d="M102 461v129q0 18 4.5 25.5t18.5 11.5l833 276l9 2q6 2 8 2h6q2 0 4 -2t4 -6t4 -12l35 -123q2 -10 2 -16q0 -20 -16 -25l-606 -193v-4l606 -192q16 -6 16 -25q0 -12 -2 -16l-35 -123q-6 -23 -18 -23q-4 0 -17 5l-833 278q-23 6 -23 31z" />
<glyph unicode="=" d="M104 295v135q0 20 7.5 27.5t27.5 7.5h860q20 0 27.5 -7t7.5 -28v-135q0 -20 -7 -27.5t-28 -7.5h-860q-20 0 -27.5 7.5t-7.5 27.5zM104 621v135q0 20 7.5 27.5t27.5 7.5h860q20 0 27.5 -6.5t7.5 -28.5v-135q0 -23 -7 -29t-28 -6h-860q-20 0 -27.5 6t-7.5 29z" />
<glyph unicode="&#x3e;" d="M104 309q0 18 17 25l606 192v4l-606 193q-16 4 -17 25l2 16l35 123q4 14 7.5 17t11.5 3q2 0 8 -2l8 -2l834 -276q14 -4 18 -11.5t4 -25.5v-129q0 -25 -22 -31l-834 -276q-8 -4 -16 -4q-12 0 -19 20l-35 123q0 2 -1 7t-1 9z" />
<glyph unicode="?" horiz-adv-x="909" d="M45 1317q0 39 136 80t245 41q184 0 292.5 -106.5t108.5 -276.5q0 -76 -24.5 -137.5t-55 -97.5t-85 -67.5t-84 -43t-82.5 -29.5v-139q0 -29 -8.5 -36t-34.5 -7h-150q-29 0 -36 7t-7 36v256q0 14 7 24t23.5 18.5t32 13.5t42 12t41.5 14q68 25 106.5 63.5t38.5 114.5 q0 145 -170 145q-55 0 -114.5 -17.5t-97.5 -33.5t-44 -16q-16 0 -25 20l-51 139q-4 13 -4 23zM211 137q0 74 50 124t124 50q72 0 122 -51t50 -123q0 -70 -51 -121t-121 -51q-74 0 -124 51t-50 121z" />
<glyph unicode="@" horiz-adv-x="2048" d="M176 399q0 414 284.5 691.5t694.5 277.5q336 0 527.5 -171t191.5 -454q0 -287 -173 -458.5t-396 -171.5q-53 0 -90 13t-56.5 37.5t-28 44t-14.5 46.5q-104 -141 -239 -141q-90 0 -140.5 63.5t-50.5 185.5q0 213 110.5 373t262.5 160q90 0 160 -70l10 23q8 20 33 20h135 q25 0 24 -20q0 -4 -1 -11.5t-1 -9.5l-92 -436q-6 -27 -6 -53q0 -57 72 -57q111 0 204 122.5t93 329.5q0 215 -142.5 348t-402.5 133q-344 0 -564.5 -233t-220.5 -588q0 -281 165 -434.5t464 -153.5q174 0 321.5 38t225.5 75t84 37q12 0 20 -16l33 -84l2 -11q4 -8 4 -14 q0 -25 -89 -65.5t-255 -76.5t-340 -36q-393 0 -606 195.5t-213 551.5zM907 356q0 -76 56 -75q66 0 105.5 55t55.5 131l50 229q-45 45 -99 45q-78 0 -123 -127t-45 -258z" />
<glyph unicode="A" horiz-adv-x="1290" d="M31 43v111q0 27 8 35t35 8h61l359 1173q6 23 13 28t32 5h213q25 0 32 -5t13 -28l350 -1173h70q27 0 35 -8.5t8 -34.5v-111q0 -27 -8.5 -35t-34.5 -8h-426q-27 0 -35 8t-8 35v111q0 27 8 35t35 8h65l-47 178h-352l-45 -178h67q27 0 35 -8.5t8 -34.5v-111q0 -27 -8 -35 t-35 -8h-405q-27 0 -35 8t-8 35zM487 559h271l-84 352q-18 68 -45 287h-4q-14 -160 -47 -287z" />
<glyph unicode="B" horiz-adv-x="1214" d="M82 43v111q0 27 8 35t35 8h104v1009h-104q-27 0 -35 8.5t-8 34.5v111q0 27 8 35t35 8h467q92 0 161.5 -11.5t148.5 -44t123 -109.5t44 -194q0 -72 -19.5 -127t-58.5 -90.5t-63.5 -53t-67.5 -38.5q256 -72 256 -338q0 -98 -28.5 -171.5t-73.5 -115.5t-114 -68t-136.5 -34 t-155.5 -8h-483q-27 0 -35 8t-8 35zM506 215h74q125 0 192.5 40t67.5 159q0 117 -66.5 155.5t-189.5 38.5h-78v-393zM506 823h63q104 0 164 41t60 152q0 172 -201 172h-86v-365z" />
<glyph unicode="C" horiz-adv-x="1062" d="M80 690q0 358 139 553t412 195q117 0 230.5 -41t113.5 -94v-275q0 -20 -7 -27.5t-28 -7.5h-152q-23 0 -28.5 7.5t-5.5 27.5v170q-53 18 -109 19q-145 0 -209.5 -106.5t-64.5 -367.5q0 -113 7 -193.5t25.5 -152t50 -115.5t84 -70t124.5 -26q63 0 108 11v184q0 20 7 27.5 t28 7.5h151q20 0 27.5 -7.5t7.5 -27.5v-297q0 -47 -111.5 -83t-244.5 -36q-283 0 -419 178t-136 547z" />
<glyph unicode="D" horiz-adv-x="1251" d="M61 43v111q0 27 8.5 35t34.5 8h105v1009h-105q-27 0 -35 8.5t-8 34.5v111q0 27 8.5 35t36.5 8h469q156 0 260.5 -30t183.5 -104.5t115.5 -212.5t36.5 -347q0 -215 -40.5 -357.5t-124.5 -218.5t-186.5 -104.5t-250.5 -28.5h-465q-27 0 -35 8t-8 35zM485 221h78 q178 0 248 102.5t70 389.5q0 270 -71 369.5t-247 99.5h-78v-961z" />
<glyph unicode="E" horiz-adv-x="1099" d="M80 43v111q0 27 8 35t35 8h104v1009h-104q-27 0 -35 8.5t-8 34.5v111q0 27 8 35t35 8h819q27 0 35 -6t8 -29v-311q0 -27 -9 -35t-34 -8h-135q-27 0 -35 8t-8 35v125h-260v-338h348q29 0 36 -8.5t7 -34.5v-135q0 -27 -8 -35t-35 -8h-348v-402h260v144q0 27 7 35t36 8h135 q29 0 36 -7.5t7 -35.5v-322q0 -27 -7 -35t-34 -8h-821q-27 0 -35 8t-8 35z" />
<glyph unicode="F" horiz-adv-x="1024" d="M80 43v111q0 27 8 35t35 8h104v1009h-104q-27 0 -35 8.5t-8 34.5v111q0 27 8 35t35 8h819q27 0 35 -6t8 -29v-311q0 -27 -9 -35t-34 -8h-135q-27 0 -35 8t-8 35v125h-260v-338h348q29 0 36 -8.5t7 -34.5v-135q0 -27 -8 -35t-35 -8h-348v-426h135q27 0 35 -8.5t8 -34.5 v-111q0 -27 -8 -35t-35 -8h-516q-27 0 -35 8t-8 35z" />
<glyph unicode="G" horiz-adv-x="1251" d="M98 694q0 365 139.5 554.5t409.5 189.5q131 0 255 -41t124 -101v-264q0 -20 -7 -27.5t-28 -7.5h-151q-23 0 -29 6.5t-6 28.5v156q-90 29 -139 29q-150 0 -213.5 -130.5t-63.5 -377.5q0 -260 59.5 -391.5t215.5 -131.5q74 0 147 33v322h-154q-27 0 -35 8t-8 35v110 q0 27 8.5 35t34.5 8h500q27 0 35 -8t8 -35v-110q0 -27 -8 -35t-35 -8h-100v-416q0 -61 -137.5 -110.5t-272.5 -49.5q-549 0 -549 729z" />
<glyph unicode="H" horiz-adv-x="1402" d="M82 43v111q0 27 8 35t35 8h104v1009h-104q-27 0 -35 8.5t-8 34.5v111q0 27 8 35t35 8h479q27 0 35 -8.5t8 -34.5v-111q0 -27 -8 -35t-35 -8h-98v-370h391v370h-98q-27 0 -35 8.5t-8 34.5v111q0 27 8 35t35 8h479q27 0 35 -8.5t8 -34.5v-111q0 -27 -8 -35t-35 -8h-104 v-1009h104q27 0 35 -8.5t8 -34.5v-111q0 -27 -8 -35t-35 -8h-479q-27 0 -35 8t-8 35v111q0 27 8 35t35 8h98v417h-391v-417h98q27 0 35 -8.5t8 -34.5v-111q0 -27 -8 -35t-35 -8h-479q-27 0 -35 8t-8 35z" />
<glyph unicode="I" horiz-adv-x="757" d="M92 43v111q0 27 8.5 35t34.5 8h105v1009h-105q-27 0 -35 8.5t-8 34.5v111q0 27 8.5 35t34.5 8h486q27 0 35 -8.5t8 -34.5v-111q0 -27 -8.5 -35t-34.5 -8h-105v-1009h105q27 0 35 -8.5t8 -34.5v-111q0 -27 -8.5 -35t-34.5 -8h-486q-27 0 -35 8t-8 35z" />
<glyph unicode="J" horiz-adv-x="948" d="M31 387q0 27 18 27h203q25 0 24 -29v-17v-23q0 -7 1.5 -24.5t3.5 -26.5t7 -25.5t11 -27t15.5 -21.5t21.5 -18t28.5 -11.5t36.5 -4.5q33 0 55.5 11.5t35 27t17.5 47t6 54t1 67.5v813h-280q-27 0 -35 8.5t-8 34.5v111q0 27 8 35t35 8h514q27 0 35 -8.5t8 -34.5v-928 q0 -102 -16.5 -180t-57.5 -146.5t-122 -104.5t-198 -36q-111 0 -188.5 40t-114.5 108.5t-51 134t-14 139.5z" />
<glyph unicode="K" horiz-adv-x="1290" d="M80 43v111q0 27 8 35t35 8h104v1009h-104q-27 0 -35 8.5t-8 34.5v111q0 27 8 35t35 8h479q27 0 35 -8.5t8 -34.5v-111q0 -27 -8 -35t-35 -8h-98v-420h4l434 596q16 20 43 21h219q27 0 35 -8.5t8 -34.5v-111q0 -27 -8 -35t-35 -8h-88l-371 -487l422 -522h62q25 0 34 -8.5 t9 -34.5v-111q0 -27 -8.5 -35t-34.5 -8h-223q-23 0 -29 4t-23 27l-446 587h-4v-421h98q27 0 35 -8.5t8 -34.5v-111q0 -27 -8 -35t-35 -8h-479q-27 0 -35 8t-8 35z" />
<glyph unicode="L" horiz-adv-x="1099" d="M80 43v111q0 27 8 35t35 8h104v1009h-104q-27 0 -35 8.5t-8 34.5v111q0 27 8 35t35 8h491q27 0 35 -8.5t8 -34.5v-111q0 -27 -8 -35t-35 -8h-110v-985h299l37 158q8 37 24 37l31 -6l135 -29q37 -8 37 -27q0 -10 -4 -26l-66 -291q-4 -23 -13 -30t-32 -7h-829q-27 0 -35 8 t-8 35z" />
<glyph unicode="M" horiz-adv-x="1554" d="M78 43v111q0 27 8 35t35 8h94l43 1009h-98q-27 0 -35 8.5t-8 34.5v111q0 27 8 35t35 8h346q23 0 30 -5t15 -28l166 -516q39 -123 57 -246h4q18 123 58 246l165 516q8 23 15.5 28t30.5 5h346q27 0 35 -8.5t8 -34.5v-111q0 -27 -8.5 -35t-34.5 -8h-99l43 -1009h95 q27 0 35 -8.5t8 -34.5v-111q0 -27 -8.5 -35t-34.5 -8h-420q-27 0 -35 8t-8 35v111q0 27 8 35t35 8h90l-15 540q0 37 -2 164t-2 164h-4q-33 -190 -71 -322l-119 -399q-6 -23 -13.5 -29t-31.5 -6h-135q-25 0 -32 6.5t-13 28.5l-119 399q-39 131 -72 322h-4q0 -37 -2 -164 t-2 -164l-14 -540h90q27 0 35 -8.5t8 -34.5v-111q0 -27 -8.5 -35t-34.5 -8h-420q-27 0 -35 8t-8 35z" />
<glyph unicode="N" horiz-adv-x="1366" d="M82 43v111q0 27 8 35t35 8h104v1009h-104q-27 0 -35 8.5t-8 34.5v111q0 27 8 35t35 8h315q23 0 30 -4t17 -23l340 -635q80 -154 123 -297h4q0 33 -4 133.5t-4 133.5v495h-102q-27 0 -35 8.5t-8 34.5v111q0 27 8 35t35 8h442q27 0 35 -8.5t8 -34.5v-111q0 -27 -8 -35 t-35 -8h-104v-1163q0 -27 -7.5 -35t-35.5 -8h-135q-33 0 -48 29l-376 698q-72 131 -121 279h-4q0 -31 5 -103t5 -123v-583h102q27 0 35 -8.5t8 -34.5v-111q0 -27 -8 -35t-35 -8h-442q-27 0 -35 8t-8 35z" />
<glyph unicode="O" horiz-adv-x="1214" d="M96 700q0 367 134.5 552.5t376 185.5t375.5 -186.5t134 -551t-133 -550t-377 -185.5t-377 185t-133 550zM387 700q0 -520 219 -520t219 520q0 522 -219 522t-219 -522z" />
<glyph unicode="P" d="M82 43v111q0 27 8 35t35 8h104v1009h-104q-27 0 -35 8.5t-8 34.5v111q0 27 8 35t35 8h479q43 0 68.5 -1t75 -5t81 -14.5t75.5 -28t72 -46t54.5 -67.5t38.5 -96.5t12 -126.5q0 -121 -42 -213t-111.5 -143.5t-148.5 -76t-165 -24.5h-108v-364h135q27 0 35 -8.5t8 -34.5 v-111q0 -27 -8 -35t-35 -8h-516q-27 0 -35 8t-8 35zM506 776h63q53 0 89 7.5t73 29t55.5 69.5t18.5 122q0 51 -13.5 86.5t-31 54t-50 29t-57 12.5t-63.5 2h-84v-412z" />
<glyph unicode="Q" horiz-adv-x="1214" d="M96 700q0 367 134.5 552.5t376 185.5t375.5 -186.5t134 -551.5q0 -399 -149 -569q16 -14 72.5 -54t96.5 -73t40 -43q0 -6 -9 -14l-157 -113q-8 -4 -19 -4q-59 0 -211 164q-41 -16 -80 -23q-45 -6 -94 -6q-244 0 -377 185t-133 550zM387 700q0 -520 219 -520t219 520 q0 522 -219 522t-219 -522z" />
<glyph unicode="R" horiz-adv-x="1251" d="M84 43v111q0 27 8 35t35 8h104v1009h-104q-27 0 -35 8.5t-8 34.5v111q0 27 8 35t35 8h479q53 0 91 -3t100.5 -13.5t107.5 -37t88 -67.5t66.5 -111.5t23.5 -162.5q0 -76 -18 -138.5t-39.5 -98.5t-61.5 -68.5t-58.5 -44t-55.5 -29.5l248 -432h94q27 0 35 -8.5t8 -34.5v-111 q0 -27 -8 -35t-35 -8h-262q-25 0 -31 4t-16 25l-277 551h-98v-383h96q27 0 35 -8.5t8 -34.5v-111q0 -27 -8 -35t-35 -8h-477q-27 0 -35 8t-8 35zM508 795h53q57 0 95 6t76 26.5t56.5 64.5t18.5 112q0 63 -18.5 103t-55.5 56.5t-67.5 20.5t-81.5 4h-76v-393z" />
<glyph unicode="S" horiz-adv-x="1024" d="M96 104v310q0 20 7.5 27.5t27.5 7.5h152q20 0 27 -7.5t7 -27.5v-187q123 -41 193 -41q184 0 184 189q0 63 -39 111.5t-88 72t-140 65.5t-151 78q-88 53 -133 125t-45 193q0 209 128 313.5t323 104.5q121 0 243.5 -39t122.5 -96v-277q0 -20 -7 -27.5t-27 -7.5h-152 q-20 0 -27.5 6.5t-7.5 28.5v164q-74 27 -137 27q-82 0 -137 -38t-55 -122q0 -70 60 -116t178 -100.5t181 -101.5q176 -131 177 -342q0 -195 -124 -313.5t-319 -118.5q-137 0 -279.5 39t-142.5 100z" />
<glyph unicode="T" horiz-adv-x="1062" d="M59 985v383q0 20 7.5 27.5t27.5 7.5h887q20 0 27.5 -7t7.5 -28v-383q0 -20 -7.5 -27.5t-27.5 -7.5h-121q-20 0 -27.5 6.5t-7.5 28.5v197h-149v-985h135q27 0 35 -8.5t8 -34.5v-111q0 -27 -8 -35t-35 -8h-547q-27 0 -35 8t-8 35v111q0 27 8.5 35t34.5 8h135v985h-149v-197 q0 -20 -7 -27.5t-28 -7.5h-121q-20 0 -27.5 6t-7.5 29z" />
<glyph unicode="U" horiz-adv-x="1402" d="M61 1249v111q0 27 8.5 35t34.5 8h484q27 0 35 -8.5t8 -34.5v-111q0 -27 -8.5 -35t-34.5 -8h-103v-731q0 -68 5.5 -109.5t25 -88t66.5 -69t120.5 -22.5t120.5 22.5t66.5 69t25 88.5t5.5 109v731h-103q-27 0 -35 8.5t-8 34.5v111q0 27 8.5 35t34.5 8h483q27 0 35 -8.5 t8 -34.5v-111q0 -27 -8 -35t-35 -8h-104v-731q0 -248 -109.5 -379t-384 -131t-384 131t-109.5 379v731h-105q-27 0 -35 8t-8 35z" />
<glyph unicode="V" horiz-adv-x="1251" d="M16 1241v127q0 20 6.5 27.5t28.5 7.5h299q20 0 26.5 -4t10.5 -25l180 -817q25 -117 51 -313h5q18 141 61 313l201 817q4 20 10 24.5t27 4.5h278q20 0 27.5 -7t7.5 -28v-127q0 -20 -7 -27.5t-28 -7.5h-80l-338 -1206q-6 -23 -13 -29t-32 -6h-233q-25 0 -32 6t-13 29 l-328 1206h-80q-23 0 -29 7.5t-6 27.5z" />
<glyph unicode="W" horiz-adv-x="1744" d="M35 1241v127q0 20 7 27.5t28 7.5h268q20 0 26.5 -5t10.5 -26l123 -655q27 -141 45 -387h4q20 197 65 387l146 643q0 2 2 8t2 8t2 6t3 5.5t4 5.5t6 4t7 2t10.5 2t13.5 1t15 1h138q27 0 32.5 -6t10.5 -29q2 -6 2 -8l143 -643q33 -150 57 -387h4q18 225 47 387l123 655 q4 20 10.5 25.5t26.5 5.5h258q20 0 27.5 -7t7.5 -28v-127q0 -20 -7 -27.5t-28 -7.5h-76l-274 -1204q-6 -23 -14 -30t-31 -7h-176q-27 0 -34 6t-11 31l-135 705q-33 164 -47 354h-5q-14 -205 -51 -354l-166 -705q-4 -25 -11 -31t-34 -6h-176q-23 0 -31 7.5t-14 29.5 l-244 1204h-75q-20 0 -27.5 7.5t-7.5 27.5z" />
<glyph unicode="X" horiz-adv-x="1251" d="M23 35v127q0 23 7 29t27 6h109l311 546l-274 463h-113q-20 0 -27.5 7.5t-7.5 27.5v127q0 20 7.5 27.5t27.5 7.5h283q20 0 27.5 -4t17.5 -25l145 -280q16 -31 58 -160h4q29 102 57 160l145 280q10 20 17.5 24.5t27.5 4.5h283q20 0 27.5 -7t7.5 -28v-127q0 -20 -7 -27.5 t-28 -7.5h-113l-274 -463l311 -546h109q20 0 27.5 -6.5t7.5 -28.5v-127q0 -23 -7.5 -29t-27.5 -6h-277q-23 0 -30 5t-17 24l-182 340q-41 76 -57 143h-4q-12 -57 -58 -143l-182 -340q-6 -10 -8 -14.5t-7.5 -8.5t-12.5 -5t-19 -1h-277q-20 0 -27 6t-7 29z" />
<glyph unicode="Y" d="M27 1241v127q0 20 7 27.5t27 7.5h234q25 0 30 -4t15 -25l160 -330q61 -125 82 -233h4q33 133 82 233l159 330q10 20 15.5 24.5t29.5 4.5h224q23 0 28.5 -7t5.5 -28v-127q0 -20 -6 -27.5t-28 -7.5h-66l-313 -631v-378h139q27 0 35 -8.5t8 -34.5v-111q0 -27 -8 -35t-35 -8 h-555q-27 0 -35 8t-8 35v111q0 27 8 35t35 8h139v378l-325 631h-54q-20 0 -27 7.5t-7 27.5z" />
<glyph unicode="Z" horiz-adv-x="1062" d="M90 35v170l572 977h-330v-164q0 -20 -7.5 -27.5t-27.5 -7.5h-152q-23 0 -28.5 6t-5.5 29v350q0 23 6 29t28 6h758q27 0 35 -7t8 -34v-184l-563 -957h367l36 164q4 31 25 31l23 -4l149 -33q29 -6 29 -25q0 -4 -2 -12t-2 -12l-66 -293q-6 -27 -12 -32t-33 -5h-772 q-23 0 -29 6t-6 29z" />
<glyph unicode="[" horiz-adv-x="909" d="M307 -371v1796q0 29 8.5 36t34.5 7h400q29 0 36 -7t7 -36v-129q0 -27 -7.5 -35t-35.5 -8h-183v-1452h183q29 0 36 -7t7 -36v-129q0 -27 -7.5 -35t-35.5 -8h-400q-27 0 -35 8t-8 35z" />
<glyph unicode="\" horiz-adv-x="909" d="M80 1458q0 25 37 25h121q43 0 55 -37l668 -1825q6 -18 6 -31q0 -25 -41 -24h-119q-41 0 -55 39l-666 1820q-6 19 -6 33z" />
<glyph unicode="]" horiz-adv-x="909" d="M117 -242q0 29 7 36t36 7h182v1452h-182q-29 0 -36 8.5t-7 34.5v129q0 29 7 36t36 7h399q27 0 35 -7t8 -36v-1796q0 -27 -8 -35t-35 -8h-399q-29 0 -36 8.5t-7 34.5v129z" />
<glyph unicode="^" d="M190 707q0 2 5.5 12t5.5 12l268 653q8 18 33 19h135q25 0 33 -19l268 -653q0 -2 5 -12t5 -12q0 -14 -20 -19l-123 -26q-6 -2 -17 -3q-20 0 -26 15l-193 485l-192 -485q-6 -14 -27 -15q-10 0 -16 3l-123 26q-21 5 -21 19z" />
<glyph unicode="_" horiz-adv-x="1024" d="M0 -154h1024v-102h-1024v102z" />
<glyph unicode="`" horiz-adv-x="686" d="M41 1333q0 8 10 29l64 125q16 29 28 29q4 0 29 -13l334 -196q27 -16 26 -29q0 -8 -10 -29l-33 -65q-14 -29 -26 -29q-8 0 -29 8l-360 144q-33 12 -33 26z" />
<glyph unicode="a" horiz-adv-x="1024" d="M82 281q0 82 26.5 145t78 99t100.5 58.5t121.5 31t110.5 10.5t97 2v63q0 78 -27.5 115t-117.5 37q-68 0 -160 -31t-94 -31q-16 0 -20 21l-41 125q0 2 -2 7t-3 9t-1 8q0 35 119.5 66t240.5 31q186 0 269 -82t83 -248v-355q0 -90 21 -172h88q16 0 22 -6t6 -22v-133 q0 -16 -5 -22.5t-23 -6.5h-256q-10 0 -18.5 2t-14.5 9t-9 11.5t-7 15.5t-5.5 16t-4.5 17.5t-3 16.5q-37 -37 -55 -53.5t-78.5 -43t-130.5 -26.5q-141 0 -224 85.5t-83 230.5zM328 295q0 -59 39 -99t96 -40q76 0 153 77v226h-20h-30q-9 0 -33.5 -1t-40 -4t-39 -9.5t-39 -14.5 t-34 -20.5t-28.5 -28.5t-17 -37.5t-7 -48.5z" />
<glyph unicode="b" horiz-adv-x="1099" d="M12 1307v133q0 16 5.5 22t23.5 6h334q18 0 23 -6t5 -22v-484q133 90 252 91q100 0 173 -42t112 -116t56.5 -161t17.5 -193q0 -264 -110.5 -417t-313.5 -153q-25 0 -47.5 3t-38 6t-32.5 11.5t-27.5 12.5t-23.5 14.5t-18.5 14.5t-17.5 15t-14 13q-33 -90 -60 -90 q-12 0 -28 4l-164 41q-20 4 -21 17q0 6 14.5 36.5t22.5 69.5q8 41 8 127v1018h-102q-18 0 -23.5 6.5t-5.5 22.5zM403 213q59 -43 127 -43q223 0 224 350q0 322 -185 322q-20 0 -39.5 -4t-33 -8.5t-30.5 -14.5t-23.5 -14t-22.5 -17l-17 -12v-559z" />
<glyph unicode="c" horiz-adv-x="872" d="M82 485q0 262 127 412t356 150q86 0 169 -25t83 -64v-276q0 -18 -6 -23.5t-23 -5.5h-147q-16 0 -22.5 5.5t-6.5 23.5v152q-23 8 -49 8q-106 0 -155.5 -82t-49.5 -260q0 -174 48.5 -252t162.5 -78q61 0 121 23l60 22q8 0 14 -10l53 -135q6 -18 6 -21q0 -31 -95 -57.5 t-191 -26.5q-217 0 -336 132t-119 388z" />
<glyph unicode="d" d="M86 465q0 289 100.5 435.5t292.5 146.5q109 0 209 -62v293h-104q-18 0 -23.5 6t-5.5 23v133q0 16 5 22t24 6h336q18 0 23 -6t5 -22v-1078q0 -106 21 -172h90q18 0 23 -6t5 -22v-133q0 -16 -5 -22.5t-23 -6.5h-275q-14 0 -21 1t-12.5 8t-7.5 12.5t-8 23.5l-10 31 q-139 -111 -289 -111q-172 0 -261 131t-89 369zM346 500q0 -178 37 -254t135 -76t170 72v559q-82 41 -158 41q-109 0 -146.5 -80t-37.5 -262z" />
<glyph unicode="e" horiz-adv-x="1024" d="M94 496q0 246 122 398.5t327 152.5q410 0 409 -560q0 -31 -9 -41t-38 -10h-551q0 -256 226 -256q66 0 123 16.5t92.5 34t44.5 17.5q14 0 22 -17l51 -122q6 -18 7 -23q0 -41 -123 -81t-244 -40q-213 0 -336 130.5t-123 400.5zM354 627h322q0 229 -148 229 q-152 0 -174 -219v-10z" />
<glyph unicode="f" horiz-adv-x="796" d="M66 864v105q0 27 8 35t35 8h145v84q0 387 328 387q78 0 163.5 -22.5t85.5 -51.5q0 -6 -4 -18l-36 -144q-4 -20 -19 -20q-4 0 -51 17.5t-92 17.5q-53 0 -79 -24t-31 -53.5t-5 -88.5v-84h234q35 0 34 -21q0 -4 -4 -20l-28 -121q-6 -29 -39 -29h-197v-631h139q27 0 35 -8 t8 -35v-104q0 -27 -8 -35t-35 -8h-524q-27 0 -35 8t-8 35v104q0 27 8 35t35 8h125v631h-145q-27 0 -35 8t-8 35z" />
<glyph unicode="g" horiz-adv-x="1062" d="M86 512q0 248 102.5 391.5t284.5 143.5q27 0 51.5 -3.5t42 -7.5t38 -12t30.5 -13t26.5 -16.5t21.5 -15.5t19 -16l15 -13q8 25 30.5 61t40.5 36q8 0 21 -5l160 -59q18 -8 18 -18q0 -8 -14.5 -41t-28.5 -91.5t-14 -130.5v-305q0 -70 5 -237.5t5 -222.5q0 -371 -395 -371 q-121 0 -272.5 38t-151.5 70q0 16 8 41l39 125q6 20 22 21q6 0 52.5 -20.5t123 -40t156.5 -19.5q102 0 135 40t33 134q0 31 -1 61.5t-3 50t-2 23.5q-117 -78 -248 -78q-170 0 -260 133.5t-90 366.5zM346 520q0 -303 164 -303q96 0 174 70v483q-80 61 -162 61 q-176 0 -176 -311z" />
<glyph unicode="h" horiz-adv-x="1214" d="M68 29v133q0 16 5 22t23 6h105v1088h-103q-18 0 -23 6t-5 23v133q0 16 5 22t23 6h334q18 0 23.5 -6t5.5 -22v-510q43 35 67.5 52t87 41t129.5 24q152 0 209.5 -86.5t57.5 -237.5v-533h104q18 0 23.5 -6t5.5 -22v-133q0 -16 -5 -22.5t-24 -6.5h-336q-18 0 -23 6t-5 23v630 q0 172 -115 172q-84 0 -176 -86v-555h104q18 0 23.5 -6t5.5 -22v-133q0 -16 -5 -22.5t-24 -6.5h-469q-18 0 -23 6.5t-5 22.5z" />
<glyph unicode="i" horiz-adv-x="681" d="M59 850v133q0 16 5.5 22.5t23.5 6.5h365q18 0 23 -6.5t5 -22.5v-793h131q18 0 23.5 -6t5.5 -22v-133q0 -16 -5 -22.5t-24 -6.5h-522q-18 0 -23.5 6t-5.5 23v133q0 16 5.5 22t23.5 6h131v631h-133q-18 0 -23.5 6.5t-5.5 22.5zM180 1314.5q0 69.5 49.5 119t120.5 49.5 q70 0 119 -49.5t49 -119t-49 -119.5t-119 -50q-72 0 -121 50t-49 119.5z" />
<glyph unicode="j" horiz-adv-x="606" d="M-106 -424q0 8 4 21l45 153q4 12 16 12l47 -14q47 -14 84 -14q41 0 66.5 17.5t36 58t13.5 77.5t3 105v829h-160q-18 0 -23.5 6.5t-5.5 22.5v133q0 16 5.5 22.5t23.5 6.5h391q18 0 23.5 -6.5t5.5 -22.5v-995q0 -242 -70.5 -355.5t-279.5 -113.5q-82 0 -153.5 17t-71.5 40z M166 1314.5q0 69.5 49 119t121 49.5q70 0 119 -49.5t49 -119t-49 -119.5t-119 -50t-120 50t-50 119.5z" />
<glyph unicode="k" horiz-adv-x="1175" d="M68 29v133q0 16 5 22t23 6h105v1088h-103q-18 0 -23 6t-5 23v133q0 16 5 22t23 6h334q18 0 23.5 -6t5.5 -22v-832l256 209v4h-84q-18 0 -23.5 6.5t-5.5 22.5v133q0 16 5 22.5t24 6.5h452q18 0 23.5 -6.5t5.5 -22.5v-133q0 -16 -5 -22.5t-24 -6.5h-106l-289 -246l320 -385 h100q18 0 23.5 -6t5.5 -22v-133q0 -16 -5.5 -22.5t-23.5 -6.5h-254q-25 0 -39 20l-352 480h-4v-310h104q18 0 23.5 -6t5.5 -22v-133q0 -16 -5 -22.5t-24 -6.5h-469q-18 0 -23 6.5t-5 22.5z" />
<glyph unicode="l" horiz-adv-x="606" d="M16 1307v133q0 16 5.5 22t23.5 6h334q18 0 23.5 -6t5.5 -22v-1116q0 -43 2 -63.5t15 -40t40 -19.5q25 0 51.5 9t28.5 9q12 0 16 -12l41 -168q4 -8 4 -16q0 -20 -66.5 -39t-140.5 -19q-61 0 -106 14.5t-71.5 48t-42 63.5t-22.5 85t-8.5 88t-1.5 96v918h-102 q-18 0 -23.5 6.5t-5.5 22.5z" />
<glyph unicode="m" horiz-adv-x="1705" d="M74 850v133q0 16 5 22.5t23 6.5h285q10 0 18.5 -3t14.5 -10.5t10 -13.5t8 -19.5t5 -19.5t4.5 -21.5t5.5 -19.5q53 45 76.5 64.5t93 48.5t143.5 29q70 0 130 -40t79 -102q2 0 19.5 16.5t21.5 19.5t22.5 17.5t26.5 19.5t27.5 17.5t33 17.5t34 13t39 11t42 6.5t47.5 3.5 q133 0 185.5 -86.5t52.5 -237.5v-533h104q18 0 23.5 -6t5.5 -22v-133q0 -16 -5 -22.5t-24 -6.5h-336q-18 0 -23 6t-5 23v630q0 172 -86 172t-176 -83v-558h104q18 0 23.5 -6t5.5 -22v-133q0 -16 -5.5 -22.5t-23.5 -6.5h-336q-18 0 -23.5 6t-5.5 23v630q0 172 -86 172 t-176 -83v-558h105q18 0 23 -6t5 -22v-133q0 -16 -5 -22.5t-23 -6.5h-469q-18 0 -23.5 6t-5.5 23v133q0 16 5 22t24 6h104v457q0 102 -20 174h-99q-28 0 -28 29z" />
<glyph unicode="n" horiz-adv-x="1214" d="M74 850v133q0 16 5 22.5t23 6.5h285q16 0 28.5 -11.5t16.5 -23.5t11.5 -38t9.5 -34q53 45 76.5 64.5t93 48.5t143.5 29q152 0 209 -86.5t57 -237.5v-533h105q18 0 23 -6t5 -22v-133q0 -16 -5 -22.5t-23 -6.5h-336q-18 0 -23.5 6t-5.5 23v630q0 172 -115 172 q-86 0 -176 -83v-558h105q18 0 23 -6t5 -22v-133q0 -16 -5 -22.5t-23 -6.5h-469q-18 0 -23.5 6t-5.5 23v133q0 16 5 22t24 6h104v457q0 102 -20 174h-99q-28 0 -28 29z" />
<glyph unicode="o" horiz-adv-x="1062" d="M86 506q0 248 119 394.5t325 146.5q205 0 325 -146.5t120 -394.5t-119 -394.5t-325.5 -146.5t-325.5 146.5t-119 394.5zM362 506q0 -164 35 -250t133.5 -86t133 85t34.5 251q0 162 -34.5 249t-133 87t-133.5 -87t-35 -249z" />
<glyph unicode="p" d="M55 850v133q0 16 5.5 22.5t23.5 6.5h285q12 0 20 -3t14.5 -11.5t8.5 -13.5t6 -20.5t6 -21.5q2 2 21.5 16.5t28.5 19.5t31.5 18.5t40 19.5t42 15t52.5 12.5t56 3.5q172 0 263.5 -133.5t91.5 -389.5q0 -559 -377 -559q-111 0 -213 53v-241h104q18 0 23.5 -6.5t5.5 -22.5 v-133q0 -16 -5 -22.5t-24 -6.5h-469q-18 0 -23 6.5t-5 22.5v133q0 16 5 22.5t23 6.5h105v866q0 156 -21 178h-96q-18 0 -23.5 6.5t-5.5 22.5zM461 209q70 -39 149 -39q104 0 142.5 78t38.5 266q0 166 -37 247t-129 81q-80 0 -164 -78v-555z" />
<glyph unicode="q" horiz-adv-x="1062" d="M88 524q0 256 91 389.5t263 133.5q76 0 137.5 -21.5t81 -37t54.5 -46.5q2 18 28.5 61.5t47.5 43.5l30 -7l152 -51q25 -10 24 -24q0 -4 -15 -34t-29.5 -103.5t-14.5 -184.5v-866h104q18 0 23.5 -6.5t5.5 -22.5v-133q0 -16 -5 -22.5t-24 -6.5h-469q-18 0 -23 6.5t-5 22.5 v133q0 16 5 22.5t23 6.5h105v241q-102 -53 -213 -53q-377 0 -377 559zM348 514q0 -188 38 -266t142 -78q80 0 150 39v555q-74 68 -164 67q-92 0 -129 -78.5t-37 -238.5z" />
<glyph unicode="r" horiz-adv-x="833" d="M86 850v133q0 16 5 22.5t24 6.5h266q14 0 26.5 -7.5t19.5 -23.5t11 -27.5t10.5 -37t8.5 -31.5q2 2 18.5 23.5t24.5 29.5l28 29q20 20 37 31.5t40.5 23.5t50 18.5t55.5 6.5q45 0 81.5 -13.5t36.5 -34.5q0 -12 -4 -20l-63 -172q-6 -18 -17 -19q-2 0 -34.5 11.5t-61.5 11.5 q-63 0 -155 -98v-523h110q18 0 23.5 -6t5.5 -22v-133q0 -16 -5 -22.5t-24 -6.5h-475q-18 0 -23.5 6t-5.5 23v133q0 16 5.5 22t23.5 6h104v457q0 88 -20 174h-98q-18 0 -23.5 6.5t-5.5 22.5z" />
<glyph unicode="s" horiz-adv-x="872" d="M88 84v223q0 16 6 22.5t23 6.5h139q18 0 23.5 -7t5.5 -30v-100q80 -29 145 -29q125 0 125 102q0 53 -51 84t-143.5 62t-141.5 63q-121 80 -121 232q0 143 100.5 238.5t262.5 95.5q96 0 189 -25t93 -70v-211q0 -16 -5 -22t-21 -6h-142q-16 0 -22 6t-6 22v103q-74 6 -78 6 q-135 0 -135 -102q0 -51 47 -79t137 -57.5t146 -66.5q137 -92 137 -250q0 -143 -95.5 -236.5t-254.5 -93.5q-106 0 -234.5 36t-128.5 83z" />
<glyph unicode="t" horiz-adv-x="757" d="M10 850v133q0 16 5 22.5t24 6.5h145v258q0 20 6.5 27.5t26.5 9.5l180 24q2 0 11.5 1t15.5 1q20 0 20 -35v-286h234q37 0 37 -21q0 -4 -4 -20l-29 -121q-6 -29 -39 -29h-199v-495q0 -43 2.5 -63.5t18.5 -41t49 -20.5q47 0 100.5 19.5t61.5 19.5q12 0 16 -13l41 -168 q4 -12 4 -18q0 -27 -92 -51.5t-196 -24.5q-49 0 -87 8.5t-66 27.5t-47.5 38.5t-31.5 53.5t-19.5 58.5t-9.5 68.5t-3 68.5t-1 71.5v461h-145q-18 0 -23.5 6.5t-5.5 22.5z" />
<glyph unicode="u" horiz-adv-x="1175" d="M45 850v133q0 16 5 22.5t24 6.5h336q18 0 23 -6.5t5 -22.5v-631q0 -182 115 -182q86 0 176 84v567h-104q-18 0 -23.5 6.5t-5.5 22.5v133q0 16 5 22.5t24 6.5h336q18 0 23 -6.5t5 -22.5v-618q0 -102 21 -175h86q29 0 28 -28v-133q0 -16 -5 -22.5t-23 -6.5h-273 q-14 0 -24.5 5t-16.5 16.5t-9 20.5t-8 27.5t-7 26.5q-6 -6 -29.5 -27.5t-35 -30.5t-40 -26.5t-54.5 -24.5t-66.5 -14.5t-88.5 -7.5q-152 0 -209 86t-57 238v532h-104q-18 0 -23.5 6.5t-5.5 22.5z" />
<glyph unicode="v" horiz-adv-x="1024" d="M4 850v133q0 16 5 22.5t24 6.5h256q27 0 37 -29l127 -455q37 -127 65 -297h4q27 154 70 297l139 455q10 29 37 29h225q18 0 23.5 -6.5t5.5 -22.5v-133q0 -16 -5 -22.5t-24 -6.5h-69l-291 -829q-6 -18 -12.5 -22.5t-26.5 -4.5h-168q-20 0 -26.5 4t-12.5 23l-287 829h-67 q-18 0 -23.5 6.5t-5.5 22.5z" />
<glyph unicode="w" horiz-adv-x="1478" d="M39 850v133q0 16 5 22.5t24 6.5h245q18 0 25.5 -6.5t11.5 -24.5l90 -434q23 -102 45 -346h4q4 133 39 319l95 459q4 23 10 28t29 5h182q23 0 29 -5.5t10 -27.5l90 -459q35 -180 39 -319h4q23 250 45 346l100 434q4 18 11.5 24.5t25.5 6.5h225q18 0 23.5 -6.5t5.5 -22.5 v-133q0 -16 -5 -22.5t-24 -6.5h-65l-248 -827q-6 -20 -12 -24.5t-27 -4.5h-160q-31 0 -37 33l-100 537q-16 88 -26 229h-5q-4 -53 -36 -229l-123 -537q-6 -33 -37 -33h-160q-20 0 -26.5 4t-12.5 25l-215 827h-65q-18 0 -23.5 6.5t-5.5 22.5z" />
<glyph unicode="x" horiz-adv-x="1062" d="M47 29v133q0 16 5 22t24 6h78l223 320l-223 311h-70q-18 0 -23.5 6.5t-5.5 22.5v133q0 16 5.5 22.5t23.5 6.5h201q29 0 45 -25l119 -172q33 -47 79 -127q27 47 80 127l119 172q16 25 45 25h201q18 0 23 -6.5t5 -22.5v-133q0 -16 -5 -22.5t-23 -6.5h-70l-223 -311 l223 -320h78q18 0 23.5 -6t5.5 -22v-133q0 -16 -5.5 -22.5t-23.5 -6.5h-207q-31 0 -45 25l-121 182q-14 20 -42.5 67.5t-37.5 57.5q-8 -10 -36.5 -57.5t-42.5 -67.5l-121 -182q-14 -25 -45 -25h-207q-18 0 -23.5 6.5t-5.5 22.5z" />
<glyph unicode="y" horiz-adv-x="1062" d="M27 850v133q0 16 5 22.5t23 6.5h258q14 0 21.5 -3t9.5 -8.5t6 -19.5l131 -487q45 -170 78 -355h4q14 119 68 355l110 487q4 20 10.5 25.5t26.5 5.5h248q16 0 22.5 -5.5t6.5 -23.5v-133q0 -16 -5.5 -22.5t-23.5 -6.5h-72l-166 -608q-76 -307 -137 -455q-76 -193 -301 -192 q-84 0 -181 32.5t-97 61.5q0 8 8 25l61 133q6 14 19 14q2 0 61.5 -25.5t112.5 -25.5q74 0 107.5 37t56.5 114l20 68h-86q-29 0 -37 27l-274 794h-66q-18 0 -23 6.5t-5 22.5z" />
<glyph unicode="z" horiz-adv-x="948" d="M82 20v154l473 623h-225v-82q0 -27 -15 -27h-176q-14 0 -14 27v268q0 29 29 29h649q35 0 35 -21v-160l-463 -616h297l45 109q6 16 18 16q10 0 25 -6l127 -55q20 -8 20 -21q0 -6 -4 -14l-4 -8l-88 -209q-12 -27 -27 -27h-682q-20 0 -20 20z" />
<glyph unicode="{" horiz-adv-x="909" d="M131 459v135q0 27 7 35t34 8h37q74 0 106.5 35t32.5 112v308q0 201 104.5 288.5t305.5 87.5q23 0 30 -9t7 -34v-131q0 -25 -7.5 -33t-33.5 -8q-33 0 -51.5 -3t-44 -15t-38 -44t-12.5 -81v-336q0 -106 -34.5 -157.5t-114.5 -88.5q80 -39 114.5 -90t34.5 -159v-334 q0 -49 12.5 -81t38 -44.5t44 -15.5t51.5 -3q27 0 34 -8t7 -33v-131q0 -25 -7.5 -34t-29.5 -9q-201 0 -305.5 88t-104.5 289v305q0 78 -32.5 113t-106.5 35h-37q-27 0 -34 8t-7 35z" />
<glyph unicode="|" horiz-adv-x="819" d="M307 -477v1978q0 23 6 29t29 6h135q23 0 29 -6t6 -29v-1978q0 -23 -6 -29t-29 -6h-135q-23 0 -29 6t-6 29z" />
<glyph unicode="}" horiz-adv-x="909" d="M115 -240q0 25 7 33t34 8q33 0 51 3t43.5 15.5t38 44.5t12.5 81v334q0 109 35 159.5t115 89.5q-80 37 -115 88.5t-35 157.5v336q0 49 -12.5 81t-38 44t-44 15t-50.5 3q-27 0 -34 8.5t-7 32.5v131q0 25 7 34t30 9q201 0 305 -88t104 -288v-308q0 -78 33 -112.5t106 -34.5 h37q27 0 34 -8t7 -35v-135q0 -27 -7 -35t-34 -8h-37q-74 0 -106.5 -35t-32.5 -113v-305q0 -201 -104.5 -289t-304.5 -88q-23 0 -30 9.5t-7 33.5v131z" />
<glyph unicode="~" d="M47 348q0 57 9.5 112.5t34 122t79.5 107.5t135 41q104 0 246 -84l78 -45q154 -94 221 -94q92 0 111 180q2 8 2 12h122q0 -57 -9 -112.5t-33.5 -122t-80 -107.5t-135.5 -41q-104 0 -245 84l-78 45q-154 94 -221 95q-92 0 -111 -181q-2 -8 -2 -12h-123z" />
<glyph unicode="&#xa1;" horiz-adv-x="720" d="M186 872q0 74 50.5 124.5t123.5 50.5q72 0 122 -51.5t50 -123.5q0 -70 -51 -121t-121 -51q-74 0 -124 51t-50 121zM211 -399q0 6 2 41l45 800q2 29 10 35t33 6h117q25 0 33 -6t10 -35l45 -800q2 -35 2 -41q0 -27 -41 -27h-219q-37 0 -37 27z" />
<glyph unicode="&#xa2;" d="M203 670q0 121 26.5 216t67.5 153.5t98.5 99.5t109.5 58t109 26v110q0 27 8.5 35t34.5 8h37q27 0 35 -8t8 -35v-110q45 0 138.5 -29t93.5 -59q0 -12 -6 -19l-78 -143q-4 -8 -10.5 -8t-57.5 30.5t-80 30.5v-666q37 6 68 17.5t46 20t17 8.5q8 0 15 -11l57 -143l6 -19 q0 -33 -77.5 -58t-131.5 -30v-104q0 -27 -8 -34t-35 -7h-37q-27 0 -35 7t-8 34v104q-72 6 -137 32t-130.5 81t-104.5 162t-39 250zM463 680q0 -279 151 -320v666q-70 -20 -110.5 -94t-40.5 -252z" />
<glyph unicode="&#xa3;" d="M96 649v105q0 27 7.5 35t33.5 8h125q-27 115 -26 188q0 199 128 308.5t334 109.5q135 0 250 -43t115 -82q0 -14 -4 -18l-68 -130q-10 -20 -26 -20q-4 0 -91.5 39t-168.5 39q-100 0 -162 -55.5t-62 -163.5q0 -74 33 -172h281q27 0 34 -8.5t7 -34.5v-105q0 -27 -7.5 -35 t-33.5 -8h-248q29 -119 28 -207q0 -76 -18 -178h539q41 0 41 -22q0 -8 -4 -25l-35 -139q-8 -35 -47 -35h-891q-29 0 -36 8t-7 35v137q0 27 8 34t35 7h143q27 133 27 178q0 57 -29 207h-164q-27 0 -34 8t-7 35z" />
<glyph unicode="&#xa4;" d="M82 1124l65 64l142 -139q131 94 280 94q147 0 279 -94l141 139l66 -64l-144 -143q98 -100 99 -283q0 -170 -97 -278l138 -137l-62 -62l-135 135q-129 -96 -285 -96q-164 0 -286 96l-136 -135l-61 62l137 137q-96 104 -96 278q0 162 98 283zM211 698.5 q0 -147.5 105.5 -251t252.5 -103.5q145 0 251 104.5t106 249.5q0 147 -104.5 254t-252 107t-253 -106.5t-105.5 -254z" />
<glyph unicode="&#xa5;" d="M47 1241v127q0 20 7 27.5t28 7.5h213q25 0 30 -4t15 -25l160 -330q45 -90 78 -233h4q27 129 75 233l160 330q10 20 15.5 24.5t29.5 4.5h213q23 0 29 -7t6 -28v-127q0 -20 -6 -27.5t-29 -7.5h-53l-209 -385h219q27 0 34 -7t7 -34v-24q0 -27 -7 -34t-34 -7h-268l-49 -105 h317q27 0 34 -7t7 -34v-24q0 -27 -7 -34t-34 -7h-336v-307h140q27 0 35 -8.5t8 -34.5v-111q0 -27 -8.5 -35t-34.5 -8h-514q-27 0 -35 8t-8 35v111q0 27 8 35t35 8h139v307h-357q-27 0 -34 7t-7 34v24q0 27 7.5 34t33.5 7h334l-49 105h-283q-27 0 -35 8t-8 33v24q0 27 8.5 34 t34.5 7h230l-201 385h-53q-20 0 -27.5 7.5t-7.5 27.5z" />
<glyph unicode="&#xa6;" horiz-adv-x="819" d="M307 -324v648q0 23 7.5 28.5t27.5 5.5h135q20 0 27.5 -6t7.5 -28v-648q0 -20 -6 -27t-29 -7h-135q-20 0 -27.5 7t-7.5 27zM307 700v648q0 20 7.5 27t27.5 7h135q20 0 27.5 -7t7.5 -27v-648q0 -20 -6 -27t-29 -7h-135q-20 0 -27.5 7t-7.5 27z" />
<glyph unicode="&#xa7;" d="M158 579.5q0 69.5 19.5 124t57 88t65.5 51t71 36.5q-31 18 -48.5 31.5t-46 42t-44 70.5t-15.5 95q0 147 110.5 233.5t264.5 86.5q119 0 222.5 -44t103.5 -77q0 -10 -9 -23l-59 -114q-8 -16 -23 -17q-4 0 -86 42t-151 42q-59 0 -98 -23.5t-39 -68.5q0 -39 50 -71.5 t153.5 -80t168.5 -92.5q154 -104 154 -262q0 -193 -203 -297q45 -27 74 -49t59.5 -78.5t30.5 -128.5q0 -143 -112.5 -243.5t-272.5 -100.5q-129 0 -261 53.5t-132 92.5q0 12 6 22l65 125q8 16 19 16q8 0 51 -28.5t113.5 -56t144.5 -27.5q55 0 87 29.5t32 78.5q0 39 -31 72 t-69.5 53.5t-102.5 46.5q-14 6 -20 9q-63 29 -107.5 53t-93.5 65t-73.5 97.5t-24.5 126zM403 612q0 -18 6.5 -34.5t21.5 -32t26.5 -25.5t35 -23.5t34 -18.5t37 -16t28.5 -13q31 16 46 27t42 33.5t40 50.5t13 58q0 20 -9 40t-20.5 33.5t-35 29.5t-35.5 23.5t-40 21.5t-34 18 q-109 -63 -137 -110q-19 -29 -19 -62z" />
<glyph unicode="&#xa8;" horiz-adv-x="686" d="M23 1335q0 59 40.5 100.5t100.5 41.5q57 0 99 -42t42 -99.5t-42 -99.5t-99.5 -42t-99 42t-41.5 99zM385 1335q0 59 41 100.5t100.5 41.5t100.5 -42t41 -99.5t-41 -99.5t-100.5 -42t-100.5 42t-41 99z" />
<glyph unicode="&#xa9;" d="M84 976.5q0 192.5 142.5 327t337 134.5t336.5 -134.5t142 -327t-142 -326.5t-336.5 -134t-337 134t-142.5 326.5zM156 977q0 -162 119.5 -275.5t287.5 -113.5t288 113.5t120 275.5q0 164 -120 276.5t-288 112.5t-287.5 -112.5t-119.5 -276.5zM313 973q0 123 79 209 t173 86q47 0 90 -16.5t56 -16.5q10 0 34 31h31v-209l-31 -6q-2 2 -9 22.5t-10 26.5t-11 24.5t-14.5 26.5t-15.5 22.5t-18.5 21.5t-21.5 15.5t-25.5 11.5t-27.5 3q-145 0 -146 -250q0 -106 39 -168t113 -62q115 0 143 150l43 2q-4 -31 -7 -47t-16 -49t-32.5 -52.5t-58.5 -35 t-92 -15.5q-115 0 -190 78t-75 197z" />
<glyph unicode="&#xaa;" horiz-adv-x="985" d="M172 891q0 49 17.5 88t39 63.5t63.5 43t66.5 25.5t73.5 12t61.5 6t49.5 1v35q0 53 -18.5 74t-78.5 21q-51 0 -112.5 -15.5t-67.5 -15.5q-8 0 -12 12l-29 84q-4 12 -4 14q0 23 80 43.5t168 20.5q150 0 204 -58.5t54 -160.5v-240q0 -47 12 -102h58q31 0 30 -29v-86 q0 -29 -30 -29h-183q-8 0 -15 2t-12 7.5t-9.5 8.5t-7.5 11t-4 11t-3 14l-2 10q-2 -2 -8 -9.5t-10 -10.5t-11.5 -9l-12.5 -10t-14 -10t-17.5 -10.5t-19.5 -8.5t-22.5 -6t-25.5 -4t-29 -2q-96 0 -157.5 56.5t-61.5 152.5zM356 903q0 -41 25 -64.5t63 -23.5q53 0 99 39v164 q-187 0 -187 -115z" />
<glyph unicode="&#xab;" horiz-adv-x="1214" d="M94 512q0 12 12 29l347 448q18 23 28 23q4 0 29 -13l102 -63q27 -16 27 -31q0 -10 -14 -28l-254 -377l254 -365q12 -20 12 -29q0 -16 -25 -30l-102 -64q-25 -12 -29 -12q-10 0 -28 25l-347 458q-12 17 -12 29zM575 512q0 12 13 29l346 448q18 23 29 23q4 0 28 -13 l103 -63q27 -16 26 -31q0 -10 -14 -28l-254 -377l254 -365q12 -20 12 -29q0 -16 -24 -30l-103 -64q-25 -12 -28 -12q-10 0 -29 25l-346 458q-13 17 -13 29z" />
<glyph unicode="&#xac;" d="M102 621v135q0 20 7.5 27.5t27.5 7.5h862q20 0 27.5 -6.5t7.5 -28.5v-461q0 -20 -7 -27.5t-28 -7.5h-135q-20 0 -27.5 7t-7.5 28v291h-692q-23 0 -29 6t-6 29z" />
<glyph unicode="&#xad;" horiz-adv-x="757" d="M86 449v149q0 29 8 36t35 7h500q27 0 35 -7t8 -36v-149q0 -27 -8.5 -35t-34.5 -8h-500q-27 0 -35 8t-8 35z" />
<glyph unicode="&#xae;" d="M94 976.5q0 192.5 142.5 327t337 134.5t337 -134.5t142.5 -327t-142.5 -326.5t-337 -134t-337 134t-142.5 326.5zM166 977q0 -162 120 -275.5t287.5 -113.5t287.5 113.5t120 275.5t-120 275.5t-287.5 113.5t-287.5 -113.5t-120 -275.5zM336 723v39q47 4 61.5 17.5 t14.5 64.5v293q0 47 -12.5 57t-63.5 16v41h250q109 0 166 -27.5t57 -105.5q0 -47 -28.5 -76.5t-52 -38t-69.5 -18.5q55 -33 79 -81t32 -77.5t29 -29.5q33 0 32 67h41q0 -49 -24.5 -95t-83.5 -46t-87 39t-31 86t-25.5 86t-73.5 39h-23v-123q0 -57 11.5 -68.5t66.5 -19.5v-39 h-266zM524 1016h43q117 0 117 92q0 102 -88 102q-33 0 -49.5 -10t-19.5 -23.5t-3 -43.5v-117z" />
<glyph unicode="&#xaf;" horiz-adv-x="686" d="M92 1292v86q0 27 7 34t34 7h420q27 0 34 -7t7 -34v-86q0 -27 -7 -34t-34 -7h-420q-25 0 -33 7t-8 34z" />
<glyph unicode="&#xb0;" d="M246 1114q0 135 95 229.5t226 94.5q135 0 229.5 -94.5t94.5 -229.5q0 -133 -95.5 -227t-228.5 -94t-227 94t-94 227zM414 1114.5q0 -65.5 45 -109.5t108 -44q66 0 111 45t45 108q0 66 -46 111t-109.5 45t-108.5 -45t-45 -110.5z" />
<glyph unicode="&#xb1;" d="M104 47q0 20 7.5 27.5t27.5 7.5h860q20 0 27.5 -6t7.5 -29v-135q0 -23 -7 -29t-28 -6h-860q-20 0 -27.5 6t-7.5 29v135zM104 459v135q0 20 7.5 27.5t27.5 7.5h328v327q0 23 6 29t29 6h135q23 0 29 -6t6 -29v-327h327q20 0 27.5 -7.5t7.5 -27.5v-135q0 -20 -7 -27.5 t-28 -7.5h-327v-234q0 -23 -6.5 -28.5t-28.5 -5.5h-135q-23 0 -29 6t-6 28v234h-328q-20 0 -27.5 7.5t-7.5 27.5z" />
<glyph unicode="&#xb2;" horiz-adv-x="757" d="M94 1174q0 61 77 138t214 77q121 0 192.5 -61.5t71.5 -178.5q0 -53 -13 -96t-46 -79t-55.5 -55.5t-73.5 -54.5t-68 -47q-84 -63 -88 -117h297q23 0 30 -7t7 -29v-80q0 -23 -7 -30t-30 -7h-473q-29 0 -29 33q0 127 41 204q33 61 91.5 111.5t107.5 78t87 72t38 97.5 q0 92 -94 92q-41 0 -68 -18.5t-36 -42t-21.5 -42t-26.5 -18.5q-12 0 -24 6l-78 27q-23 4 -23 27z" />
<glyph unicode="&#xb3;" horiz-adv-x="757" d="M74 604q0 2 1 6t3 9.5t2 7.5l24 82q6 20 23 20q4 0 67.5 -24.5t124.5 -24.5q139 0 140 113q0 109 -158 108h-39q-23 0 -31 7t-8 28v82q0 23 8.5 30t30.5 7h41q129 0 129 98q0 37 -25.5 59.5t-66.5 22.5q-39 0 -66.5 -17.5t-44 -35t-26.5 -17.5t-21 11l-69 59 q-12 8 -13 20q0 18 29 48t89.5 58t129.5 28q117 0 192.5 -60.5t75.5 -163.5q0 -23 -2 -41t-9 -33.5t-11 -25.5t-17.5 -23.5t-18.5 -17.5t-22.5 -17.5t-21.5 -17.5q31 -18 43 -26.5t38 -33t37 -60t11 -85.5q0 -119 -90 -188.5t-219 -69.5q-80 0 -170 24.5t-90 53.5z" />
<glyph unicode="&#xb4;" horiz-adv-x="686" d="M154 1278q0 12 26 29l334 196q25 12 29 13q12 0 28 -29l64 -125q10 -20 10 -29q0 -14 -33 -26l-360 -144q-20 -8 -29 -8q-12 0 -26 29l-33 65q-10 21 -10 29z" />
<glyph unicode="&#xb5;" horiz-adv-x="1175" d="M76 -252q0 16 5 22.5t23 6.5h105v1044h-105q-18 0 -23 6.5t-5 22.5v133q0 16 5 22.5t23 6.5h336q18 0 23.5 -6.5t5.5 -22.5v-631q0 -182 115 -182q86 0 176 84v567h-105q-18 0 -23 6.5t-5 22.5v133q0 16 5 22.5t23 6.5h336q18 0 23.5 -6.5t5.5 -22.5v-618q0 -102 20 -175 h86q29 0 29 -28v-133q0 -16 -5 -22.5t-24 -6.5h-272q-14 0 -24.5 5t-16.5 16.5t-9 20.5t-8 27.5t-8 26.5q-2 -4 -20 -26.5t-25.5 -30.5t-27 -26.5t-34.5 -25.5t-41 -14.5t-52 -7.5q-49 0 -119 35v-223h115q18 0 23 -6.5t5 -22.5v-133q0 -16 -5 -22.5t-23 -6.5h-480 q-18 0 -23 6.5t-5 22.5v133z" />
<glyph unicode="&#xb6;" horiz-adv-x="1441" d="M90 854q0 147 34 253.5t83 162t130 87.5t147.5 39t162.5 7h680q27 0 35 -7t8 -34v-102q0 -27 -8 -34t-35 -7h-117v-1559q0 -27 -7 -34t-34 -7h-122q-27 0 -34 7t-7 34v1559h-140v-1559q0 -27 -7 -34t-34 -7h-123q-27 0 -33.5 7t-6.5 34v670q-66 -16 -125 -17 q-215 0 -331 143.5t-116 397.5zM350 879q0 -197 52.5 -286t181.5 -89q33 0 78 10v705q-49 0 -81 -3.5t-72 -13.5t-65.5 -32.5t-48 -58.5t-34 -95t-11.5 -137z" />
<glyph unicode="&#xb7;" d="M412 524q0 66 46 112t111 46q63 0 109.5 -46t46.5 -112q0 -63 -46 -109t-110 -46q-66 0 -111.5 46t-45.5 109z" />
<glyph unicode="&#xb8;" horiz-adv-x="686" d="M158 -397q0 8 4 24l14 70q4 16 12 16l29 -8q29 -6 57.5 -6t47 13.5t18.5 33.5q0 47 -88 47q-39 0 -39 23q0 14 4 43l10 141h166l-8 -106q51 0 98 -36t47 -112q0 -82 -59 -131t-164 -49q-149 0 -149 37z" />
<glyph unicode="&#xb9;" horiz-adv-x="757" d="M125 1190q0 8 22 27l236 151h92q23 0 30 -7t7 -28v-653h86q23 0 31 -7t8 -28v-61q0 -23 -8 -30t-31 -7h-385q-23 0 -31 7t-8 30v61q0 20 8 27.5t31 7.5h115v473l-107 -53q-16 -8 -24 -8q-12 0 -27 22l-35 53q-10 17 -10 23z" />
<glyph unicode="&#xba;" horiz-adv-x="909" d="M150 1042q0 164 80.5 262.5t224 98.5t224.5 -98.5t81 -262t-81 -262t-224.5 -98.5t-224 97t-80.5 263zM354 1042.5q0 -100.5 19.5 -153.5t81 -53t81 53t19.5 153.5t-20.5 153.5t-80 53t-80 -53t-20.5 -153.5z" />
<glyph unicode="&#xbb;" horiz-adv-x="1214" d="M94 905q0 14 27 31l102 63q25 12 29 13q10 0 29 -23l346 -448q12 -16 12 -28.5t-12 -29.5l-346 -458q-18 -25 -29 -25q-4 0 -29 12l-102 64q-25 14 -25 30q0 8 13 29l253 365l-253 377q-15 18 -15 28zM575 905q0 14 27 31l103 63q25 12 28 13q10 0 29 -23l346 -448 q12 -16 12 -28.5t-12 -29.5l-346 -458q-18 -25 -29 -25q-4 0 -28 12l-103 64q-25 14 -24 30q0 8 12 29l254 365l-254 377q-15 18 -15 28z" />
<glyph unicode="&#xbc;" horiz-adv-x="1781" d="M100 1190q0 8 23 27l235 151h93q23 0 29.5 -7t6.5 -28v-653h86q23 0 31 -7t8 -28v-61q0 -23 -8 -30t-31 -7h-385q-23 0 -30.5 7t-7.5 30v61q0 20 8 27.5t30 7.5h115v473l-106 -53q-16 -8 -25 -8q-12 0 -27 22l-34 53q-11 17 -11 23zM584 -14q0 8 8 28l485 1356 q12 33 47 33h105q39 0 39 -25q0 -10 -6 -28l-484 -1350q-12 -35 -47 -35h-104q-43 1 -43 21zM1061 193v129l328 499q16 20 26 21q4 0 12.5 -3t10.5 -3l78 -29q29 -14 28 -27q0 -4 -10 -24l-295 -455h170l21 182q2 20 10 26.5t28 6.5h88q20 0 28.5 -8t8.5 -29v-182h66 q25 0 32 -6t7 -31v-67q0 -20 -8.5 -27.5t-30.5 -7.5h-66v-142q0 -23 -7 -29.5t-30 -6.5h-108q-23 0 -31 7t-8 29v142h-309q-25 0 -32 6t-7 29z" />
<glyph unicode="&#xbd;" horiz-adv-x="1781" d="M84 1190q0 8 22 27l236 151h92q23 0 30 -7t7 -28v-653h86q23 0 31 -7t8 -28v-61q0 -23 -8 -30t-31 -7h-385q-23 0 -31 7t-8 30v61q0 20 8.5 27.5t30.5 7.5h115v473l-107 -53q-16 -8 -24 -8q-12 0 -27 22l-35 53q-10 17 -10 23zM502 -14q0 8 8 28l485 1356q12 33 47 33 h105q39 0 39 -25q0 -10 -6 -28l-484 -1350q-12 -35 -47 -35h-104q-43 1 -43 21zM1098 627q0 61 76.5 138t214.5 77q121 0 192.5 -61.5t71.5 -178.5q0 -53 -13.5 -96t-46 -79t-55 -55.5t-74 -54t-67.5 -47.5q-84 -63 -88 -116h297q23 0 29.5 -7.5t6.5 -29.5v-80q0 -23 -7 -30 t-29 -7h-473q-29 0 -29 33q0 127 41 205q33 61 91 111t107.5 78t87 72t37.5 97q0 92 -94 92q-41 0 -67.5 -18.5t-35.5 -42t-21.5 -42t-26.5 -18.5q-12 0 -25 6l-78 27q-22 4 -22 27z" />
<glyph unicode="&#xbe;" horiz-adv-x="1781" d="M88 604q0 2 1 6t3 9.5t2 7.5l25 82q6 20 22 20q4 0 67.5 -24.5t125.5 -24.5q139 0 139 113q0 109 -158 108h-39q-23 0 -30.5 7t-7.5 28v82q0 23 8 30t30 7h41q129 0 129 98q0 37 -25.5 59.5t-66.5 22.5q-39 0 -66.5 -17.5t-44 -35t-26.5 -17.5t-20 11l-70 59 q-12 8 -12 20q0 18 28.5 48t89 58t129.5 28q117 0 193 -60.5t76 -163.5q0 -23 -2 -41t-9.5 -33.5t-11.5 -25.5t-17 -23.5t-18.5 -17.5t-23 -17.5t-21.5 -17.5q31 -18 44.5 -26.5t38 -33t35.5 -60t11 -85.5q0 -119 -90 -188.5t-219 -69.5q-80 0 -170 24.5t-90 53.5zM584 -14 q0 8 8 28l485 1356q12 33 47 33h105q39 0 39 -25q0 -10 -6 -28l-484 -1350q-12 -35 -47 -35h-104q-43 1 -43 21zM1073 193v129l328 499q16 20 26 21q4 0 12.5 -3t10.5 -3l78 -29q29 -14 28 -27q0 -4 -10 -24l-295 -455h170l21 182q2 20 10 26.5t29 6.5h88q20 0 28.5 -8 t8.5 -29v-178h65q25 0 32 -6t7 -31v-71q0 -20 -8 -27.5t-31 -7.5h-65v-142q0 -23 -7.5 -29.5t-29.5 -6.5h-109q-23 0 -31 7t-8 29v142h-309q-25 0 -32 6t-7 29z" />
<glyph unicode="&#xbf;" horiz-adv-x="909" d="M82 -43q0 76 24.5 137.5t55.5 97t85 67.5t83.5 43t83.5 30v139q0 29 8 36t35 7h149q29 0 36 -7t7 -36v-256q0 -14 -7 -24.5t-23.5 -18.5t-30 -13t-41.5 -14l-43 -12q-145 -49 -146 -178q0 -145 170 -145q55 0 114.5 17t97.5 33.5t44 16.5q16 0 25 -20l51 -140 q4 -12 4 -22q0 -39 -136 -80t-245 -41q-184 0 -292.5 106.5t-108.5 276.5zM352 874q0 70 51.5 121.5t120.5 51.5q74 0 124 -51.5t50 -121.5q0 -74 -50 -124t-124 -50q-72 0 -122 51t-50 123z" />
<glyph unicode="&#xc0;" horiz-adv-x="1290" d="M31 43v111q0 27 8 35t35 8h61l359 1173q6 23 13 28t32 5h213q25 0 32 -5t13 -28l350 -1173h70q27 0 35 -8.5t8 -34.5v-111q0 -27 -8.5 -35t-34.5 -8h-426q-27 0 -35 8t-8 35v111q0 27 8 35t35 8h65l-47 178h-352l-45 -178h67q27 0 35 -8.5t8 -34.5v-111q0 -27 -8 -35 t-35 -8h-405q-27 0 -35 8t-8 35zM344 1724q0 8 10 29l64 125q16 29 28 29q4 0 29 -13l334 -196q27 -16 27 -29q0 -8 -11 -29l-32 -65q-14 -29 -27 -29q-8 0 -29 8l-360 144q-33 12 -33 26zM487 559h271l-84 352q-18 68 -45 287h-4q-14 -160 -47 -287z" />
<glyph unicode="&#xc1;" horiz-adv-x="1290" d="M31 43v111q0 27 8 35t35 8h61l359 1173q6 23 13 28t32 5h213q25 0 32 -5t13 -28l350 -1173h70q27 0 35 -8.5t8 -34.5v-111q0 -27 -8.5 -35t-34.5 -8h-426q-27 0 -35 8t-8 35v111q0 27 8 35t35 8h65l-47 178h-352l-45 -178h67q27 0 35 -8.5t8 -34.5v-111q0 -27 -8 -35 t-35 -8h-405q-27 0 -35 8t-8 35zM457 1669q0 12 26 29l334 196q25 12 29 13q12 0 28 -29l64 -125q10 -20 10 -29q0 -14 -33 -26l-360 -144q-20 -8 -29 -8q-12 0 -26 29l-33 65q-10 21 -10 29zM487 559h271l-84 352q-18 68 -45 287h-4q-14 -160 -47 -287z" />
<glyph unicode="&#xc2;" horiz-adv-x="1290" d="M31 43v111q0 27 8 35t35 8h61l359 1173q6 23 13 28t32 5h213q25 0 32 -5t13 -28l350 -1173h70q27 0 35 -8.5t8 -34.5v-111q0 -27 -8.5 -35t-34.5 -8h-426q-27 0 -35 8t-8 35v111q0 27 8 35t35 8h65l-47 178h-352l-45 -178h67q27 0 35 -8.5t8 -34.5v-111q0 -27 -8 -35 t-35 -8h-405q-27 0 -35 8t-8 35zM362 1667q0 8 25 29l231 182q23 16 29 16t29 -16l231 -182q25 -20 25 -29q0 -10 -12 -29l-39 -65q-16 -27 -29 -27q-8 0 -29 13l-176 100l-176 -100q-20 -12 -29 -13q-12 0 -28 27l-39 65q-13 19 -13 29zM487 559h271l-84 352 q-18 68 -45 287h-4q-14 -160 -47 -287z" />
<glyph unicode="&#xc3;" horiz-adv-x="1290" d="M31 43v111q0 27 8 35t35 8h61l359 1173q6 23 13 28t32 5h213q25 0 32 -5t13 -28l350 -1173h70q27 0 35 -8.5t8 -34.5v-111q0 -27 -8.5 -35t-34.5 -8h-426q-27 0 -35 8t-8 35v111q0 27 8 35t35 8h65l-47 178h-352l-45 -178h67q27 0 35 -8.5t8 -34.5v-111q0 -27 -8 -35 t-35 -8h-405q-27 0 -35 8t-8 35zM330 1665q0 4 7 22.5t23.5 48t40 56.5t60.5 46.5t80 19.5q57 0 121.5 -36t87.5 -36q31 0 55 37t33 37q6 0 14 -5l96 -49q14 -10 15 -18q0 -4 -8.5 -23.5t-26 -48t-41 -55.5t-61.5 -46.5t-78 -19.5q-55 0 -115 36t-82 36q-27 0 -45.5 -18.5 t-28.5 -37t-18 -18.5t-19 6l-96 50q-14 6 -14 16zM487 559h271l-84 352q-18 68 -45 287h-4q-14 -160 -47 -287z" />
<glyph unicode="&#xc4;" horiz-adv-x="1290" d="M31 43v111q0 27 8 35t35 8h61l359 1173q6 23 13 28t32 5h213q25 0 32 -5t13 -28l350 -1173h70q27 0 35 -8.5t8 -34.5v-111q0 -27 -8.5 -35t-34.5 -8h-426q-27 0 -35 8t-8 35v111q0 27 8 35t35 8h65l-47 178h-352l-45 -178h67q27 0 35 -8.5t8 -34.5v-111q0 -27 -8 -35 t-35 -8h-405q-27 0 -35 8t-8 35zM326 1726.5q0 59.5 41 100.5t100 41q57 0 99 -41t42 -100.5t-42 -100.5t-99 -41t-99 41t-42 100.5zM487 559h271l-84 352q-18 68 -45 287h-4q-14 -160 -47 -287zM688 1726.5q0 59.5 41 100.5t100.5 41t100.5 -42t41 -100q0 -59 -41 -100 t-100.5 -41t-100.5 41t-41 100.5z" />
<glyph unicode="&#xc5;" horiz-adv-x="1290" d="M31 43v111q0 27 8 35t35 8h61l359 1173q6 23 13 28t32 5h213q25 0 32 -5t13 -28l350 -1173h70q27 0 35 -8.5t8 -34.5v-111q0 -27 -8.5 -35t-34.5 -8h-426q-27 0 -35 8t-8 35v111q0 27 8 35t35 8h65l-47 178h-352l-45 -178h67q27 0 35 -8.5t8 -34.5v-111q0 -27 -8 -35 t-35 -8h-405q-27 0 -35 8t-8 35zM434 1759q0 90 62.5 152.5t150.5 62.5t151.5 -62.5t63.5 -152.5q0 -88 -63.5 -150.5t-151.5 -62.5t-150.5 62.5t-62.5 150.5zM487 559h271l-84 352q-18 68 -45 287h-4q-14 -160 -47 -287zM561 1759q0 -37 25.5 -61.5t60.5 -24.5 q37 0 62.5 24.5t25.5 61.5t-25.5 62.5t-62.5 25.5t-61.5 -24.5t-24.5 -63.5z" />
<glyph unicode="&#xc6;" horiz-adv-x="1669" d="M31 43v111q0 27 8 35t35 8h61l502 1173q6 23 13 28t32 5h854q27 0 35 -6t8 -29v-311q0 -27 -9 -35t-34 -8h-135q-27 0 -35 8t-8 35v125h-260v-338h348q29 0 36 -8.5t7 -34.5v-135q0 -27 -8 -35t-35 -8h-348v-402h260v144q0 27 7 35t36 8h135q29 0 36 -7.5t7 -35.5v-322 q0 -27 -7 -35t-34 -8h-821q-27 0 -35 8t-8 35v111q0 27 8 35t35 8h104v178h-344l-65 -178h106q27 0 35 -8.5t8 -34.5v-111q0 -27 -8 -35t-35 -8h-444q-27 0 -35 8t-8 35zM539 559h282v711h-4q-92 -262 -104 -291z" />
<glyph unicode="&#xc7;" horiz-adv-x="1062" d="M80 690q0 358 139 553t412 195q117 0 230.5 -41t113.5 -94v-275q0 -20 -7 -27.5t-28 -7.5h-152q-23 0 -28.5 7.5t-5.5 27.5v170q-53 18 -109 19q-145 0 -209.5 -106.5t-64.5 -367.5q0 -113 7 -193.5t25.5 -152t50 -115.5t84 -70t124.5 -26q63 0 108 11v184q0 20 7 27.5 t28 7.5h151q20 0 27.5 -7.5t7.5 -27.5v-297q0 -43 -114.5 -81t-200.5 -38l-6 -80q154 -18 153 -153q0 -82 -62.5 -133.5t-170.5 -51.5q-154 0 -154 39q0 10 2 19l19 82q6 8 10 8q2 0 14.5 -3t33 -7t42.5 -4q61 0 61 51q0 49 -81 49q-45 0 -45 22l2 15l16 162 q-199 10 -314.5 194t-115.5 516z" />
<glyph unicode="&#xc8;" horiz-adv-x="1099" d="M80 43v111q0 27 8 35t35 8h104v1009h-104q-27 0 -35 8.5t-8 34.5v111q0 27 8 35t35 8h819q27 0 35 -6t8 -29v-311q0 -27 -9 -35t-34 -8h-135q-27 0 -35 8t-8 35v125h-260v-338h348q29 0 36 -8.5t7 -34.5v-135q0 -27 -8 -35t-35 -8h-348v-402h260v144q0 27 7 35t36 8h135 q29 0 36 -7.5t7 -35.5v-322q0 -27 -7 -35t-34 -8h-821q-27 0 -35 8t-8 35zM248 1724q0 8 10 29l64 125q16 29 28 29q4 0 29 -13l334 -196q27 -16 26 -29q0 -8 -10 -29l-33 -65q-14 -29 -26 -29q-8 0 -29 8l-360 144q-33 12 -33 26z" />
<glyph unicode="&#xc9;" horiz-adv-x="1099" d="M80 43v111q0 27 8 35t35 8h104v1009h-104q-27 0 -35 8.5t-8 34.5v111q0 27 8 35t35 8h819q27 0 35 -6t8 -29v-311q0 -27 -9 -35t-34 -8h-135q-27 0 -35 8t-8 35v125h-260v-338h348q29 0 36 -8.5t7 -34.5v-135q0 -27 -8 -35t-35 -8h-348v-402h260v144q0 27 7 35t36 8h135 q29 0 36 -7.5t7 -35.5v-322q0 -27 -7 -35t-34 -8h-821q-27 0 -35 8t-8 35zM360 1669q0 12 27 29l334 196q25 12 29 13q12 0 28 -29l64 -125q10 -20 10 -29q0 -14 -33 -26l-360 -144q-20 -8 -29 -8q-12 0 -27 29l-32 65q-11 21 -11 29z" />
<glyph unicode="&#xca;" horiz-adv-x="1099" d="M80 43v111q0 27 8 35t35 8h104v1009h-104q-27 0 -35 8.5t-8 34.5v111q0 27 8 35t35 8h819q27 0 35 -6t8 -29v-311q0 -27 -9 -35t-34 -8h-135q-27 0 -35 8t-8 35v125h-260v-338h348q29 0 36 -8.5t7 -34.5v-135q0 -27 -8 -35t-35 -8h-348v-402h260v144q0 27 7 35t36 8h135 q29 0 36 -7.5t7 -35.5v-322q0 -27 -7 -35t-34 -8h-821q-27 0 -35 8t-8 35zM266 1667q0 8 25 29l231 182q23 16 29 16t29 -16l231 -182q25 -20 25 -29q0 -10 -13 -29l-39 -65q-16 -27 -28 -27q-8 0 -29 13l-176 100l-176 -100q-20 -12 -29 -13q-12 0 -29 27l-38 65 q-13 19 -13 29z" />
<glyph unicode="&#xcb;" horiz-adv-x="1099" d="M80 43v111q0 27 8 35t35 8h104v1009h-104q-27 0 -35 8.5t-8 34.5v111q0 27 8 35t35 8h819q27 0 35 -6t8 -29v-311q0 -27 -9 -35t-34 -8h-135q-27 0 -35 8t-8 35v125h-260v-338h348q29 0 36 -8.5t7 -34.5v-135q0 -27 -8 -35t-35 -8h-348v-402h260v144q0 27 7 35t36 8h135 q29 0 36 -7.5t7 -35.5v-322q0 -27 -7 -35t-34 -8h-821q-27 0 -35 8t-8 35zM229 1726.5q0 59.5 41 100.5t100.5 41t100.5 -41t41 -100.5t-41 -100.5t-100.5 -41t-100.5 41t-41 100.5zM592 1726.5q0 59.5 41 100.5t100.5 41t100 -42t40.5 -100q0 -59 -41.5 -100t-99 -41 t-99.5 41t-42 100.5z" />
<glyph unicode="&#xcc;" horiz-adv-x="757" d="M78 1724q0 8 10 29l64 125q16 29 28 29q4 0 29 -13l334 -196q27 -16 26 -29q0 -8 -10 -29l-33 -65q-14 -29 -26 -29q-8 0 -29 8l-360 144q-33 12 -33 26zM92 43v111q0 27 8.5 35t34.5 8h105v1009h-105q-27 0 -35 8.5t-8 34.5v111q0 27 8.5 35t34.5 8h486q27 0 35 -8.5 t8 -34.5v-111q0 -27 -8.5 -35t-34.5 -8h-105v-1009h105q27 0 35 -8.5t8 -34.5v-111q0 -27 -8.5 -35t-34.5 -8h-486q-27 0 -35 8t-8 35z" />
<glyph unicode="&#xcd;" horiz-adv-x="757" d="M92 43v111q0 27 8.5 35t34.5 8h105v1009h-105q-27 0 -35 8.5t-8 34.5v111q0 27 8.5 35t34.5 8h486q27 0 35 -8.5t8 -34.5v-111q0 -27 -8.5 -35t-34.5 -8h-105v-1009h105q27 0 35 -8.5t8 -34.5v-111q0 -27 -8.5 -35t-34.5 -8h-486q-27 0 -35 8t-8 35zM190 1669q0 12 27 29 l334 196q25 12 29 13q12 0 28 -29l64 -125q10 -20 10 -29q0 -14 -33 -26l-360 -144q-20 -8 -29 -8q-12 0 -27 29l-32 65q-11 21 -11 29z" />
<glyph unicode="&#xce;" horiz-adv-x="757" d="M92 43v111q0 27 8.5 35t34.5 8h105v1009h-105q-27 0 -35 8.5t-8 34.5v111q0 27 8.5 35t34.5 8h486q27 0 35 -8.5t8 -34.5v-111q0 -27 -8.5 -35t-34.5 -8h-105v-1009h105q27 0 35 -8.5t8 -34.5v-111q0 -27 -8.5 -35t-34.5 -8h-486q-27 0 -35 8t-8 35zM96 1667q0 8 25 29 l231 182q23 16 29 16t29 -16l231 -182q25 -20 25 -29q0 -10 -13 -29l-39 -65q-16 -27 -28 -27q-8 0 -29 13l-176 100l-176 -100q-20 -12 -29 -13q-12 0 -29 27l-38 65q-13 19 -13 29z" />
<glyph unicode="&#xcf;" horiz-adv-x="757" d="M59 1726.5q0 59.5 41 100.5t101 41q57 0 99 -41t42 -100.5t-42 -100.5t-99.5 -41t-99.5 41t-42 100.5zM92 43v111q0 27 8.5 35t34.5 8h105v1009h-105q-27 0 -35 8.5t-8 34.5v111q0 27 8.5 35t34.5 8h486q27 0 35 -8.5t8 -34.5v-111q0 -27 -8.5 -35t-34.5 -8h-105v-1009 h105q27 0 35 -8.5t8 -34.5v-111q0 -27 -8.5 -35t-34.5 -8h-486q-27 0 -35 8t-8 35zM422 1726.5q0 59.5 41 100.5t100.5 41t100.5 -42t41 -100q0 -59 -41 -100t-100.5 -41t-100.5 41t-41 100.5z" />
<glyph unicode="&#xd0;" horiz-adv-x="1251" d="M61 43v111q0 27 8.5 35t34.5 8h105v440h-100q-27 0 -34 7t-7 34v102q0 25 7 33t34 8h100v385h-105q-27 0 -35 8.5t-8 34.5v111q0 27 8.5 35t36.5 8h469q156 0 260.5 -30t183.5 -104.5t115.5 -212.5t36.5 -347q0 -215 -40.5 -357.5t-124.5 -218.5t-186.5 -104.5 t-250.5 -28.5h-465q-27 0 -35 8t-8 35zM485 221h78q178 0 248 102.5t70 389.5q0 270 -71 369.5t-247 99.5h-78v-361h211q27 0 34 -7t7 -34v-102q0 -27 -6 -34t-35 -7h-211v-416z" />
<glyph unicode="&#xd1;" horiz-adv-x="1366" d="M82 43v111q0 27 8 35t35 8h104v1009h-104q-27 0 -35 8.5t-8 34.5v111q0 27 8 35t35 8h315q23 0 30 -4t17 -23l340 -635q80 -154 123 -297h4q0 33 -4 133.5t-4 133.5v495h-102q-27 0 -35 8.5t-8 34.5v111q0 27 8 35t35 8h442q27 0 35 -8.5t8 -34.5v-111q0 -27 -8 -35 t-35 -8h-104v-1163q0 -27 -7.5 -35t-35.5 -8h-135q-33 0 -48 29l-376 698q-72 131 -121 279h-4q0 -31 5 -103t5 -123v-583h102q27 0 35 -8.5t8 -34.5v-111q0 -27 -8 -35t-35 -8h-442q-27 0 -35 8t-8 35zM367 1665q0 4 7 22.5t23.5 48t40 56.5t60.5 46.5t80 19.5 q57 0 121.5 -36t86.5 -36q31 0 55.5 37t32.5 37q6 0 15 -5l96 -49q14 -10 14 -18q0 -4 -8 -23.5t-25.5 -48t-41 -55.5t-61.5 -46.5t-79 -19.5q-55 0 -114.5 36t-81.5 36q-27 0 -45.5 -18.5t-28.5 -37t-18.5 -18.5t-18.5 6l-96 50q-14 6 -14 16z" />
<glyph unicode="&#xd2;" horiz-adv-x="1214" d="M96 700q0 367 134.5 552.5t376 185.5t375.5 -186.5t134 -551t-133 -550t-377 -185.5t-377 185t-133 550zM305 1724q0 8 10 29l64 125q16 29 29 29q4 0 28 -13l334 -196q27 -16 27 -29q0 -8 -11 -29l-32 -65q-14 -29 -27 -29q-8 0 -29 8l-360 144q-33 12 -33 26zM387 700 q0 -520 219 -520t219 520q0 522 -219 522t-219 -522z" />
<glyph unicode="&#xd3;" horiz-adv-x="1214" d="M96 700q0 367 134.5 552.5t376 185.5t375.5 -186.5t134 -551t-133 -550t-377 -185.5t-377 185t-133 550zM387 700q0 -520 219 -520t219 520q0 522 -219 522t-219 -522zM418 1669q0 12 26 29l334 196q25 12 29 13q12 0 29 -29l63 -125q10 -20 10 -29q0 -14 -32 -26 l-361 -144q-20 -8 -29 -8q-12 0 -26 29l-33 65q-10 21 -10 29z" />
<glyph unicode="&#xd4;" horiz-adv-x="1214" d="M96 700q0 367 134.5 552.5t376 185.5t375.5 -186.5t134 -551t-133 -550t-377 -185.5t-377 185t-133 550zM324 1667q0 8 24 29l232 182q23 16 28.5 16t28.5 -16l231 -182q25 -20 25 -29q0 -10 -12 -29l-39 -65q-16 -27 -29 -27q-8 0 -29 13l-176 100l-176 -100 q-20 -12 -29 -13q-12 0 -28 27l-39 65q-12 19 -12 29zM387 700q0 -520 219 -520t219 520q0 522 -219 522t-219 -522z" />
<glyph unicode="&#xd5;" horiz-adv-x="1214" d="M96 700q0 367 134.5 552.5t376 185.5t375.5 -186.5t134 -551t-133 -550t-377 -185.5t-377 185t-133 550zM291 1665q0 4 7 22.5t23.5 48t40 56.5t60.5 46.5t80 19.5q57 0 121.5 -36t87.5 -36q31 0 55.5 37t32.5 37q6 0 14 -5l96 -49q14 -10 15 -18q0 -4 -8.5 -23.5 t-26 -48t-41 -55.5t-61 -46.5t-78.5 -19.5q-53 0 -112.5 36t-84.5 36q-37 0 -61.5 -37t-30.5 -37q-10 0 -19 6l-96 50q-14 6 -14 16zM387 700q0 -520 219 -520t219 520q0 522 -219 522t-219 -522z" />
<glyph unicode="&#xd6;" horiz-adv-x="1214" d="M96 700q0 367 134.5 552.5t376 185.5t375.5 -186.5t134 -551t-133 -550t-377 -185.5t-377 185t-133 550zM287 1726.5q0 59.5 41 100.5t100 41t100 -41t41 -100.5t-41 -100.5t-100 -41t-100 41t-41 100.5zM387 700q0 -520 219 -520t219 520q0 522 -219 522t-219 -522z M649 1726.5q0 59.5 41 100.5t100.5 41t100.5 -42t41 -100q0 -59 -42 -100t-99.5 -41t-99.5 41t-42 100.5z" />
<glyph unicode="&#xd7;" d="M176 268q0 10 14 25l236 231l-236 232q-14 10 -14 24q0 10 14 25l99 98q14 14 22 15q12 0 27 -15l231 -235l232 235q14 14 24.5 14.5t24.5 -14.5l96 -96q16 -16 17 -25q0 -14 -17 -26l-233 -232l233 -231q16 -16 17 -23q0 -10 -17 -26l-96 -97q-16 -16 -25 -16 q-12 0 -24 16l-232 236l-231 -236q-12 -16 -25 -16q-8 0 -24 16l-99 97q-14 10 -14 24z" />
<glyph unicode="&#xd8;" horiz-adv-x="1214" d="M96 700q0 367 134.5 552.5t375.5 185.5q137 0 250 -64l66 123q16 29 26 29q8 0 29 -10l65 -33q29 -14 29 -27q0 -14 -10 -29l-86 -170q141 -178 141 -557q0 -365 -133 -550t-377 -185q-170 0 -272 78l-86 -160q-14 -27 -29 -26q-8 0 -29 8l-63 33q-29 18 -29 28 q0 12 11 29l110 209q-123 184 -123 536zM387 700q0 -221 8 -268h4l338 715q-53 76 -131 76q-219 -1 -219 -523zM465 260q53 -80 141 -80q219 0 219 520q0 152 -22 269h-4z" />
<glyph unicode="&#xd9;" horiz-adv-x="1402" d="M61 1249v111q0 27 8.5 35t34.5 8h484q27 0 35 -8.5t8 -34.5v-111q0 -27 -8.5 -35t-34.5 -8h-103v-731q0 -68 5.5 -109.5t25 -88t66.5 -69t120.5 -22.5t120.5 22.5t66.5 69t25 88.5t5.5 109v731h-103q-27 0 -35 8.5t-8 34.5v111q0 27 8.5 35t34.5 8h483q27 0 35 -8.5 t8 -34.5v-111q0 -27 -8 -35t-35 -8h-104v-731q0 -248 -109.5 -379t-384 -131t-384 131t-109.5 379v731h-105q-27 0 -35 8t-8 35zM399 1724q0 8 11 29l63 125q16 29 29 29q4 0 28 -13l334 -196q27 -16 27 -29q0 -8 -10 -29l-33 -65q-14 -29 -27 -29q-8 0 -28 8l-361 144 q-33 12 -33 26z" />
<glyph unicode="&#xda;" horiz-adv-x="1402" d="M61 1249v111q0 27 8.5 35t34.5 8h484q27 0 35 -8.5t8 -34.5v-111q0 -27 -8.5 -35t-34.5 -8h-103v-731q0 -68 5.5 -109.5t25 -88t66.5 -69t120.5 -22.5t120.5 22.5t66.5 69t25 88.5t5.5 109v731h-103q-27 0 -35 8.5t-8 34.5v111q0 27 8.5 35t34.5 8h483q27 0 35 -8.5 t8 -34.5v-111q0 -27 -8 -35t-35 -8h-104v-731q0 -248 -109.5 -379t-384 -131t-384 131t-109.5 379v731h-105q-27 0 -35 8t-8 35zM512 1669q0 12 27 29l333 196q25 12 29 13q12 0 29 -29l63 -125q10 -20 11 -29q0 -14 -33 -26l-361 -144q-20 -8 -28 -8q-12 0 -27 29l-33 65 q-10 21 -10 29z" />
<glyph unicode="&#xdb;" horiz-adv-x="1402" d="M61 1249v111q0 27 8.5 35t34.5 8h484q27 0 35 -8.5t8 -34.5v-111q0 -27 -8.5 -35t-34.5 -8h-103v-731q0 -68 5.5 -109.5t25 -88t66.5 -69t120.5 -22.5t120.5 22.5t66.5 69t25 88.5t5.5 109v731h-103q-27 0 -35 8.5t-8 34.5v111q0 27 8.5 35t34.5 8h483q27 0 35 -8.5 t8 -34.5v-111q0 -27 -8 -35t-35 -8h-104v-731q0 -248 -109.5 -379t-384 -131t-384 131t-109.5 379v731h-105q-27 0 -35 8t-8 35zM418 1667q0 8 24 29l232 182q23 16 29 16t28 -16l232 -182q25 -20 24 -29q0 -10 -12 -29l-39 -65q-16 -27 -29 -27q-8 0 -28 13l-177 100 l-176 -100q-20 -12 -28 -13q-12 0 -29 27l-39 65q-12 19 -12 29z" />
<glyph unicode="&#xdc;" horiz-adv-x="1402" d="M61 1249v111q0 27 8.5 35t34.5 8h484q27 0 35 -8.5t8 -34.5v-111q0 -27 -8.5 -35t-34.5 -8h-103v-731q0 -68 5.5 -109.5t25 -88t66.5 -69t120.5 -22.5t120.5 22.5t66.5 69t25 88.5t5.5 109v731h-103q-27 0 -35 8.5t-8 34.5v111q0 27 8.5 35t34.5 8h483q27 0 35 -8.5 t8 -34.5v-111q0 -27 -8 -35t-35 -8h-104v-731q0 -248 -109.5 -379t-384 -131t-384 131t-109.5 379v731h-105q-27 0 -35 8t-8 35zM381 1726.5q0 59.5 41 100.5t100.5 41t100.5 -41t41 -100.5t-41 -100.5t-100.5 -41t-100.5 41t-41 100.5zM743 1726.5q0 59.5 41 100.5 t100.5 41t100.5 -42t41 -100q0 -59 -42 -100t-99.5 -41t-99.5 41t-42 100.5z" />
<glyph unicode="&#xdd;" d="M27 1241v127q0 20 7 27.5t27 7.5h234q25 0 30 -4t15 -25l160 -330q61 -125 82 -233h4q33 133 82 233l159 330q10 20 15.5 24.5t29.5 4.5h224q23 0 28.5 -7t5.5 -28v-127q0 -20 -6 -27.5t-28 -7.5h-66l-313 -631v-378h139q27 0 35 -8.5t8 -34.5v-111q0 -27 -8 -35t-35 -8 h-555q-27 0 -35 8t-8 35v111q0 27 8 35t35 8h139v378l-325 631h-54q-20 0 -27 7.5t-7 27.5zM381 1669q0 12 27 29l333 196q25 12 29 13q12 0 29 -29l63 -125q10 -20 10 -29q0 -14 -32 -26l-361 -144q-20 -8 -28 -8q-12 0 -27 29l-33 65q-10 21 -10 29z" />
<glyph unicode="&#xde;" d="M82 43v111q0 27 8 35t35 8h104v1009h-104q-27 0 -35 8.5t-8 34.5v111q0 27 8 35t35 8h483q27 0 35 -8.5t8 -34.5v-111q0 -27 -8 -35t-35 -8h-102v-106h139q240 0 338 -96.5t98 -276.5q0 -111 -42 -194.5t-111.5 -130t-148.5 -69t-165 -22.5h-108v-114h135q27 0 35 -8.5 t8 -34.5v-111q0 -27 -8 -35t-35 -8h-516q-27 0 -35 8t-8 35zM506 508h84q47 0 81 6t69.5 24.5t55 61.5t19.5 106.5t-19.5 104.5t-55 60.5t-69.5 25.5t-81 6h-84v-395z" />
<glyph unicode="&#xdf;" horiz-adv-x="1290" d="M61 29v133q0 16 5.5 22t23.5 6h105v824q0 469 458 469q172 0 289 -74t117 -223q0 -70 -33 -128.5t-70.5 -91t-70.5 -70.5t-33 -71q0 -39 35 -74.5t106.5 -90t112.5 -95.5q109 -109 108 -262q0 -170 -97 -254t-259 -84q-86 0 -179 22.5t-93 53.5q0 12 2 20l35 134 q6 16 18 16q2 0 77 -30.5t138 -30.5q57 0 90 31.5t33 90.5q0 53 -37 101.5t-90 87.5t-107.5 80t-91.5 100t-37 131q0 102 99 209q37 37 50 53.5t30.5 50t17.5 66.5q0 127 -160 127q-57 0 -97 -15.5t-59.5 -35t-29.5 -57t-11 -62.5t-1 -72v-1007q0 -18 -6.5 -23.5t-22.5 -5.5 h-336q-29 0 -29 29z" />
<glyph unicode="&#xe0;" horiz-adv-x="1024" d="M82 281q0 82 26.5 145t78 99t100.5 58.5t121.5 31t110.5 10.5t97 2v63q0 78 -27.5 115t-117.5 37q-68 0 -160 -31t-94 -31q-16 0 -20 21l-41 125q0 2 -2 7t-3 9t-1 8q0 35 119.5 66t240.5 31q186 0 269 -82t83 -248v-355q0 -90 21 -172h88q16 0 22 -6t6 -22v-133 q0 -16 -5 -22.5t-23 -6.5h-256q-10 0 -18.5 2t-14.5 9t-9 11.5t-7 15.5t-5.5 16t-4.5 17.5t-3 16.5q-37 -37 -55 -53.5t-78.5 -43t-130.5 -26.5q-141 0 -224 85.5t-83 230.5zM231 1333q0 8 11 29l63 125q16 29 29 29q4 0 28 -13l334 -196q27 -16 27 -29q0 -8 -10 -29 l-33 -65q-14 -29 -27 -29q-8 0 -28 8l-361 144q-33 12 -33 26zM328 295q0 -59 39 -99t96 -40q76 0 153 77v226h-20h-30q-9 0 -33.5 -1t-40 -4t-39 -9.5t-39 -14.5t-34 -20.5t-28.5 -28.5t-17 -37.5t-7 -48.5z" />
<glyph unicode="&#xe1;" horiz-adv-x="1024" d="M82 281q0 82 26.5 145t78 99t100.5 58.5t121.5 31t110.5 10.5t97 2v63q0 78 -27.5 115t-117.5 37q-68 0 -160 -31t-94 -31q-16 0 -20 21l-41 125q0 2 -2 7t-3 9t-1 8q0 35 119.5 66t240.5 31q186 0 269 -82t83 -248v-355q0 -90 21 -172h88q16 0 22 -6t6 -22v-133 q0 -16 -5 -22.5t-23 -6.5h-256q-10 0 -18.5 2t-14.5 9t-9 11.5t-7 15.5t-5.5 16t-4.5 17.5t-3 16.5q-37 -37 -55 -53.5t-78.5 -43t-130.5 -26.5q-141 0 -224 85.5t-83 230.5zM324 1278q0 12 26 29l334 196q25 12 29 13q12 0 28 -29l64 -125q10 -20 10 -29q0 -14 -33 -26 l-360 -144q-20 -8 -29 -8q-12 0 -26 29l-33 65q-10 21 -10 29zM328 295q0 -59 39 -99t96 -40q76 0 153 77v226h-20h-30q-9 0 -33.5 -1t-40 -4t-39 -9.5t-39 -14.5t-34 -20.5t-28.5 -28.5t-17 -37.5t-7 -48.5z" />
<glyph unicode="&#xe2;" horiz-adv-x="1024" d="M82 281q0 82 26.5 145t78 99t100.5 58.5t121.5 31t110.5 10.5t97 2v63q0 78 -27.5 115t-117.5 37q-68 0 -160 -31t-94 -31q-16 0 -20 21l-41 125q0 2 -2 7t-3 9t-1 8q0 35 119.5 66t240.5 31q186 0 269 -82t83 -248v-355q0 -90 21 -172h88q16 0 22 -6t6 -22v-133 q0 -16 -5 -22.5t-23 -6.5h-256q-10 0 -18.5 2t-14.5 9t-9 11.5t-7 15.5t-5.5 16t-4.5 17.5t-3 16.5q-37 -37 -55 -53.5t-78.5 -43t-130.5 -26.5q-141 0 -224 85.5t-83 230.5zM229 1276q0 8 25 29l231 182q23 16 29 16t29 -16l231 -182q25 -20 25 -29q0 -10 -13 -29l-38 -65 q-16 -27 -29 -27q-8 0 -29 12l-176 101l-176 -101q-20 -12 -29 -12q-12 0 -28 27l-39 65q-13 19 -13 29zM328 295q0 -59 39 -99t96 -40q76 0 153 77v226h-20h-30q-9 0 -33.5 -1t-40 -4t-39 -9.5t-39 -14.5t-34 -20.5t-28.5 -28.5t-17 -37.5t-7 -48.5z" />
<glyph unicode="&#xe3;" horiz-adv-x="1024" d="M82 281q0 82 26.5 145t78 99t100.5 58.5t121.5 31t110.5 10.5t97 2v63q0 78 -27.5 115t-117.5 37q-68 0 -160 -31t-94 -31q-16 0 -20 21l-41 125q0 2 -2 7t-3 9t-1 8q0 35 119.5 66t240.5 31q186 0 269 -82t83 -248v-355q0 -90 21 -172h88q16 0 22 -6t6 -22v-133 q0 -16 -5 -22.5t-23 -6.5h-256q-10 0 -18.5 2t-14.5 9t-9 11.5t-7 15.5t-5.5 16t-4.5 17.5t-3 16.5q-37 -37 -55 -53.5t-78.5 -43t-130.5 -26.5q-141 0 -224 85.5t-83 230.5zM197 1274q0 4 7 22.5t23.5 48t40 56t60.5 46t80 19.5q57 0 121.5 -35.5t86.5 -35.5 q31 0 55.5 36.5t33.5 36.5q6 0 14 -4l96 -49q14 -10 14 -18q0 -4 -8 -23.5t-25.5 -48.5t-41 -55.5t-61.5 -46t-79 -19.5q-53 0 -112.5 36t-83.5 36q-37 0 -61.5 -37t-30.5 -37q-10 0 -19 6l-96 49q-14 9 -14 17zM328 295q0 -59 39 -99t96 -40q76 0 153 77v226h-20h-30 q-9 0 -33.5 -1t-40 -4t-39 -9.5t-39 -14.5t-34 -20.5t-28.5 -28.5t-17 -37.5t-7 -48.5z" />
<glyph unicode="&#xe4;" horiz-adv-x="1024" d="M82 281q0 82 26.5 145t78 99t100.5 58.5t121.5 31t110.5 10.5t97 2v63q0 78 -27.5 115t-117.5 37q-68 0 -160 -31t-94 -31q-16 0 -20 21l-41 125q0 2 -2 7t-3 9t-1 8q0 35 119.5 66t240.5 31q186 0 269 -82t83 -248v-355q0 -90 21 -172h88q16 0 22 -6t6 -22v-133 q0 -16 -5 -22.5t-23 -6.5h-256q-10 0 -18.5 2t-14.5 9t-9 11.5t-7 15.5t-5.5 16t-4.5 17.5t-3 16.5q-37 -37 -55 -53.5t-78.5 -43t-130.5 -26.5q-141 0 -224 85.5t-83 230.5zM193 1335q0 59 40.5 100.5t100 41.5t100.5 -42t41 -99.5t-41 -99.5t-100.5 -42t-100 42t-40.5 99z M328 295q0 -59 39 -99t96 -40q76 0 153 77v226h-20h-30q-9 0 -33.5 -1t-40 -4t-39 -9.5t-39 -14.5t-34 -20.5t-28.5 -28.5t-17 -37.5t-7 -48.5zM555 1335q0 59 41 100.5t100.5 41.5t100.5 -42t41 -99.5t-42 -99.5t-99.5 -42t-99.5 42t-42 99z" />
<glyph unicode="&#xe5;" horiz-adv-x="1024" d="M82 281q0 82 26.5 145t78 99t100.5 58.5t121.5 31t110.5 10.5t97 2v63q0 78 -27.5 115t-117.5 37q-68 0 -160 -31t-94 -31q-16 0 -20 21l-41 125q0 2 -2 7t-3 9t-1 8q0 35 119.5 66t240.5 31q186 0 269 -82t83 -248v-355q0 -90 21 -172h88q16 0 22 -6t6 -22v-133 q0 -16 -5 -22.5t-23 -6.5h-256q-10 0 -18.5 2t-14.5 9t-9 11.5t-7 15.5t-5.5 16t-4.5 17.5t-3 16.5q-37 -37 -55 -53.5t-78.5 -43t-130.5 -26.5q-141 0 -224 85.5t-83 230.5zM301 1368q0 90 62.5 152.5t150.5 62.5t151.5 -62.5t63.5 -152.5q0 -88 -63.5 -150.5t-151.5 -62.5 t-150.5 62.5t-62.5 150.5zM328 295q0 -59 39 -99t96 -40q76 0 153 77v226h-20h-30q-9 0 -33.5 -1t-40 -4t-39 -9.5t-39 -14.5t-34 -20.5t-28.5 -28.5t-17 -37.5t-7 -48.5zM428 1368q0 -37 25.5 -61.5t60.5 -24.5q37 0 62.5 24.5t25.5 61.5t-25.5 62.5t-62.5 25.5 q-35 0 -60.5 -25.5t-25.5 -62.5z" />
<glyph unicode="&#xe6;" horiz-adv-x="1517" d="M88 281q0 82 26.5 145t77 99t98.5 58.5t119.5 31t108.5 10.5t94 2v63q0 78 -27.5 115t-117.5 37q-61 0 -151.5 -31t-92.5 -31q-14 0 -20 21l-41 125q0 2 -2 7t-3 9t-1 8q0 35 116.5 66t233.5 31q166 0 252 -134q63 66 128.5 100t160.5 34q391 0 391 -560q0 -31 -9.5 -41 t-37.5 -10h-533q0 -256 225 -256q78 0 159 34t83 34q14 0 23 -17l51 -122q6 -18 6 -23q0 -41 -113.5 -81t-234.5 -40q-236 0 -336 135q-45 -47 -135 -91t-191 -44q-141 0 -224 85.5t-83 230.5zM334 295q0 -61 34.5 -100t90.5 -39q76 0 153 77v226h-10q-268 4 -268 -164z M858 627h303q0 229 -135 229q-145 0 -166 -219q-2 -6 -2 -10z" />
<glyph unicode="&#xe7;" horiz-adv-x="872" d="M82 485q0 262 127 412t356 150q86 0 169 -25t83 -64v-276q0 -18 -6 -23.5t-23 -5.5h-147q-16 0 -22.5 5.5t-6.5 23.5v152q-23 8 -49 8q-106 0 -155.5 -82t-49.5 -260q0 -174 48.5 -252t162.5 -78q61 0 121 23l60 22q8 0 14 -10l53 -135q6 -18 6 -21q0 -29 -89 -56.5 t-163 -27.5l-6 -71q51 0 98.5 -36t47.5 -112q0 -82 -59.5 -131t-164.5 -49q-150 0 -149 37q0 8 4 24l14 70q4 16 13 16l28 -8q29 -6 57.5 -6t47 13.5t18.5 33.5q0 47 -88 47q-39 0 -39 23v14l15 150q-137 25 -231.5 154.5t-94.5 350.5z" />
<glyph unicode="&#xe8;" horiz-adv-x="1024" d="M94 496q0 246 122 398.5t327 152.5q410 0 409 -560q0 -31 -9 -41t-38 -10h-551q0 -256 226 -256q66 0 123 16.5t92.5 34t44.5 17.5q14 0 22 -17l51 -122q6 -18 7 -23q0 -41 -123 -81t-244 -40q-213 0 -336 130.5t-123 400.5zM231 1333q0 8 11 29l63 125q16 29 29 29 q4 0 28 -13l334 -196q27 -16 27 -29q0 -8 -10 -29l-33 -65q-14 -29 -27 -29q-8 0 -28 8l-361 144q-33 12 -33 26zM354 627h322q0 229 -148 229q-152 0 -174 -219v-10z" />
<glyph unicode="&#xe9;" horiz-adv-x="1024" d="M94 496q0 246 122 398.5t327 152.5q410 0 409 -560q0 -31 -9 -41t-38 -10h-551q0 -256 226 -256q66 0 123 16.5t92.5 34t44.5 17.5q14 0 22 -17l51 -122q6 -18 7 -23q0 -41 -123 -81t-244 -40q-213 0 -336 130.5t-123 400.5zM324 1278q0 12 26 29l334 196q25 12 29 13 q12 0 28 -29l64 -125q10 -20 10 -29q0 -14 -33 -26l-360 -144q-20 -8 -29 -8q-12 0 -26 29l-33 65q-10 21 -10 29zM354 627h322q0 229 -148 229q-152 0 -174 -219v-10z" />
<glyph unicode="&#xea;" horiz-adv-x="1024" d="M94 496q0 246 122 398.5t327 152.5q410 0 409 -560q0 -31 -9 -41t-38 -10h-551q0 -256 226 -256q66 0 123 16.5t92.5 34t44.5 17.5q14 0 22 -17l51 -122q6 -18 7 -23q0 -41 -123 -81t-244 -40q-213 0 -336 130.5t-123 400.5zM229 1276q0 8 25 29l231 182q23 16 29 16 t29 -16l231 -182q25 -20 25 -29q0 -10 -13 -29l-38 -65q-16 -27 -29 -27q-8 0 -29 12l-176 101l-176 -101q-20 -12 -29 -12q-12 0 -28 27l-39 65q-13 19 -13 29zM354 627h322q0 229 -148 229q-152 0 -174 -219v-10z" />
<glyph unicode="&#xeb;" horiz-adv-x="1024" d="M94 496q0 246 122 398.5t327 152.5q410 0 409 -560q0 -31 -9 -41t-38 -10h-551q0 -256 226 -256q66 0 123 16.5t92.5 34t44.5 17.5q14 0 22 -17l51 -122q6 -18 7 -23q0 -41 -123 -81t-244 -40q-213 0 -336 130.5t-123 400.5zM193 1335q0 59 40.5 100.5t100 41.5 t100.5 -42t41 -99.5t-41 -99.5t-100.5 -42t-100 42t-40.5 99zM354 627h322q0 229 -148 229q-152 0 -174 -219v-10zM555 1335q0 59 41 100.5t100.5 41.5t100.5 -42t41 -99.5t-42 -99.5t-99.5 -42t-99.5 42t-42 99z" />
<glyph unicode="&#xec;" horiz-adv-x="681" d="M39 1333q0 8 10 29l64 125q16 29 28 29q4 0 29 -13l334 -196q27 -16 26 -29q0 -8 -10 -29l-33 -65q-14 -29 -26 -29q-8 0 -29 8l-360 144q-33 12 -33 26zM59 850v133q0 16 5.5 22.5t23.5 6.5h365q18 0 23 -6.5t5 -22.5v-793h131q18 0 23.5 -6t5.5 -22v-133 q0 -16 -5 -22.5t-24 -6.5h-522q-18 0 -23.5 6t-5.5 23v133q0 16 5.5 22t23.5 6h131v631h-133q-18 0 -23.5 6.5t-5.5 22.5z" />
<glyph unicode="&#xed;" horiz-adv-x="681" d="M59 850v133q0 16 5.5 22.5t23.5 6.5h365q18 0 23 -6.5t5 -22.5v-793h131q18 0 23.5 -6t5.5 -22v-133q0 -16 -5 -22.5t-24 -6.5h-522q-18 0 -23.5 6t-5.5 23v133q0 16 5.5 22t23.5 6h131v631h-133q-18 0 -23.5 6.5t-5.5 22.5zM152 1278q0 12 26 29l334 196q25 12 29 13 q12 0 28 -29l64 -125q10 -20 10 -29q0 -14 -33 -26l-360 -144q-20 -8 -29 -8q-12 0 -26 29l-33 65q-10 21 -10 29z" />
<glyph unicode="&#xee;" horiz-adv-x="681" d="M57 1276q0 8 25 29l231 182q23 16 29 16t29 -16l231 -182q25 -20 25 -29q0 -10 -13 -29l-39 -65q-16 -27 -28 -27q-8 0 -29 12l-176 101l-176 -101q-20 -12 -29 -12q-12 0 -28 27l-39 65q-13 19 -13 29zM59 850v133q0 16 5.5 22.5t23.5 6.5h365q18 0 23 -6.5t5 -22.5 v-793h131q18 0 23.5 -6t5.5 -22v-133q0 -16 -5 -22.5t-24 -6.5h-522q-18 0 -23.5 6t-5.5 23v133q0 16 5.5 22t23.5 6h131v631h-133q-18 0 -23.5 6.5t-5.5 22.5z" />
<glyph unicode="&#xef;" horiz-adv-x="681" d="M20 1335q0 59 41 100.5t100.5 41.5t100.5 -42t41 -99.5t-41 -99.5t-100.5 -42t-100.5 42t-41 99zM59 850v133q0 16 5.5 22.5t23.5 6.5h365q18 0 23 -6.5t5 -22.5v-793h131q18 0 23.5 -6t5.5 -22v-133q0 -16 -5 -22.5t-24 -6.5h-522q-18 0 -23.5 6t-5.5 23v133 q0 16 5.5 22t23.5 6h131v631h-133q-18 0 -23.5 6.5t-5.5 22.5zM383 1335q0 59 41 100.5t100.5 41.5t100.5 -42t41 -99.5t-42 -99.5t-99.5 -42t-99.5 42t-42 99z" />
<glyph unicode="&#xf0;" horiz-adv-x="1062" d="M86 508q0 242 121 390.5t291 148.5q70 0 125 -37l4 4q-45 104 -99 194l-186 -88q-6 -4 -16 -4q-12 0 -19 17l-35 75q-6 12 -6 19q0 8 17 16l180 84q-16 33 -42 66.5t-41 54t-15 29.5q0 20 26 24l121 15q2 0 12.5 1t14.5 1q10 0 23 -8.5t26.5 -22.5t23 -25.5t22.5 -30 t15 -20.5l189 88l18 6q8 0 16 -18l31 -68q8 -20 8 -22q0 -8 -22 -21l-172 -80q258 -455 258 -798q0 -221 -111.5 -377t-331 -156t-333 146.5t-113.5 396.5zM362 504q0 -162 35 -248t135 -86q106 0 144.5 86t38.5 250q0 162 -38 249t-142 87q-100 0 -136.5 -86t-36.5 -252z " />
<glyph unicode="&#xf1;" horiz-adv-x="1214" d="M74 850v133q0 16 5 22.5t23 6.5h285q16 0 28.5 -11.5t16.5 -23.5t11.5 -38t9.5 -34q53 45 76.5 64.5t93 48.5t143.5 29q152 0 209 -86.5t57 -237.5v-533h105q18 0 23 -6t5 -22v-133q0 -16 -5 -22.5t-23 -6.5h-336q-18 0 -23.5 6t-5.5 23v630q0 172 -115 172 q-86 0 -176 -83v-558h105q18 0 23 -6t5 -22v-133q0 -16 -5 -22.5t-23 -6.5h-469q-18 0 -23.5 6t-5.5 23v133q0 16 5 22t24 6h104v457q0 102 -20 174h-99q-28 0 -28 29zM291 1274q0 4 7 22.5t23.5 48t40 56t60.5 46t80 19.5q57 0 121.5 -35.5t87.5 -35.5q31 0 55.5 36.5 t32.5 36.5q6 0 14 -4l96 -49q14 -10 15 -18q0 -4 -8.5 -23.5t-26 -48.5t-41 -55.5t-61 -46t-78.5 -19.5q-53 0 -112.5 36t-84.5 36q-37 0 -61.5 -37t-30.5 -37q-10 0 -19 6l-96 49q-14 9 -14 17z" />
<glyph unicode="&#xf2;" horiz-adv-x="1062" d="M86 506q0 248 119 394.5t325 146.5q205 0 325 -146.5t120 -394.5t-119 -394.5t-325.5 -146.5t-325.5 146.5t-119 394.5zM250 1333q0 8 10 29l64 125q16 29 28 29q4 0 29 -13l334 -196q27 -16 26 -29q0 -8 -10 -29l-33 -65q-14 -29 -26 -29q-8 0 -29 8l-360 144 q-33 12 -33 26zM362 506q0 -164 35 -250t133.5 -86t133 85t34.5 251q0 162 -34.5 249t-133 87t-133.5 -87t-35 -249z" />
<glyph unicode="&#xf3;" horiz-adv-x="1062" d="M86 506q0 248 119 394.5t325 146.5q205 0 325 -146.5t120 -394.5t-119 -394.5t-325.5 -146.5t-325.5 146.5t-119 394.5zM342 1278q0 12 27 29l333 196q25 12 29 13q12 0 29 -29l63 -125q10 -20 11 -29q0 -14 -33 -26l-361 -144q-20 -8 -28 -8q-12 0 -27 29l-33 65 q-10 21 -10 29zM362 506q0 -164 35 -250t133.5 -86t133 85t34.5 251q0 162 -34.5 249t-133 87t-133.5 -87t-35 -249z" />
<glyph unicode="&#xf4;" horiz-adv-x="1062" d="M86 506q0 248 119 394.5t325 146.5q205 0 325 -146.5t120 -394.5t-119 -394.5t-325.5 -146.5t-325.5 146.5t-119 394.5zM248 1276q0 8 24 29l232 182q23 16 29 16t28 -16l232 -182q25 -20 24 -29q0 -10 -12 -29l-39 -65q-16 -27 -29 -27q-8 0 -28 12l-177 101l-176 -101 q-20 -12 -28 -12q-12 0 -29 27l-39 65q-12 19 -12 29zM362 506q0 -164 35 -250t133.5 -86t133 85t34.5 251q0 162 -34.5 249t-133 87t-133.5 -87t-35 -249z" />
<glyph unicode="&#xf5;" horiz-adv-x="1062" d="M86 506q0 248 119 394.5t325 146.5q205 0 325 -146.5t120 -394.5t-119 -394.5t-325.5 -146.5t-325.5 146.5t-119 394.5zM215 1274q0 4 7 22.5t23.5 48t40 56t60.5 46t80 19.5q57 0 121.5 -35.5t87.5 -35.5q31 0 55.5 36.5t32.5 36.5q6 0 14 -4l97 -49q14 -10 14 -18 q0 -4 -8.5 -23.5t-25.5 -48.5t-40.5 -55.5t-61.5 -46t-79 -19.5q-55 0 -114.5 36t-82.5 36q-27 0 -45 -18.5t-28.5 -37t-18.5 -18.5t-18 6l-97 49q-14 9 -14 17zM362 506q0 -164 35 -250t133.5 -86t133 85t34.5 251q0 162 -34.5 249t-133 87t-133.5 -87t-35 -249z" />
<glyph unicode="&#xf6;" horiz-adv-x="1062" d="M86 506q0 248 119 394.5t325 146.5q205 0 325 -146.5t120 -394.5t-119 -394.5t-325.5 -146.5t-325.5 146.5t-119 394.5zM211 1335q0 59 41 100.5t100 41.5q57 0 99.5 -42t42.5 -99.5t-42 -99.5t-99.5 -42t-99.5 42t-42 99zM362 506q0 -164 35 -250t133.5 -86t133 85 t34.5 251q0 162 -34.5 249t-133 87t-133.5 -87t-35 -249zM573 1335q0 59 41 100.5t100.5 41.5t100.5 -42t41 -99.5t-41 -99.5t-100.5 -42t-100.5 42t-41 99z" />
<glyph unicode="&#xf7;" d="M104 459v135q0 20 7.5 27.5t27.5 7.5h860q20 0 27.5 -7.5t7.5 -27.5v-135q0 -20 -7 -27.5t-28 -7.5h-860q-20 0 -27.5 7.5t-7.5 27.5zM424 174.5q0 61.5 42 103t103 41.5q59 0 102.5 -41.5t43.5 -103t-43 -103.5t-102.5 -42t-102.5 42t-43 103.5zM424 878.5 q0 61.5 42 103.5t103 42q59 0 102.5 -43t43.5 -102q0 -61 -42 -103.5t-104 -42.5q-59 0 -102 42t-43 103.5z" />
<glyph unicode="&#xf8;" horiz-adv-x="1024" d="M68 506q0 248 118.5 394.5t325.5 146.5q139 0 205 -48l53 93q14 23 22.5 22.5t24.5 -8.5l51 -29q25 -14 25 -24q0 -8 -10 -23l-62 -112q135 -135 135 -412q0 -248 -118.5 -394.5t-325.5 -146.5q-115 0 -205 47l-57 -100q-14 -23 -22.5 -23t-24.5 9l-51 28 q-23 12 -23 24.5t8 24.5l64 115q-133 140 -133 416zM313 506q0 -137 23 -221l272 522q-41 35 -96 35q-117 0 -158 -86t-41 -250zM416 201q37 -31 96 -31q119 0 159 85t40 251q0 139 -25 213z" />
<glyph unicode="&#xf9;" horiz-adv-x="1175" d="M45 850v133q0 16 5 22.5t24 6.5h336q18 0 23 -6.5t5 -22.5v-631q0 -182 115 -182q86 0 176 84v567h-104q-18 0 -23.5 6.5t-5.5 22.5v133q0 16 5 22.5t24 6.5h336q18 0 23 -6.5t5 -22.5v-618q0 -102 21 -175h86q29 0 28 -28v-133q0 -16 -5 -22.5t-23 -6.5h-273 q-14 0 -24.5 5t-16.5 16.5t-9 20.5t-8 27.5t-7 26.5q-6 -6 -29.5 -27.5t-35 -30.5t-40 -26.5t-54.5 -24.5t-66.5 -14.5t-88.5 -7.5q-152 0 -209 86t-57 238v532h-104q-18 0 -23.5 6.5t-5.5 22.5zM287 1333q0 8 10 29l63 125q16 29 29 29q4 0 29 -13l334 -196q27 -16 26 -29 q0 -8 -10 -29l-33 -65q-14 -29 -26 -29q-8 0 -29 8l-361 144q-32 12 -32 26z" />
<glyph unicode="&#xfa;" horiz-adv-x="1175" d="M45 850v133q0 16 5 22.5t24 6.5h336q18 0 23 -6.5t5 -22.5v-631q0 -182 115 -182q86 0 176 84v567h-104q-18 0 -23.5 6.5t-5.5 22.5v133q0 16 5 22.5t24 6.5h336q18 0 23 -6.5t5 -22.5v-618q0 -102 21 -175h86q29 0 28 -28v-133q0 -16 -5 -22.5t-23 -6.5h-273 q-14 0 -24.5 5t-16.5 16.5t-9 20.5t-8 27.5t-7 26.5q-6 -6 -29.5 -27.5t-35 -30.5t-40 -26.5t-54.5 -24.5t-66.5 -14.5t-88.5 -7.5q-152 0 -209 86t-57 238v532h-104q-18 0 -23.5 6.5t-5.5 22.5zM399 1278q0 12 27 29l334 196q25 12 28 13q12 0 29 -29l64 -125 q10 -20 10 -29q0 -14 -33 -26l-360 -144q-20 -8 -29 -8q-12 0 -27 29l-32 65q-11 21 -11 29z" />
<glyph unicode="&#xfb;" horiz-adv-x="1175" d="M45 850v133q0 16 5 22.5t24 6.5h336q18 0 23 -6.5t5 -22.5v-631q0 -182 115 -182q86 0 176 84v567h-104q-18 0 -23.5 6.5t-5.5 22.5v133q0 16 5 22.5t24 6.5h336q18 0 23 -6.5t5 -22.5v-618q0 -102 21 -175h86q29 0 28 -28v-133q0 -16 -5 -22.5t-23 -6.5h-273 q-14 0 -24.5 5t-16.5 16.5t-9 20.5t-8 27.5t-7 26.5q-6 -6 -29.5 -27.5t-35 -30.5t-40 -26.5t-54.5 -24.5t-66.5 -14.5t-88.5 -7.5q-152 0 -209 86t-57 238v532h-104q-18 0 -23.5 6.5t-5.5 22.5zM305 1276q0 8 25 29l231 182q23 16 29 16t28 -16l232 -182q25 -20 24 -29 q0 -10 -12 -29l-39 -65q-16 -27 -28 -27q-8 0 -29 12l-176 101l-176 -101q-20 -12 -29 -12q-12 0 -29 27l-39 65q-12 19 -12 29z" />
<glyph unicode="&#xfc;" horiz-adv-x="1175" d="M45 850v133q0 16 5 22.5t24 6.5h336q18 0 23 -6.5t5 -22.5v-631q0 -182 115 -182q86 0 176 84v567h-104q-18 0 -23.5 6.5t-5.5 22.5v133q0 16 5 22.5t24 6.5h336q18 0 23 -6.5t5 -22.5v-618q0 -102 21 -175h86q29 0 28 -28v-133q0 -16 -5 -22.5t-23 -6.5h-273 q-14 0 -24.5 5t-16.5 16.5t-9 20.5t-8 27.5t-7 26.5q-6 -6 -29.5 -27.5t-35 -30.5t-40 -26.5t-54.5 -24.5t-66.5 -14.5t-88.5 -7.5q-152 0 -209 86t-57 238v532h-104q-18 0 -23.5 6.5t-5.5 22.5zM268 1335q0 59 41 100.5t101 41.5q57 0 99 -42t42 -99.5t-42 -99.5t-99.5 -42 t-99.5 42t-42 99zM631 1335q0 59 41 100.5t100 41.5t100 -42t41 -99.5t-41 -99.5t-100 -42t-100 42t-41 99z" />
<glyph unicode="&#xfd;" horiz-adv-x="1062" d="M27 850v133q0 16 5 22.5t23 6.5h258q14 0 21.5 -3t9.5 -8.5t6 -19.5l131 -487q45 -170 78 -355h4q14 119 68 355l110 487q4 20 10.5 25.5t26.5 5.5h248q16 0 22.5 -5.5t6.5 -23.5v-133q0 -16 -5.5 -22.5t-23.5 -6.5h-72l-166 -608q-76 -307 -137 -455q-76 -193 -301 -192 q-84 0 -181 32.5t-97 61.5q0 8 8 25l61 133q6 14 19 14q2 0 61.5 -25.5t112.5 -25.5q74 0 107.5 37t56.5 114l20 68h-86q-29 0 -37 27l-274 794h-66q-18 0 -23 6.5t-5 22.5zM383 1278q0 12 27 29l333 196q25 12 29 13q12 0 29 -29l63 -125q10 -20 10 -29q0 -14 -32 -26 l-361 -144q-20 -8 -28 -8q-12 0 -27 29l-33 65q-10 21 -10 29z" />
<glyph unicode="&#xfe;" horiz-adv-x="1099" d="M-2 1307v133q0 16 5 22t24 6h348q18 0 23 -6t5 -22v-477q88 84 236 84q180 0 277.5 -133.5t97.5 -389.5q0 -559 -398 -559q-111 0 -213 53v-241h105q18 0 23.5 -6.5t5.5 -22.5v-133q0 -16 -5.5 -22.5t-23.5 -6.5h-469q-18 0 -23.5 6.5t-5.5 22.5v133q0 16 5 22.5t24 6.5 h104v1323q0 156 -20 178h-96q-18 0 -23.5 6.5t-5.5 22.5zM403 209q70 -39 150 -39q117 0 159 78t42 266q0 166 -42 247t-145 81q-82 0 -164 -76v-557z" />
<glyph unicode="&#xff;" horiz-adv-x="1062" d="M27 850v133q0 16 5 22.5t23 6.5h258q14 0 21.5 -3t9.5 -8.5t6 -19.5l131 -487q45 -170 78 -355h4q14 119 68 355l110 487q4 20 10.5 25.5t26.5 5.5h248q16 0 22.5 -5.5t6.5 -23.5v-133q0 -16 -5.5 -22.5t-23.5 -6.5h-72l-166 -608q-76 -307 -137 -455q-76 -193 -301 -192 q-84 0 -181 32.5t-97 61.5q0 8 8 25l61 133q6 14 19 14q2 0 61.5 -25.5t112.5 -25.5q74 0 107.5 37t56.5 114l20 68h-86q-29 0 -37 27l-274 794h-66q-18 0 -23 6.5t-5 22.5zM211 1335q0 59 41 100.5t100 41.5q57 0 99.5 -42t42.5 -99.5t-42 -99.5t-99.5 -42t-99.5 42t-42 99 zM573 1335q0 59 41 100.5t100.5 41.5t100.5 -42t41 -99.5t-41 -99.5t-100.5 -42t-100.5 42t-41 99z" />
<glyph unicode="&#x152;" horiz-adv-x="1669" d="M96 700q0 367 134.5 552.5t375.5 185.5q139 0 205 -35h709q27 0 35 -6t8 -29v-311q0 -27 -9.5 -35t-33.5 -8h-136q-27 0 -35 8t-8 35v125h-260v-338h349q29 0 36 -8.5t7 -34.5v-135q0 -27 -8.5 -35t-34.5 -8h-349v-402h260v144q0 27 7.5 35t35.5 8h136q29 0 36 -7.5 t7 -35.5v-322q0 -27 -7.5 -35t-33.5 -8h-688q-10 -2 -37 -10t-45 -13q-66 -12 -146 -12q-244 0 -377 185t-133 550zM387 700q0 -520 240 -520q37 0 65.5 3t47 9.5t27.5 10.5t22.5 13t15.5 11v949q-90 47 -178 47q-135 0 -187.5 -131.5t-52.5 -391.5z" />
<glyph unicode="&#x153;" horiz-adv-x="1593" d="M86 506q0 248 119 394.5t325 146.5q201 0 295 -125q47 41 70 59t83 42t132 24q410 0 410 -560q0 -31 -9.5 -41t-37.5 -10h-553q0 -256 227 -256q66 0 123 16.5t93 34t44 17.5q14 0 23 -17l51 -122q6 -18 6 -23q0 -41 -123 -81t-244 -40q-221 0 -299 137 q-47 -68 -108.5 -102.5t-182.5 -34.5q-207 0 -325.5 146.5t-118.5 394.5zM362 506q0 -164 35 -250t133 -86q88 0 125 88t43 248q0 162 -34.5 249t-133 87t-133.5 -87t-35 -249zM920 627h323q0 229 -147 229q-74 0 -117 -47t-51 -91t-8 -91z" />
<glyph unicode="&#x178;" d="M27 1241v127q0 20 7 27.5t27 7.5h234q25 0 30 -4t15 -25l160 -330q61 -125 82 -233h4q33 133 82 233l159 330q10 20 15.5 24.5t29.5 4.5h224q23 0 28.5 -7t5.5 -28v-127q0 -20 -6 -27.5t-28 -7.5h-66l-313 -631v-378h139q27 0 35 -8.5t8 -34.5v-111q0 -27 -8 -35t-35 -8 h-555q-27 0 -35 8t-8 35v111q0 27 8 35t35 8h139v378l-325 631h-54q-20 0 -27 7.5t-7 27.5zM250 1726.5q0 59.5 41 100.5t100.5 41t100 -41t40.5 -100.5t-40.5 -100.5t-100 -41t-100.5 41t-41 100.5zM612 1726.5q0 59.5 41 100.5t100.5 41t100.5 -42t41 -100q0 -59 -42 -100 t-99.5 -41t-99.5 41t-42 100.5z" />
<glyph unicode="&#x2c6;" horiz-adv-x="686" d="M59 1276q0 8 25 29l231 182q23 16 29 16t29 -16l231 -182q25 -20 25 -29q0 -10 -13 -29l-38 -65q-16 -27 -29 -27q-8 0 -29 12l-176 101l-176 -101q-20 -12 -29 -12q-12 0 -28 27l-39 65q-13 19 -13 29z" />
<glyph unicode="&#x2dc;" horiz-adv-x="686" d="M27 1274q0 4 7 22.5t23.5 48t40 56t60.5 46t80 19.5q57 0 121.5 -35.5t86.5 -35.5q31 0 55.5 36.5t33.5 36.5q6 0 14 -4l96 -49q14 -10 14 -18q0 -4 -8 -23.5t-25.5 -48.5t-41 -55.5t-61.5 -46t-79 -19.5q-55 0 -114.5 36t-81.5 36q-27 0 -45.5 -18.5t-28.5 -37 t-18.5 -18.5t-18.5 6l-96 49q-14 9 -14 17z" />
<glyph unicode="&#x2000;" horiz-adv-x="987" />
<glyph unicode="&#x2001;" horiz-adv-x="1974" />
<glyph unicode="&#x2002;" horiz-adv-x="987" />
<glyph unicode="&#x2003;" horiz-adv-x="1974" />
<glyph unicode="&#x2004;" horiz-adv-x="657" />
<glyph unicode="&#x2005;" horiz-adv-x="493" />
<glyph unicode="&#x2006;" horiz-adv-x="327" />
<glyph unicode="&#x2007;" horiz-adv-x="327" />
<glyph unicode="&#x2008;" horiz-adv-x="245" />
<glyph unicode="&#x2009;" horiz-adv-x="393" />
<glyph unicode="&#x200a;" horiz-adv-x="108" />
<glyph unicode="&#x2010;" horiz-adv-x="757" d="M86 449v149q0 29 8 36t35 7h500q27 0 35 -7t8 -36v-149q0 -27 -8.5 -35t-34.5 -8h-500q-27 0 -35 8t-8 35z" />
<glyph unicode="&#x2011;" horiz-adv-x="757" d="M86 449v149q0 29 8 36t35 7h500q27 0 35 -7t8 -36v-149q0 -27 -8.5 -35t-34.5 -8h-500q-27 0 -35 8t-8 35z" />
<glyph unicode="&#x2012;" horiz-adv-x="757" d="M86 449v149q0 29 8 36t35 7h500q27 0 35 -7t8 -36v-149q0 -27 -8.5 -35t-34.5 -8h-500q-27 0 -35 8t-8 35z" />
<glyph unicode="&#x2013;" d="M86 449v149q0 29 8 36t35 7h883q29 0 36 -7t7 -36v-149q0 -27 -7.5 -35t-35.5 -8h-883q-27 0 -35 8t-8 35z" />
<glyph unicode="&#x2014;" horiz-adv-x="2048" d="M86 449v149q0 29 8 36t35 7h1790q27 0 35 -7t8 -36v-149q0 -27 -8 -35t-35 -8h-1790q-27 0 -35 8t-8 35z" />
<glyph unicode="&#x2018;" horiz-adv-x="454" d="M14 952q0 14 11 31l243 457q16 29 29 28l25 -6l77 -26q33 -12 33 -27q0 -8 -6 -27l-127 -417q-10 -35 -45 -35h-199q-41 -1 -41 22z" />
<glyph unicode="&#x2019;" horiz-adv-x="454" d="M23 989q0 8 6 27l127 418q10 35 45 34h198q41 0 41 -22q0 -16 -10 -31l-244 -457q-16 -29 -28 -28l-25 6l-78 27q-32 12 -32 26z" />
<glyph unicode="&#x201a;" horiz-adv-x="454" d="M-4 -223q0 8 6 26l127 418q10 35 45 35h199q41 0 41 -23q0 -16 -11 -30l-243 -457q-16 -29 -29 -29l-25 7l-77 26q-33 13 -33 27z" />
<glyph unicode="&#x201c;" horiz-adv-x="1024" d="M96 952q0 14 10 31l244 457q16 29 29 28l24 -6l78 -26q33 -12 33 -27q0 -8 -6 -27l-127 -417q-10 -35 -45 -35h-199q-41 -1 -41 22zM510 952q0 14 10 31l244 457q16 29 29 28l24 -6l78 -26q33 -12 33 -27q0 -8 -6 -27l-127 -417q-10 -35 -45 -35h-199q-41 -1 -41 22z" />
<glyph unicode="&#x201d;" horiz-adv-x="1024" d="M96 989q0 8 6 27l127 418q10 35 45 34h199q41 0 41 -22q0 -16 -10 -31l-244 -457q-16 -29 -29 -28l-24 6l-78 27q-33 12 -33 26zM510 989q0 8 6 27l127 418q10 35 45 34h199q41 0 41 -22q0 -16 -10 -31l-244 -457q-16 -29 -29 -28l-24 6l-78 27q-33 12 -33 26z" />
<glyph unicode="&#x201e;" horiz-adv-x="1024" d="M104 -223q0 8 7 26l127 418q10 35 45 35h198q41 0 41 -23q0 -16 -10 -30l-244 -457q-16 -29 -28 -29l-25 7l-78 26q-33 13 -33 27zM518 -223q0 8 6 26l127 418q10 35 45 35h199q41 0 41 -23q0 -16 -10 -30l-244 -457q-16 -29 -29 -29l-24 7l-78 26q-33 13 -33 27z" />
<glyph unicode="&#x2022;" horiz-adv-x="1024" d="M141 737q0 154 108.5 263.5t262.5 109.5q152 0 261.5 -109.5t109.5 -263.5q0 -152 -109.5 -260t-261.5 -108q-154 0 -262.5 108t-108.5 260z" />
<glyph unicode="&#x2026;" horiz-adv-x="2048" d="M158 184q0 76 54 130.5t130 54.5t130 -54.5t54 -130t-54 -130t-130 -54.5t-130 53t-54 131zM840 184q0 76 54 130.5t130 54.5t130 -54.5t54 -130t-54 -130t-130 -54.5q-78 0 -131 53t-53 131zM1522 184q0 76 54 130.5t130 54.5t130 -54.5t54 -130t-54 -130t-130 -54.5 t-130 53t-54 131z" />
<glyph unicode="&#x202f;" horiz-adv-x="393" />
<glyph unicode="&#x2039;" horiz-adv-x="720" d="M82 512q0 12 12 29l346 448q18 23 29 23q4 0 29 -13l102 -63q27 -16 27 -31q0 -10 -15 -28l-254 -377l254 -365q12 -20 13 -29q0 -16 -25 -30l-102 -64q-25 -12 -29 -12q-10 0 -29 25l-346 458q-12 17 -12 29z" />
<glyph unicode="&#x203a;" horiz-adv-x="720" d="M94 905q0 14 27 31l102 63q25 12 29 13q10 0 29 -23l346 -448q12 -16 12 -28.5t-12 -29.5l-346 -458q-18 -25 -29 -25q-4 0 -29 12l-102 64q-25 14 -25 30q0 8 13 29l253 365l-253 377q-15 18 -15 28z" />
<glyph unicode="&#x205f;" horiz-adv-x="493" />
<glyph unicode="&#x2122;" horiz-adv-x="1441" d="M113 1194l10 209h479l10 -209h-37q-4 10 -13 35.5t-12 33t-11.5 25t-13.5 23.5t-16 17t-23.5 16.5t-30 10.5t-39.5 9v-391q0 -33 3 -51.5t19.5 -27.5t27.5 -11t48 -6v-37h-313v37q37 4 48 5t30.5 10t24.5 28.5t5 52.5v391q-25 -4 -43 -9t-33.5 -16.5t-23.5 -16.5 t-18.5 -25.5t-12.5 -25.5t-13 -37t-15 -40h-37zM639 840v37q33 6 45 9t26.5 12t18.5 26.5t4 48.5v319q0 29 -1 42.5t-12 20.5t-18.5 8t-37.5 3v37h204l113 -371h4l129 371h221v-37q-29 -4 -35 -5t-22 -6t-18.5 -13.5t-6.5 -22.5t-4 -39v-307q0 -61 13.5 -75.5t62.5 -20.5 v-37h-254v37q31 6 42 11t20.5 24.5t9.5 60.5v377h-4l-172 -510h-33l-150 491h-4v-358q0 -41 7.5 -60.5t16.5 -24.5t36 -11v-37h-201z" />
<glyph unicode="&#xe000;" horiz-adv-x="1010" d="M0 1010h1010v-1010h-1010v1010z" />
<glyph unicode="&#xfb01;" horiz-adv-x="1366" d="M66 864v105q0 27 8 35t35 8h145v84q0 387 328 387q78 0 163.5 -22.5t85.5 -51.5q0 -6 -4 -18l-36 -144q-4 -20 -19 -20q-4 0 -51 17.5t-92 17.5q-53 0 -79 -24t-31 -53.5t-5 -88.5v-84h629q18 0 23 -6.5t5 -22.5v-793h132q18 0 23 -6t5 -22v-133q0 -16 -5 -22.5t-23 -6.5 h-498q-18 0 -23.5 6t-5.5 23v133q0 16 5 22t24 6h106v631h-397v-631h92q27 0 35 -8t8 -35v-104q0 -27 -8 -35t-35 -8h-477q-27 0 -35 8t-8 35v104q0 27 8 35t35 8h125v631h-145q-27 0 -35 8t-8 35zM870 1314.5q0 69.5 49.5 119t120.5 49.5q70 0 119 -49.5t49 -119 t-49 -119.5t-118.5 -50t-120 50t-50.5 119.5z" />
<glyph unicode="&#xfb02;" horiz-adv-x="1366" d="M66 864v105q0 27 8 35t35 8h145v84q0 387 328 387q190 0 342 -60l215 45q18 0 23 -6t5 -22v-1116q0 -43 2 -63.5t15.5 -40t40.5 -19.5q25 0 51.5 9t28.5 9q14 0 16 -12l41 -168q4 -12 4 -16q0 -20 -66.5 -39t-140.5 -19q-61 0 -106 14.5t-72 48t-42 63.5t-22.5 85 t-8.5 88t-1 96v857q-8 2 -34.5 12t-49 15t-75 11.5t-119.5 6.5q-53 0 -79 -24t-31 -53.5t-5 -88.5v-84h234q35 0 34 -21q0 -4 -4 -20l-28 -121q-6 -29 -39 -29h-197v-631h139q27 0 35 -8t8 -35v-104q0 -27 -8 -35t-35 -8h-524q-27 0 -35 8t-8 35v104q0 27 8 35t35 8h125v631 h-145q-27 0 -35 8t-8 35z" />
<glyph unicode="&#xfb03;" horiz-adv-x="2275" d="M1652 850v133q0 16 5.5 22.5t23.5 6.5h365q18 0 23 -6.5t5 -22.5v-793h131q18 0 23.5 -6t5.5 -22v-133q0 -16 -5 -22.5t-24 -6.5h-522q-18 0 -23.5 6t-5.5 23v133q0 16 5.5 22t23.5 6h131v631h-133q-18 0 -23.5 6.5t-5.5 22.5zM1773 1314.5q0 69.5 49.5 119t120.5 49.5 q70 0 119 -49.5t49 -119t-49 -119.5t-119 -50q-72 0 -121 50t-49 119.5zM863 864v105q0 27 8 35t35 8h145v84q0 387 328 387q78 0 163.5 -22.5t85.5 -51.5q0 -6 -4 -18l-36 -144q-4 -20 -19 -20q-4 0 -51 17.5t-92 17.5q-53 0 -79 -24t-31 -53.5t-5 -88.5v-84h234 q35 0 34 -21q0 -4 -4 -20l-28 -121q-6 -29 -39 -29h-197v-631h139q27 0 35 -8t8 -35v-104q0 -27 -8 -35t-35 -8h-524q-27 0 -35 8t-8 35v104q0 27 8 35t35 8h125v631h-145q-27 0 -35 8t-8 35zM66 864v105q0 27 8 35t35 8h145v84q0 387 328 387q78 0 163.5 -22.5t85.5 -51.5 q0 -6 -4 -18l-36 -144q-4 -20 -19 -20q-4 0 -51 17.5t-92 17.5q-53 0 -79 -24t-31 -53.5t-5 -88.5v-84h234q35 0 34 -21q0 -4 -4 -20l-28 -121q-6 -29 -39 -29h-197v-631h139q27 0 35 -8t8 -35v-104q0 -27 -8 -35t-35 -8h-524q-27 0 -35 8t-8 35v104q0 27 8 35t35 8h125v631 h-145q-27 0 -35 8t-8 35z" />
<glyph unicode="&#xfb04;" horiz-adv-x="2199" d="M1609 1307v133q0 16 5.5 22t23.5 6h334q18 0 23.5 -6t5.5 -22v-1116q0 -43 2 -63.5t15 -40t40 -19.5q25 0 51.5 9t28.5 9q12 0 16 -12l41 -168q4 -8 4 -16q0 -20 -66.5 -39t-140.5 -19q-61 0 -106 14.5t-71.5 48t-42 63.5t-22.5 85t-8.5 88t-1.5 96v918h-102 q-18 0 -23.5 6.5t-5.5 22.5zM863 864v105q0 27 8 35t35 8h145v84q0 387 328 387q78 0 163.5 -22.5t85.5 -51.5q0 -6 -4 -18l-36 -144q-4 -20 -19 -20q-4 0 -51 17.5t-92 17.5q-53 0 -79 -24t-31 -53.5t-5 -88.5v-84h234q35 0 34 -21q0 -4 -4 -20l-28 -121q-6 -29 -39 -29 h-197v-631h139q27 0 35 -8t8 -35v-104q0 -27 -8 -35t-35 -8h-524q-27 0 -35 8t-8 35v104q0 27 8 35t35 8h125v631h-145q-27 0 -35 8t-8 35zM66 864v105q0 27 8 35t35 8h145v84q0 387 328 387q78 0 163.5 -22.5t85.5 -51.5q0 -6 -4 -18l-36 -144q-4 -20 -19 -20 q-4 0 -51 17.5t-92 17.5q-53 0 -79 -24t-31 -53.5t-5 -88.5v-84h234q35 0 34 -21q0 -4 -4 -20l-28 -121q-6 -29 -39 -29h-197v-631h139q27 0 35 -8t8 -35v-104q0 -27 -8 -35t-35 -8h-524q-27 0 -35 8t-8 35v104q0 27 8 35t35 8h125v631h-145q-27 0 -35 8t-8 35z" />
</font>
</defs>
</svg>
