
<?xml version="1.0" standalone="no"?>
<!DOCTYPE svg PUBLIC "-//W3C//DTD SVG 1.1//EN" "http://www.w3.org/Graphics/SVG/1.1/DTD/svg11.dtd" >
<svg xmlns="http://www.w3.org/2000/svg" xmlns:xlink="http://www.w3.org/1999/xlink" version="1.1">
<metadata>
Created by FontForge 20170731 at Wed Nov 23 06:45:06 2005
 By ,,,
Copyright (c) 2005 by Telenor ASA. All rights reserved.
</metadata>
<defs>
<font id="Telenor" horiz-adv-x="578" >
  <font-face 
    font-family="Telenor"
    font-weight="400"
    font-stretch="normal"
    units-per-em="1000"
    panose-1="2 0 0 0 0 0 0 0 0 0"
    ascent="800"
    descent="-200"
    x-height="541"
    cap-height="737"
    bbox="-29 -309.087 1073 975"
    underline-thickness="50"
    underline-position="-150"
    unicode-range="U+0020-FB02"
  />
<missing-glyph horiz-adv-x="1000" 
 />
    <glyph glyph-name=".notdef" horiz-adv-x="1000" 
 />
    <glyph glyph-name=".null" horiz-adv-x="0" 
 />
    <glyph glyph-name="nonmarkingreturn" horiz-adv-x="333" 
 />
    <glyph glyph-name="space" unicode=" " horiz-adv-x="215" 
 />
    <glyph glyph-name="exclam" unicode="!" horiz-adv-x="286" 
d="M198 727l-17 -499q0 -8 -36 -8t-36 8l-16 499q0 10 54 10q51 0 51 -10zM146 -3q-49 0 -49 8v104q0 8 49 8q48 0 48 -8v-104q0 -8 -48 -8z" />
    <glyph glyph-name="quotedbl" unicode="&#x22;" horiz-adv-x="405" 
d="M333 729l-15 -259q0 -8 -32 -8q-30 0 -31 8l-14 259q-1 8 46 8q46 0 46 -8zM164 729l-14 -259q-1 -8 -32 -8t-32 8l-14 259q-1 8 46 8t46 -8z" />
    <glyph glyph-name="numbersign" unicode="#" horiz-adv-x="645" 
d="M611 481q-7 -33 -16 -33h-96l-32 -151h94q9 0 3 -34q-7 -35 -15 -35h-98l-48 -224q-2 -8 -41 -8h-14.5t-12.5 1t-10 2.5t-3 4.5l48 224h-142l-48 -224q-2 -8 -46 -8h-13.5t-11 1t-9 2.5t-2.5 4.5l48 224h-102q-8 0 -2 36q6 33 13 33h107l32 151h-106q-6 0 0 35t13 35h110
l45 211q2 8 37 8q46 0 45 -8l-46 -211h143l46 211q1 8 39 8q43 0 42 -8l-46 -211h92q9 0 3 -37zM418 448h-143l-32 -151h143z" />
    <glyph glyph-name="dollar" unicode="$" horiz-adv-x="656" 
d="M273 -67v87q-99 12 -184 69q-5 3 4 25t21.5 41t17.5 16q35 -25 88 -46.5t99 -21.5q67 0 106.5 31t39.5 88q0 36 -26 61t-65.5 37t-85 28.5t-85 34.5t-65.5 55t-26 90q0 65 42 114t118 64v93q0 8 50 8t50 -8v-89q81 -6 164 -48q3 -2 2 -11t-5.5 -21.5t-10 -24t-11 -19
t-8.5 -5.5q-84 45 -168 45q-58 0 -90.5 -26t-32.5 -67q0 -39 36.5 -63.5t88.5 -39t104 -33.5t88.5 -60.5t36.5 -106.5q0 -83 -53.5 -139.5t-140.5 -70.5v-87q0 -10 -50 -10q-49 0 -49 10z" />
    <glyph glyph-name="percent" unicode="%" horiz-adv-x="769" 
d="M192 377q-136 0 -136 107v152q0 107 137 107q63 0 100 -26t37 -81v-152q0 -107 -138 -107zM622 729l-384 -721q-4 -8 -48 -8q-47 2 -47 8l384 721q4 8 48 8h16t15 -1t13 -2.5t3 -4.5zM588 -16q-135 0 -135 107v157q0 107 136 107q137 0 137 -107v-157q0 -107 -138 -107z
M252 636q0 25 -15 34t-45 9q-29 0 -43.5 -9t-14.5 -34v-152q0 -26 14.5 -34.5t43.5 -8.5q30 0 45 8.5t15 34.5v152zM647 248q0 25 -15 34.5t-44 9.5q-58 0 -58 -44v-157q0 -26 14.5 -34.5t43.5 -8.5t44 8.5t15 34.5v157z" />
    <glyph glyph-name="ampersand" unicode="&#x26;" horiz-adv-x="674" 
d="M646 302l-91 -146l84 -96q6 -7 -10 -26.5t-36.5 -34t-25.5 -7.5l-69 83q-15 -19 -36.5 -36t-66 -34t-96.5 -17q-112 0 -177.5 44t-65.5 141v57q0 52 38.5 94.5t108.5 90.5q-28 27 -43.5 45t-30 45t-14.5 52v38q0 63 39.5 107t133.5 43q50 0 85 -14.5t51.5 -37.5t23 -45.5
t6.5 -46.5v-43q0 -48 -25.5 -78.5t-92.5 -79.5l156 -177l48 79q6 9 53 9h18t17 -1t14.5 -3t3.5 -5zM285 664q-41 0 -57 -17.5t-16 -62.5v-18q0 -11 3.5 -22t6.5 -18.5t12 -19t12.5 -15.5t16 -16.5l14.5 -14.5q42 28 60 50t19 56v18q0 38 -14.5 59t-56.5 21zM440 146
l-179 205l-41 -30q-64 -47 -64 -104v-32q0 -115 143 -115q84 0 141 76z" />
    <glyph glyph-name="quotesingle" unicode="'" horiz-adv-x="212" 
d="M152 729l-14 -259q-1 -8 -32 -8t-32 8l-14 259q-1 8 46 8t46 -8z" />
    <glyph glyph-name="parenleft" unicode="(" horiz-adv-x="365" 
d="M215 765q5 6 25.5 -4.5t37 -25.5t12.5 -20q-47 -57 -85.5 -161t-38.5 -222q0 -116 37.5 -224t80.5 -166q4 -6 -13.5 -19.5t-39 -22.5t-26.5 -3q-46 49 -90.5 170t-44.5 266q0 137 46.5 257t98.5 175z" />
    <glyph glyph-name="parenright" unicode=")" horiz-adv-x="365" 
d="M155 765q52 -55 98.5 -175t46.5 -257q0 -145 -44.5 -266t-90.5 -170q-6 -6 -27 3t-38 22.5t-13 19.5q42 58 79.5 166.5t37.5 223.5q0 118 -38.5 222t-85.5 161q-4 5 12.5 20t36.5 25.5t26 4.5z" />
    <glyph glyph-name="asterisk" unicode="*" horiz-adv-x="416" 
d="M74 655l111 -49l-10 121q0 3 3.5 5t10 3t13 1.5t12.5 0.5q39 0 39 -11l-11 -120l111 48q3 2 8 -5t9 -17.5t7.5 -22t3.5 -19.5t-4 -9l-119 -28l81 -92q4 -5 -10 -19t-31.5 -23.5t-21.5 -3.5l-64 106l-64 -106q-4 -6 -21 4.5t-31 24.5t-9 19l80 90l-119 29q-4 2 -4 9.5
t3.5 19t8 22t9.5 17t9 5.5z" />
    <glyph glyph-name="plus" unicode="+" horiz-adv-x="656" 
d="M577 214h-207v-210q0 -8 -44 -8t-44 8v210l-203 1q-8 0 -8 40t8 40h203v208q0 8 44 8t44 -8v-208h207q8 0 8 -41q0 -40 -8 -40z" />
    <glyph glyph-name="comma" unicode="," horiz-adv-x="269" 
d="M40 -125q-22 20 -11 30q37 37 46.5 72.5t9.5 129.5q0 8 46 8q49 0 49 -8q0 -171 -113 -245q-11 -5 -27 13z" />
    <glyph glyph-name="hyphen" unicode="-" horiz-adv-x="490" 
d="M84 265q-8 0 -8 40t8 40h322q8 0 8 -40t-8 -40h-322z" />
    <glyph glyph-name="period" unicode="." horiz-adv-x="242" 
d="M121 -4q-44 0 -44 8v125q0 8 44 8t44 -8v-125q0 -8 -44 -8z" />
    <glyph glyph-name="slash" unicode="/" horiz-adv-x="410" 
d="M400 729l-294 -725q-3 -8 -48 -8h-17.5t-15.5 1t-12.5 2.5t-2.5 4.5l294 725q4 8 48 8h17t15.5 -1t13 -2.5t2.5 -4.5z" />
    <glyph glyph-name="zero" unicode="0" horiz-adv-x="656" 
d="M331 -14q-250 0 -250 205v349q0 207 250 207q243 0 243 -207v-349q0 -205 -243 -205zM474 530q0 69 -34 98t-109 29q-77 0 -113.5 -29.5t-36.5 -97.5v-329q0 -68 36 -96.5t114 -28.5q75 0 109 28.5t34 96.5v329z" />
    <glyph glyph-name="one" unicode="1" horiz-adv-x="409" 
d="M229 -4q-50 0 -50 8v622q-23 -10 -59 -18.5t-53 -8.5q-9 0 -9 38q0 39 10 41q44 10 141 55h70v-729q0 -8 -50 -8z" />
    <glyph glyph-name="two" unicode="2" horiz-adv-x="589" 
d="M341 320q-114 -55 -151.5 -98t-37.5 -119v-20h362q9 0 9 -42q0 -41 -9 -41h-463v76q0 117 46.5 182t166.5 124q105 52 136.5 82.5t31.5 81.5q0 52 -35.5 83.5t-98.5 31.5q-82 0 -178 -49q-6 -3 -17 15.5t-17.5 40t-0.5 24.5q98 55 213 55q109 0 169.5 -52.5t60.5 -148.5
q0 -83 -42 -130.5t-145 -95.5z" />
    <glyph glyph-name="three" unicode="3" horiz-adv-x="561" 
d="M86 131q95 -56 176 -56q57 0 92 27.5t35 78.5v38q0 57 -32 83t-97 26h-57q-9 0 -9 44t9 44h63q121 0 121 108v33q0 47 -32.5 74.5t-87.5 27.5q-82 0 -166 -51q-5 -3 -18 15.5t-21 39.5t-2 25q36 24 93 42t119 18q90 0 151 -48t61 -137v-45q0 -58 -33.5 -96t-83.5 -49
q50 -10 86 -50.5t36 -98.5v-43q0 -89 -62.5 -142.5t-163.5 -53.5q-113 0 -215 61q-7 4 0 26.5t19.5 42t18.5 16.5z" />
    <glyph glyph-name="four" unicode="4" horiz-adv-x="605" 
d="M552 150h-93v-146q0 -8 -46 -8q-49 0 -49 8v146h-315q-6 0 -6 30q0 26 5 34l327 516q5 7 44 7q40 0 40 -7v-496h93q8 0 8 -42t-8 -42zM157 234h207v329z" />
    <glyph glyph-name="five" unicode="5" horiz-adv-x="586" 
d="M274 -15q-119 0 -218 77q-5 4 4.5 25.5t23 40t18.5 15.5q96 -66 172 -66q66 0 99 34t33 96v55q0 132 -113 132q-72 0 -115 -60h-87v399h393q8 0 8 -42q0 -41 -8 -41h-296v-205q52 38 121 38q93 0 145.5 -57t52.5 -160v-59q0 -99 -61.5 -160.5t-171.5 -61.5z" />
    <glyph glyph-name="six" unicode="6" horiz-adv-x="648" 
d="M328 -14q-121 0 -183 67.5t-62 178.5v276q0 106 61 172.5t188 66.5q107 0 197 -44q3 -2 2 -11.5t-6 -22.5t-10.5 -24.5t-11 -19t-8.5 -5.5q-74 41 -158 41q-79 0 -117 -38.5t-38 -103.5v-100q9 22 54 48.5t111 26.5q102 0 164 -57.5t62 -159.5v-68q0 -104 -67 -163.5
t-178 -59.5zM473 211v57q0 67 -36 104t-103 37q-71 0 -111.5 -38.5t-40.5 -102.5v-50q0 -71 38.5 -110.5t107.5 -39.5q67 0 106 36.5t39 106.5z" />
    <glyph glyph-name="seven" unicode="7" horiz-adv-x="556" 
d="M146 4l254 644h-353q-8 0 -8 43q0 42 8 42h455q8 0 8 -28q0 -31 -6 -48l-253 -653q-3 -8 -53 -8h-17.5t-16.5 1t-14.5 2.5t-3.5 4.5z" />
    <glyph glyph-name="eight" unicode="8" horiz-adv-x="631" 
d="M304 -14q-108 0 -175 51.5t-67 147.5v19q0 64 31 107t77 64q-34 17 -64 59.5t-30 99.5v16q0 97 61 147t170 50t168 -49.5t59 -147.5v-15q0 -60 -28 -101t-68 -59q47 -19 77.5 -60t30.5 -106v-23q0 -96 -67 -148t-175 -52zM304 336q-66 0 -105.5 -30t-39.5 -95v-20
q0 -61 41 -92.5t104 -31.5q62 0 103.5 32t41.5 92v20q0 125 -145 125zM167 547v-15q0 -62 38 -92.5t99 -30.5q63 0 100 30.5t37 92.5v14q0 64 -34 92.5t-102 28.5q-138 0 -138 -120z" />
    <glyph glyph-name="nine" unicode="9" horiz-adv-x="649" 
d="M300 747q120 0 183 -65.5t63 -171.5v-285q0 -106 -62 -172.5t-188 -66.5q-107 0 -197 44q-3 2 -2 11.5t5.5 22.5t10 24.5t11.5 19t9 5.5q74 -41 157 -41q79 0 117.5 38t38.5 104v100q-9 -22 -54 -48.5t-111 -26.5q-102 0 -164 59t-62 158v68q0 104 67 163.5t178 59.5z
M154 522v-57q0 -66 38 -104t102 -38q70 0 111 38.5t41 101.5v59q0 66 -38.5 104.5t-107.5 38.5q-67 0 -106.5 -36.5t-39.5 -106.5z" />
    <glyph glyph-name="colon" unicode=":" horiz-adv-x="265" 
d="M140 -4q-44 0 -44 8v125q0 8 44 8t44 -8v-125q0 -8 -44 -8zM137 405q-44 0 -44 8v125q0 8 44 8t44 -8v-125q0 -8 -44 -8z" />
    <glyph glyph-name="semicolon" unicode=";" horiz-adv-x="260" 
d="M29 -125q-21 20 -11 30q38 37 47.5 72.5t9.5 129.5q0 8 46 8q48 0 48 -8q0 -171 -113 -245q-11 -5 -27 13zM117 405q-44 0 -44 8v125q0 8 44 8t44 -8v-125q0 -8 -44 -8z" />
    <glyph glyph-name="less" unicode="&#x3c;" horiz-adv-x="540" 
d="M85 293l363 127q3 1 4.5 -2.5t2.5 -12t1 -14v-14.5q0 -43 -8 -46l-250 -84l250 -80q8 -2 8 -43v-15t-1 -14.5t-2.5 -12.5t-4.5 -3l-363 127q-8 3 -8 44q0 40 8 43z" />
    <glyph glyph-name="equal" unicode="=" horiz-adv-x="540" 
d="M81 283q-8 0 -8 40t8 40h383q8 0 8 -40t-8 -40h-383zM81 129q-8 0 -8 40t8 40h383q8 0 8 -40t-8 -40h-383z" />
    <glyph glyph-name="greater" unicode="&#x3e;" horiz-adv-x="540" 
d="M88 420l363 -127q9 -3 9 -43q0 -41 -9 -44l-363 -127q-3 -1 -4.5 3t-2.5 12.5t-1 14.5v15q0 41 8 43l250 80l-250 84q-8 3 -8 46v14.5t1 14t2.5 12t4.5 2.5z" />
    <glyph glyph-name="question" unicode="?" horiz-adv-x="458" 
d="M207 661q-52 0 -117 -42q-5 -3 -16.5 14.5t-19.5 38t-3 23.5q83 50 167 50q94 0 139.5 -52.5t45.5 -126.5q0 -39 -17 -73.5t-41 -60.5t-48 -51t-41 -55.5t-17 -63.5v-33q0 -8 -42 -8q-40 0 -40 8v37q0 39 15.5 74t37.5 60t44 48.5t37.5 51.5t15.5 58q0 44 -26.5 73.5
t-73.5 29.5zM197 -4q-44 0 -44 8v125q0 8 44 8t44 -8v-125q0 -8 -44 -8z" />
    <glyph glyph-name="at" unicode="@" horiz-adv-x="870" 
d="M650 79q-42 0 -71.5 20t-36.5 36q-7 -9 -19 -19.5t-45 -26t-69 -15.5q-62 0 -100 37.5t-38 91.5v24q0 71 56.5 101t192.5 30q0 96 -86 96q-39 0 -108 -31q-10 -5 -25 24t-6 35q62 36 143 36q71 0 115.5 -37t44.5 -120v-166q0 -22 15 -38.5t42 -16.5q30 0 49 22.5t19 63.5
v160q0 34 -12.5 68t-41 69.5t-87.5 58t-141 22.5q-151 0 -218.5 -71.5t-67.5 -180.5v-120q0 -109 67.5 -180t200.5 -71q106 0 216 47q3 1 8 -5t9.5 -16t7.5 -20.5t3.5 -18t-2.5 -9.5q-110 -47 -241 -47q-79 0 -141.5 21t-100.5 53t-62.5 74.5t-34 82t-9.5 79.5v143
q0 51 17 100.5t55.5 98.5t114 79.5t177.5 30.5q87 0 153 -21t103 -51.5t60 -71.5t30 -74t7 -65v-148q0 -73 -34.5 -118.5t-108.5 -45.5zM520 299q-44 0 -69 -1.5t-53 -8t-40.5 -21.5t-12.5 -39v-25q0 -26 20 -45t53 -19q60 0 102 51v108z" />
    <glyph glyph-name="A" unicode="A" horiz-adv-x="601" 
d="M299 737q54 0 57 -9l226 -724q1 -3 -3 -4.5t-14 -2.5t-16.5 -1h-17.5q-48 0 -51 8l-50 167h-264l-51 -167q-3 -8 -48 -8h-17t-15 1t-13 2.5t-3 4.5l224 724q3 9 56 9zM191 255h215l-107 371z" />
    <glyph glyph-name="B" unicode="B" horiz-adv-x="612" 
d="M553 233v-51q0 -83 -54 -132.5t-165 -49.5h-248v735h248q99 0 149.5 -45.5t50.5 -127.5v-26q0 -121 -103 -150q55 -14 88.5 -53.5t33.5 -99.5zM436 530v20q0 102 -126 102h-126v-226h133q119 0 119 104zM454 193v32q0 54 -32.5 86t-95.5 32h-142v-260h136
q67 0 100.5 25.5t33.5 84.5z" />
    <glyph glyph-name="C" unicode="C" horiz-adv-x="575" 
d="M540 704q3 -2 2 -11t-5.5 -21.5t-9.5 -24t-11 -19t-9 -6.5q-91 41 -166 41q-72 0 -119.5 -34t-47.5 -102v-326q0 -132 167 -132q85 0 174 33q3 1 7.5 -6t8.5 -18.5t7 -24t3.5 -21.5t-2.5 -11q-29 -13 -90.5 -24t-111.5 -11q-262 0 -262 217v325q0 114 70.5 166.5
t191.5 52.5q112 0 203 -43z" />
    <glyph glyph-name="D" unicode="D" horiz-adv-x="660" 
d="M586 507v-290q0 -217 -247 -217h-253v733h250q126 0 188 -54.5t62 -171.5zM486 217v289q0 142 -149 142h-152v-563h155q146 0 146 132z" />
    <glyph glyph-name="E" unicode="E" horiz-adv-x="523" 
d="M477 43q0 -43 -8 -43h-383v733h381q9 0 9 -44q0 -42 -9 -42h-282v-223h250q8 0 8 -42t-8 -42h-250v-255h284q8 0 8 -42z" />
    <glyph glyph-name="F" unicode="F" horiz-adv-x="495" 
d="M464 690q0 -43 -9 -43h-270v-240h245q9 0 9 -43q0 -46 -9 -46h-245v-314q0 -8 -50 -8q-49 0 -49 8v729h370q8 0 8 -43z" />
    <glyph glyph-name="G" unicode="G" horiz-adv-x="668" 
d="M506 211v107h-140q-8 0 -8 43t8 43h238v-198q0 -107 -68.5 -164t-195.5 -57t-196 55t-69 152v338q0 217 262 217q112 0 203 -43q3 -2 2 -11t-5.5 -21.5t-9.5 -24t-11 -19t-9 -6.5q-88 40 -166 40q-67 0 -117 -32t-50 -102v-315q0 -73 47 -108.5t120 -35.5q75 0 120 34
t45 108z" />
    <glyph glyph-name="H" unicode="H" horiz-adv-x="692" 
d="M607 4q0 -8 -50 -8t-50 8v334h-322v-334q0 -8 -49 -8q-50 0 -50 8v725q0 8 50 8q49 0 49 -8v-301h322v301q0 8 50 8t50 -8v-725z" />
    <glyph glyph-name="I" unicode="I" horiz-adv-x="274" 
d="M189 4q0 -8 -50 -8t-50 8v725q0 8 50 8t50 -8v-725z" />
    <glyph glyph-name="J" unicode="J" horiz-adv-x="343" 
d="M258 729v-578q0 -67 -39.5 -109t-124.5 -42h-62q-8 0 -8 43q0 42 8 42h55q37 0 54 15.5t17 52.5v576q0 8 50 8t50 -8z" />
    <glyph glyph-name="K" unicode="K" horiz-adv-x="592" 
d="M185 264v-260q0 -8 -50 -8q-49 0 -49 8v725q0 8 50 8q49 0 49 -8v-341l270 340q8 9 55 9h23t20 -1t16 -2.5t2 -4.5l-257 -324l262 -401q8 -8 -59 -8q-52 0 -58 8l-214 333z" />
    <glyph glyph-name="L" unicode="L" horiz-adv-x="504" 
d="M497 46q0 -46 -8 -46h-403v729q0 8 49 8q50 0 50 -8v-638h304q8 0 8 -45z" />
    <glyph glyph-name="M" unicode="M" horiz-adv-x="798" 
d="M712 4q0 -8 -44 -8q-46 0 -46 8v464q0 88 6 144h-2l-181 -608q-2 -8 -47 -8q-44 0 -46 8l-180 609h-1q6 -72 6 -144v-465q0 -8 -46 -8q-45 0 -45 8v725q0 8 67 8q63 0 66 -9l120 -400q36 -122 61 -239q22 113 61 242l117 398q3 8 63 8q71 0 71 -8v-725z" />
    <glyph glyph-name="N" unicode="N" horiz-adv-x="716" 
d="M630 4q0 -8 -63 -8q-58 0 -63 8l-224 421q-41 77 -103 202h-1q7 -95 7 -205v-418q0 -8 -48 -8q-49 0 -49 8v725q0 8 65 8q67 0 70 -8l207 -392l110 -215h2q-6 99 -6 210v397q0 8 49 8q47 0 47 -8v-725z" />
    <glyph glyph-name="O" unicode="O" horiz-adv-x="688" 
d="M614 205v-1q0 -106 -70 -162.5t-200 -56.5q-131 0 -200 55.5t-69 163.5v322q0 108 69 164.5t200 56.5q130 0 200 -56.5t70 -164.5v-321zM514 209v313q0 142 -170 142t-170 -142v-313q0 -141 170 -141t170 141z" />
    <glyph glyph-name="P" unicode="P" horiz-adv-x="580" 
d="M534 528v-61q0 -93 -54.5 -149t-169.5 -56h-125v-258q0 -8 -50 -8t-50 8v729h228q112 0 166.5 -54t54.5 -151zM435 474v49q0 65 -30.5 96t-104.5 31h-115v-305h115q74 0 104.5 32t30.5 97z" />
    <glyph glyph-name="Q" unicode="Q" horiz-adv-x="698" 
d="M628 -89q10 0 10 -41q0 -26 -9 -35t-30 -9q-47 0 -119.5 30.5t-107.5 30.5q-12 0 -25 -1l-13 -2q-9 0 -9 41q0 40 9 41q18 4 38 4q46 0 120.5 -30.5t105.5 -30.5q7 0 18 1t12 1zM616 205v-1q0 -106 -70 -162.5t-200 -56.5q-131 0 -200.5 56t-69.5 163v322
q0 108 69.5 164.5t200.5 56.5q130 0 200 -56.5t70 -164.5v-321zM516 209v313q0 142 -170 142t-170 -142v-313q0 -141 170 -141t170 141z" />
    <glyph glyph-name="R" unicode="R" horiz-adv-x="610" 
d="M420 290l141 -286q1 -3 -3 -4.5t-14.5 -2.5t-18 -1h-21.5q-52 0 -56 8l-127 270h-134v-270q0 -8 -50 -8t-50 8v729h237q109 0 163 -54t54 -151v-48q0 -147 -121 -190zM442 485v38q0 65 -30.5 96t-103.5 31h-121v-294h121q73 0 103.5 31.5t30.5 97.5z" />
    <glyph glyph-name="S" unicode="S" horiz-adv-x="556" 
d="M511 203q0 -97 -68.5 -157t-176.5 -60q-122 0 -232 73q-5 3 4 25t21.5 41t17.5 16q35 -25 88 -46.5t99 -21.5q66 0 105 32.5t39 90.5q0 14 -2.5 25.5t-9 22.5t-11.5 19t-17.5 17t-19.5 14.5t-24.5 14.5t-25 12.5t-29 13.5t-29.5 14q-44 21 -68.5 35.5t-55 40t-44.5 58.5
t-14 75q0 81 58.5 134t164.5 53q104 0 200 -50q3 -2 2 -11t-5.5 -21.5t-10 -24t-11 -19t-8.5 -5.5q-84 45 -168 45q-59 0 -91 -27t-32 -72q0 -24 10 -42.5t35.5 -35.5t39 -24t51.5 -24q9 -4 13 -6q102 -45 153.5 -94.5t51.5 -130.5z" />
    <glyph glyph-name="T" unicode="T" horiz-adv-x="533" 
d="M528 692q0 -42 -8 -42h-202v-646q0 -8 -50 -8t-50 8v646h-205q-8 0 -8 42q0 41 8 41h507q8 0 8 -41z" />
    <glyph glyph-name="U" unicode="U" horiz-adv-x="667" 
d="M587 200q0 -99 -67.5 -156.5t-187.5 -57.5t-186 58.5t-66 163.5v521q0 8 50 8q48 0 48 -8v-530q0 -64 40 -97t112 -33q73 0 115 33.5t42 96.5v530q0 8 50 8t50 -8v-529z" />
    <glyph glyph-name="V" unicode="V" horiz-adv-x="592" 
d="M576 729l-220 -724q-3 -9 -57 -9q-55 0 -58 9l-228 724q-1 3 4 4.5t14.5 2.5t16 1h17.5q52 0 54 -8l106 -364q42 -141 73 -279h2q25 114 73 279l104 364q3 8 50 8h17t15 -1t13.5 -2.5t3.5 -4.5z" />
    <glyph glyph-name="W" unicode="W" horiz-adv-x="892" 
d="M867 729l-167 -724q-2 -9 -58 -9q-57 0 -59 9l-84 353q-39 166 -52 236h-2q-28 -154 -46 -233l-80 -356q-2 -9 -57 -9q-57 0 -59 9l-178 724q-1 3 3 4.5t13.5 2.5t15.5 1h17q50 0 52 -8l79 -347q41 -186 56 -292h1q18 125 54 291l80 348q1 8 48 8q48 0 49 -8l86 -348
q49 -204 63 -291h1q15 98 55 292l72 347q1 8 49 8h17t15 -1t13 -2.5t3 -4.5z" />
    <glyph glyph-name="X" unicode="X" horiz-adv-x="599" 
d="M300 293l-173 -288q-6 -9 -55 -9q-13 0 -22.5 0.5t-18.5 1t-13 2.5t-2 5l229 361l-223 363q-2 3 2 4.5t14.5 2.5t18 1h21.5q52 0 57 -9l166 -285l166 286q6 8 55 8h21t16.5 -1t13 -2.5t1.5 -4.5l-219 -356l228 -368q2 -3 -2.5 -5t-14 -2.5l-19 -1t-21.5 -0.5q-50 0 -57 9
z" />
    <glyph glyph-name="Y" unicode="Y" horiz-adv-x="572" 
d="M562 728l-227 -428v-295q0 -9 -50 -9t-50 9v295l-225 429q-1 3 3 4.5t12.5 2t17.5 1t21 0.5q50 0 55 -8l168 -338l168 338q5 8 57 8q12 0 20.5 -0.5t16.5 -1t11.5 -2.5t1.5 -5z" />
    <glyph glyph-name="Z" unicode="Z" horiz-adv-x="558" 
d="M526 41q0 -41 -8 -41h-486v54l361 594h-345q-8 0 -8 44q0 41 8 41h467v-56l-356 -592h359q8 0 8 -44z" />
    <glyph glyph-name="bracketleft" unicode="[" horiz-adv-x="356" 
d="M306 -141h-214v903h214q8 0 8 -40t-8 -40h-119v-743h119q8 0 8 -40t-8 -40z" />
    <glyph glyph-name="backslash" unicode="\" horiz-adv-x="413" 
d="M25 729q-1 3 3 4.5t13.5 2.5t16 1h17.5q47 0 50 -8l270 -725q1 -2 -3 -4t-12.5 -2.5t-15.5 -1t-16 -0.5q-47 0 -50 8z" />
    <glyph glyph-name="bracketright" unicode="]" horiz-adv-x="356" 
d="M265 -141h-214q-8 0 -8 40t8 40h118v742h-118q-8 0 -8 40t8 40h214v-902z" />
    <glyph glyph-name="asciicircum" unicode="^" horiz-adv-x="540" 
d="M317 721l142 -372q1 -3 -3 -4.5t-12.5 -2.5t-14.5 -1h-17q-45 0 -48 8l-99 282l-93 -282q-3 -8 -47 -8h-16.5t-14.5 1t-12 2.5t-2 4.5l141 372q3 7 48 7t48 -7z" />
    <glyph glyph-name="underscore" unicode="_" horiz-adv-x="401" 
d="M6 -125v60h388v-60h-388z" />
    <glyph glyph-name="grave" unicode="`" horiz-adv-x="487" 
d="M242 607l-104 138q-14 15 40 15q39 0 45 -8l85 -142q5 -7 -8 -9q-7 -1 -22 -1q-30 0 -36 7z" />
    <glyph glyph-name="a" unicode="a" horiz-adv-x="546" 
d="M475 4q0 -8 -44 -8q-46 0 -46 8v52q-77 -68 -167 -68q-79 0 -125 44.5t-46 119.5v25q0 90 81.5 130.5t255.5 15.5v35q0 60 -26.5 85t-87.5 25q-87 0 -153 -33q-5 -3 -13 13q-19 36 -17 61q1 6 4 8q80 35 183 35q201 0 201 -195v-353zM384 129v126q-246 38 -246 -75v-24
q0 -42 28 -64.5t75 -22.5q78 0 143 60z" />
    <glyph glyph-name="b" unicode="b" horiz-adv-x="589" 
d="M528 354v-166q0 -98 -62.5 -150.5t-166.5 -52.5q-107 0 -167 52.5t-60 150.5v553q0 8 48 8q49 0 49 -8v-266q21 35 64 57.5t103 22.5q81 0 136.5 -52t55.5 -149zM431 195v144q0 67 -32.5 99t-85.5 32q-65 0 -104.5 -42.5t-39.5 -105.5v-127q0 -127 130 -127
q132 0 132 127z" />
    <glyph glyph-name="c" unicode="c" horiz-adv-x="491" 
d="M271 -15q-98 0 -154.5 52.5t-56.5 151.5v162q0 97 57 150.5t154 53.5q106 0 180 -55q6 -5 -1 -25.5t-19 -37t-20 -11.5q-1 1 -12.5 8t-17.5 10.5t-20 10t-24.5 9.5t-25.5 6t-30 3q-124 0 -124 -132v-147q0 -128 124 -128q61 0 132 49q8 6 20.5 -10t19.5 -35.5t1 -24.5
q-28 -23 -78.5 -41.5t-104.5 -18.5z" />
    <glyph glyph-name="d" unicode="d" horiz-adv-x="590" 
d="M265 556q58 0 97.5 -21.5t52.5 -43.5v250q0 8 48 8t48 -8v-737q0 -8 -47 -8q-44 0 -44 8v63q-53 -81 -160 -81q-85 0 -142 52t-57 149v168q0 98 57.5 149.5t146.5 51.5zM285 71q58 0 94 39t36 96v132q0 62 -36.5 98.5t-98.5 36.5q-122 0 -122 -131v-140q0 -131 127 -131z
" />
    <glyph glyph-name="e" unicode="e" horiz-adv-x="552" 
d="M493 232h-338v-43q0 -60 32.5 -92.5t96.5 -32.5q78 0 164 44q5 2 16 -14.5t18.5 -35t2.5 -21.5q-91 -52 -205 -52q-102 0 -160.5 55.5t-58.5 151.5v150q0 99 58.5 156.5t154.5 57.5q105 0 162 -58t57 -164v-102zM400 303v44q0 63 -34.5 97t-90.5 34q-55 0 -88 -34
t-33 -96v-45h246z" />
    <glyph glyph-name="f" unicode="f" horiz-adv-x="344" 
d="M305 489q0 -40 -9 -40h-92v-444q0 -9 -48 -9q-49 0 -49 9v444h-69q-8 0 -8 40q0 38 8 38h69v80q0 66 34 102t97 36h74q8 0 8 -40q0 -39 -8 -39h-55q-54 0 -54 -64v-75h93q9 0 9 -38z" />
    <glyph glyph-name="g" unicode="g" horiz-adv-x="588" 
d="M415 3v63q-52 -72 -155 -72q-86 0 -142 52t-56 149v159q0 97 56.5 149t141.5 52q58 0 98.5 -22t60.5 -53v58q0 8 46 8q47 0 47 -8v-506q0 -65 -19.5 -113.5t-53.5 -76t-74 -40.5t-87 -13q-104 0 -188 55q-5 3 3 22.5t20.5 36t17.5 13.5q79 -48 151 -48q63 0 98 35t35 100
zM281 470q-57 0 -90 -31.5t-33 -99.5v-129q0 -67 33 -99t90 -32q62 0 98 37t36 100v119q0 58 -36.5 96.5t-97.5 38.5z" />
    <glyph glyph-name="h" unicode="h" horiz-adv-x="579" 
d="M507 4q0 -8 -49 -8q-48 0 -48 8v362q0 48 -22.5 74.5t-62.5 26.5q-49 0 -93.5 -38.5t-56.5 -63.5v-361q0 -8 -48 -8t-48 8v737q0 8 48 8t48 -8v-280q23 33 70 64t111 31q69 -1 110 -47t41 -120v-385z" />
    <glyph glyph-name="i" unicode="i" horiz-adv-x="252" 
d="M126 -4q-48 0 -48 8v533q0 8 48 8t48 -8v-533q0 -8 -48 -8zM126 620q-48 0 -48 8v113q0 8 48 8t48 -8v-113q0 -8 -48 -8z" />
    <glyph glyph-name="j" unicode="j" horiz-adv-x="257" 
d="M68 -202h-89q-8 0 -8 41q0 40 8 40h53q51 0 51 51v607q0 8 48 8t48 -8v-622q0 -56 -28.5 -86.5t-82.5 -30.5zM131 620q-48 0 -48 8v113q0 8 48 8t48 -8v-113q0 -8 -48 -8z" />
    <glyph glyph-name="k" unicode="k" horiz-adv-x="509" 
d="M493 537l-207 -235l219 -298q2 -3 -2.5 -4.5t-16 -2.5t-19.5 -1h-21q-53 0 -60 8l-172 235l-39 -41v-194q0 -8 -49 -8q-47 0 -47 8v737q0 8 48 8t48 -8v-426l196 222q8 8 65 8h21.5t18.5 -1t15 -2.5t2 -4.5z" />
    <glyph glyph-name="l" unicode="l" horiz-adv-x="289" 
d="M252 0h-46q-65 0 -98 34t-33 94v613q0 8 48 8t48 -8v-605q0 -27 13.5 -39.5t44.5 -12.5h23q9 0 12 -7.5t3 -33.5q0 -28 -3 -35.5t-12 -7.5z" />
    <glyph glyph-name="m" unicode="m" horiz-adv-x="845" 
d="M473 363v-359q0 -8 -48 -8t-48 8v360q0 47 -20 73t-55 26q-34 0 -70.5 -34t-57.5 -73v-352q0 -8 -48 -8t-48 8v533q0 8 47 8q44 0 44 -8v-90q29 45 71.5 76t92.5 31q49 0 82 -31.5t43 -74.5q75 106 166 106q61 0 104.5 -43t43.5 -125v-382q0 -8 -47 -8q-49 0 -49 8v360
q0 99 -74 99q-36 0 -72.5 -30t-56.5 -70z" />
    <glyph glyph-name="n" unicode="n" 
d="M505 4q0 -8 -48 -8t-48 8v357q0 106 -85 106q-41 0 -82.5 -30t-67.5 -71v-362q0 -8 -48 -8t-48 8v534q0 8 48 8q45 0 45 -8v-76q23 32 71.5 63t112.5 31q69 -1 109.5 -47t40.5 -120v-385z" />
    <glyph glyph-name="o" unicode="o" horiz-adv-x="575" 
d="M287 -15q-108 0 -167.5 52.5t-59.5 151.5v163q0 99 60.5 151.5t166.5 52.5t167 -52.5t61 -151.5v-163q0 -98 -62.5 -151t-165.5 -53zM419 347q0 126 -132 126q-66 0 -98.5 -30t-32.5 -96v-153q0 -66 32.5 -96t98.5 -30q132 0 132 126v153z" />
    <glyph glyph-name="p" unicode="p" horiz-adv-x="589" 
d="M324 -15q-59 0 -98 22t-52 44v-247q0 -8 -48 -8t-48 8v733q0 8 47 8q44 0 44 -8v-63q22 33 62.5 57.5t97.5 24.5q85 0 141.5 -52t56.5 -149v-169q0 -98 -57 -149.5t-146 -51.5zM304 470q-58 0 -94 -39t-36 -96v-132q0 -61 37 -98t98 -37q122 0 122 131v140
q0 131 -127 131z" />
    <glyph glyph-name="q" unicode="q" horiz-adv-x="590" 
d="M265 -15q-89 0 -146.5 51.5t-57.5 149.5v169q0 97 57 149t142 52q57 0 97.5 -24.5t62.5 -57.5v63q0 8 44 8q47 0 47 -8v-733q0 -8 -48 -8t-48 8v247q-13 -22 -52.5 -44t-97.5 -22zM285 470q-127 0 -127 -131v-140q0 -131 122 -131q62 0 98.5 37t36.5 98v132
q0 58 -35.5 96.5t-94.5 38.5z" />
    <glyph glyph-name="r" unicode="r" horiz-adv-x="368" 
d="M344 446h-42q-32 0 -61.5 -27.5t-69.5 -87.5v-327q0 -8 -49 -8q-47 0 -47 8v534q0 8 46 8t46 -8v-117q46 73 75.5 98.5t73.5 25.5h29q8 0 8 -50q0 -49 -9 -49z" />
    <glyph glyph-name="s" unicode="s" horiz-adv-x="455" 
d="M223 -14q-51 0 -102 16t-80 34q-5 3 2.5 22.5t18.5 37t16 14.5q76 -45 141 -45q48 0 73.5 23.5t25.5 57.5t-27 57.5t-66 39t-78 34t-66 52.5t-27 83q0 60 46 101.5t134 41.5q87 0 155 -32q7 -4 -5 -40.5t-20 -34.5q-71 28 -132 28q-41 0 -63.5 -18t-22.5 -44t27.5 -45.5
t66.5 -35t78 -35.5t66.5 -57.5t27.5 -90.5q0 -69 -51 -116.5t-138 -47.5z" />
    <glyph glyph-name="t" unicode="t" horiz-adv-x="366" 
d="M303 0h-68q-66 0 -98 33.5t-32 94.5v321h-74q-9 0 -9 39t9 39h74v129q0 8 48 8q45 0 45 -8v-129h112q8 0 8 -39t-8 -39h-112v-316q0 -28 12.5 -40t42.5 -12h50q10 0 13 -6.5t3 -33.5t-3 -34t-13 -7z" />
    <glyph glyph-name="u" unicode="u" 
d="M72 538q0 8 48 8q49 0 49 -8v-363q0 -48 22.5 -74.5t62.5 -26.5q48 0 92.5 38t57.5 63v363q0 8 48 8t48 -8v-534q0 -8 -48 -8q-46 0 -46 8v75q-22 -32 -70.5 -63t-112.5 -31q-70 1 -110.5 47t-40.5 120v386z" />
    <glyph glyph-name="v" unicode="v" horiz-adv-x="489" 
d="M475 537l-177 -532q-3 -9 -54 -9q-50 0 -52 8l-179 533q-1 3 4 4.5t14.5 2.5t16 1h17.5q50 0 52 -8l71 -232q40 -133 59 -228h2q19 101 58 228l71 232q2 8 49 8h17t15 -1t13 -2.5t3 -4.5z" />
    <glyph glyph-name="w" unicode="w" horiz-adv-x="707" 
d="M440 4l-53 228q-24 104 -32 169h-2q-9 -75 -33 -170l-55 -227q-1 -8 -53 -8q-49 0 -51 8l-136 533q-1 3 3.5 4.5t14 2.5t15.5 1h17q45 0 47 -8l56 -251q21 -93 37 -198h1q21 126 39 199l61 250q2 8 42 8q41 0 42 -8l58 -250q22 -98 36 -198h2q14 103 36 198l59 250
q2 8 44 8h17t14.5 -1t12.5 -2.5t3 -4.5l-141 -533q-3 -8 -52 -8q-47 0 -49 8z" />
    <glyph glyph-name="x" unicode="x" horiz-adv-x="484" 
d="M455 537l-159 -263l160 -270q2 -3 -2 -4.5t-13.5 -2.5t-16.5 -1h-18q-45 0 -50 8l-114 203l-115 -203q-5 -8 -50 -8h-17.5t-16.5 1t-14 2.5t-2 4.5l164 271l-164 262q-1 3 3 4.5t13 2.5t15.5 1h17.5q53 0 58 -8l112 -192l110 192q5 8 50 8h17.5t15.5 -1t13 -2.5t3 -4.5z
" />
    <glyph glyph-name="y" unicode="y" horiz-adv-x="511" 
d="M499 537l-269 -728q-3 -8 -49 -8h-17.5t-15.5 1t-13 2.5t-3 4.5l76 203l-194 525q-1 3 2.5 4.5t13 2.5t16.5 1h21q49 0 52 -8l141 -420l137 420q2 8 51 8q9 0 17 -0.5t17 -1t13.5 -2.5t3.5 -4z" />
    <glyph glyph-name="z" unicode="z" horiz-adv-x="461" 
d="M34 44l259 417h-243q-8 0 -8 40t8 40h371v-44l-259 -418h266q8 0 8 -39q0 -40 -8 -40h-394v44z" />
    <glyph glyph-name="braceleft" unicode="{" horiz-adv-x="366" 
d="M123 311v-2q44 -7 72.5 -40t28.5 -82v-159v-29q0 -59 53 -59h33q8 0 8 -40t-8 -40h-54q-118 0 -118 139v182q0 76 -93 89q-9 1 -9 39t9 39q50 7 71.5 30.5t21.5 75.5v153q0 154 118 154h54q8 0 8 -39q0 -40 -8 -40h-35q-51 0 -51 -54v-198q0 -49 -28 -81t-73 -38z" />
    <glyph glyph-name="bar" unicode="|" horiz-adv-x="260" 
d="M130 -263q-46 0 -46 8v1047q0 9 46 9t46 -8v-1048q0 -8 -46 -8z" />
    <glyph glyph-name="braceright" unicode="}" horiz-adv-x="366" 
d="M232 314q-45 6 -73 38.5t-28 80.5v195q0 54 -50 54h-36q-8 0 -8 40q0 39 8 39h54q119 0 119 -153v-151q0 -52 21 -75.5t72 -30.5q8 -1 8 -39t-8 -39q-93 -13 -93 -89v-184q0 -64 -29.5 -101.5t-89.5 -37.5h-54q-8 0 -8 41q0 39 8 39h33q53 0 53 59v30v160q0 49 28.5 82
t72.5 40v2z" />
    <glyph glyph-name="asciitilde" unicode="~" horiz-adv-x="532" 
d="M457 297q-17 -28 -48.5 -53t-67.5 -25q-39 0 -81.5 28.5t-57.5 28.5q-35 0 -66 -47q-3 -5 -15.5 4t-22 22t-7.5 17q16 25 46 49t65 24q36 0 80 -28.5t60 -28.5q10 0 20 4t18.5 11.5t13.5 13t12 14.5l7 9q3 4 15.5 -5t22 -21.5t6.5 -16.5z" />
    <glyph glyph-name="nbspace" unicode="&#xa0;" horiz-adv-x="163" 
 />
    <glyph glyph-name="exclamdown" unicode="&#xa1;" horiz-adv-x="286" 
d="M187 506l15 -499q0 -10 -55 -10q-59 0 -59 10l16 499q0 9 41 9q42 0 42 -9zM146 737q48 0 48 -8v-104q0 -8 -48 -8q-49 0 -49 8v104q0 8 49 8z" />
    <glyph glyph-name="cent" unicode="&#xa2;" horiz-adv-x="582" 
d="M344 632v-81q73 -9 131 -52q6 -4 -0.5 -23.5t-18.5 -35.5t-20 -11q-76 45 -130 45q-125 0 -125 -133v-147q0 -128 125 -128q65 0 132 47q8 5 20 -9.5t19 -33.5t1 -24q-53 -43 -135 -56v-81q0 -8 -48 -8q-47 0 -47 8v81q-75 9 -119 61t-44 138v163q0 85 43 136t120 63v81
q0 8 48 8t48 -8z" />
    <glyph glyph-name="sterling" unicode="&#xa3;" horiz-adv-x="656" 
d="M549 644q-9 -16 -17 -27t-13 -8q-83 53 -154 53q-49 0 -84.5 -27.5t-35.5 -81.5q0 -24 2.5 -48t7.5 -58t7 -51h145q8 0 8 -41t-8 -41h-142q-1 -123 -42 -231h315q8 0 8 -41q0 -42 -8 -42h-444q27 66 51 157t22 157h-75q-8 0 -8 42q0 40 8 40h70q-2 17 -6 49t-6.5 58.5
t-2.5 50.5q0 96 62.5 143.5t159.5 47.5q54 0 111.5 -19t82.5 -38q6 -4 -14 -44z" />
    <glyph glyph-name="currency" unicode="&#xa4;" horiz-adv-x="656" 
d="M587 704q3 -2 2 -11t-5.5 -21.5t-9.5 -24t-11 -19t-9 -6.5q-91 41 -159 41q-82 0 -124 -30.5t-42 -105.5v-53h212q8 0 8 -37q0 -39 -8 -39h-212v-73l212 1q8 0 8 -38q0 -37 -8 -37l-212 -1v-49q0 -73 42 -102.5t123 -29.5q77 0 166 33q3 1 7.5 -6t8.5 -18.5t7 -24
t3.5 -21.5t-2.5 -11q-30 -13 -87.5 -24t-105.5 -11q-262 0 -262 219v45h-68q-8 0 -8 37q0 38 8 38h68v73h-68q-8 0 -8 38t8 38h68v54q0 114 70.5 166.5t191.5 52.5q105 0 196 -43z" />
    <glyph glyph-name="yen" unicode="&#xa5;" horiz-adv-x="656" 
d="M136 205q-8 0 -8 40q0 39 8 39h141v16l-225 429q-1 3 3 4.5t12.5 2t17.5 1t21 0.5q49 0 54 -8l168 -338l169 338q5 8 57 8q12 0 20.5 -0.5t16.5 -1t11.5 -2.5t1.5 -5l-227 -428v-16h143q8 0 8 -39q0 -40 -8 -40h-143v-200q0 -9 -50 -9t-50 9v200h-141z" />
    <glyph glyph-name="brokenbar" unicode="&#xa6;" horiz-adv-x="501" 
d="M137 325q-44 0 -44 8v459q0 8 45 8q44 0 44 -9v-458q0 -8 -45 -8zM137 -264q-44 0 -44 8v458q0 8 45 8q44 0 44 -9v-457q0 -8 -45 -8z" />
    <glyph glyph-name="section" unicode="&#xa7;" horiz-adv-x="503" 
d="M435 348q0 -50 -27.5 -86t-62.5 -47q44 -22 71.5 -58t27.5 -78q0 -76 -56 -123.5t-146 -47.5q-92 0 -179 53q-4 3 3.5 22.5t19 36.5t17.5 13q77 -46 141 -46q42 0 70.5 20.5t28.5 56.5q0 38 -28.5 63t-79.5 45q-88 32 -120.5 71.5t-32.5 97.5q0 40 25 77t68 49
q-105 48 -105 140q0 61 47 103t136 42q80 0 154 -34q8 -4 -7.5 -39.5t-23.5 -32.5q-72 30 -125 30q-43 0 -64.5 -18.5t-21.5 -46.5q0 -26 20 -46t76 -41q93 -35 133.5 -75.5t40.5 -100.5zM250 420q-33 1 -56 -22t-24 -60q0 -31 30 -56t66 -25q32 0 56 23t24 55q0 36 -31 60
t-65 25z" />
    <glyph glyph-name="dieresis" unicode="&#xa8;" horiz-adv-x="573" 
d="M195 621q-43 0 -43 11v99q0 10 43 10t43 -10v-99q0 -11 -43 -11zM379 621q-43 0 -43 11v99q0 10 43 10t43 -10v-99q0 -11 -43 -11z" />
    <glyph glyph-name="copyright" unicode="&#xa9;" horiz-adv-x="773" 
d="M742 356q0 -148 -104.5 -252.5t-252.5 -104.5t-253 104.5t-105 252.5t105 253t253 105t252.5 -105t104.5 -253zM691 356q0 126 -89.5 215.5t-215.5 89.5t-215 -89.5t-89 -215.5t89 -215.5t215 -89.5t215.5 89.5t89.5 215.5zM384 141q-72 0 -113.5 39t-41.5 111v120
q0 71 41.5 110.5t113.5 39.5q77 0 132 -42q4 -3 -1.5 -18t-14.5 -27.5t-14 -8.5q-55 31 -94 31q-46 0 -67.5 -22.5t-21.5 -71.5v-107q0 -91 89 -91q49 0 95 34q6 4 15 -7.5t14.5 -26.5t0.5 -18q-21 -17 -57.5 -31t-75.5 -14z" />
    <glyph glyph-name="ordfeminine" unicode="&#xaa;" horiz-adv-x="439" 
d="M334 350q-38 0 -38 8v38q-20 -24 -52.5 -38t-63.5 -14q-60 0 -94 30.5t-34 79.5v28q0 112 190 111h54q0 45 -17 65t-61 20q-56 0 -116 -30q-6 -3 -11.5 3.5t-10.5 20.5q-10 31 -4 35q66 34 146 34q68 0 110 -33.5t42 -109.5v-240q0 -8 -40 -8zM296 539h-51
q-115 0 -115 -56v-21q0 -25 18 -40t49 -15q57 0 99 46v86z" />
    <glyph glyph-name="guillemotleft" unicode="&#xab;" horiz-adv-x="568" 
d="M257 318l158 229q3 6 22.5 -3.5t35.5 -22.5t13 -18l-130 -185l130 -185q3 -5 -13 -18t-35 -22t-23 -3zM37 318l158 229q3 6 22.5 -3.5t35.5 -22.5t13 -18l-130 -185l130 -185q3 -5 -13 -18t-35 -22t-23 -3z" />
    <glyph glyph-name="logicalnot" unicode="&#xac;" horiz-adv-x="656" 
d="M534 123q-36 0 -36 9v160h-421q-8 0 -8 36q0 37 8 37l491 -1v-233q0 -8 -34 -8z" />
    <glyph glyph-name="uni00AD" unicode="&#xad;" horiz-adv-x="490" 
d="M84 265q-8 0 -8 40t8 40h322q8 0 8 -40t-8 -40h-322z" />
    <glyph glyph-name="registered" unicode="&#xae;" horiz-adv-x="661" 
d="M463 535q0 -87 -61 -148.5t-148 -61.5t-148.5 61.5t-61.5 148.5t61.5 148.5t148.5 61.5t148 -61.5t61 -148.5zM421 535q0 70 -49 119.5t-118 49.5q-70 0 -119.5 -49t-49.5 -120q0 -69 49.5 -118t119.5 -49q69 0 118 49.5t49 117.5zM299 510l40 -73q3 -6 -7 -7
q-4 -1 -13 -1q-19 0 -23 6l-36 68h-34v-68q0 -6 -22 -6t-22 6v212h78q73 0 73 -66v-15q0 -41 -34 -56zM291 566v13q0 16 -7 22t-26 6h-33v-66h37q16 0 22.5 5.5t6.5 19.5z" />
    <glyph glyph-name="macron" unicode="&#xaf;" horiz-adv-x="487" 
d="M172 654q-8 0 -8 38q0 37 8 37h239q8 0 8 -37q0 -38 -8 -38h-239z" />
    <glyph glyph-name="degree" unicode="&#xb0;" horiz-adv-x="439" 
d="M380 588q0 -66 -47 -113t-113 -47t-113.5 47t-47.5 113q0 67 47.5 114t113.5 47t113 -47t47 -114zM310 587q0 38 -26.5 65t-64.5 27t-64.5 -27t-26.5 -65q0 -37 27 -63.5t64 -26.5t64 26.5t27 63.5z" />
    <glyph glyph-name="plusminus" unicode="&#xb1;" horiz-adv-x="656" 
d="M577 250h-208v-167h207q8 0 8 -42q0 -41 -8 -41h-497q-8 0 -8 41q0 42 8 42h203v167h-204q-7 0 -7 40t8 40h203v208q0 8 43 8q44 0 44 -8v-208h208q8 0 8 -40t-8 -40z" />
    <glyph glyph-name="twosuperior" unicode="&#xb2;" horiz-adv-x="338" 
d="M170 745q57 0 92.5 -29.5t35.5 -79.5t-29 -78t-96 -56q-38 -16 -50 -35.5t-12 -49.5h179q5 0 5 -32q0 -33 -5 -33h-251v56q0 54 23 89t76 59q5 3 16.5 8.5t16.5 7.5t14 7t12.5 8t10 7.5t9 8.5t5.5 9.5t4 11t1 12.5q0 45 -59 45q-37 0 -93 -30q-5 -3 -14 11.5t-13 28.5
t1 20q56 34 121 34z" />
    <glyph glyph-name="threesuperior" unicode="&#xb3;" horiz-adv-x="338" 
d="M291 457q0 -47 -37.5 -79.5t-92.5 -32.5q-36 0 -70.5 12t-51.5 23q-5 3 0.5 19.5t15 31t13.5 12.5q44 -26 77 -29q13 -1 23 0q44 6 44 43v17q0 13 -14 26.5t-40 13.5h-34q-6 0 -6 34t6 34h42q21 0 32 12t11 25v19q0 19 -13.5 30.5t-34.5 11.5q-32 0 -82 -30
q-6 -3 -16 10.5t-15 30t0 19.5q17 12 48.5 23t58.5 12q58 1 95 -25t37 -83v-20q0 -20 -11.5 -37t-20 -23t-14.5 -9h2l4 -2t5.5 -3l7 -4t7.5 -5.5t7 -7.5t6.5 -9t5.5 -10.5t3.5 -13t1.5 -15.5v-21z" />
    <glyph glyph-name="acute" unicode="&#xb4;" horiz-adv-x="487" 
d="M308 745l-104 -138q-6 -7 -37 -7t-31 6q0 2 2 4l85 142q5 8 44 8q45 0 43 -11q0 -2 -2 -4z" />
    <glyph glyph-name="mu" unicode="&#xb5;" horiz-adv-x="583" 
d="M78 537q0 4 12 4q0 5 35 5q48 0 48 -8v-340q0 -50 31 -83t76 -33q26 0 50 12.5t40.5 32t24.5 32t14 24.5v355q0 8 48 8t48 -8v-534q0 -8 -48 -8q-46 0 -46 8v77q-48 -96 -128 -96q-39 0 -68.5 21t-40.5 44v-246q0 -8 -48 -8t-48 8v733z" />
    <glyph glyph-name="paragraph" unicode="&#xb6;" horiz-adv-x="501" 
d="M291 675v-749q0 -7 -42 -7q-37 0 -37 7v409h-7q-55 0 -110 49t-58 137q-3 93 63 158.5t210 65.5q82 0 125 -9v-810q0 -7 -37 -7q-42 0 -42 7v749h-65z" />
    <glyph glyph-name="periodcentered" unicode="&#xb7;" horiz-adv-x="260" 
d="M121 238q-44 0 -44 8v125q0 8 44 8t44 -8v-125q0 -8 -44 -8z" />
    <glyph glyph-name="cedilla" unicode="&#xb8;" horiz-adv-x="487" 
d="M240 -203q-45 0 -91 29q-3 2 0.5 14.5t10 23t11.5 7.5q39 -24 69 -24q44 0 44 30v12q0 36 -80 30v100h62v-59q41 -1 62 -20.5t21 -50.5v-20q0 -31 -28 -51.5t-81 -20.5z" />
    <glyph glyph-name="onesuperior" unicode="&#xb9;" horiz-adv-x="515" 
d="M184 737v-379q0 -7 -38 -7q-39 0 -39 7v295h-43q-8 0 -8 28q0 23 7 27l68 29h53z" />
    <glyph glyph-name="ordmasculine" unicode="&#xba;" horiz-adv-x="535" 
d="M234 346q-75 0 -117 36.5t-42 105.5v116q0 69 42.5 105t116.5 36t117.5 -37t43.5 -106v-114q0 -69 -44 -105.5t-117 -36.5zM323 594q0 84 -89 84q-88 0 -88 -84v-101q0 -85 88 -85q89 0 89 85v101z" />
    <glyph glyph-name="guillemotright" unicode="&#xbb;" horiz-adv-x="568" 
d="M375 547l158 -229l-158 -228q-4 -6 -23 3t-35.5 22t-13.5 18l130 185l-130 185q-3 5 13.5 18t35.5 22.5t23 3.5zM154 547l158 -229l-158 -228q-4 -6 -23 3t-35 22t-13 18l130 185l-130 185q-3 5 13.5 18t35.5 22.5t22 3.5z" />
    <glyph glyph-name="onequarter" unicode="&#xbc;" horiz-adv-x="752" 
d="M196 706v-380q0 -6 -38 -6q-39 0 -39 6v296l-55 -1q-6 0 -6 28q0 25 6 28l78 29h54zM578 729l-386 -725q-4 -9 -37 -9q-9 0 -15.5 0.5t-12.5 1t-8.5 2.5t-1.5 5l384 725q4 8 40 8h15t12 -1t9 -2.5t1 -4.5zM683 141q0 -31 -6 -31h-43v-65q0 -6 -38 -6t-38 6v65h-168v58
l167 252q3 6 38 6q39 0 39 -6v-248h43q6 0 6 -31zM558 322l-97 -150h97v150z" />
    <glyph glyph-name="onehalf" unicode="&#xbd;" horiz-adv-x="752" 
d="M196 706v-380q0 -6 -38 -6q-39 0 -39 6v296l-55 -1q-6 0 -6 28q0 25 6 28l78 29h54zM578 729l-386 -725q-4 -9 -37 -9q-9 0 -15.5 0.5t-12.5 1t-8.5 2.5t-1.5 5l384 725q4 8 40 8h15t12 -1t9 -2.5t1 -4.5zM602 446q56 0 92 -30t36 -80t-29.5 -78.5t-95.5 -55.5
q-38 -15 -50 -34.5t-12 -49.5h178q6 0 6 -32q0 -33 -6 -33h-251v56q0 54 23 88.5t77 59.5q61 29 74 42q15 16 15 37q-2 46 -59 46q-37 0 -93 -30q-5 -3 -14 11.5t-13 28.5t1 20q56 34 121 34z" />
    <glyph glyph-name="threequarters" unicode="&#xbe;" horiz-adv-x="752" 
d="M712 141q0 -31 -6 -31h-43v-65q0 -6 -38 -6t-38 6v65h-167v58l166 252q4 6 38 6q39 0 39 -6v-248h43q6 0 6 -31zM633 729l-386 -725q-5 -9 -37 -9q-9 0 -15.5 0.5t-12.5 1t-8.5 2.5t-1.5 5l384 725q4 8 39 8h16t12 -1t9 -2.5t1 -4.5zM300 424q0 -47 -38 -79.5t-93 -32.5
q-66 0 -122 35q-5 3 1 19.5t15.5 31t13.5 12.5q44 -26 77 -29q27 -4 47 8t20 35v17q0 14 -14 27t-41 13h-33q-6 0 -6 34t6 34h42q21 0 32 12t11 25v19q0 19 -14 30.5t-35 11.5q-34 0 -82 -30q-6 -3 -15.5 10.5t-14.5 30t0 19.5q18 12 49 23.5t57 11.5q59 1 96 -25t37 -83
v-20q0 -20 -11.5 -36.5t-20.5 -23t-15 -8.5q3 -1 6.5 -2.5t12.5 -7t15 -13t11.5 -20.5t5.5 -28v-21zM587 322l-97 -150h97v150z" />
    <glyph glyph-name="questiondown" unicode="&#xbf;" horiz-adv-x="458" 
d="M246 -119q54 0 117 42q5 3 16.5 -14.5t19.5 -38t3 -23.5q-81 -50 -166 -50q-95 0 -140.5 52.5t-45.5 126.5q0 47 26 89.5t56.5 70t56.5 66t26 78.5v33q0 8 41 8q40 0 40 -8v-37q0 -39 -15.5 -74t-37.5 -60t-44 -48.5t-37.5 -51.5t-15.5 -58q0 -44 26.5 -73.5t73.5 -29.5z
M257 546q44 0 44 -8v-125q0 -8 -44 -8t-44 8v125q0 8 44 8z" />
    <glyph glyph-name="Agrave" unicode="&#xc0;" horiz-adv-x="611" 
d="M303 737q55 0 58 -9l226 -724q1 -3 -3 -4.5t-14 -2.5t-16.5 -1h-17.5q-48 0 -51 8l-50 167h-264l-51 -167q-3 -8 -48 -8h-17.5t-15 1t-12.5 2.5t-3 4.5l224 724q3 9 55 9zM195 255h216l-107 371zM264 807l-104 138q-14 15 40 15q39 0 45 -8l85 -142q5 -7 -9 -9
q-7 -1 -20 -1q-31 0 -37 7z" />
    <glyph glyph-name="Aacute" unicode="&#xc1;" horiz-adv-x="611" 
d="M303 737q55 0 58 -9l226 -724q1 -3 -3 -4.5t-14 -2.5t-16.5 -1h-17.5q-48 0 -51 8l-50 167h-264l-51 -167q-3 -8 -48 -8h-17.5t-15 1t-12.5 2.5t-3 4.5l224 724q3 9 55 9zM195 255h216l-107 371zM449 945l-104 -138q-6 -7 -37 -7t-31 6q0 2 2 4l85 142q6 8 45 8
q54 0 40 -15z" />
    <glyph glyph-name="Acircumflex" unicode="&#xc2;" horiz-adv-x="611" 
d="M303 737q55 0 58 -9l226 -724q1 -3 -3 -4.5t-14 -2.5t-16.5 -1h-17.5q-48 0 -51 8l-50 167h-264l-51 -167q-3 -8 -48 -8h-17.5t-15 1t-12.5 2.5t-3 4.5l224 724q3 9 55 9zM195 255h216l-107 371zM391 815q-29 0 -35 8l-52 91l-52 -90q-6 -8 -36 -8h-14t-11.5 1t-8.5 2.5
t0 4.5l81 127q6 10 40 10q35 0 41 -10l82 -128q3 -5 -6.5 -6.5t-28.5 -1.5z" />
    <glyph glyph-name="Atilde" unicode="&#xc3;" horiz-adv-x="611" 
d="M303 737q55 0 58 -9l226 -724q1 -3 -3 -4.5t-14 -2.5t-16.5 -1h-17.5q-48 0 -51 8l-50 167h-264l-51 -167q-3 -8 -48 -8h-17.5t-15 1t-12.5 2.5t-3 4.5l224 724q3 9 55 9zM195 255h216l-107 371zM455 895q-37 -68 -97 -68q-29 0 -63.5 22.5t-45.5 22.5q-28 0 -53 -37
q-2 -3 -14 5t-21.5 19.5t-7.5 14.5q14 27 40 47t56 20q29 0 63 -22.5t47 -22.5q27 0 54 40q3 3 14.5 -5.5t20.5 -20t7 -15.5z" />
    <glyph glyph-name="Adieresis" unicode="&#xc4;" horiz-adv-x="611" 
d="M303 737q55 0 58 -9l226 -724q1 -3 -3 -4.5t-14 -2.5t-16.5 -1h-17.5q-48 0 -51 8l-50 167h-264l-51 -167q-3 -8 -48 -8h-17.5t-15 1t-12.5 2.5t-3 4.5l224 724q3 9 55 9zM195 255h216l-107 371zM212 821q-44 0 -44 11v99q0 10 44 10q43 0 43 -10v-99q0 -11 -43 -11z
M396 821q-44 0 -44 11v99q0 10 44 10q43 0 43 -10v-99q0 -11 -43 -11z" />
    <glyph glyph-name="Aring" unicode="&#xc5;" horiz-adv-x="611" 
d="M303 737q55 0 58 -9l226 -724q1 -3 -3 -4.5t-14 -2.5t-16.5 -1h-17.5q-48 0 -51 8l-50 167h-264l-51 -167q-3 -8 -48 -8h-17.5t-15 1t-12.5 2.5t-3 4.5l224 724q3 9 55 9zM195 255h216l-107 371zM387 865q0 -34 -24.5 -58t-59.5 -24q-34 0 -58 24t-24 58q0 35 24 59.5
t58 24.5q35 0 59.5 -24.5t24.5 -59.5zM346 865q0 18 -12.5 30.5t-30.5 12.5q-17 0 -29.5 -12.5t-12.5 -30.5q0 -17 12.5 -29.5t29.5 -12.5q18 0 30.5 12.5t12.5 29.5z" />
    <glyph glyph-name="AE" unicode="&#xc6;" horiz-adv-x="849" 
d="M410 0v171h-205l-81 -167q-4 -8 -52 -8h-18t-17 1t-14.5 2.5t-2.5 4.5l355 729h417q8 0 8 -44q0 -42 -8 -42h-282v-223h250q8 0 8 -42t-8 -42h-250v-255h284q8 0 8 -42q0 -43 -8 -43h-384zM410 257v365l-162 -365h162z" />
    <glyph glyph-name="Ccedilla" unicode="&#xc7;" horiz-adv-x="587" 
d="M316 -203q-41 0 -91 29q-3 2 0.5 14.5t10 23t11.5 7.5q42 -24 69 -24q44 0 44 30v12q0 36 -79 30v71q-206 21 -206 213v325q0 114 70.5 166.5t191.5 52.5q112 0 203 -43q3 -2 2 -11t-5.5 -21.5t-9.5 -24t-11 -19t-9 -6.5q-91 41 -166 41q-72 0 -119.5 -34t-47.5 -102
v-326q0 -132 167 -132q85 0 174 33q3 1 7.5 -6t8.5 -18.5t7 -24t3.5 -21.5t-2.5 -11q-28 -12 -87.5 -23t-109.5 -12v-26q41 -1 62.5 -20.5t21.5 -50.5v-20q0 -30 -28.5 -51t-81.5 -21z" />
    <glyph glyph-name="Egrave" unicode="&#xc8;" horiz-adv-x="526" 
d="M477 43q0 -43 -8 -43h-383v733h381q9 0 9 -44q0 -42 -9 -42h-282v-223h250q8 0 8 -42t-8 -42h-250v-255h284q8 0 8 -42zM282 807l-104 138q-10 13 26 15h15q39 0 44 -8l86 -142q4 -7 -9 -9q-7 -1 -21 -1q-31 0 -37 7z" />
    <glyph glyph-name="Eacute" unicode="&#xc9;" horiz-adv-x="526" 
d="M477 43q0 -43 -8 -43h-383v733h381q9 0 9 -44q0 -42 -9 -42h-282v-223h250q8 0 8 -42t-8 -42h-250v-255h284q8 0 8 -42zM402 945l-105 -138q-6 -7 -36 -7q-31 0 -31 6q0 2 1 4l86 142q5 8 44 8q46 0 43 -11q0 -2 -2 -4z" />
    <glyph glyph-name="Ecircumflex" unicode="&#xca;" horiz-adv-x="526" 
d="M477 43q0 -43 -8 -43h-383v733h381q9 0 9 -44q0 -42 -9 -42h-282v-223h250q8 0 8 -42t-8 -42h-250v-255h284q8 0 8 -42zM361 815q-30 0 -36 8l-52 91l-52 -90q-6 -8 -36 -8h-14t-11.5 1t-8.5 2.5t0 4.5l81 127q6 10 40 10q35 0 41 -10l82 -128q3 -5 -6.5 -6.5t-27.5 -1.5
z" />
    <glyph glyph-name="Edieresis" unicode="&#xcb;" horiz-adv-x="526" 
d="M477 43q0 -43 -8 -43h-383v733h381q9 0 9 -44q0 -42 -9 -42h-282v-223h250q8 0 8 -42t-8 -42h-250v-255h284q8 0 8 -42zM185 821q-44 0 -44 11v99q0 10 44 10q43 0 43 -10v-99q0 -11 -43 -11zM369 821q-43 0 -43 11v99q0 10 43 10t43 -10v-99q0 -11 -43 -11z" />
    <glyph glyph-name="Igrave" unicode="&#xcc;" horiz-adv-x="274" 
d="M189 4q0 -8 -50 -8t-50 8v725q0 8 50 8t50 -8v-725zM100 807l-104 138q-14 15 40 15q39 0 44 -8l86 -142q4 -7 -9 -9q-7 -1 -21 -1q-30 0 -36 7z" />
    <glyph glyph-name="Iacute" unicode="&#xcd;" horiz-adv-x="274" 
d="M189 4q0 -8 -50 -8t-50 8v725q0 8 50 8t50 -8v-725zM283 945l-104 -138q-6 -7 -36 -7q-31 0 -32 6q0 2 2 4l85 142q6 8 45 8q54 0 40 -15z" />
    <glyph glyph-name="Icircumflex" unicode="&#xce;" horiz-adv-x="274" 
d="M189 4q0 -8 -50 -8t-50 8v725q0 8 50 8t50 -8v-725zM226 815q-30 0 -36 8l-51 91l-53 -90q-5 -8 -35 -8h-14t-11.5 1t-9 2.5t-0.5 4.5l81 127q8 10 41 10q34 0 41 -10l81 -128q2 -3 0 -4.5t-8.5 -2.5t-11.5 -1h-14z" />
    <glyph glyph-name="Idieresis" unicode="&#xcf;" horiz-adv-x="274" 
d="M189 4q0 -8 -50 -8t-50 8v725q0 8 50 8t50 -8v-725zM48 821q-43 0 -43 11v99q0 10 43 10t43 -10v-99q0 -11 -43 -11zM232 821q-43 0 -43 11v99q0 10 43 10t43 -10v-99q0 -11 -43 -11z" />
    <glyph glyph-name="Eth" unicode="&#xd0;" horiz-adv-x="660" 
d="M20 334q-8 0 -8 40t8 40h66v319h250q126 0 188 -54.5t62 -171.5v-290q0 -217 -247 -217h-253v334h-66zM486 217v289q0 142 -149 142h-152v-234h148q8 0 8 -40t-8 -40h-148v-249h155q146 0 146 132z" />
    <glyph glyph-name="Ntilde" unicode="&#xd1;" horiz-adv-x="716" 
d="M630 4q0 -8 -63 -8q-58 0 -63 8l-224 421q-41 77 -103 202h-1q7 -95 7 -205v-418q0 -8 -48 -8q-49 0 -49 8v725q0 8 65 8q67 0 70 -8l207 -392l110 -215h2q-6 99 -6 210v397q0 8 49 8q47 0 47 -8v-725zM509 895q-37 -68 -97 -68q-29 0 -63.5 22.5t-45.5 22.5
q-30 0 -53 -37q-3 -3 -14.5 5t-21 19.5t-7.5 14.5q15 27 40 47t56 20q28 0 62.5 -22.5t47.5 -22.5q27 0 54 40q3 3 14.5 -5.5t20.5 -20t7 -15.5z" />
    <glyph glyph-name="Ograve" unicode="&#xd2;" horiz-adv-x="688" 
d="M614 205v-1q0 -106 -70 -162.5t-200 -56.5q-131 0 -200 55.5t-69 163.5v322q0 108 69 164.5t200 56.5q130 0 200 -56.5t70 -164.5v-321zM514 209v313q0 142 -170 142t-170 -142v-313q0 -141 170 -141t170 141zM307 807l-104 138q-8 10 13 13q10 2 28 2q39 0 44 -8
l85 -142q5 -7 -9 -9q-7 -1 -20 -1q-31 0 -37 7z" />
    <glyph glyph-name="Oacute" unicode="&#xd3;" horiz-adv-x="688" 
d="M614 205v-1q0 -106 -70 -162.5t-200 -56.5q-131 0 -200 55.5t-69 163.5v322q0 108 69 164.5t200 56.5q130 0 200 -56.5t70 -164.5v-321zM514 209v313q0 142 -170 142t-170 -142v-313q0 -141 170 -141t170 141zM476 945l-105 -138q-6 -7 -36 -7q-31 0 -31 6q0 2 1 4
l86 142q5 8 44 8q46 0 43 -11q0 -2 -2 -4z" />
    <glyph glyph-name="Ocircumflex" unicode="&#xd4;" horiz-adv-x="688" 
d="M614 205v-1q0 -106 -70 -162.5t-200 -56.5q-131 0 -200 55.5t-69 163.5v322q0 108 69 164.5t200 56.5q130 0 200 -56.5t70 -164.5v-321zM514 209v313q0 142 -170 142t-170 -142v-313q0 -141 170 -141t170 141zM431 815q-30 0 -36 8l-52 91l-52 -90q-6 -8 -36 -8h-14
t-11.5 1t-8.5 2.5t0 4.5l81 127q6 10 40 10q35 0 41 -10l82 -128q2 -3 0 -4.5t-8.5 -2.5t-11.5 -1h-14z" />
    <glyph glyph-name="Otilde" unicode="&#xd5;" horiz-adv-x="688" 
d="M614 205v-1q0 -106 -70 -162.5t-200 -56.5q-131 0 -200 55.5t-69 163.5v322q0 108 69 164.5t200 56.5q130 0 200 -56.5t70 -164.5v-321zM514 209v313q0 142 -170 142t-170 -142v-313q0 -141 170 -141t170 141zM494 895q-37 -68 -97 -68q-29 0 -63.5 22.5t-45.5 22.5
q-30 0 -53 -37q-3 -3 -14.5 5t-21.5 19.5t-8 14.5q15 27 40.5 47t55.5 20q29 0 63 -22.5t48 -22.5q27 0 54 40q3 3 14 -5.5t20.5 -20t7.5 -15.5z" />
    <glyph glyph-name="Odieresis" unicode="&#xd6;" horiz-adv-x="688" 
d="M614 205v-1q0 -106 -70 -162.5t-200 -56.5q-131 0 -200 55.5t-69 163.5v322q0 108 69 164.5t200 56.5q130 0 200 -56.5t70 -164.5v-321zM514 209v313q0 142 -170 142t-170 -142v-313q0 -141 170 -141t170 141zM251 821q-44 0 -44 11v99q0 10 44 10q43 0 43 -10v-99
q0 -11 -43 -11zM435 821q-44 0 -44 11v99q0 10 44 10q43 0 43 -10v-99q0 -11 -43 -11z" />
    <glyph glyph-name="multiply" unicode="&#xd7;" horiz-adv-x="645" 
d="M453 371l-133 -133l134 -135q6 -6 -6.5 -22.5t-29 -28.5t-22.5 -6l-134 134l-134 -134q-5 -5 -22 7t-29.5 28t-6.5 22l134 135l-134 133q-5 5 7.5 21.5t29.5 29t21 7.5l134 -134l133 134q9 9 37.5 -20.5t20.5 -37.5z" />
    <glyph glyph-name="Oslash" unicode="&#xd8;" horiz-adv-x="689" 
d="M611 206q0 -15 -1 -21q-7 -96 -76 -147t-193 -51q-108 0 -167 36l-24 -40q-3 -8 -39 -8h-15.5t-12.5 1t-9.5 2.5t-1.5 4.5l49 80q-49 56 -49 162v283q0 120 65.5 180.5t204.5 60.5q102 0 170 -39l25 40q3 9 39 9q41 -1 38 -9l-49 -82q46 -54 46 -160v-302zM172 210
q0 -32 6 -49l288 470q-42 34 -124 34q-170 0 -170 -141v-314zM512 210v314q0 29 -6 44l-286 -467q41 -31 122 -31q170 0 170 140z" />
    <glyph glyph-name="Ugrave" unicode="&#xd9;" horiz-adv-x="667" 
d="M587 200q0 -99 -67.5 -156.5t-187.5 -57.5t-186 58.5t-66 163.5v521q0 8 50 8q48 0 48 -8v-530q0 -64 40 -97t112 -33q73 0 115 33.5t42 96.5v530q0 8 50 8t50 -8v-529zM314 807l-104 138q-14 15 40 15q39 0 45 -8l85 -142q5 -7 -8 -9q-7 -1 -22 -1q-30 0 -36 7z" />
    <glyph glyph-name="Uacute" unicode="&#xda;" horiz-adv-x="667" 
d="M587 200q0 -99 -67.5 -156.5t-187.5 -57.5t-186 58.5t-66 163.5v521q0 8 50 8q48 0 48 -8v-530q0 -64 40 -97t112 -33q73 0 115 33.5t42 96.5v530q0 8 50 8t50 -8v-529zM452 945l-104 -138q-6 -7 -37 -7t-31 6q0 2 2 4l85 142q6 8 44 8q45 0 43 -11q0 -2 -2 -4z" />
    <glyph glyph-name="Ucircumflex" unicode="&#xdb;" horiz-adv-x="667" 
d="M587 200q0 -99 -67.5 -156.5t-187.5 -57.5t-186 58.5t-66 163.5v521q0 8 50 8q48 0 48 -8v-530q0 -64 40 -97t112 -33q73 0 115 33.5t42 96.5v530q0 8 50 8t50 -8v-529zM421 815q-30 0 -36 8l-52 91l-52 -90q-5 -8 -36 -8h-14t-11.5 1t-8.5 2.5t0 4.5l81 127q8 10 40 10
q34 0 42 -10l81 -128q2 -3 0 -4.5t-8.5 -2.5t-11.5 -1h-14z" />
    <glyph glyph-name="Udieresis" unicode="&#xdc;" horiz-adv-x="667" 
d="M587 200q0 -99 -67.5 -156.5t-187.5 -57.5t-186 58.5t-66 163.5v521q0 8 50 8q48 0 48 -8v-530q0 -64 40 -97t112 -33q73 0 115 33.5t42 96.5v530q0 8 50 8t50 -8v-529zM242 821q-44 0 -44 11v99q0 10 44 10q42 0 42 -10v-99q0 -11 -42 -11zM426 821q-44 0 -44 11v99
q0 10 44 10q43 0 43 -10v-99q0 -11 -43 -11z" />
    <glyph glyph-name="Yacute" unicode="&#xdd;" horiz-adv-x="577" 
d="M564 728l-227 -428v-295q0 -9 -49 -9q-50 0 -50 9v295l-226 429q-1 3 3 4.5t12.5 2t17.5 1t21 0.5q50 0 55 -8l168 -338l169 338q5 8 56 8q12 0 20.5 -0.5t16.5 -1t11.5 -2.5t1.5 -5zM422 945l-104 -138q-6 -7 -36 -7q-31 0 -32 6q0 2 2 4l85 142q6 8 45 8q54 0 40 -15z
" />
    <glyph glyph-name="Thorn" unicode="&#xde;" horiz-adv-x="622" 
d="M565 336q0 -113 -56.5 -160t-173.5 -47h-150v-125q0 -8 -50 -8t-50 8v725q0 8 49 8q50 0 50 -8v-119h150q117 0 174 -48t57 -157v-69zM465 335v69q0 69 -33 93.5t-108 24.5h-139v-304h152q63 0 95.5 27t32.5 90z" />
    <glyph glyph-name="germandbls" unicode="&#xdf;" horiz-adv-x="622" 
d="M481 472q-26 3 -42 -1q-38 -1 -57 -19t-19 -44q0 -20 16 -37t40.5 -29t53 -29t53 -35.5t40.5 -51t16 -73.5q0 -71 -49 -118t-136 -47q-89 0 -169 50q-4 3 3 22.5t18 37t16 14.5q58 -35 105 -41q27 -4 58 3q30 7 46 27.5t16 48.5q0 34 -23 58t-56 40.5t-65.5 35t-55.5 52
t-23 81.5q0 53 39 88t97 38q4 51 -23.5 85.5t-85.5 34.5q-121 0 -121 -132v-527q0 -8 -48 -8q-47 0 -47 8v532q0 97 53.5 153t160.5 56q109 0 166 -77t23 -196z" />
    <glyph glyph-name="agrave" unicode="&#xe0;" horiz-adv-x="546" 
d="M475 4q0 -8 -44 -8q-46 0 -46 8v52q-77 -68 -167 -68q-79 0 -125 44.5t-46 119.5v25q0 90 81.5 130.5t255.5 15.5v35q0 60 -26.5 85t-87.5 25q-87 0 -153 -33q-5 -3 -13 13q-19 36 -17 61q1 6 4 8q80 35 183 35q201 0 201 -195v-353zM384 129v126q-246 38 -246 -75v-24
q0 -42 28 -64.5t75 -22.5q78 0 143 60zM260 607l-104 138q-14 15 40 15q39 0 45 -8l85 -142q5 -7 -8 -9q-7 -1 -22 -1q-30 0 -36 7z" />
    <glyph glyph-name="aacute" unicode="&#xe1;" horiz-adv-x="546" 
d="M475 4q0 -8 -44 -8q-46 0 -46 8v52q-77 -68 -167 -68q-79 0 -125 44.5t-46 119.5v25q0 90 81.5 130.5t255.5 15.5v35q0 60 -26.5 85t-87.5 25q-87 0 -153 -33q-5 -3 -13 13q-19 36 -17 61q1 6 4 8q80 35 183 35q201 0 201 -195v-353zM384 129v126q-246 38 -246 -75v-24
q0 -42 28 -64.5t75 -22.5q78 0 143 60zM404 745l-104 -138q-6 -7 -37 -7t-31 6q0 2 1 4l86 142q5 8 44 8q46 0 43 -11q0 -2 -2 -4z" />
    <glyph glyph-name="acircumflex" unicode="&#xe2;" horiz-adv-x="546" 
d="M475 4q0 -8 -44 -8q-46 0 -46 8v52q-77 -68 -167 -68q-79 0 -125 44.5t-46 119.5v25q0 90 81.5 130.5t255.5 15.5v35q0 60 -26.5 85t-87.5 25q-87 0 -153 -33q-5 -3 -13 13q-19 36 -17 61q1 6 4 8q80 35 183 35q201 0 201 -195v-353zM384 129v126q-246 38 -246 -75v-24
q0 -42 28 -64.5t75 -22.5q78 0 143 60zM364 615q-30 0 -36 8l-52 91l-52 -90q-5 -8 -36 -8h-14t-11.5 1t-8.5 2.5t0 4.5l81 127q7 10 40 10q35 0 42 -10l81 -128q2 -3 0 -4.5t-8.5 -2.5t-11.5 -1h-14z" />
    <glyph glyph-name="atilde" unicode="&#xe3;" horiz-adv-x="546" 
d="M475 4q0 -8 -44 -8q-46 0 -46 8v52q-77 -68 -167 -68q-79 0 -125 44.5t-46 119.5v25q0 90 81.5 130.5t255.5 15.5v35q0 60 -26.5 85t-87.5 25q-87 0 -153 -33q-5 -3 -13 13q-19 36 -17 61q1 6 4 8q80 35 183 35q201 0 201 -195v-353zM384 129v126q-246 38 -246 -75v-24
q0 -42 28 -64.5t75 -22.5q78 0 143 60zM427 696q-38 -67 -97 -67q-30 0 -64 22.5t-46 22.5q-26 0 -53 -37q-2 -4 -13.5 4.5t-21.5 19.5t-8 15q14 27 40 46.5t56 19.5q28 0 63 -22t48 -22q28 0 54 39q2 4 13.5 -5t21 -20.5t7.5 -15.5z" />
    <glyph glyph-name="adieresis" unicode="&#xe4;" horiz-adv-x="546" 
d="M475 4q0 -8 -44 -8q-46 0 -46 8v52q-77 -68 -167 -68q-79 0 -125 44.5t-46 119.5v25q0 90 81.5 130.5t255.5 15.5v35q0 60 -26.5 85t-87.5 25q-87 0 -153 -33q-5 -3 -13 13q-19 36 -17 61q1 6 4 8q80 35 183 35q201 0 201 -195v-353zM384 129v126q-246 38 -246 -75v-24
q0 -42 28 -64.5t75 -22.5q78 0 143 60zM184 621q-43 0 -43 11v99q0 10 43 10t43 -10v-99q0 -11 -43 -11zM368 621q-43 0 -43 11v99q0 10 43 10t43 -10v-99q0 -11 -43 -11z" />
    <glyph glyph-name="aring" unicode="&#xe5;" horiz-adv-x="546" 
d="M475 4q0 -8 -44 -8q-46 0 -46 8v52q-77 -68 -167 -68q-79 0 -125 44.5t-46 119.5v25q0 90 81.5 130.5t255.5 15.5v35q0 60 -26.5 85t-87.5 25q-87 0 -153 -33q-5 -3 -13 13q-19 36 -17 61q1 6 4 8q80 35 183 35q201 0 201 -195v-353zM384 129v126q-246 38 -246 -75v-24
q0 -42 28 -64.5t75 -22.5q78 0 143 60zM359 692q0 -34 -24.5 -58.5t-59.5 -24.5t-59 24.5t-24 58.5t24 58.5t59 24.5t59.5 -24.5t24.5 -58.5zM318 692q0 18 -12.5 30.5t-30.5 12.5q-17 0 -29.5 -12.5t-12.5 -30.5q0 -17 12.5 -29.5t29.5 -12.5q18 0 30.5 12.5t12.5 29.5z
" />
    <glyph glyph-name="ae" unicode="&#xe6;" horiz-adv-x="870" 
d="M810 239h-340v-53q0 -57 33.5 -89t97.5 -32q81 0 164 44q8 3 26 -32t11 -39q-91 -52 -205 -52q-120 0 -177 74q-92 -72 -196 -72q-87 0 -134.5 44t-47.5 120v20q0 188 337 141v52q0 55 -27.5 80.5t-86.5 25.5q-81 0 -153 -34q-5 -3 -14 13q-18 35 -16 59q1 6 4 7
q78 36 183 36q113 0 160 -70q54 73 162 73q105 0 162 -58t57 -163v-95zM236 69q39 0 79.5 17.5t69.5 47.5q-6 26 -6 58v54q-246 35 -246 -71v-19q0 -42 28 -64.5t75 -22.5zM717 308v38q0 63 -34.5 97t-90.5 34q-55 0 -88.5 -34t-33.5 -95v-40h247z" />
    <glyph glyph-name="ccedilla" unicode="&#xe7;" horiz-adv-x="490" 
d="M267 -203q-41 0 -91 29q-3 2 0.5 14.5t10 23t11.5 7.5q42 -24 69 -24q44 0 44 30v12q0 36 -79 30v75q-81 10 -126.5 61t-45.5 139v158q0 97 57 150.5t154 53.5q104 0 179 -57q6 -4 -0.5 -23.5t-18.5 -35.5t-20 -11q-76 45 -130 45q-124 0 -124 -133v-141q0 -128 124 -128
q65 0 132 46q8 6 20.5 -9t19 -33.5t0.5 -23.5q-64 -53 -160 -59v-33q42 -1 63 -20.5t21 -50.5v-20q0 -30 -28.5 -51t-81.5 -21z" />
    <glyph glyph-name="egrave" unicode="&#xe8;" horiz-adv-x="553" 
d="M493 232h-338v-43q0 -60 32.5 -92.5t96.5 -32.5q78 0 164 44q5 2 16 -14.5t18.5 -35t2.5 -21.5q-91 -52 -205 -52q-102 0 -160.5 55.5t-58.5 151.5v150q0 99 58.5 156.5t154.5 57.5q105 0 162 -58t57 -164v-102zM400 303v44q0 63 -34.5 97t-90.5 34q-55 0 -88 -34
t-33 -96v-45h246zM253 607l-104 138q-14 15 40 15q39 0 45 -8l85 -142q5 -7 -8 -9q-7 -1 -22 -1q-30 0 -36 7z" />
    <glyph glyph-name="eacute" unicode="&#xe9;" horiz-adv-x="553" 
d="M493 232h-338v-43q0 -60 32.5 -92.5t96.5 -32.5q78 0 164 44q5 2 16 -14.5t18.5 -35t2.5 -21.5q-91 -52 -205 -52q-102 0 -160.5 55.5t-58.5 151.5v150q0 99 58.5 156.5t154.5 57.5q105 0 162 -58t57 -164v-102zM400 303v44q0 63 -34.5 97t-90.5 34q-55 0 -88 -34
t-33 -96v-45h246zM412 745l-104 -138q-6 -7 -36 -7q-31 0 -32 6q0 2 2 4l85 142q6 8 45 8q54 0 40 -15z" />
    <glyph glyph-name="ecircumflex" unicode="&#xea;" horiz-adv-x="553" 
d="M493 232h-338v-43q0 -60 32.5 -92.5t96.5 -32.5q78 0 164 44q5 2 16 -14.5t18.5 -35t2.5 -21.5q-91 -52 -205 -52q-102 0 -160.5 55.5t-58.5 151.5v150q0 99 58.5 156.5t154.5 57.5q105 0 162 -58t57 -164v-102zM400 303v44q0 63 -34.5 97t-90.5 34q-55 0 -88 -34
t-33 -96v-45h246zM363 615q-29 0 -36 8l-51 91l-52 -90q-6 -8 -36 -8h-14t-11.5 1t-9 2.5t-0.5 4.5l81 127q8 10 41 10q35 0 41 -10l82 -128q3 -5 -6.5 -6.5t-28.5 -1.5z" />
    <glyph glyph-name="edieresis" unicode="&#xeb;" horiz-adv-x="553" 
d="M493 232h-338v-43q0 -60 32.5 -92.5t96.5 -32.5q78 0 164 44q5 2 16 -14.5t18.5 -35t2.5 -21.5q-91 -52 -205 -52q-102 0 -160.5 55.5t-58.5 151.5v150q0 99 58.5 156.5t154.5 57.5q105 0 162 -58t57 -164v-102zM400 303v44q0 63 -34.5 97t-90.5 34q-55 0 -88 -34
t-33 -96v-45h246zM184 621q-43 0 -43 11v99q0 10 43 10t43 -10v-99q0 -11 -43 -11zM368 621q-43 0 -43 11v99q0 10 43 10t43 -10v-99q0 -11 -43 -11z" />
    <glyph glyph-name="igrave" unicode="&#xec;" horiz-adv-x="252" 
d="M125 -4q-48 0 -48 8v533q0 8 48 8t48 -8v-533q0 -8 -48 -8zM88 607l-105 138q-10 13 26 15h15q39 0 44 -8l86 -142q4 -7 -9 -9q-7 -1 -21 -1q-30 0 -36 7z" />
    <glyph glyph-name="iacute" unicode="&#xed;" horiz-adv-x="252" 
d="M125 -4q-48 0 -48 8v533q0 8 48 8t48 -8v-533q0 -8 -48 -8zM265 745l-104 -138q-6 -7 -37 -7t-31 6q0 2 2 4l85 142q5 8 44 8q45 0 43 -11q0 -2 -2 -4z" />
    <glyph glyph-name="icircumflex" unicode="&#xee;" horiz-adv-x="252" 
d="M125 -4q-48 0 -48 8v533q0 8 48 8t48 -8v-533q0 -8 -48 -8zM213 615q-30 0 -36 8l-52 91l-52 -90q-5 -8 -36 -8h-14t-11.5 1t-8.5 2.5t0 4.5l81 127q8 10 40 10q34 0 42 -10l81 -128q2 -3 0 -4.5t-8.5 -2.5t-11.5 -1h-14z" />
    <glyph glyph-name="idieresis" unicode="&#xef;" horiz-adv-x="252" 
d="M125 -4q-48 0 -48 8v533q0 8 48 8t48 -8v-533q0 -8 -48 -8zM34 621q-44 0 -44 11v99q0 10 44 10q42 0 42 -10v-99q0 -11 -42 -11zM218 621q-44 0 -44 11v99q0 10 44 10q43 0 43 -10v-99q0 -11 -43 -11z" />
    <glyph glyph-name="eth" unicode="&#xf0;" horiz-adv-x="593" 
d="M284 520q84 0 139 -48q-22 78 -85 134l-42 -42q-6 -6 -32 19t-20 32l40 41q-25 25 -52 49q-8 8 23.5 41.5t39.5 26.5q22 -20 52 -50l42 44q4 4 18.5 -7t26 -25.5t7.5 -18.5l-42 -44q66 -68 98.5 -144.5t32.5 -195.5v-143q0 -94 -62.5 -147.5t-174.5 -53.5
q-113 0 -174 54.5t-61 155.5v125q0 95 64 146t162 51zM156 305v-104q0 -68 39 -101t96 -33q141 0 141 139v94q0 65 -41 102.5t-100 37.5q-60 0 -97.5 -33.5t-37.5 -101.5z" />
    <glyph glyph-name="ntilde" unicode="&#xf1;" 
d="M505 4q0 -8 -48 -8t-48 8v357q0 106 -85 106q-41 0 -82.5 -30t-67.5 -71v-362q0 -8 -48 -8t-48 8v534q0 8 48 8q45 0 45 -8v-76q23 32 71.5 63t112.5 31q69 -1 109.5 -47t40.5 -120v-385zM432 695q-37 -68 -96 -68q-30 0 -64.5 22.5t-45.5 22.5q-28 0 -53 -37
q-2 -3 -14 5t-21.5 19.5t-7.5 14.5q14 27 40 47t56 20q28 0 63 -22.5t48 -22.5q26 0 53 40q3 3 14.5 -5.5t20.5 -20t7 -15.5z" />
    <glyph glyph-name="ograve" unicode="&#xf2;" horiz-adv-x="575" 
d="M287 -15q-108 0 -167.5 52.5t-59.5 151.5v163q0 99 60.5 151.5t166.5 52.5t167 -52.5t61 -151.5v-163q0 -98 -62.5 -151t-165.5 -53zM419 347q0 126 -132 126q-66 0 -98.5 -30t-32.5 -96v-153q0 -66 32.5 -96t98.5 -30q132 0 132 126v153zM260 607l-105 138q-10 13 26 15
h15q39 0 44 -8l86 -142q4 -7 -9 -9q-7 -1 -21 -1q-30 0 -36 7z" />
    <glyph glyph-name="oacute" unicode="&#xf3;" horiz-adv-x="575" 
d="M287 -15q-108 0 -167.5 52.5t-59.5 151.5v163q0 99 60.5 151.5t166.5 52.5t167 -52.5t61 -151.5v-163q0 -98 -62.5 -151t-165.5 -53zM419 347q0 126 -132 126q-66 0 -98.5 -30t-32.5 -96v-153q0 -66 32.5 -96t98.5 -30q132 0 132 126v153zM412 745l-104 -138
q-6 -7 -36 -7q-31 0 -31 6q0 2 1 4l85 142q6 8 45 8q54 0 40 -15z" />
    <glyph glyph-name="ocircumflex" unicode="&#xf4;" horiz-adv-x="575" 
d="M287 -15q-108 0 -167.5 52.5t-59.5 151.5v163q0 99 60.5 151.5t166.5 52.5t167 -52.5t61 -151.5v-163q0 -98 -62.5 -151t-165.5 -53zM419 347q0 126 -132 126q-66 0 -98.5 -30t-32.5 -96v-153q0 -66 32.5 -96t98.5 -30q132 0 132 126v153zM375 615q-30 0 -36 8l-52 91
l-52 -90q-5 -8 -36 -8h-13.5t-11 1t-9 2.5t-0.5 4.5l81 127q8 10 40 10q34 0 42 -10l81 -128q2 -3 0 -4.5t-8.5 -2.5t-11.5 -1h-14z" />
    <glyph glyph-name="otilde" unicode="&#xf5;" horiz-adv-x="575" 
d="M287 -15q-108 0 -167.5 52.5t-59.5 151.5v163q0 99 60.5 151.5t166.5 52.5t167 -52.5t61 -151.5v-163q0 -98 -62.5 -151t-165.5 -53zM419 347q0 126 -132 126q-66 0 -98.5 -30t-32.5 -96v-153q0 -66 32.5 -96t98.5 -30q132 0 132 126v153zM439 695q-39 -68 -97 -68
q-30 0 -64 22.5t-46 22.5q-29 0 -52 -37q-3 -3 -14.5 5t-21.5 19.5t-8 14.5q14 27 40 47t56 20q28 0 63 -22.5t48 -22.5q27 0 54 40q2 3 13.5 -5.5t21 -20t7.5 -15.5z" />
    <glyph glyph-name="odieresis" unicode="&#xf6;" horiz-adv-x="575" 
d="M287 -15q-108 0 -167.5 52.5t-59.5 151.5v163q0 99 60.5 151.5t166.5 52.5t167 -52.5t61 -151.5v-163q0 -98 -62.5 -151t-165.5 -53zM419 347q0 126 -132 126q-66 0 -98.5 -30t-32.5 -96v-153q0 -66 32.5 -96t98.5 -30q132 0 132 126v153zM196 621q-44 0 -44 11v99
q0 10 44 10q43 0 43 -10v-99q0 -11 -43 -11zM380 621q-44 0 -44 11v99q0 10 44 10q43 0 43 -10v-99q0 -11 -43 -11z" />
    <glyph glyph-name="divide" unicode="&#xf7;" horiz-adv-x="656" 
d="M79 294h497q8 0 8 -41q0 -40 -8 -40h-497q-8 0 -8 40q0 41 8 41zM328 -5q-44 0 -44 8v125q0 8 44 8t44 -8v-125q0 -8 -44 -8zM328 377q-44 0 -44 8v125q0 8 44 8t44 -8v-125q0 -8 -44 -8z" />
    <glyph glyph-name="oslash" unicode="&#xf8;" horiz-adv-x="575" 
d="M287 -15q-65 0 -106 18l-17 -31q-4 -10 -37 -10h-15t-11 1t-8 2.5t-1 4.5l33 63q-65 54 -65 156v163q0 99 60.5 151.5t166.5 52.5q65 0 110 -20l15 28q4 8 38 8q17 0 26.5 -2t6.5 -8l-31 -57q63 -54 63 -153v-163q0 -98 -62.5 -151t-165.5 -53zM156 194q0 -49 17 -74
l184 340q-25 14 -70 14q-66 0 -98.5 -30.5t-32.5 -96.5v-153zM419 347q0 45 -15 71l-184 -339q24 -11 67 -11q132 0 132 126v153z" />
    <glyph glyph-name="ugrave" unicode="&#xf9;" 
d="M72 538q0 8 48 8q49 0 49 -8v-363q0 -48 22.5 -74.5t62.5 -26.5q48 0 92.5 38t57.5 63v363q0 8 48 8t48 -8v-534q0 -8 -48 -8q-46 0 -46 8v75q-22 -32 -70.5 -63t-112.5 -31q-70 1 -110.5 47t-40.5 120v386zM272 607l-104 138q-14 15 40 15q39 0 45 -8l85 -142
q5 -7 -8 -9q-7 -1 -22 -1q-30 0 -36 7z" />
    <glyph glyph-name="uacute" unicode="&#xfa;" 
d="M72 538q0 8 48 8q49 0 49 -8v-363q0 -48 22.5 -74.5t62.5 -26.5q48 0 92.5 38t57.5 63v363q0 8 48 8t48 -8v-534q0 -8 -48 -8q-46 0 -46 8v75q-22 -32 -70.5 -63t-112.5 -31q-70 1 -110.5 47t-40.5 120v386zM410 745l-104 -138q-6 -7 -36 -7q-31 0 -32 6q0 2 2 4l85 142
q6 8 45 8q54 0 40 -15z" />
    <glyph glyph-name="ucircumflex" unicode="&#xfb;" 
d="M72 538q0 8 48 8q49 0 49 -8v-363q0 -48 22.5 -74.5t62.5 -26.5q48 0 92.5 38t57.5 63v363q0 8 48 8t48 -8v-534q0 -8 -48 -8q-46 0 -46 8v75q-22 -32 -70.5 -63t-112.5 -31q-70 1 -110.5 47t-40.5 120v386zM375 615q-29 0 -35 8l-52 91l-52 -90q-6 -8 -36 -8h-14
t-11.5 1t-8.5 2.5t0 4.5l81 127q6 10 40 10q35 0 41 -10l82 -128q3 -5 -6.5 -6.5t-28.5 -1.5z" />
    <glyph glyph-name="udieresis" unicode="&#xfc;" 
d="M72 538q0 8 48 8q49 0 49 -8v-363q0 -48 22.5 -74.5t62.5 -26.5q48 0 92.5 38t57.5 63v363q0 8 48 8t48 -8v-534q0 -8 -48 -8q-46 0 -46 8v75q-22 -32 -70.5 -63t-112.5 -31q-70 1 -110.5 47t-40.5 120v386zM196 621q-44 0 -44 11v99q0 10 44 10q43 0 43 -10v-99
q0 -11 -43 -11zM380 621q-44 0 -44 11v99q0 10 44 10q43 0 43 -10v-99q0 -11 -43 -11z" />
    <glyph glyph-name="yacute" unicode="&#xfd;" horiz-adv-x="511" 
d="M499 537l-269 -728q-3 -8 -49 -8h-17.5t-15.5 1t-13 2.5t-3 4.5l76 203l-194 525q-1 3 2.5 4.5t13 2.5t16.5 1h21q49 0 52 -8l141 -420l137 420q2 8 51 8q9 0 17 -0.5t17 -1t13.5 -2.5t3.5 -4zM376 745l-104 -138q-6 -7 -37 -7t-31 6q0 2 2 4l85 142q6 8 45 8
q54 0 40 -15z" />
    <glyph glyph-name="thorn" unicode="&#xfe;" horiz-adv-x="590" 
d="M323 -15q-59 0 -98 22t-52 44v-247q0 -8 -48 -8t-48 8v933q0 8 47 8q44 0 44 -8v-263q22 33 62.5 57.5t97.5 24.5q85 0 142 -52t57 -149v-169q0 -98 -57.5 -149.5t-146.5 -51.5zM303 470q-59 0 -94.5 -38.5t-35.5 -96.5v-132q0 -61 36.5 -98t98.5 -37q122 0 122 131v140
q0 131 -127 131z" />
    <glyph glyph-name="ydieresis" unicode="&#xff;" horiz-adv-x="511" 
d="M499 537l-269 -728q-3 -8 -49 -8h-17.5t-15.5 1t-13 2.5t-3 4.5l76 203l-194 525q-1 3 2.5 4.5t13 2.5t16.5 1h21q49 0 52 -8l141 -420l137 420q2 8 51 8q9 0 17 -0.5t17 -1t13.5 -2.5t3.5 -4zM163 621q-43 0 -43 11v99q0 10 43 10t43 -10v-99q0 -11 -43 -11zM348 621
q-44 0 -44 11v99q0 10 44 10q42 0 42 -10v-99q0 -11 -42 -11z" />
    <glyph glyph-name="Amacron" unicode="&#x100;" horiz-adv-x="601" 
d="M299 737q54 0 57 -9l226 -724q1 -3 -3 -4.5t-14 -2.5t-16.5 -1h-17.5q-48 0 -51 8l-50 167h-264l-51 -167q-3 -8 -48 -8h-17t-15 1t-13 2.5t-3 4.5l224 724q3 9 56 9zM191 255h215l-107 371zM180 854q-8 0 -8 38q0 37 8 37h239q8 0 8 -37q0 -38 -8 -38h-239z" />
    <glyph glyph-name="amacron" unicode="&#x101;" horiz-adv-x="546" 
d="M475 4q0 -8 -44 -8q-46 0 -46 8v52q-77 -68 -167 -68q-79 0 -125 44.5t-46 119.5v25q0 90 81.5 130.5t255.5 15.5v35q0 60 -26.5 85t-87.5 25q-87 0 -153 -33q-5 -3 -13 13q-19 36 -17 61q1 6 4 8q80 35 183 35q201 0 201 -195v-353zM384 129v126q-246 38 -246 -75v-24
q0 -42 28 -64.5t75 -22.5q78 0 143 60zM153 654q-8 0 -8 38q0 37 8 37h239q8 0 8 -37q0 -38 -8 -38h-239z" />
    <glyph glyph-name="Abreve" unicode="&#x102;" horiz-adv-x="601" 
d="M299 737q54 0 57 -9l226 -724q1 -3 -3 -4.5t-14 -2.5t-16.5 -1h-17.5q-48 0 -51 8l-50 167h-264l-51 -167q-3 -8 -48 -8h-17t-15 1t-13 2.5t-3 4.5l224 724q3 9 56 9zM191 255h215l-107 371zM423 954q-5 -50 -38.5 -85t-84.5 -35q-50 0 -83 35t-39 85q0 6 36 6
q22 0 23 -5q2 -29 20.5 -48t43.5 -19t43.5 19t20.5 48q1 6 29 6q29 0 29 -7z" />
    <glyph glyph-name="abreve" unicode="&#x103;" horiz-adv-x="546" 
d="M475 4q0 -8 -44 -8q-46 0 -46 8v52q-77 -68 -167 -68q-79 0 -125 44.5t-46 119.5v25q0 90 81.5 130.5t255.5 15.5v35q0 60 -26.5 85t-87.5 25q-87 0 -153 -33q-5 -3 -13 13q-19 36 -17 61q1 6 4 8q80 35 183 35q201 0 201 -195v-353zM384 129v126q-246 38 -246 -75v-24
q0 -42 28 -64.5t75 -22.5q78 0 143 60zM395 754q-4 -50 -37.5 -85t-84.5 -35q-50 0 -83 35t-39 85q-1 6 36 6q22 0 22 -5q3 -29 21 -48t44 -19q25 0 43.5 19t20.5 48q1 6 29 6q6 0 10.5 -0.5l9 -1t6.5 -2t2 -3.5z" />
    <glyph glyph-name="Aogonek" unicode="&#x104;" horiz-adv-x="601" 
d="M299 737q54 0 57 -9l226 -724q1 -2 -3 -3.5t-11 -2.5q-2 -1 -32 -22.5t-42 -32.5q-42 -37 -42 -69q0 -41 47 -41q14 0 30 7.5t22 13.5q4 3 13 -5.5t14 -19.5t0 -15q-12 -12 -37.5 -23.5t-57.5 -11.5q-38 0 -71 21.5t-33 68.5q0 20 6.5 37t21 31.5t25 23t31 21.5t26.5 17
q-7 1 -9 5l-50 167h-264l-51 -167q-3 -8 -48 -8h-17t-15 1t-13 2.5t-3 4.5l224 724q3 9 56 9zM191 255h215l-107 371z" />
    <glyph glyph-name="aogonek" unicode="&#x105;" horiz-adv-x="546" 
d="M475 4q0 -3 -7 -5q-6 -5 -32.5 -23.5t-41 -30.5t-29 -32t-14.5 -39q0 -41 47 -41q30 0 51 21q4 3 13 -5.5t14 -19.5t0 -15q-21 -24 -71 -31q-16 -4 -41 -2q-32 4 -59 25t-27 63q0 25 13.5 47t25.5 33t39.5 29t32.5 22q-4 1 -4 4v52q-77 -68 -167 -68q-79 0 -125 44.5
t-46 119.5v25q0 90 81.5 130.5t255.5 15.5v35q0 60 -26.5 85t-87.5 25q-87 0 -153 -33q-5 -3 -13 13q-19 36 -17 61q1 6 4 8q80 35 183 35q108 0 154.5 -53t46.5 -162v-333zM384 129v126q-246 38 -246 -75v-24q0 -42 28 -64.5t75 -22.5q78 0 143 60z" />
    <glyph glyph-name="Cacute" unicode="&#x106;" horiz-adv-x="575" 
d="M540 704q3 -2 2 -11t-5.5 -21.5t-9.5 -24t-11 -19t-9 -6.5q-91 41 -166 41q-72 0 -119.5 -34t-47.5 -102v-326q0 -132 167 -132q85 0 174 33q3 1 7.5 -6t8.5 -18.5t7 -24t3.5 -21.5t-2.5 -11q-29 -13 -90.5 -24t-111.5 -11q-262 0 -262 217v325q0 114 70.5 166.5
t191.5 52.5q112 0 203 -43zM470 945l-104 -138q-6 -7 -37 -7t-31 6q0 2 2 4l85 142q5 8 44 8q45 0 43 -11q0 -2 -2 -4z" />
    <glyph glyph-name="cacute" unicode="&#x107;" horiz-adv-x="491" 
d="M271 -15q-98 0 -154.5 52.5t-56.5 151.5v162q0 97 57 150.5t154 53.5q106 0 180 -55q6 -5 -1 -25.5t-19 -37t-20 -11.5q-1 1 -12.5 8t-17.5 10.5t-20 10t-24.5 9.5t-25.5 6t-30 3q-124 0 -124 -132v-147q0 -128 124 -128q61 0 132 49q8 6 20.5 -10t19.5 -35.5t1 -24.5
q-28 -23 -78.5 -41.5t-104.5 -18.5zM409 745l-104 -138q-6 -7 -37 -7t-31 6q0 2 2 4l85 142q5 8 44 8q45 0 43 -11q0 -2 -2 -4z" />
    <glyph glyph-name="Ccaron" unicode="&#x10c;" horiz-adv-x="575" 
d="M540 704q3 -2 2 -11t-5.5 -21.5t-9.5 -24t-11 -19t-9 -6.5q-91 41 -166 41q-72 0 -119.5 -34t-47.5 -102v-326q0 -132 167 -132q85 0 174 33q3 1 7.5 -6t8.5 -18.5t7 -24t3.5 -21.5t-2.5 -11q-29 -13 -90.5 -24t-111.5 -11q-262 0 -262 217v325q0 114 70.5 166.5
t191.5 52.5q112 0 203 -43zM250 963q30 0 36 -8l53 -90l53 90q7 8 36 8h14t11.5 -1t8.5 -2.5t0 -4.5l-82 -128q-6 -9 -40 -9q-35 0 -41 9l-83 128q-3 5 6.5 6.5t27.5 1.5z" />
    <glyph glyph-name="ccaron" unicode="&#x10d;" horiz-adv-x="491" 
d="M271 -15q-98 0 -154.5 52.5t-56.5 151.5v162q0 97 57 150.5t154 53.5q106 0 180 -55q6 -5 -1 -25.5t-19 -37t-20 -11.5q-1 1 -12.5 8t-17.5 10.5t-20 10t-24.5 9.5t-25.5 6t-30 3q-124 0 -124 -132v-147q0 -128 124 -128q61 0 132 49q8 6 20.5 -10t19.5 -35.5t1 -24.5
q-28 -23 -78.5 -41.5t-104.5 -18.5zM185 763q30 0 36 -8l53 -90l53 90q7 8 36 8h14t11.5 -1t8.5 -2.5t0 -4.5l-82 -128q-6 -9 -40 -9q-35 0 -42 9l-82 128q-2 3 0 4.5t8.5 2.5t11.5 1h14z" />
    <glyph glyph-name="Dcaron" unicode="&#x10e;" horiz-adv-x="660" 
d="M586 507v-290q0 -217 -247 -217h-253v733h250q126 0 188 -54.5t62 -171.5zM486 217v289q0 142 -149 142h-152v-563h155q146 0 146 132zM229 963q29 0 36 -8l52 -90l54 90q5 8 35 8h14t11.5 -1t9 -2.5t0.5 -4.5l-82 -128q-7 -9 -41 -9t-41 9l-83 128q-3 5 6.5 6.5
t28.5 1.5z" />
    <glyph glyph-name="dcaron" unicode="&#x10f;" horiz-adv-x="725" 
d="M265 556q58 0 97.5 -21.5t52.5 -43.5v250q0 8 48 8t48 -8v-737q0 -8 -47 -8q-44 0 -44 8v63q-53 -81 -160 -81q-85 0 -142 52t-57 149v168q0 98 57.5 149.5t146.5 51.5zM285 71q58 0 94 39t36 96v132q0 62 -36.5 98.5t-98.5 36.5q-122 0 -122 -131v-140q0 -131 127 -131z
M573 504q-22 20 -11 29q37 37 46.5 72.5t9.5 130.5q0 8 47 8q48 0 48 -8q0 -171 -113 -245q-11 -5 -27 13z" />
    <glyph glyph-name="Dcroat" unicode="&#x110;" horiz-adv-x="660" 
d="M20 334q-8 0 -8 40t8 40h66v319h250q126 0 188 -54.5t62 -171.5v-290q0 -217 -247 -217h-253v334h-66zM486 217v289q0 142 -149 142h-152v-234h148q8 0 8 -40t-8 -40h-148v-249h155q146 0 146 132z" />
    <glyph glyph-name="dcroat" unicode="&#x111;" horiz-adv-x="613" 
d="M251 600q-8 0 -8 40t8 40h164v61q0 8 48 8t48 -8v-61h62q8 0 8 -40t-8 -40h-62v-596q0 -8 -47 -8q-44 0 -44 8v63q-53 -81 -160 -81q-85 0 -142 52t-57 149v168q0 98 57.5 149.5t146.5 51.5q58 0 97.5 -21.5t52.5 -43.5v109h-164zM285 71q58 0 94 39t36 96v132
q0 62 -36.5 98.5t-98.5 36.5q-122 0 -122 -131v-140q0 -131 127 -131z" />
    <glyph glyph-name="Emacron" unicode="&#x112;" horiz-adv-x="523" 
d="M477 43q0 -43 -8 -43h-383v733h381q9 0 9 -44q0 -42 -9 -42h-282v-223h250q8 0 8 -42t-8 -42h-250v-255h284q8 0 8 -42zM142 854q-8 0 -8 38q0 37 8 37h239q8 0 8 -37q0 -38 -8 -38h-239z" />
    <glyph glyph-name="emacron" unicode="&#x113;" horiz-adv-x="552" 
d="M493 232h-338v-43q0 -60 32.5 -92.5t96.5 -32.5q78 0 164 44q5 2 16 -14.5t18.5 -35t2.5 -21.5q-91 -52 -205 -52q-102 0 -160.5 55.5t-58.5 151.5v150q0 99 58.5 156.5t154.5 57.5q105 0 162 -58t57 -164v-102zM400 303v44q0 63 -34.5 97t-90.5 34q-55 0 -88 -34
t-33 -96v-45h246zM156 654q-8 0 -8 38q0 37 8 37h239q8 0 8 -37q0 -38 -8 -38h-239z" />
    <glyph glyph-name="Edotaccent" unicode="&#x116;" horiz-adv-x="523" 
d="M477 43q0 -43 -8 -43h-383v733h381q9 0 9 -44q0 -42 -9 -42h-282v-223h250q8 0 8 -42t-8 -42h-250v-255h284q8 0 8 -42zM272 830q-61 0 -61 14v90q0 13 61 13q60 0 60 -14v-89q0 -14 -60 -14z" />
    <glyph glyph-name="edotaccent" unicode="&#x117;" horiz-adv-x="552" 
d="M493 232h-338v-43q0 -60 32.5 -92.5t96.5 -32.5q78 0 164 44q5 2 16 -14.5t18.5 -35t2.5 -21.5q-91 -52 -205 -52q-102 0 -160.5 55.5t-58.5 151.5v150q0 99 58.5 156.5t154.5 57.5q105 0 162 -58t57 -164v-102zM400 303v44q0 63 -34.5 97t-90.5 34q-55 0 -88 -34
t-33 -96v-45h246zM277 630q-60 0 -60 14v90q0 13 61 13q60 0 60 -14v-89q0 -14 -61 -14z" />
    <glyph glyph-name="Eogonek" unicode="&#x118;" horiz-adv-x="523" 
d="M473 13q-3 -13 -4 -13q-2 -1 -24.5 -16.5t-33 -24t-27.5 -24t-24.5 -30.5t-7.5 -30q0 -41 47 -41q14 0 30 7.5t21 13.5q4 3 13 -5.5t14.5 -19.5t0.5 -15q-38 -35 -96 -35q-37 0 -70 21.5t-33 68.5q0 25 13.5 47.5t24.5 32t40 29t32 21.5h-303v733h381q9 0 9 -44
q0 -42 -9 -42h-282v-223h250q8 0 8 -42t-8 -42h-250v-255h284q8 0 8 -42q0 -26 -4 -30z" />
    <glyph glyph-name="eogonek" unicode="&#x119;" horiz-adv-x="552" 
d="M493 232h-338v-43q0 -59 32.5 -92t96.5 -33q78 0 164 44q5 2 16 -14.5t18.5 -35t2.5 -21.5q-60 -33 -122 -44q-4 -3 -25.5 -17.5t-31 -22.5t-25 -22t-22 -28t-6.5 -29q0 -41 48 -41q30 0 51 21q4 3 13 -5.5t14 -19.5t0 -15q-25 -25 -72 -31q-21 -5 -46 0q-30 5 -55 25.5
t-25 60.5q0 27 14 49.5t29.5 35t39.5 28.5q5 3 8 5q-25 2 -37 5q-83 11 -128.5 63.5t-45.5 136.5v150q0 99 58.5 156.5t154.5 57.5q105 0 162 -58t57 -164v-102zM400 303v44q0 63 -34.5 97t-90.5 34q-55 0 -88 -34t-33 -96v-45h246z" />
    <glyph glyph-name="Ecaron" unicode="&#x11a;" horiz-adv-x="523" 
d="M477 43q0 -43 -8 -43h-383v733h381q9 0 9 -44q0 -42 -9 -42h-282v-223h250q8 0 8 -42t-8 -42h-250v-255h284q8 0 8 -42zM198 963q30 0 36 -8l53 -90l53 90q5 8 36 8h13.5t11 -1t9 -2.5t0.5 -4.5l-82 -128q-7 -9 -40 -9q-35 0 -42 9l-82 128q-2 3 0 4.5t8.5 2.5t11.5 1h14
z" />
    <glyph glyph-name="ecaron" unicode="&#x11b;" horiz-adv-x="552" 
d="M493 232h-338v-43q0 -60 32.5 -92.5t96.5 -32.5q78 0 164 44q5 2 16 -14.5t18.5 -35t2.5 -21.5q-91 -52 -205 -52q-102 0 -160.5 55.5t-58.5 151.5v150q0 99 58.5 156.5t154.5 57.5q105 0 162 -58t57 -164v-102zM400 303v44q0 63 -34.5 97t-90.5 34q-55 0 -88 -34
t-33 -96v-45h246zM187 763q30 0 36 -8l53 -90l53 90q7 8 36 8h14t11.5 -1t8.5 -2.5t0 -4.5l-82 -128q-6 -9 -40 -9q-35 0 -42 9l-82 128q-2 3 0 4.5t8.5 2.5t11.5 1h14z" />
    <glyph glyph-name="Gbreve" unicode="&#x11e;" horiz-adv-x="668" 
d="M506 211v107h-140q-8 0 -8 43t8 43h238v-198q0 -107 -68.5 -164t-195.5 -57t-196 55t-69 152v338q0 217 262 217q112 0 203 -43q3 -2 2 -11t-5.5 -21.5t-9.5 -24t-11 -19t-9 -6.5q-88 40 -166 40q-67 0 -117 -32t-50 -102v-315q0 -73 47 -108.5t120 -35.5q75 0 120 34
t45 108zM456 954q-5 -50 -38.5 -85t-83.5 -35t-83.5 35t-38.5 85q-1 6 36 6q22 0 22 -5q3 -29 21 -48t44 -19q25 0 43.5 19.5t20.5 47.5q0 6 29 6q6 0 10.5 -0.5l9 -1t6.5 -2t2 -3.5z" />
    <glyph glyph-name="gbreve" unicode="&#x11f;" horiz-adv-x="588" 
d="M415 66v-63q0 -65 -35 -100t-98 -35q-72 0 -151 48q-5 3 -17.5 -13.5t-20.5 -36t-3 -22.5q84 -55 188 -55q47 0 87 13t74 40.5t53.5 76t19.5 113.5v506q0 8 -47 8q-46 0 -46 -8v-58q-20 31 -60.5 53t-98.5 22q-85 0 -141.5 -52t-56.5 -149v-159q0 -97 56 -149t142 -52
q103 0 155 72zM281 470q61 0 97.5 -38.5t36.5 -96.5v-119q0 -63 -36 -100t-98 -37q-57 0 -90 32t-33 99v129q0 68 33 99.5t90 31.5zM416 754q-5 -50 -38.5 -85t-84.5 -35q-50 0 -83 35t-38 85q-1 6 35 6q23 0 23 -5q3 -29 21 -48t43 -19t44 19t21 48q0 6 29 6q28 0 28 -7z
" />
    <glyph glyph-name="Gcommaaccent" unicode="&#x122;" horiz-adv-x="668" 
d="M506 211v107h-140q-8 0 -8 43t8 43h238v-198q0 -107 -68.5 -164t-195.5 -57t-196 55t-69 152v338q0 217 262 217q112 0 203 -43q3 -2 2 -11t-5.5 -21.5t-9.5 -24t-11 -19t-9 -6.5q-88 40 -166 40q-67 0 -117 -32t-50 -102v-315q0 -73 47 -108.5t120 -35.5q75 0 120 34
t45 108zM245 -295q-21 20 -11 30q37 37 46.5 72.5t9.5 129.5q0 8 47 8q48 0 48 -8q0 -171 -113 -245q-11 -5 -27 13z" />
    <glyph glyph-name="gcommaaccent" unicode="&#x123;" horiz-adv-x="588" 
d="M415 66v-63q0 -65 -35 -100t-98 -35q-72 0 -151 48q-5 3 -17.5 -13.5t-20.5 -36t-3 -22.5q84 -55 188 -55q47 0 87 13t74 40.5t53.5 76t19.5 113.5v506q0 8 -47 8q-46 0 -46 -8v-58q-20 31 -60.5 53t-98.5 22q-85 0 -141.5 -52t-56.5 -149v-159q0 -97 56 -149t142 -52
q103 0 155 72zM281 470q61 0 97.5 -38.5t36.5 -96.5v-119q0 -63 -36 -100t-98 -37q-57 0 -90 32t-33 99v129q0 68 33 99.5t90 31.5zM372 845q22 -20 11 -29q-38 -37 -47.5 -72.5t-9.5 -129.5q0 -9 -46 -9q-48 0 -48 9q0 172 113 244q10 6 27 -13z" />
    <glyph glyph-name="Itilde" unicode="&#x128;" horiz-adv-x="274" 
d="M189 4q0 -8 -50 -8t-50 8v725q0 8 50 8t50 -8v-725zM288 895q-37 -68 -96 -68q-30 0 -64 22.5t-46 22.5q-28 0 -53 -37q-2 -3 -14 5t-21.5 19.5t-7.5 14.5q14 27 40 47t56 20q29 0 63.5 -22.5t47.5 -22.5q7 0 13.5 2.5t11.5 5.5t10.5 8.5t8 9t6 8.5t4.5 6q2 3 13.5 -5.5
t20.5 -20t7 -15.5z" />
    <glyph glyph-name="itilde" unicode="&#x129;" horiz-adv-x="252" 
d="M126 -4q-48 0 -48 8v533q0 8 48 8t48 -8v-533q0 -8 -48 -8zM278 695q-39 -68 -97 -68q-29 0 -64 22.5t-46 22.5q-28 0 -53 -37q-2 -3 -13.5 5t-21.5 19.5t-8 14.5q14 27 40 47t56 20q28 0 62.5 -22.5t48.5 -22.5q27 0 54 40q2 3 13.5 -5.5t21 -20t7.5 -15.5z" />
    <glyph glyph-name="uni012A" unicode="&#x12a;" horiz-adv-x="274" 
d="M189 4q0 -8 -50 -8t-50 8v725q0 8 50 8t50 -8v-725zM17 854q-8 0 -8 38q0 37 8 37h239q9 0 9 -37q0 -38 -9 -38h-239z" />
    <glyph glyph-name="imacron" unicode="&#x12b;" horiz-adv-x="252" 
d="M126 -4q-48 0 -48 8v533q0 8 48 8t48 -8v-533q0 -8 -48 -8zM6 654q-8 0 -8 38q0 37 8 37h239q8 0 8 -37q0 -38 -8 -38h-239z" />
    <glyph glyph-name="Iogonek" unicode="&#x12e;" horiz-adv-x="274" 
d="M189 4q0 -5 -23 -7q-35 -24 -61 -46q-42 -37 -42 -69q0 -40 48 -40q30 0 51 21q4 3 13 -5.5t14 -20t0 -15.5q-11 -11 -37 -22.5t-58 -11.5q-37 0 -70 21t-33 68q0 19 6 35.5t19.5 30t23 22t28 20.5t23.5 16q-2 2 -2 3v725q0 8 50 8t50 -8v-725z" />
    <glyph glyph-name="iogonek" unicode="&#x12f;" horiz-adv-x="252" 
d="M174 9q-6 -5 -31 -25.5t-36 -31.5t-22.5 -31t-11.5 -39q0 -36 35 -39q13 -1 25 3q27 4 38 17q7 5 21 -14.5t7 -26.5q-37 -34 -96 -34q-37 0 -70 21t-33 68q0 23 11.5 43.5t21.5 30t34.5 27.5t27.5 20q-17 2 -17 6v533q0 8 48 8t48 -8v-528zM126 620q-48 0 -48 8v113
q0 8 48 8t48 -8v-113q0 -8 -48 -8z" />
    <glyph glyph-name="Idotaccent" unicode="&#x130;" horiz-adv-x="274" 
d="M189 4q0 -8 -50 -8t-50 8v725q0 8 50 8t50 -8v-725zM140 830q-60 0 -60 14v90q0 13 60 13t60 -14v-89q0 -14 -60 -14z" />
    <glyph glyph-name="dotlessi" unicode="&#x131;" horiz-adv-x="252" 
d="M120 -4q-48 0 -48 8v533q0 8 48 8t48 -8v-533q0 -8 -48 -8z" />
    <glyph glyph-name="Kcommaaccent" unicode="&#x136;" horiz-adv-x="592" 
d="M185 264v-260q0 -8 -50 -8q-49 0 -49 8v725q0 8 50 8q49 0 49 -8v-341l270 340q8 9 55 9h23t20 -1t16 -2.5t2 -4.5l-257 -324l262 -401q8 -8 -59 -8q-52 0 -58 8l-214 333zM225 -285q-21 20 -11 30q38 37 47.5 72.5t9.5 129.5q0 8 46 8q48 0 48 -8q0 -171 -113 -245
q-11 -5 -27 13z" />
    <glyph glyph-name="kcommaaccent" unicode="&#x137;" horiz-adv-x="509" 
d="M493 537l-207 -235l219 -298q2 -3 -2.5 -4.5t-16 -2.5t-19.5 -1h-21q-53 0 -60 8l-172 235l-39 -41v-194q0 -8 -49 -8q-47 0 -47 8v737q0 8 48 8t48 -8v-426l196 222q8 8 65 8h21.5t18.5 -1t15 -2.5t2 -4.5zM185 -285q-21 21 -11 30q38 37 47.5 72.5t9.5 129.5q0 8 46 8
q48 0 48 -8q0 -170 -112 -245q-11 -5 -28 13z" />
    <glyph glyph-name="kgreenlandic" unicode="&#x138;" horiz-adv-x="509" 
d="M493 537l-207 -235l219 -298q2 -3 -2.5 -4.5t-16 -2.5t-19.5 -1h-21q-53 0 -60 8l-172 235l-39 -41v-194q0 -8 -49 -8q-47 0 -47 8v533q0 8 48 8t48 -8v-222l196 222q8 8 65 8h21.5t18.5 -1t15 -2.5t2 -4.5z" />
    <glyph glyph-name="Lacute" unicode="&#x139;" horiz-adv-x="504" 
d="M497 46q0 -46 -8 -46h-403v729q0 8 49 8q50 0 50 -8v-638h304q8 0 8 -45zM280 945l-105 -138q-6 -7 -36 -7q-31 0 -31 6q0 2 1 4l86 142q5 8 44 8q46 0 43 -11q0 -2 -2 -4z" />
    <glyph glyph-name="lacute" unicode="&#x13a;" horiz-adv-x="289" 
d="M252 0h-46q-65 0 -98 34t-33 94v613q0 8 48 8t48 -8v-605q0 -27 13.5 -39.5t44.5 -12.5h23q9 0 12 -7.5t3 -33.5q0 -28 -3 -35.5t-12 -7.5zM263 945l-104 -138q-6 -7 -37 -7t-31 6q0 2 1 4l86 142q5 8 44 8q46 0 43 -11q0 -2 -2 -4z" />
    <glyph glyph-name="Lcommaaccent" unicode="&#x13b;" horiz-adv-x="504" 
d="M497 46q0 -46 -8 -46h-403v729q0 8 49 8q50 0 50 -8v-638h304q8 0 8 -45zM195 -275q-21 20 -11 30q37 37 46.5 72.5t9.5 129.5q0 8 47 8q48 0 48 -8q0 -171 -113 -245q-11 -5 -27 13z" />
    <glyph glyph-name="lcommaaccent" unicode="&#x13c;" horiz-adv-x="289" 
d="M252 0h-46q-65 0 -98 34t-33 94v613q0 8 48 8t48 -8v-605q0 -27 13.5 -39.5t44.5 -12.5h23q9 0 12 -7.5t3 -33.5q0 -28 -3 -35.5t-12 -7.5zM90 -275q-20 21 -11 30q38 37 47.5 72.5t9.5 129.5q0 8 46 8q48 0 48 -8q0 -171 -113 -245q-11 -5 -27 13z" />
    <glyph glyph-name="Lcaron" unicode="&#x13d;" horiz-adv-x="504" 
d="M497 46q0 -46 -8 -46h-403v729q0 8 49 8q50 0 50 -8v-638h304q8 0 8 -45zM292 497q-22 20 -11 29q37 37 46.5 72.5t9.5 129.5q0 9 46 9q49 0 49 -9q0 -172 -113 -244q-10 -6 -27 13z" />
    <glyph glyph-name="lcaron" unicode="&#x13e;" horiz-adv-x="404" 
d="M252 0h-46q-65 0 -98 34t-33 94v613q0 8 48 8t48 -8v-605q0 -27 13.5 -39.5t44.5 -12.5h23q9 0 12 -7.5t3 -33.5q0 -28 -3 -35.5t-12 -7.5zM252 510q-22 20 -11 29q38 37 47.5 73t9.5 130q0 8 46 8q48 0 48 -8q0 -171 -113 -245q-11 -5 -27 13z" />
    <glyph glyph-name="Lslash" unicode="&#x141;" horiz-adv-x="511" 
d="M88 375v355q0 7 50 7t50 -7v-304l104 57q5 2 16 -14t18 -34t2 -20l-140 -77v-255h308q8 0 8 -40q0 -43 -8 -43h-408v287l-48 -26q-4 -3 -15 13t-18.5 34t-2.5 21z" />
    <glyph glyph-name="lslash" unicode="&#x142;" horiz-adv-x="258" 
d="M167 4q0 -8 -48 -8q-49 0 -49 8v281q-6 -3 -18 -9.5t-21.5 -11.5t-17.5 -9q-4 -2 -15.5 14.5t-19 35t-2.5 20.5l94 51v353q0 8 49 8q48 0 48 -8v-300q9 5 30 16t32 18q5 2 16.5 -14.5t19 -35.5t2.5 -21l-100 -54v-334z" />
    <glyph glyph-name="Nacute" unicode="&#x143;" horiz-adv-x="716" 
d="M630 4q0 -8 -63 -8q-58 0 -63 8l-224 421q-41 77 -103 202h-1q7 -95 7 -205v-418q0 -8 -48 -8q-49 0 -49 8v725q0 8 65 8q67 0 70 -8l207 -392l110 -215h2q-6 99 -6 210v397q0 8 49 8q47 0 47 -8v-725zM491 945l-104 -138q-6 -7 -37 -7t-31 6q0 2 1 4l86 142q5 8 44 8
q46 0 43 -11q0 -2 -2 -4z" />
    <glyph glyph-name="nacute" unicode="&#x144;" 
d="M505 4q0 -8 -48 -8t-48 8v357q0 106 -85 106q-41 0 -82.5 -30t-67.5 -71v-362q0 -8 -48 -8t-48 8v534q0 8 48 8q45 0 45 -8v-76q23 32 71.5 63t112.5 31q69 -1 109.5 -47t40.5 -120v-385zM427 745l-104 -138q-6 -7 -37 -7t-31 6q0 2 2 4l85 142q6 8 44 8q45 0 43 -11
q0 -2 -2 -4z" />
    <glyph glyph-name="Ncommaaccent" unicode="&#x145;" horiz-adv-x="716" 
d="M630 4q0 -8 -63 -8q-58 0 -63 8l-224 421q-41 77 -103 202h-1q7 -95 7 -205v-418q0 -8 -48 -8q-49 0 -49 8v725q0 8 65 8q67 0 70 -8l207 -392l110 -215h2q-6 99 -6 210v397q0 8 49 8q47 0 47 -8v-725zM270 -275q-20 21 -11 30q38 37 47.5 72.5t9.5 129.5q0 8 46 8
q48 0 48 -8q0 -171 -113 -245q-11 -5 -27 13z" />
    <glyph glyph-name="ncommaaccent" unicode="&#x146;" 
d="M505 4q0 -8 -48 -8t-48 8v357q0 106 -85 106q-41 0 -82.5 -30t-67.5 -71v-362q0 -8 -48 -8t-48 8v534q0 8 48 8q45 0 45 -8v-76q23 32 71.5 63t112.5 31q69 -1 109.5 -47t40.5 -120v-385zM202 -275q-20 21 -11 30q38 37 47.5 72.5t9.5 129.5q0 8 46 8q48 0 48 -8
q0 -172 -112 -245q-11 -4 -28 13z" />
    <glyph glyph-name="Ncaron" unicode="&#x147;" horiz-adv-x="716" 
d="M630 4q0 -8 -63 -8q-58 0 -63 8l-224 421q-41 77 -103 202h-1q7 -95 7 -205v-418q0 -8 -48 -8q-49 0 -49 8v725q0 8 65 8q67 0 70 -8l207 -392l110 -215h2q-6 99 -6 210v397q0 8 49 8q47 0 47 -8v-725zM269 963q30 0 36 -8l52 -90l54 90q5 8 35 8h14t11.5 -1t9 -2.5
t0.5 -4.5l-82 -128q-7 -9 -41 -9t-41 9l-82 128q-2 3 0 4.5t8.5 2.5t11.5 1h14z" />
    <glyph glyph-name="ncaron" unicode="&#x148;" 
d="M505 4q0 -8 -48 -8t-48 8v357q0 106 -85 106q-41 0 -82.5 -30t-67.5 -71v-362q0 -8 -48 -8t-48 8v534q0 8 48 8q45 0 45 -8v-76q23 32 71.5 63t112.5 31q69 -1 109.5 -47t40.5 -120v-385zM210 763q30 0 36 -8l52 -90l54 90q5 8 35 8h14t11.5 -1t9 -2.5t0.5 -4.5l-82 -128
q-7 -9 -41 -9t-41 9l-82 128q-2 3 0 4.5t8.5 2.5t11.5 1h14z" />
    <glyph glyph-name="Eng" unicode="&#x14a;" horiz-adv-x="716" 
d="M520 -202h-89q-8 0 -8 41q0 40 8 40h52q51 0 51 51v67q-28 2 -30 7l-101.5 188.5t-130 245t-95.5 189.5h-1q7 -120 7 -257v-366q0 -8 -48 -8q-49 0 -49 8v725q0 8 65 8q67 0 70 -8l195 -368l122 -239h2q-6 140 -6 287v320q0 8 49 8q47 0 47 -8v-787q0 -71 -24.5 -107.5
t-85.5 -36.5z" />
    <glyph glyph-name="eng" unicode="&#x14b;" 
d="M395 -202h-89q-8 0 -8 41q0 40 8 40h53q50 0 50 51v431q0 106 -85 106q-41 0 -82.5 -30t-67.5 -71v-362q0 -8 -48 -8t-48 8v534q0 8 48 8q45 0 45 -8v-76q23 32 71.5 63t112.5 31q69 -1 109.5 -47t40.5 -120v-456q0 -135 -110 -135z" />
    <glyph glyph-name="Omacron" unicode="&#x14c;" horiz-adv-x="688" 
d="M614 205v-1q0 -106 -70 -162.5t-200 -56.5q-131 0 -200 55.5t-69 163.5v322q0 108 69 164.5t200 56.5q130 0 200 -56.5t70 -164.5v-321zM514 209v313q0 142 -170 142t-170 -142v-313q0 -141 170 -141t170 141zM224 854q-8 0 -8 38q0 37 8 37h239q8 0 8 -37q0 -38 -8 -38
h-239z" />
    <glyph glyph-name="omacron" unicode="&#x14d;" horiz-adv-x="575" 
d="M287 -15q-108 0 -167.5 52.5t-59.5 151.5v163q0 99 60.5 151.5t166.5 52.5t167 -52.5t61 -151.5v-163q0 -98 -62.5 -151t-165.5 -53zM419 347q0 126 -132 126q-66 0 -98.5 -30t-32.5 -96v-153q0 -66 32.5 -96t98.5 -30q132 0 132 126v153zM168 654q-8 0 -8 38q0 37 8 37
h239q8 0 8 -37q0 -38 -8 -38h-239z" />
    <glyph glyph-name="Ohungarumlaut" unicode="&#x150;" horiz-adv-x="688" 
d="M614 205v-1q0 -106 -70 -162.5t-200 -56.5q-131 0 -200 55.5t-69 163.5v322q0 108 69 164.5t200 56.5q130 0 200 -56.5t70 -164.5v-321zM514 209v313q0 142 -170 142t-170 -142v-313q0 -141 170 -141t170 141zM557 945l-104 -138q-6 -7 -36 -7q-31 0 -32 6q0 2 2 5
l85 141q5 8 45 8q42 0 43 -9q0 -2 -3 -6zM398 945l-104 -138q-6 -7 -37 -7t-31 7q0 2 2 4l85 141q5 8 44 8q43 0 43 -9q1 -3 -2 -6z" />
    <glyph glyph-name="ohungarumlaut" unicode="&#x151;" horiz-adv-x="575" 
d="M287 -15q-108 0 -167.5 52.5t-59.5 151.5v163q0 99 60.5 151.5t166.5 52.5t167 -52.5t61 -151.5v-163q0 -98 -62.5 -151t-165.5 -53zM419 347q0 126 -132 126q-66 0 -98.5 -30t-32.5 -96v-153q0 -66 32.5 -96t98.5 -30q132 0 132 126v153zM501 745l-104 -138
q-6 -7 -37 -7t-31 7q0 2 2 4l85 141q5 8 44 8q43 0 43 -9q1 -3 -2 -6zM342 745l-105 -138q-6 -7 -36 -7q-31 0 -31 7q0 2 1 4l86 141q4 8 44 8q43 0 43 -10q0 -2 -2 -5z" />
    <glyph glyph-name="OE" unicode="&#x152;" horiz-adv-x="988" 
d="M522 43q-60 -55 -173 -55q-122 0 -196 49.5t-74 155.5v345q0 106 74.5 156.5t195.5 50.5q47 0 88 -12.5t58.5 -23t26.5 -19.5v43h394q8 0 8 -41q0 -42 -8 -42h-294v-227h244q8 0 8 -40q0 -42 -8 -42h-244v-258h309q8 0 8 -41q0 -42 -8 -42q-68 0 -204.5 -0.5t-204.5 -0.5
v44zM521 193v345q0 66 -48.5 95t-123.5 29q-171 0 -171 -124v-345q0 -122 171 -122q172 0 172 122z" />
    <glyph glyph-name="oe" unicode="&#x153;" horiz-adv-x="919" 
d="M291 -15q-108 0 -167.5 52.5t-59.5 151.5v163q0 99 60.5 151.5t166.5 52.5q125 0 183 -73q58 72 167 72q105 0 161.5 -58t56.5 -163v-104h-339v-41q0 -59 33.5 -91.5t97.5 -32.5q81 0 164 44q7 3 25 -32t11 -39q-91 -52 -205 -52q-116 0 -173 71q-60 -72 -182 -72z
M423 351q-1 122 -132 122q-66 0 -98.5 -30t-32.5 -96v-153q0 -66 32.5 -96t98.5 -30q131 0 132 122v161zM766 302v44q0 63 -34 97t-90 34q-54 0 -88 -33t-35 -93v-49h247z" />
    <glyph glyph-name="Racute" unicode="&#x154;" horiz-adv-x="610" 
d="M420 290l141 -286q1 -3 -3 -4.5t-14.5 -2.5t-18 -1h-21.5q-52 0 -56 8l-127 270h-134v-270q0 -8 -50 -8t-50 8v729h237q109 0 163 -54t54 -151v-48q0 -147 -121 -190zM442 485v38q0 65 -30.5 96t-103.5 31h-121v-294h121q73 0 103.5 31.5t30.5 97.5zM422 945l-104 -138
q-6 -7 -36 -7q-31 0 -31 6q0 2 1 4l86 142q5 8 44 8q54 0 40 -15z" />
    <glyph glyph-name="racute" unicode="&#x155;" horiz-adv-x="368" 
d="M344 446h-42q-32 0 -61.5 -27.5t-69.5 -87.5v-327q0 -8 -49 -8q-47 0 -47 8v534q0 8 46 8t46 -8v-117q46 73 75.5 98.5t73.5 25.5h29q8 0 8 -50q0 -49 -9 -49zM343 745l-105 -138q-6 -7 -36 -7q-31 0 -31 6q0 2 1 4l86 142q5 8 44 8q46 0 43 -11q0 -2 -2 -4z" />
    <glyph glyph-name="Rcommaaccent" unicode="&#x156;" horiz-adv-x="610" 
d="M420 290l141 -286q1 -3 -3 -4.5t-14.5 -2.5t-18 -1h-21.5q-52 0 -56 8l-127 270h-134v-270q0 -8 -50 -8t-50 8v729h237q109 0 163 -54t54 -151v-48q0 -147 -121 -190zM442 485v38q0 65 -30.5 96t-103.5 31h-121v-294h121q73 0 103.5 31.5t30.5 97.5zM220 -285
q-21 20 -11 30q38 37 47.5 72.5t9.5 129.5q0 8 46 8q48 0 48 -8q0 -171 -113 -245q-11 -5 -27 13z" />
    <glyph glyph-name="rcommaaccent" unicode="&#x157;" horiz-adv-x="368" 
d="M344 446h-42q-32 0 -61.5 -27.5t-69.5 -87.5v-327q0 -8 -49 -8q-47 0 -47 8v534q0 8 46 8t46 -8v-117q46 73 75.5 98.5t73.5 25.5h29q8 0 8 -50q0 -49 -9 -49zM30 -285q-21 20 -11 30q38 37 47.5 72.5t9.5 129.5q0 8 46 8q48 0 48 -8q0 -171 -113 -245q-11 -5 -27 13z
" />
    <glyph glyph-name="Rcaron" unicode="&#x158;" horiz-adv-x="610" 
d="M420 290l141 -286q1 -3 -3 -4.5t-14.5 -2.5t-18 -1h-21.5q-52 0 -56 8l-127 270h-134v-270q0 -8 -50 -8t-50 8v729h237q109 0 163 -54t54 -151v-48q0 -147 -121 -190zM442 485v38q0 65 -30.5 96t-103.5 31h-121v-294h121q73 0 103.5 31.5t30.5 97.5zM211 963q29 0 35 -8
l53 -90l53 90q7 8 36 8h14t11.5 -1t9 -2.5t0.5 -4.5l-83 -128q-6 -9 -40 -9q-35 0 -41 9l-83 128q-3 5 6.5 6.5t28.5 1.5z" />
    <glyph glyph-name="rcaron" unicode="&#x159;" horiz-adv-x="368" 
d="M344 446h-42q-32 0 -61.5 -27.5t-69.5 -87.5v-327q0 -8 -49 -8q-47 0 -47 8v534q0 8 46 8t46 -8v-117q46 73 75.5 98.5t73.5 25.5h29q8 0 8 -50q0 -49 -9 -49zM131 763q30 0 36 -8l52 -90l54 90q5 8 36 8h13.5t11 -1t9 -2.5t0.5 -4.5l-82 -128q-7 -9 -41 -9t-41 9
l-82 128q-2 3 0 4.5t8.5 2.5t11.5 1h14z" />
    <glyph glyph-name="Sacute" unicode="&#x15a;" horiz-adv-x="556" 
d="M511 203q0 -97 -68.5 -157t-176.5 -60q-122 0 -232 73q-5 3 4 25t21.5 41t17.5 16q35 -25 88 -46.5t99 -21.5q66 0 105 32.5t39 90.5q0 14 -2.5 25.5t-9 22.5t-11.5 19t-17.5 17t-19.5 14.5t-24.5 14.5t-25 12.5t-29 13.5t-29.5 14q-44 21 -68.5 35.5t-55 40t-44.5 58.5
t-14 75q0 81 58.5 134t164.5 53q104 0 200 -50q3 -2 2 -11t-5.5 -21.5t-10 -24t-11 -19t-8.5 -5.5q-84 45 -168 45q-59 0 -91 -27t-32 -72q0 -24 10 -42.5t35.5 -35.5t39 -24t51.5 -24q9 -4 13 -6q102 -45 153.5 -94.5t51.5 -130.5zM420 945l-104 -138q-6 -7 -36 -7
q-31 0 -32 6q0 2 2 4l85 142q6 8 45 8q54 0 40 -15z" />
    <glyph glyph-name="sacute" unicode="&#x15b;" horiz-adv-x="455" 
d="M223 -14q-51 0 -102 16t-80 34q-5 3 2.5 22.5t18.5 37t16 14.5q76 -45 141 -45q48 0 73.5 23.5t25.5 57.5t-27 57.5t-66 39t-78 34t-66 52.5t-27 83q0 60 46 101.5t134 41.5q87 0 155 -32q7 -4 -5 -40.5t-20 -34.5q-71 28 -132 28q-41 0 -63.5 -18t-22.5 -44t27.5 -45.5
t66.5 -35t78 -35.5t66.5 -57.5t27.5 -90.5q0 -69 -51 -116.5t-138 -47.5zM366 745l-104 -138q-6 -7 -37 -7t-31 6q0 2 2 4l85 142q6 8 45 8q54 0 40 -15z" />
    <glyph glyph-name="Scedilla" unicode="&#x15e;" horiz-adv-x="556" 
d="M272 -203q-42 0 -92 29q-3 2 0.5 14.5t10 23t12.5 7.5q39 -24 69 -24q43 0 43 30v12q0 36 -79 30v68q-111 11 -202 72q-5 3 4 25t21.5 41t17.5 16q35 -25 88 -46.5t99 -21.5q66 0 105 32.5t39 90.5q0 14 -2.5 25.5t-9 22.5t-11.5 19t-17.5 17t-19.5 14.5t-24.5 14.5
t-25 12.5t-29 13.5t-29.5 14q-44 21 -68.5 35.5t-55 40t-44.5 58.5t-14 75q0 81 58.5 134t164.5 53q104 0 200 -50q3 -2 2 -11t-5.5 -21.5t-10 -24t-11 -19t-8.5 -5.5q-84 45 -168 45q-59 0 -91 -27t-32 -72q0 -24 10 -42.5t35.5 -35.5t39 -24t51.5 -24q9 -4 13 -6
q102 -45 153.5 -94.5t51.5 -130.5q0 -90 -59 -148t-154 -68v-27q41 -1 62 -20.5t21 -50.5v-20q0 -30 -28.5 -51t-80.5 -21z" />
    <glyph glyph-name="scedilla" unicode="&#x15f;" horiz-adv-x="455" 
d="M224 -203q-45 0 -91 29q-3 2 0.5 14.5t10 23t11.5 7.5q39 -24 69 -24q44 0 44 30v12q0 36 -80 30v69q-89 11 -147 48q-5 3 2.5 22.5t18.5 37t16 14.5q76 -45 141 -45q48 0 73.5 23.5t25.5 57.5t-27 57.5t-66 39t-78 34t-66 52.5t-27 83q0 60 46 101.5t134 41.5
q87 0 155 -32q7 -4 -5 -40.5t-20 -34.5q-71 28 -132 28q-41 0 -63.5 -18t-22.5 -44t27.5 -45.5t66.5 -35t78 -35.5t66.5 -57.5t27.5 -90.5q0 -64 -43 -109.5t-119 -52.5v-28q41 -1 62 -20.5t21 -50.5v-20q0 -31 -28 -51.5t-81 -20.5z" />
    <glyph glyph-name="Scaron" unicode="&#x160;" horiz-adv-x="553" 
d="M514 203q0 -97 -69 -157t-176 -60q-123 0 -232 73q-5 3 3.5 25t21.5 41t18 16q34 -24 87 -46t100 -22q66 0 104.5 32.5t38.5 90.5q0 14 -2.5 25.5t-9 22.5t-11.5 19t-17.5 17t-19.5 14.5t-24 14.5t-25 13t-29 13.5t-29 13.5q-43 21 -68.5 36t-55.5 40t-44 58t-14 75
q0 81 58 134t164 53q104 0 200 -50q3 -2 2 -11t-5.5 -21.5t-9.5 -24t-11 -19t-9 -5.5q-84 45 -168 45q-59 0 -91 -27t-32 -72q0 -24 10 -42.5t35.5 -35.5t39 -24t51.5 -24q9 -4 13 -6q102 -45 154 -94.5t52 -130.5zM186 963q30 0 36 -8l53 -90l53 90q5 8 36 8h13.5t11 -1
t9 -2.5t0.5 -4.5l-82 -128q-7 -9 -40 -9q-35 0 -42 9l-82 128q-2 3 0 4.5t8.5 2.5t11.5 1h14z" />
    <glyph glyph-name="scaron" unicode="&#x161;" horiz-adv-x="460" 
d="M225 -14q-51 0 -102 16t-80 34q-4 3 3.5 22.5t18.5 37t15 14.5q76 -45 141 -45q48 0 74 23.5t26 57.5t-27 57.5t-66 39t-78 34t-66 52.5t-27 83q0 61 45.5 102t134.5 41q88 0 154 -32q8 -4 -4.5 -40.5t-20.5 -34.5q-71 28 -131 28q-41 0 -64 -18t-23 -44t27.5 -45.5
t66.5 -35t78 -35.5t66.5 -57.5t27.5 -90.5q0 -69 -50.5 -116.5t-138.5 -47.5zM141 763q30 0 36 -8l53 -90l53 90q7 8 36 8h14t11.5 -1t8.5 -2.5t0 -4.5l-82 -128q-6 -9 -40 -9q-35 0 -41 9l-83 128q-2 3 0 4.5t8.5 2.5t11.5 1h14z" />
    <glyph glyph-name="Tcommaaccent" unicode="&#x162;" horiz-adv-x="533" 
d="M528 692q0 -42 -8 -42h-202v-646q0 -8 -50 -8t-50 8v646h-205q-8 0 -8 42q0 41 8 41h507q8 0 8 -41zM174 -284q-22 20 -11 29q37 37 46.5 72.5t9.5 129.5q0 9 47 9q48 0 48 -9q0 -172 -113 -244q-10 -6 -27 13z" />
    <glyph glyph-name="tcommaaccent" unicode="&#x163;" horiz-adv-x="366" 
d="M303 0h-68q-66 0 -98 33.5t-32 94.5v321h-74q-9 0 -9 39t9 39h74v129q0 8 48 8q45 0 45 -8v-129h112q8 0 8 -39t-8 -39h-112v-316q0 -28 12.5 -40t42.5 -12h50q10 0 13 -6.5t3 -33.5t-3 -34t-13 -7zM117 -288q-21 20 -11 30q38 37 47.5 72.5t9.5 129.5q0 8 46 8
q48 0 48 -8q0 -171 -113 -245q-11 -5 -27 13z" />
    <glyph glyph-name="Tcaron" unicode="&#x164;" horiz-adv-x="533" 
d="M528 692q0 -42 -8 -42h-202v-646q0 -8 -50 -8t-50 8v646h-205q-8 0 -8 42q0 41 8 41h507q8 0 8 -41zM179 963q29 0 35 -8l53 -90l53 90q7 8 36 8h14t11.5 -1t8.5 -2.5t0 -4.5l-82 -128q-6 -9 -40 -9q-35 0 -41 9l-83 128q-3 5 6.5 6.5t28.5 1.5z" />
    <glyph glyph-name="tcaron" unicode="&#x165;" horiz-adv-x="515" 
d="M303 0h-68q-66 0 -98 33.5t-32 94.5v321h-74q-9 0 -9 39t9 39h74v129q0 8 48 8q45 0 45 -8v-129h112q8 0 8 -39t-8 -39h-112v-316q0 -28 12.5 -40t42.5 -12h50q10 0 13 -6.5t3 -33.5t-3 -34t-13 -7zM363 510q-21 21 -11 29q38 37 47.5 73t9.5 130q0 8 46 8q48 0 48 -8
q0 -171 -113 -245q-11 -5 -27 13z" />
    <glyph glyph-name="Tbar" unicode="&#x166;" horiz-adv-x="533" 
d="M528 692q0 -42 -8 -42h-202v-99h197q8 0 8 -37q0 -38 -8 -38h-197v-472q0 -8 -50 -8t-50 8v472h-201q-9 0 -9 38q0 37 9 37h201v99h-205q-8 0 -8 42q0 41 8 41h507q8 0 8 -41z" />
    <glyph glyph-name="tbar" unicode="&#x167;" horiz-adv-x="366" 
d="M47 315q-8 0 -8 36t8 36h58v62h-74q-9 0 -9 39t9 39h74v129q0 8 48 8q45 0 45 -8v-129h112q8 0 8 -39t-8 -39h-112v-62h88q8 0 8 -36t-8 -36h-88v-182q0 -28 12.5 -40t42.5 -12h50q10 0 13 -6.5t3 -33.5t-3 -34t-13 -7h-68q-66 0 -98 33.5t-32 94.5v187h-58z" />
    <glyph glyph-name="Utilde" unicode="&#x168;" horiz-adv-x="667" 
d="M587 200q0 -99 -67.5 -156.5t-187.5 -57.5t-186 58.5t-66 163.5v521q0 8 50 8q48 0 48 -8v-530q0 -64 40 -97t112 -33q73 0 115 33.5t42 96.5v530q0 8 50 8t50 -8v-529zM485 895q-39 -68 -97 -68q-30 0 -64 22.5t-46 22.5q-28 0 -53 -37q-2 -3 -13.5 5t-21.5 19.5
t-8 14.5q14 27 40 47t56 20q28 0 63 -22.5t48 -22.5q27 0 54 40q2 3 13.5 -5.5t21 -20t7.5 -15.5z" />
    <glyph glyph-name="utilde" unicode="&#x169;" 
d="M72 538q0 8 48 8q49 0 49 -8v-363q0 -48 22.5 -74.5t62.5 -26.5q48 0 92.5 38t57.5 63v363q0 8 48 8t48 -8v-534q0 -8 -48 -8q-46 0 -46 8v75q-22 -32 -70.5 -63t-112.5 -31q-70 1 -110.5 47t-40.5 120v386zM440 695q-39 -68 -97 -68q-29 0 -64 22.5t-46 22.5
q-29 0 -52 -37q-3 -3 -14.5 5t-21.5 19.5t-8 14.5q14 27 40 47t56 20q29 0 63 -22.5t48 -22.5q27 0 54 40q2 3 13.5 -5.5t21 -20t7.5 -15.5z" />
    <glyph glyph-name="Umacron" unicode="&#x16a;" horiz-adv-x="667" 
d="M587 200q0 -99 -67.5 -156.5t-187.5 -57.5t-186 58.5t-66 163.5v521q0 8 50 8q48 0 48 -8v-530q0 -64 40 -97t112 -33q73 0 115 33.5t42 96.5v530q0 8 50 8t50 -8v-529zM213 854q-8 0 -8 38q0 37 8 37h239q8 0 8 -37q0 -38 -8 -38h-239z" />
    <glyph glyph-name="umacron" unicode="&#x16b;" 
d="M72 538q0 8 48 8q49 0 49 -8v-363q0 -48 22.5 -74.5t62.5 -26.5q48 0 92.5 38t57.5 63v363q0 8 48 8t48 -8v-534q0 -8 -48 -8q-46 0 -46 8v75q-22 -32 -70.5 -63t-112.5 -31q-70 1 -110.5 47t-40.5 120v386zM169 654q-8 0 -8 38q0 37 8 37h239q8 0 8 -37q0 -38 -8 -38
h-239z" />
    <glyph glyph-name="Uring" unicode="&#x16e;" horiz-adv-x="667" 
d="M587 200q0 -99 -67.5 -156.5t-187.5 -57.5t-186 58.5t-66 163.5v521q0 8 50 8q48 0 48 -8v-530q0 -64 40 -97t112 -33q73 0 115 33.5t42 96.5v530q0 8 50 8t50 -8v-529zM413 892q0 -34 -24.5 -58.5t-58.5 -24.5t-58.5 24.5t-24.5 58.5t24.5 58.5t58.5 24.5t58.5 -24.5
t24.5 -58.5zM373 892q0 18 -12.5 30.5t-30.5 12.5q-17 0 -29.5 -12.5t-12.5 -30.5q0 -17 12.5 -29.5t29.5 -12.5q18 0 30.5 12.5t12.5 29.5z" />
    <glyph glyph-name="uring" unicode="&#x16f;" 
d="M72 538q0 8 48 8q49 0 49 -8v-363q0 -48 22.5 -74.5t62.5 -26.5q48 0 92.5 38t57.5 63v363q0 8 48 8t48 -8v-534q0 -8 -48 -8q-46 0 -46 8v75q-22 -32 -70.5 -63t-112.5 -31q-70 1 -110.5 47t-40.5 120v386zM372 692q0 -34 -24.5 -58.5t-59.5 -24.5q-34 0 -58 24.5
t-24 58.5t24 58.5t58 24.5q35 0 59.5 -24.5t24.5 -58.5zM331 692q0 18 -12.5 30.5t-30.5 12.5q-17 0 -29.5 -12.5t-12.5 -30.5q0 -17 12.5 -29.5t29.5 -12.5q18 0 30.5 12.5t12.5 29.5z" />
    <glyph glyph-name="Uhungarumlaut" unicode="&#x170;" horiz-adv-x="667" 
d="M587 200q0 -99 -67.5 -156.5t-187.5 -57.5t-186 58.5t-66 163.5v521q0 8 50 8q48 0 48 -8v-530q0 -64 40 -97t112 -33q73 0 115 33.5t42 96.5v530q0 8 50 8t50 -8v-529zM541 945l-104 -138q-6 -7 -36 -7q-31 0 -31 7q0 2 1 4l86 141q4 8 44 8q42 0 43 -9q0 -2 -3 -6z
M382 945l-104 -138q-6 -7 -36 -7q-31 0 -32 6q0 2 2 5l85 141q5 8 45 8q42 0 43 -9q0 -2 -3 -6z" />
    <glyph glyph-name="uhungarumlaut" unicode="&#x171;" 
d="M72 538q0 8 48 8q49 0 49 -8v-363q0 -48 22.5 -74.5t62.5 -26.5q48 0 92.5 38t57.5 63v363q0 8 48 8t48 -8v-534q0 -8 -48 -8q-46 0 -46 8v75q-22 -32 -70.5 -63t-112.5 -31q-70 1 -110.5 47t-40.5 120v386zM489 746l-104 -138q-6 -7 -36 -7q-31 0 -32 6q0 2 2 5l85 141
q5 8 45 8q42 0 43 -9q0 -2 -3 -6zM330 746l-104 -138q-6 -7 -37 -7t-31 7q0 2 1 4l86 141q4 8 44 8q43 0 43 -10q0 -2 -2 -5z" />
    <glyph glyph-name="Uogonek" unicode="&#x172;" horiz-adv-x="667" 
d="M587 200q0 -73 -37.5 -124.5t-106.5 -73.5q-24 -16 -35 -23.5t-33.5 -25.5t-32.5 -35.5t-10 -35.5q0 -40 47 -40q30 0 51 21q4 3 13 -5.5t14 -20t0 -15.5q-11 -11 -37 -22.5t-58 -11.5q-37 0 -70 21t-33 68q0 26 15 49t26.5 32.5t37.5 27.5q-28 0 -48 4q-103 9 -156.5 66
t-53.5 152v29v492q0 8 50 8q48 0 48 -8v-530q0 -64 40 -97t112 -33q73 0 115 33.5t42 96.5v530q0 8 50 8t50 -8v-529z" />
    <glyph glyph-name="uogonek" unicode="&#x173;" 
d="M72 538q0 8 48 8q49 0 49 -8v-363q0 -48 22.5 -74.5t62.5 -26.5q48 0 92.5 38t57.5 63v363q0 8 48 8t48 -8v-534q0 -3 -18 -7q-41 -27 -61 -46q-42 -37 -42 -69q0 -40 47 -40q14 0 30 7.5t21 13.5q7 5 21 -14.5t7 -26.5q-37 -34 -96 -34q-37 0 -70 21t-33 68q0 24 12 45
t24 31.5t36 27.5t29 21q-1 0 -1 2v75q-22 -32 -70.5 -63t-112.5 -31q-70 1 -110.5 47t-40.5 120v386z" />
    <glyph glyph-name="Ydieresis" unicode="&#x178;" horiz-adv-x="577" 
d="M564 728l-227 -428v-295q0 -9 -49 -9q-50 0 -50 9v295l-226 429q-1 3 3 4.5t12.5 2t17.5 1t21 0.5q50 0 55 -8l168 -338l169 338q5 8 56 8q12 0 20.5 -0.5t16.5 -1t11.5 -2.5t1.5 -5zM198 821q-43 0 -43 11v99q0 10 43 10t43 -10v-99q0 -11 -43 -11zM383 821
q-44 0 -44 11v99q0 10 44 10q42 0 42 -10v-99q0 -11 -42 -11z" />
    <glyph glyph-name="Zacute" unicode="&#x179;" horiz-adv-x="558" 
d="M526 41q0 -41 -8 -41h-486v54l361 594h-345q-8 0 -8 44q0 41 8 41h467v-56l-356 -592h359q8 0 8 -44zM407 945l-104 -138q-6 -7 -36 -7q-31 0 -32 6q0 2 2 4l85 142q6 8 45 8q54 0 40 -15z" />
    <glyph glyph-name="zacute" unicode="&#x17a;" horiz-adv-x="461" 
d="M34 44l259 417h-243q-8 0 -8 40t8 40h371v-44l-259 -418h266q8 0 8 -39q0 -40 -8 -40h-394v44zM363 745l-104 -138q-6 -7 -36 -7q-31 0 -31 6q0 2 1 4l85 142q6 8 45 8q54 0 40 -15z" />
    <glyph glyph-name="Zdotaccent" unicode="&#x17b;" horiz-adv-x="558" 
d="M526 41q0 -41 -8 -41h-486v54l361 594h-345q-8 0 -8 44q0 41 8 41h467v-56l-356 -592h359q8 0 8 -44zM279 830q-60 0 -60 14v90q0 13 60 13t60 -14v-89q0 -14 -60 -14z" />
    <glyph glyph-name="zdotaccent" unicode="&#x17c;" horiz-adv-x="461" 
d="M34 44l259 417h-243q-8 0 -8 40t8 40h371v-44l-259 -418h266q8 0 8 -39q0 -40 -8 -40h-394v44zM230 630q-60 0 -60 14v90q0 13 61 13q60 0 60 -14v-89q0 -14 -61 -14z" />
    <glyph glyph-name="Zcaron" unicode="&#x17d;" horiz-adv-x="558" 
d="M526 41q0 -41 -8 -41h-486v54l361 594h-345q-8 0 -8 44q0 41 8 41h467v-56l-356 -592h359q8 0 8 -44zM192 963q30 0 36 -8l53 -90l53 90q7 8 36 8h14t11.5 -1t8.5 -2.5t0 -4.5l-82 -128q-6 -9 -40 -9q-35 0 -41 9l-83 128q-2 3 0 4.5t8.5 2.5t11.5 1h14z" />
    <glyph glyph-name="zcaron" unicode="&#x17e;" horiz-adv-x="471" 
d="M36 44l260 417h-243q-8 0 -8 40t8 40h371v-44l-259 -418h266q8 0 8 -39q0 -40 -8 -40h-395v44zM147 763q30 0 36 -8l52 -90l54 90q5 8 35 8h14t11.5 -1t9 -2.5t0.5 -4.5l-82 -128q-7 -9 -41 -9t-41 9l-83 128q-3 5 6.5 6.5t28.5 1.5z" />
    <glyph glyph-name="florin" unicode="&#x192;" horiz-adv-x="342" 
d="M204 -2q0 -66 -34 -101t-96 -35h-74q-8 0 -8 40q0 18 1 26.5t2.5 10.5t4.5 2h54q55 0 53 54v460h-69q-8 0 -8 40q0 38 8 38h69v74q0 66 34 102t97 36h74q8 0 8 -40q0 -39 -8 -39h-55q-54 0 -54 -64v-69h93q9 0 9 -38q0 -40 -9 -40h-92v-457z" />
    <glyph glyph-name="Scommaaccent" unicode="&#x218;" horiz-adv-x="556" 
d="M511 203q0 -97 -68.5 -157t-176.5 -60q-122 0 -232 73q-5 3 4 25t21.5 41t17.5 16q35 -25 88 -46.5t99 -21.5q66 0 105 32.5t39 90.5q0 14 -2.5 25.5t-9 22.5t-11.5 19t-17.5 17t-19.5 14.5t-24.5 14.5t-25 12.5t-29 13.5t-29.5 14q-44 21 -68.5 35.5t-55 40t-44.5 58.5
t-14 75q0 81 58.5 134t164.5 53q104 0 200 -50q3 -2 2 -11t-5.5 -21.5t-10 -24t-11 -19t-8.5 -5.5q-84 45 -168 45q-59 0 -91 -27t-32 -72q0 -24 10 -42.5t35.5 -35.5t39 -24t51.5 -24q9 -4 13 -6q102 -45 153.5 -94.5t51.5 -130.5zM170 -285q-20 21 -11 30q38 37 47.5 72.5
t9.5 129.5q0 8 46 8q48 0 48 -8q0 -171 -113 -245q-11 -5 -27 13z" />
    <glyph glyph-name="scommaaccent" unicode="&#x219;" horiz-adv-x="455" 
d="M223 -14q-51 0 -102 16t-80 34q-5 3 2.5 22.5t18.5 37t16 14.5q76 -45 141 -45q48 0 73.5 23.5t25.5 57.5t-27 57.5t-66 39t-78 34t-66 52.5t-27 83q0 60 46 101.5t134 41.5q87 0 155 -32q7 -4 -5 -40.5t-20 -34.5q-71 28 -132 28q-41 0 -63.5 -18t-22.5 -44t27.5 -45.5
t66.5 -35t78 -35.5t66.5 -57.5t27.5 -90.5q0 -69 -51 -116.5t-138 -47.5zM135 -287q-21 20 -11 30q38 37 47.5 72.5t9.5 129.5q0 8 46 8q48 0 48 -8q0 -172 -113 -244q-10 -6 -27 12z" />
    <glyph glyph-name="uni021A" unicode="&#x21a;" horiz-adv-x="533" 
d="M528 692q0 -42 -8 -42h-202v-646q0 -8 -50 -8t-50 8v646h-205q-8 0 -8 42q0 41 8 41h507q8 0 8 -41zM174 -284q-22 20 -11 29q37 37 46.5 72.5t9.5 129.5q0 9 47 9q48 0 48 -9q0 -172 -113 -244q-10 -6 -27 13z" />
    <glyph glyph-name="uni021B" unicode="&#x21b;" horiz-adv-x="366" 
d="M303 0h-68q-66 0 -98 33.5t-32 94.5v321h-74q-9 0 -9 39t9 39h74v129q0 8 48 8q45 0 45 -8v-129h112q8 0 8 -39t-8 -39h-112v-316q0 -28 12.5 -40t42.5 -12h50q10 0 13 -6.5t3 -33.5t-3 -34t-13 -7zM117 -288q-21 20 -11 30q38 37 47.5 72.5t9.5 129.5q0 8 46 8
q48 0 48 -8q0 -171 -113 -245q-11 -5 -27 13z" />
    <glyph glyph-name="circumflex" unicode="&#x2c6;" horiz-adv-x="487" 
d="M375 615q-29 0 -35 8l-52 91l-52 -90q-6 -8 -36 -8h-14t-11.5 1t-8.5 2.5t0 4.5l81 127q6 10 40 10q35 0 41 -10l82 -128q3 -5 -6.5 -6.5t-28.5 -1.5z" />
    <glyph glyph-name="caron" unicode="&#x2c7;" horiz-adv-x="487" 
d="M199 763q30 0 36 -8l52 -90l54 90q5 8 35 8h14t11.5 -1t9 -2.5t0.5 -4.5l-82 -128q-7 -9 -41 -9t-41 9l-82 128q-2 3 0 4.5t8.5 2.5t11.5 1h14z" />
    <glyph glyph-name="breve" unicode="&#x2d8;" horiz-adv-x="487" 
d="M410 754q-5 -50 -38.5 -85t-84.5 -35q-50 0 -83 35t-38 85q-1 6 35 6q23 0 23 -5q3 -29 21 -48t43 -19t44 19t21 48q0 6 29 6q28 0 28 -7z" />
    <glyph glyph-name="dotaccent" unicode="&#x2d9;" horiz-adv-x="487" 
d="M254 630q-60 0 -60 14v90q0 13 61 13q60 0 60 -14v-89q0 -14 -61 -14z" />
    <glyph glyph-name="ring" unicode="&#x2da;" horiz-adv-x="573" 
d="M370 692q0 -34 -24.5 -58.5t-59.5 -24.5q-34 0 -58.5 24.5t-24.5 58.5t24.5 58.5t58.5 24.5q35 0 59.5 -24.5t24.5 -58.5zM329 692q0 18 -12.5 30.5t-30.5 12.5q-17 0 -29.5 -12.5t-12.5 -30.5q0 -17 12.5 -29.5t29.5 -12.5q18 0 30.5 12.5t12.5 29.5z" />
    <glyph glyph-name="ogonek" unicode="&#x2db;" horiz-adv-x="487" 
d="M336 16q-3 -3 -19 -14t-32.5 -23t-26.5 -20q-42 -37 -42 -69q0 -41 47 -41q14 0 30 7.5t22 13.5q4 3 13 -5.5t14 -19.5t0 -15q-35 -35 -96 -35q-37 0 -70 21.5t-33 68.5q0 25 13.5 47t26 33t39.5 29l33 22h81z" />
    <glyph glyph-name="tilde" unicode="&#x2dc;" horiz-adv-x="487" 
d="M400 695q-39 -68 -97 -68q-30 0 -64 22.5t-45 22.5q-30 0 -53 -37q-3 -3 -14.5 5t-21.5 19.5t-8 14.5q14 27 40 47t56 20q29 0 63 -22.5t48 -22.5q27 0 54 40q2 3 13.5 -5.5t21 -20t7.5 -15.5z" />
    <glyph glyph-name="hungarumlaut" unicode="&#x2dd;" horiz-adv-x="583" 
d="M514 745l-104 -138q-6 -7 -37 -7t-31 7q0 2 2 4l85 141q4 8 44 8q43 0 43 -9q1 -3 -2 -6zM354 745l-104 -138q-6 -7 -36 -7q-31 0 -31 7q0 2 1 4l86 141q4 8 44 8q42 0 43 -9q0 -2 -3 -6z" />
    <glyph glyph-name="pi" unicode="&#x3c0;" horiz-adv-x="773" 
d="M504 459v-335q0 -43 41 -43h66q8 0 8 -40q0 -41 -8 -41h-103q-56 0 -78 28t-22 82v349h-138v-455q0 -8 -49 -8t-49 8v455h-96q-8 0 -8 41t8 41h532q8 0 8 -41t-8 -41h-104z" />
    <glyph glyph-name="endash" unicode="&#x2013;" horiz-adv-x="574" 
d="M84 259q-8 0 -8 38q0 37 8 37h405q8 0 8 -37q0 -38 -8 -38h-405z" />
    <glyph glyph-name="emdash" unicode="&#x2014;" horiz-adv-x="1074" 
d="M84 259q-8 0 -8 38q0 37 8 37h905q8 0 8 -37q0 -38 -8 -38h-905z" />
    <glyph glyph-name="afii00208" unicode="&#x2015;" horiz-adv-x="1074" 
d="M84 259q-8 0 -8 38q0 37 8 37h905q8 0 8 -37q0 -38 -8 -38h-905z" />
    <glyph glyph-name="quoteleft" unicode="&#x2018;" horiz-adv-x="270" 
d="M210 739q22 -20 11 -29q-38 -37 -47.5 -72.5t-9.5 -130.5q0 -8 -46 -8q-48 0 -48 8q0 173 113 245q11 5 27 -13z" />
    <glyph glyph-name="quoteright" unicode="&#x2019;" horiz-adv-x="270" 
d="M67 504q-21 21 -11 29q38 37 47.5 72.5t9.5 130.5q0 8 46 8q48 0 48 -8q0 -172 -112 -245q-10 -5 -28 13z" />
    <glyph glyph-name="quotesinglbase" unicode="&#x201a;" horiz-adv-x="255" 
d="M41 -125q-22 20 -12 30q38 37 47.5 72.5t9.5 129.5q0 8 46 8q48 0 48 -8q0 -172 -112 -245q-11 -5 -27 13z" />
    <glyph glyph-name="quotedblleft" unicode="&#x201c;" horiz-adv-x="454" 
d="M394 742q22 -20 11 -29q-37 -37 -46.5 -72.5t-9.5 -129.5q0 -9 -47 -9q-48 0 -48 9q0 172 113 244q10 6 27 -13zM210 742q22 -20 11 -29q-38 -37 -47.5 -72.5t-9.5 -129.5q0 -9 -46 -9q-48 0 -48 9q0 172 113 244q10 6 27 -13z" />
    <glyph glyph-name="quotedblright" unicode="&#x201d;" horiz-adv-x="453" 
d="M67 498q-21 21 -11 29q38 37 47.5 72.5t9.5 129.5q0 9 46 9q48 0 48 -9q0 -174 -112 -246q-8 -5 -28 15zM252 498q-23 21 -11 29q37 37 46.5 72.5t9.5 129.5q0 9 46 9q48 0 48 -9q0 -174 -112 -246q-9 -5 -27 15z" />
    <glyph glyph-name="quotedblbase" unicode="&#x201e;" horiz-adv-x="456" 
d="M67 -125q-20 20 -11 29q38 37 47.5 72.5t9.5 129.5q0 8 46 8q48 0 48 -8q0 -172 -112 -244q-10 -6 -28 13zM252 -125q-22 20 -11 29q37 37 46.5 72.5t9.5 129.5q0 8 46 8q48 0 48 -8q0 -172 -112 -244q-11 -6 -27 13z" />
    <glyph glyph-name="dagger" unicode="&#x2020;" horiz-adv-x="540" 
d="M449 494l-143 11l-8 -314q0 -8 -30 -8q-29 0 -29 8l-8 315l-144 -12q-3 0 -4.5 3.5t-2.5 11t-1 13v14.5v14t1 12.5t3 11t5 3.5l142 -13l-4 163q0 10 43 10q42 0 42 -10l-4 -163l142 13q8 0 8 -41q-1 -42 -8 -42z" />
    <glyph glyph-name="daggerdbl" unicode="&#x2021;" horiz-adv-x="540" 
d="M449 341l-145 13l-4 -168q0 -8 -28 -8t-28 8l-4 168l-147 -13q-8 0 -8 42v14t1 12.5t2.5 11t4.5 3.5l146 -12l-3 94l-142 -12q-8 -1 -8 38v4v13t1 13t2.5 11.5t4.5 3.5l141 -13l-6 164q0 9 43 9t43 -9l-6 -164l140 13q3 0 4.5 -3.5t2.5 -11.5t1 -13v-13v-14t-1 -13
t-2.5 -11.5t-4.5 -3.5l-141 12l-3 -94l144 12q3 0 4.5 -3.5t2.5 -11t1 -12.5v-14q0 -42 -8 -42z" />
    <glyph glyph-name="bullet" unicode="&#x2022;" horiz-adv-x="460" 
d="M92 319q0 57 40.5 97.5t97.5 40.5q58 0 98 -40.5t40 -97.5q0 -58 -40 -98t-98 -40q-57 0 -97.5 40t-40.5 98z" />
    <glyph glyph-name="ellipsis" unicode="&#x2026;" horiz-adv-x="701" 
d="M121 -4q-44 0 -44 8v125q0 8 44 8t44 -8v-125q0 -8 -44 -8zM351 -4q-44 0 -44 8v125q0 8 44 8t44 -8v-125q0 -8 -44 -8zM581 -4q-44 0 -44 8v125q0 8 44 8t44 -8v-125q0 -8 -44 -8z" />
    <glyph glyph-name="perthousand" unicode="&#x2030;" horiz-adv-x="1125" 
d="M192 378q-136 0 -136 106v157q0 55 37 81.5t100 26.5q62 0 99.5 -26.5t37.5 -81.5v-157q0 -106 -138 -106zM588 -16q-135 0 -135 107v157q0 107 136 107q137 0 137 -107v-157q0 -107 -138 -107zM935 -16q-136 0 -136 107v157q0 107 137 107t137 -107v-157
q0 -107 -138 -107zM622 729l-384 -725q-4 -7 -48 -7q-47 1 -47 7l384 725q4 8 48 8h16t15 -1t13 -2.5t3 -4.5zM252 641q0 26 -15 35t-45 9q-29 0 -43.5 -9t-14.5 -35v-157q0 -25 14.5 -33.5t43.5 -8.5q30 0 45 8t15 34v157zM994 248q0 25 -15 34.5t-44 9.5q-58 0 -58 -44
v-157q0 -26 14.5 -34.5t43.5 -8.5t44 8.5t15 34.5v157zM647 248q0 25 -15 34.5t-44 9.5q-58 0 -58 -44v-157q0 -26 14.5 -34.5t43.5 -8.5t44 8.5t15 34.5v157z" />
    <glyph glyph-name="guilsinglleft" unicode="&#x2039;" horiz-adv-x="362" 
d="M45 318l158 229q4 6 23 -3.5t35 -22.5t13 -18l-130 -185l130 -185q3 -5 -13 -18t-35 -22t-23 -3z" />
    <glyph glyph-name="guilsinglright" unicode="&#x203a;" horiz-adv-x="362" 
d="M149 547l158 -229l-158 -228q-4 -6 -23 3t-35 22t-13 18l130 185l-130 185q-3 5 13 18t35.5 22.5t22.5 3.5z" />
    <glyph glyph-name="fraction" unicode="&#x2044;" horiz-adv-x="423" 
d="M434 729l-325 -725q-3 -8 -48 -8h-17t-15 1t-12.5 2.5t-2.5 4.5l324 725q4 8 48 8h17t15 -1t13 -2.5t3 -4.5z" />
    <glyph glyph-name="Euro" unicode="&#x20ac;" horiz-adv-x="656" 
d="M587 704q3 -2 2 -11t-5.5 -21.5t-9.5 -24t-11 -19t-9 -6.5q-91 41 -159 41q-82 0 -124 -30.5t-42 -105.5v-53h212q8 0 8 -37q0 -39 -8 -39h-212v-73l212 1q8 0 8 -38q0 -37 -8 -37l-212 -1v-49q0 -73 42 -102.5t123 -29.5q77 0 166 33q3 1 7.5 -6t8.5 -18.5t7 -24
t3.5 -21.5t-2.5 -11q-30 -13 -87.5 -24t-105.5 -11q-262 0 -262 219v45h-68q-8 0 -8 37q0 38 8 38h68v73h-68q-8 0 -8 38t8 38h68v54q0 114 70.5 166.5t191.5 52.5q105 0 196 -43z" />
    <glyph glyph-name="trademark" unicode="&#x2122;" horiz-adv-x="637" 
d="M407 444q-18 0 -20 7l-61 193q0 -2 0.5 -11.5t0.5 -14.5v-168q0 -6 -25 -6q-24 0 -24 6v279q0 5 31 5q32 0 33 -5l65 -220l65 220q2 5 33 5q33 0 33 -5v-279q0 -6 -25 -6q-26 0 -26 6v182v11l-59 -192q-2 -7 -21 -7zM150 692v-242q0 -6 -25 -6t-25 6v242h-76q-5 0 -5 20
q0 21 5 21h204q5 0 5 -21q0 -20 -5 -20h-78z" />
    <glyph glyph-name="Omega" unicode="&#x2126;" horiz-adv-x="741" 
d="M446 0v79q36 21 67 53t31 64v337q0 36 -15.5 61t-42 37.5t-54 18t-58.5 5.5q-44 0 -78.5 -8.5t-62.5 -37.5t-28 -76v-337q0 -33 32 -65t69 -52v-79h-227q-3 10 -3 41q0 32 3 42h91q-1 2 -13.5 12t-24 21.5t-21.5 32.5t-10 44v345q0 106 75.5 156.5t197.5 50.5
t198.5 -50.5t76.5 -156.5v-345q0 -23 -10 -44t-21.5 -32.5t-23.5 -21.5t-13 -12h90q3 -10 3 -42q0 -31 -3 -41h-225z" />
    <glyph glyph-name="partialdiff" unicode="&#x2202;" horiz-adv-x="664" 
d="M530 212q0 -102 -64.5 -163.5t-169.5 -61.5q-116 0 -177 58t-61 154v122q0 97 64 154t171 57q28 0 51 -7t38 -16t16 -9q0 1 -7 15.5t-19.5 36t-28.5 41.5q-15 17 -35 35.5t-42.5 38t-32.5 28.5q-8 7 24.5 44t41.5 30q63 -48 109 -103q49 -55 86 -140t36 -188v-126z
M434 211v100q0 66 -41 104t-100 38q-57 0 -96.5 -34.5t-39.5 -101.5v-112q0 -68 40.5 -101.5t94.5 -33.5q60 0 101 35t41 106z" />
    <glyph glyph-name="Delta" unicode="&#x2206;" horiz-adv-x="741" 
d="M53 0l301 728q3 9 48 9q46 0 49 -9l304 -728h-702zM394 612l-217 -532h435z" />
    <glyph glyph-name="product" unicode="&#x220f;" horiz-adv-x="741" 
d="M742 356q0 -148 -104.5 -252.5t-252.5 -104.5t-253 104.5t-105 252.5t105 253t253 105t252.5 -105t104.5 -253zM680 357q0 122 -86.5 208t-208.5 86q-121 0 -207 -86t-86 -208t86 -208t207 -86q122 0 208.5 86t86.5 208zM420 294h-72v-124q0 -6 -34 -6q-33 0 -33 6v368
h130q126 0 126 -108v-29q0 -8 -1 -16.5t-7 -26t-17.5 -30.5t-35 -23.5t-56.5 -10.5zM472 430q0 29 -15 38t-49 9h-61v-122h74q26 0 38.5 10.5t12.5 35.5v29z" />
    <glyph glyph-name="summation" unicode="&#x2211;" horiz-adv-x="741" 
d="M559 0h-501v56l267 323l-257 298v56h477q8 0 8 -41q0 -42 -8 -42h-328l232 -271l-242 -296h352q8 0 8 -41q0 -42 -8 -42z" />
    <glyph glyph-name="minus" unicode="&#x2212;" horiz-adv-x="741" 
d="M88 265q-8 0 -8 40q0 39 8 39h351q8 0 8 -39q0 -40 -8 -40h-351z" />
    <glyph glyph-name="radical" unicode="&#x221a;" horiz-adv-x="531" 
d="M499 729l-210 -724q-3 -9 -54 -9q-50 0 -53 9l-134 377q-1 2 3.5 4t12.5 3t16 1.5t17 0.5q48 0 52 -9l87 -264l168 611q3 8 47 8h17t15 -1t13 -2.5t3 -4.5z" />
    <glyph glyph-name="infinity" unicode="&#x221e;" horiz-adv-x="894" 
d="M559 108q-73 0 -182 101q-106 -101 -183 -101q-65 0 -102.5 42.5t-37.5 105.5q0 66 41 110t103 44q78 0 184 -101q108 101 182 101q64 0 102.5 -44.5t38.5 -109.5t-40 -106.5t-106 -41.5zM560 336q-38 0 -124 -80q77 -73 127 -73q31 0 49.5 20t18.5 53q0 35 -19.5 57.5
t-51.5 22.5zM196 336q-29 0 -48 -23.5t-19 -56.5q0 -35 18.5 -54t51.5 -19q47 0 125 73q-83 80 -128 80z" />
    <glyph glyph-name="integral" unicode="&#x222b;" horiz-adv-x="356" 
d="M125 3v612q0 59 32.5 88.5t81.5 29.5h74q8 0 8 -41q0 -40 -8 -40h-46q-47 0 -47 -45l1 -577q0 -68 -23.5 -104.5t-84.5 -36.5h-81q-8 0 -8 41t8 41h61q32 0 32 32z" />
    <glyph glyph-name="approxequal" unicode="&#x2248;" horiz-adv-x="559" 
d="M454 344q-15 -27 -49 -52.5t-70 -25.5q-39 0 -81.5 28.5t-57.5 28.5q-36 0 -72 -48q-3 -4 -15.5 5t-22 21.5t-6.5 16.5q12 23 45.5 48t70.5 25q36 0 80 -28t61 -28q8 0 15 2t13.5 6t12 8t10.5 9.5t8 9t6.5 8.5t4.5 6q3 5 16 -3t23.5 -19.5t7.5 -17.5zM456 182
q-15 -26 -50 -52t-71 -26q-39 0 -81.5 28.5t-57.5 28.5q-33 0 -70 -47q-3 -4 -15.5 4.5t-22 21t-6.5 17.5q14 24 46 48.5t68 24.5t80 -28.5t61 -28.5q36 0 72 50q6 7 28.5 -12.5t18.5 -28.5z" />
    <glyph glyph-name="notequal" unicode="&#x2260;" horiz-adv-x="540" 
d="M472 173q0 -37 -8 -37h-235l-77 -94q-4 -4 -19.5 7t-28.5 24.5t-9 17.5l34 45h-48q-8 0 -8 37q0 39 8 39h116l56 69h-172q-8 0 -8 38v13q0 25 8 25h238l80 96q3 5 19 -5.5t28.5 -24.5t8.5 -19l-37 -47h46q8 0 8 -38v-12q0 -26 -8 -26h-112l-56 -69h168q8 0 8 -39z" />
    <glyph glyph-name="lessequal" unicode="&#x2264;" horiz-adv-x="549" 
d="M87 327l363 127q3 1 4.5 -3t2.5 -12.5t1 -14v-14.5q0 -43 -8 -45l-250 -85l250 -79q8 -3 8 -44v-15t-1 -14t-2.5 -12t-4.5 -3l-363 126q-9 3 -9 44t9 44zM85 81h368q8 0 8 -40q0 -41 -8 -41h-368q-8 0 -8 40q0 41 8 41z" />
    <glyph glyph-name="greaterequal" unicode="&#x2265;" horiz-adv-x="538" 
d="M89 452l363 -124q8 -3 8 -44q0 -42 -8 -45l-364 -126q-3 -1 -4.5 3t-2.5 12t-1 14v15q0 41 8 44l250 81l-250 81q-8 3 -8 45q0 7 0.5 15t1.5 15t3 11t4 3zM85 81h368q8 0 8 -41q0 -40 -8 -40h-368q-8 0 -8 40q0 41 8 41z" />
    <glyph glyph-name="lozenge" unicode="&#x25ca;" horiz-adv-x="741" 
d="M694 369l-288 -364q-7 -9 -30 -9q-24 0 -31 9l-292 367l290 357q7 8 30 8q25 0 31 -8zM371 621l-199 -248l205 -262l200 255z" />
    <glyph glyph-name="fi" unicode="&#xfb01;" horiz-adv-x="570" 
d="M305 489q0 -40 -9 -40h-92v-444q0 -9 -48 -9q-49 0 -49 9v444h-69q-8 0 -8 40q0 38 8 38h69v80q0 66 34 102t97 36h74q8 0 8 -40q0 -39 -8 -39h-55q-54 0 -54 -64v-75h93q9 0 9 -38zM459 -4q-48 0 -48 8v533q0 8 48 8t48 -8v-533q0 -8 -48 -8zM459 620q-48 0 -48 8v113
q0 8 48 8t48 -8v-113q0 -8 -48 -8z" />
    <glyph glyph-name="fl" unicode="&#xfb02;" horiz-adv-x="607" 
d="M305 489q0 -40 -9 -40h-92v-444q0 -9 -48 -9q-49 0 -49 9v444h-69q-8 0 -8 40q0 38 8 38h69v80q0 66 34 102t97 36h74q8 0 8 -40q0 -39 -8 -39h-55q-54 0 -54 -64v-75h93q9 0 9 -38zM580 0h-46q-65 0 -98 34t-33 94v613q0 8 49 8q48 0 48 -8v-605q0 -52 57 -52h23
q10 0 13 -7.5t3 -33.5q0 -28 -3 -35.5t-13 -7.5z" />
    <glyph glyph-name="CR" horiz-adv-x="215" 
 />
    <glyph glyph-name="dummy1" horiz-adv-x="0" 
 />
    <glyph glyph-name="dummy2" horiz-adv-x="0" 
 />
    </font>
</defs>
</svg>
