
<?xml version="1.0" standalone="no"?>
<!DOCTYPE svg PUBLIC "-//W3C//DTD SVG 1.1//EN" "http://www.w3.org/Graphics/SVG/1.1/DTD/svg11.dtd" >
<svg xmlns="http://www.w3.org/2000/svg" xmlns:xlink="http://www.w3.org/1999/xlink" version="1.1">
<metadata>
Created by FontForge 20170731 at Wed Nov 23 06:47:07 2005
 By ,,,
Copyright (c) 2005 by Telenor ASA. All rights reserved.
</metadata>
<defs>
<font id="Telenor-LightItalic" horiz-adv-x="552" >
  <font-face 
    font-family="Telenor"
    font-weight="300"
    font-style="italic"
    font-stretch="normal"
    units-per-em="1000"
    panose-1="2 0 0 0 0 0 0 0 0 0"
    ascent="800"
    descent="-200"
    x-height="539"
    cap-height="737"
    bbox="-45.8551 -274.118 1048.08 968"
    underline-thickness="50"
    underline-position="-150"
    unicode-range="U+0020-FB02"
  />
<missing-glyph horiz-adv-x="1000" 
 />
    <glyph glyph-name=".notdef" horiz-adv-x="1000" 
 />
    <glyph glyph-name=".null" horiz-adv-x="0" 
 />
    <glyph glyph-name="nonmarkingreturn" horiz-adv-x="333" 
 />
    <glyph glyph-name="space" unicode=" " horiz-adv-x="215" 
 />
    <glyph glyph-name="exclam" unicode="!" horiz-adv-x="253" 
d="M275 728l-88 -502q-1 -7 -26 -7q-5 0 -8.5 0.5t-7.5 1t-5.5 2t-1.5 3.5l72 502q1 9 34 9q7 0 13.5 -0.5t12 -3t5.5 -5.5zM125 -4q-28 0 -27 6l15 95q1 6 29 6t27 -6l-15 -95q-1 -6 -29 -6z" />
    <glyph glyph-name="quotedbl" unicode="&#x22;" horiz-adv-x="343" 
d="M383 731l-51 -248q-1 -6 -21 -6q-19 0 -18 6l27 248q1 6 33 6q31 0 30 -6zM253 731l-51 -248q-1 -6 -21 -6q-19 0 -18 6l27 248q1 6 32 6q32 0 31 -6z" />
    <glyph glyph-name="numbersign" unicode="#" horiz-adv-x="612" 
d="M633 482q-5 -19 -11 -19h-103l-38 -180h102q9 0 4 -21q-6 -19 -11 -19h-104l-50 -241q-1 -6 -24 -6h-8t-7.5 0.5t-6.5 2t-2 3.5l50 241h-177l-50 -241q-1 -6 -26 -6h-8t-7 0.5t-5.5 2t-1.5 3.5l50 241h-113q-6 0 -2 22q4 18 8 18h116l38 180h-114q-6 0 -2 22q4 19 9 19
h116l47 227q1 6 24 6h8t7.5 -0.5t6.5 -2t2 -3.5l-46 -227h176l49 227q1 6 23 6h8.5t8 -0.5t6.5 -2t2 -3.5l-49 -227h102q8 0 3 -22zM471 463h-177l-38 -180h177z" />
    <glyph glyph-name="dollar" unicode="$" horiz-adv-x="637" 
d="M276 -71l15 90q-100 7 -178 69q-4 3 3.5 16.5t17.5 24.5t13 9q31 -26 78.5 -46t95.5 -20q77 0 130.5 40.5t64.5 110.5q8 50 -24.5 80.5t-82.5 46.5t-100 35t-80.5 59t-20.5 104q10 62 61 106.5t130 55.5l15 92q0 6 29 6q28 0 28 -6l-15 -89q84 -2 157 -45
q4 -2 -1.5 -15.5t-14.5 -24.5t-13 -8q-63 42 -147 42q-68 0 -115.5 -33t-56.5 -91q-6 -36 10.5 -61t46.5 -39t67 -25.5t73 -26t65 -35t42.5 -57.5t4.5 -88q-13 -72 -77 -123.5t-149 -61.5l-15 -92q-1 -6 -29 -6q-29 0 -28 6z" />
    <glyph glyph-name="percent" unicode="%" horiz-adv-x="744" 
d="M235 380q-57 0 -84.5 30t-18.5 87l22 138q17 102 137 102q58 0 86 -29.5t19 -89.5l-22 -138q-16 -100 -139 -100zM706 731l-493 -725q-3 -6 -31 -6h-10t-10.5 0.5t-9 2t-1.5 3.5l493 725q4 6 32 6h10t10 -0.5t8.5 -2t1.5 -3.5zM562 -16q-57 0 -84 29.5t-17 87.5l23 151
q17 102 138 102q55 0 83 -31t20 -82l-24 -155q-15 -102 -139 -102zM344 635q5 33 -11.5 45.5t-48.5 12.5q-67 0 -77 -58l-24 -155q-5 -33 11 -44.5t48 -11.5q69 0 78 56zM673 252q6 33 -11 45.5t-48 12.5q-68 0 -78 -58l-26 -166q-5 -33 11.5 -45t47.5 -12q70 0 78 57z" />
    <glyph glyph-name="ampersand" unicode="&#x26;" horiz-adv-x="650" 
d="M647 287l-112 -150l79 -116q2 -5 -9 -15t-22.5 -14.5t-16.5 0.5l-69 101q-13 -14 -30 -29t-45.5 -33.5t-66.5 -30.5t-78 -12q-100 0 -150 54t-37 139l7 40q8 53 53.5 96t133.5 95q-41 55 -59 92.5t-12 78.5l3 20q22 143 175 143q43 0 72 -15.5t39 -37.5t15 -46t0 -41
l-5 -34q-8 -49 -42.5 -85.5t-113.5 -86.5l150 -223l82 110q5 6 30 6h9.5t9.5 -0.5t8.5 -2t1.5 -3.5zM384 701q-50 0 -78 -21.5t-36 -71.5l-4 -22q-5 -24 7 -54t23.5 -46.5t34.5 -45.5q59 34 89.5 66.5t37.5 73.5l4 22q7 43 -11.5 71t-66.5 28zM471 137l-158 238l-65 -38
q-87 -58 -99 -129l-4 -29q-7 -42 3 -72t33 -44.5t48 -21t55 -6.5q99 0 187 102z" />
    <glyph glyph-name="quotesingle" unicode="'" horiz-adv-x="163" 
d="M228 731l-51 -248q-1 -6 -21 -6q-4 0 -8 0.5t-7 2t-3 3.5l27 248q1 6 32 6q32 0 31 -6z" />
    <glyph glyph-name="parenleft" unicode="(" horiz-adv-x="356" 
d="M347 774q0 -1 -0.5 -3.5t-0.5 -3.5q5 6 23.5 -8t13.5 -20q-58 -62 -114.5 -170t-77.5 -237q-19 -119 4 -231.5t59 -173.5q2 -4 -8.5 -10.5t-22 -10.5t-13.5 0q-38 48 -66 168.5t-5 265.5t89 265t119 169z" />
    <glyph glyph-name="parenright" unicode=")" horiz-adv-x="356" 
d="M248 767q38 -48 65.5 -171.5t4.5 -268.5t-88.5 -265t-118.5 -169q-7 -5 -24.5 11.5t-12.5 22.5q55 61 113.5 173.5t77.5 231.5q21 128 -2 235t-60 172q-3 6 19 19.5t26 8.5z" />
    <glyph glyph-name="asterisk" unicode="*" horiz-adv-x="401" 
d="M185 657l100 -44l9 118q1 6 26 6h8t7.5 -0.5t6.5 -2t2 -3.5l-27 -116l115 44q2 1 5 -4q9 -19 5 -37q-1 -5 -3 -5l-117 -27l61 -91q2 -3 -8 -11.5t-21.5 -14.5t-13.5 -2l-45 99l-78 -99q-3 -4 -13.5 2t-18 15.5t-4.5 11.5l89 89l-108 28q-4 3 -0.5 13.5t11.5 21t12 9.5z
" />
    <glyph glyph-name="plus" unicode="+" horiz-adv-x="637" 
d="M600 226h-229v-224q0 -6 -26 -6q-25 0 -25 6v224h-222q-6 0 -6 24t6 24h222v227q0 6 25 6q26 0 26 -6v-227h229q6 0 6 -24t-6 -24z" />
    <glyph glyph-name="comma" unicode="," horiz-adv-x="245" 
d="M54 -97q-12 11 -5 18q36 35 49 68t27 120q1 6 28 6h8.5t8.5 -0.5t7 -2t2 -3.5q-12 -77 -37.5 -126t-68.5 -85q-8 -6 -19 5z" />
    <glyph glyph-name="hyphen" unicode="-" horiz-adv-x="469" 
d="M129 273q-7 0 -2 24q2 24 9 24h297q5 0 3 -24q-5 -24 -10 -24h-297z" />
    <glyph glyph-name="period" unicode="." horiz-adv-x="217" 
d="M107 -4q-28 0 -27 6l19 119q1 6 29 6t27 -6l-19 -119q-1 -6 -29 -6z" />
    <glyph glyph-name="slash" unicode="/" horiz-adv-x="391" 
d="M495 731l-429 -729q-4 -6 -29 -6h-9.5t-8.5 0.5t-7 2t-1 3.5l429 729q4 6 28 6h9.5t9 -0.5t7.5 -2t1 -3.5z" />
    <glyph glyph-name="zero" unicode="0" horiz-adv-x="637" 
d="M322 -12q-110 0 -162 52t-36 152l56 355q31 198 261 198q218 0 186 -209l-55 -352q-17 -103 -78 -149.5t-172 -46.5zM571 545q12 78 -20.5 112.5t-117.5 34.5q-89 0 -136 -35t-59 -112l-57 -359q-13 -78 23 -111.5t126 -33.5q86 0 128.5 33.5t55.5 111.5z" />
    <glyph glyph-name="one" unicode="1" horiz-adv-x="360" 
d="M198 -4q-28 0 -27 6l106 669q-25 -11 -61.5 -21t-47.5 -10q-6 0 -4 21q5 24 10 25q56 11 131 47h39l-116 -731q-1 -6 -30 -6z" />
    <glyph glyph-name="two" unicode="2" horiz-adv-x="574" 
d="M383 337q-141 -70 -188 -119.5t-62 -144.5l-4 -24h377q7 0 2 -25q-2 -24 -9 -24h-435l10 69q18 112 77 174.5t192 129.5q119 59 155 93t45 94q10 61 -26.5 97.5t-111.5 36.5q-89 0 -183 -50q-5 -3 -12 8t-9.5 23t1.5 17q97 53 209 53q98 0 148 -53t39 -132
q-11 -81 -58 -125t-157 -98z" />
    <glyph glyph-name="three" unicode="3" horiz-adv-x="533" 
d="M86 94q80 -53 169 -53q67 0 112 34t55 95l8 48q11 66 -25 97.5t-110 31.5h-40q-6 0 -1 27q3 26 10 26h52q64 0 109 32t55 93l6 42q9 59 -26 92.5t-96 33.5q-92 0 -176 -50q-4 -2 -11 8.5t-9.5 22t2.5 17.5q35 22 91 38t110 16q78 0 131 -47.5t40 -130.5l-7 -44
q-10 -63 -52.5 -100.5t-98.5 -48.5q51 -10 82 -50t21 -101l-8 -51q-14 -86 -72 -135t-160 -49q-20 0 -39 2t-35 5.5t-31 8.5t-26.5 9.5t-22 10t-16.5 9t-12 7.5l-6 3q-5 3 0 17t14 25t13 9z" />
    <glyph glyph-name="four" unicode="4" horiz-adv-x="568" 
d="M536 165h-89l-26 -163q-1 -6 -28 -6q-28 0 -27 6l26 163h-319q-3 0 0 20q2 14 6 22l417 526q3 4 21 4q20 0 20 -4l-82 -518h89q4 0 2 -25q-5 -25 -10 -25zM144 215h256l64 405z" />
    <glyph glyph-name="five" unicode="5" horiz-adv-x="561" 
d="M269 -12q-112 0 -186 74q-4 3 3.5 15.5t18 22.5t14.5 7q71 -65 155 -65q154 0 179 160l10 63q25 158 -106 158q-76 0 -141 -63h-50l59 373h358q5 0 2 -25q-5 -25 -10 -25h-303l-41 -255q61 48 140 48q88 0 127 -58t24 -153l-10 -65q-32 -212 -243 -212z" />
    <glyph glyph-name="six" unicode="6" horiz-adv-x="617" 
d="M318 -12q-108 0 -156.5 68t-31.5 176l47 293q16 99 79.5 159.5t183.5 60.5q95 0 176 -44q3 -2 -2.5 -14.5t-13.5 -24t-11 -9.5q-60 41 -155 41q-173 0 -199 -168l-23 -144q21 38 71.5 68.5t123.5 30.5q101 0 149.5 -56.5t33.5 -152.5l-12 -71q-34 -213 -260 -213z
M522 198l10 67q27 166 -139 166q-77 0 -132.5 -45t-66.5 -117l-9 -57q-13 -80 25 -128t115 -48t130.5 41t66.5 121z" />
    <glyph glyph-name="seven" unicode="7" horiz-adv-x="516" 
d="M141 2l368 681h-369q-7 0 -2 25q2 25 10 25h427q4 0 2 -17q-3 -19 -8 -28l-367 -686q-3 -6 -31 -6h-10t-10 0.5t-8.5 2t-1.5 3.5z" />
    <glyph glyph-name="eight" unicode="8" horiz-adv-x="599" 
d="M302 -12q-99 0 -153.5 53t-43.5 138l3 22q12 73 55.5 114.5t94.5 57.5q-33 14 -62.5 58t-19.5 110l2 13q30 191 236 191q100 0 145.5 -49.5t36.5 -141.5l-1 -10q-11 -70 -50 -111.5t-84 -58.5q45 -16 75 -60t18 -114l-3 -19q-15 -94 -80.5 -143.5t-168.5 -49.5zM355 351
q-77 0 -128.5 -36.5t-64.5 -114.5l-3 -20q-11 -70 30.5 -108.5t115.5 -38.5q72 0 126.5 39t65.5 109l3 19q25 151 -145 151zM232 557l-3 -16q-12 -72 25 -109.5t108 -37.5q73 0 120 37t59 110l2 13q24 145 -133 145q-156 0 -178 -142z" />
    <glyph glyph-name="nine" unicode="9" horiz-adv-x="619" 
d="M415 745q106 0 156.5 -65.5t35.5 -160.5l-50 -311q-35 -220 -266 -220q-96 0 -175 43q-3 2 2.5 15t13.5 24.5t11 9.5q60 -41 157 -41q90 0 139 45t61 123l23 144q-21 -37 -72 -68t-119 -31q-98 0 -149 64.5t-37 152.5l10 63q16 100 81 156.5t178 56.5zM212 535l-10 -67
q-13 -78 25 -122.5t114 -44.5q77 0 133 48t69 126l9 59q11 73 -27.5 118t-115.5 45t-130.5 -41t-66.5 -121z" />
    <glyph glyph-name="colon" unicode=":" horiz-adv-x="227" 
d="M125 -4q-28 0 -27 6l19 119q1 6 29 6t27 -6l-19 -119q-1 -6 -29 -6zM191 415q-28 0 -27 6l19 119q1 6 29 6t27 -6l-19 -119q-1 -6 -29 -6z" />
    <glyph glyph-name="semicolon" unicode=";" horiz-adv-x="227" 
d="M32 -97q-12 11 -5 18q36 35 49 68t27 120q1 6 28 6h8.5t8.5 -0.5t7 -2t2 -3.5q-12 -77 -37.5 -126t-68.5 -85q-8 -6 -19 5zM176 415q-28 0 -27 6l19 119q1 6 29 6t27 -6l-19 -119q-1 -6 -29 -6z" />
    <glyph glyph-name="less" unicode="&#x3c;" horiz-adv-x="531" 
d="M133 272l336 125q2 1 3.5 -1.5t2 -8t0.5 -8.5v-9q0 -28 -6 -30l-286 -100l286 -94q6 -2 6 -27v-9.5t-0.5 -9t-2 -8t-3.5 -1.5l-336 123q-6 3 -6 29t6 29z" />
    <glyph glyph-name="equal" unicode="=" horiz-adv-x="531" 
d="M129 293q-6 0 -6 24t6 24h359q6 0 6 -24t-6 -24h-359zM129 152q-6 0 -6 24t6 24h359q6 0 6 -24t-6 -24h-359z" />
    <glyph glyph-name="greater" unicode="&#x3e;" horiz-adv-x="531" 
d="M154 397l336 -125q7 -3 7 -29t-7 -29l-336 -123q-6 -2 -6 16v9v3q0 25 6 27l286 94l-286 100q-6 2 -6 30v9t0.5 8.5t2 8t3.5 1.5z" />
    <glyph glyph-name="question" unicode="?" horiz-adv-x="449" 
d="M320 694q-55 0 -122 -43q-5 -3 -12 8t-9 22.5t2 16.5q75 47 144 47q86 0 125.5 -54.5t28.5 -125.5q-6 -36 -29 -70t-52 -60.5t-57.5 -52.5t-51 -57.5t-27.5 -65.5l-6 -34q-1 -6 -27 -6h-9t-7.5 0.5t-6 2t-1.5 3.5l6 35q6 38 28.5 73.5t50.5 63.5t56 54.5t50 57t27 61.5
q9 52 -15.5 88t-85.5 36zM192 -4q-28 0 -27 6l19 119q1 6 29 6t27 -6l-19 -119q-1 -6 -29 -6z" />
    <glyph glyph-name="at" unicode="@" horiz-adv-x="869" 
d="M672 72q-26 0 -46 10t-31 26.5t-16 29.5t-7 25q-12 -20 -27.5 -39t-49.5 -40t-71 -21q-65 0 -98 45t-22 117l19 127q12 72 58.5 113.5t124.5 41.5q39 0 76.5 -11.5t55.5 -23.5l17 -11l-40 -253q-3 -16 0 -36t17.5 -39t40.5 -19q38 0 67 30t37 79l26 167q6 23 2.5 49
t-10.5 52t-28 50t-50 42t-76.5 29t-108.5 11q-213 0 -293 -139q-40 -69 -65 -222q0 -2 -6 -37q-11 -53 -1 -101t35.5 -85t79.5 -59t130 -22q110 0 227 47q6 2 11 -9.5t5 -23t-4 -14.5q-115 -46 -245 -46q-61 0 -110 13t-81.5 36t-56.5 53t-33.5 64.5t-13.5 71t4 71.5l22 141
q22 140 125 223.5t277 83.5q58 0 106.5 -10t81 -27.5t58 -40.5t38 -49t21.5 -53t8 -52t-2 -47q-2 -14 -6 -42.5t-6.5 -45t-7 -43t-9 -42.5t-12 -38.5t-16 -36t-21 -28.5t-26.5 -23t-33 -13.5t-41 -5.5zM569 240l28 196q-42 23 -98 23q-80 0 -110 -71q-7 -16 -12.5 -39.5
t-8.5 -42.5t-7 -49t-6 -43q-8 -49 13.5 -76.5t59.5 -27.5q48 0 92 48.5t49 81.5z" />
    <glyph glyph-name="A" unicode="A" horiz-adv-x="557" 
d="M395 737q29 0 30 -6l106 -729q1 -6 -32 -6q-27 0 -28 6l-25 180h-279l-83 -180q-3 -6 -31 -6h-9.5t-8.5 0.5t-7.5 2t-1.5 3.5l338 729q3 6 31 6zM190 232h250l-55 425z" />
    <glyph glyph-name="B" unicode="B" horiz-adv-x="591" 
d="M557 228l-9 -56q-15 -89 -70 -130.5t-157 -41.5h-222l116 733h205q94 0 139.5 -47t33.5 -121l-6 -35q-17 -118 -134 -146q52 -12 82.5 -54t21.5 -102zM532 533l4 25q9 59 -21 92.5t-112 33.5h-139l-44 -276h153q61 0 104.5 30t54.5 95zM491 174l8 52q10 62 -24.5 97.5
t-108.5 35.5h-154l-49 -310h152q156 0 176 125z" />
    <glyph glyph-name="C" unicode="C" horiz-adv-x="554" 
d="M629 707q4 -4 0.5 -15.5t-11.5 -23.5t-12 -10q-78 38 -154 38q-85 0 -145.5 -36t-73.5 -116l-57 -359q-7 -44 4.5 -74.5t38.5 -46t58 -21.5t72 -6q94 0 164 32q3 1 6 -3.5t5 -11.5t3.5 -14.5t1 -13.5t-2.5 -7q-29 -13 -84 -22t-100 -9q-120 0 -179 51.5t-43 152.5l56 352
q16 103 87.5 152t184.5 49q51 0 101.5 -11t79.5 -27z" />
    <glyph glyph-name="D" unicode="D" horiz-adv-x="648" 
d="M641 528l-53 -333q-16 -104 -75.5 -149.5t-177.5 -45.5h-236l116 733h238q111 0 156.5 -56.5t31.5 -148.5zM531 195l53 334q25 154 -147 154h-173l-101 -633h169q97 0 142 33t57 112z" />
    <glyph glyph-name="E" unicode="E" horiz-adv-x="510" 
d="M464 26q-5 -26 -10 -26h-355l116 733h353q6 0 1 -26q-3 -25 -9 -25h-296l-44 -274h259q7 0 2 -25q-3 -25 -10 -25h-259l-48 -307h298q4 0 2 -25z" />
    <glyph glyph-name="F" unicode="F" horiz-adv-x="479" 
d="M558 707q-2 -25 -9 -25h-285l-45 -279h259q7 0 2 -26q-3 -26 -10 -26h-259l-55 -349q-1 -6 -30 -6q-28 0 -27 6l116 731h342q6 0 1 -26z" />
    <glyph glyph-name="G" unicode="G" horiz-adv-x="662" 
d="M554 188l23 146h-144q-6 0 -1 26q3 26 10 26h201l-32 -198q-16 -102 -88 -151t-188 -49q-110 0 -170 55.5t-45 151.5l56 349q16 105 87 153t197 48q43 0 92.5 -11.5t77.5 -26.5q4 -4 0.5 -15.5t-11.5 -23.5t-12 -10q-74 36 -156 36q-32 0 -63 -6t-65.5 -20.5t-58.5 -45.5
t-31 -75l-56 -355q-6 -37 2.5 -65.5t25.5 -45t42 -26.5t48 -13.5t48 -3.5q32 0 61.5 6t63 20.5t56.5 46t30 77.5z" />
    <glyph glyph-name="H" unicode="H" horiz-adv-x="677" 
d="M578 2q-1 -6 -29 -6q-29 0 -28 6l56 356h-365l-56 -356q-1 -6 -29 -6q-29 0 -28 6l115 729q1 6 30 6q28 0 27 -6l-50 -320h365l50 320q1 6 30 6q28 0 27 -6z" />
    <glyph glyph-name="I" unicode="I" horiz-adv-x="263" 
d="M165 2q-1 -6 -30 -6q-28 0 -27 6l115 729q1 6 29 6q29 0 28 -6z" />
    <glyph glyph-name="J" unicode="J" horiz-adv-x="315" 
d="M332 731l-96 -609q-11 -65 -47.5 -93.5t-109.5 -28.5h-51q-7 0 -2 26q2 25 10 25h54q41 0 62 17t27 57l96 606q1 6 29 6q29 0 28 -6z" />
    <glyph glyph-name="K" unicode="K" horiz-adv-x="557" 
d="M199 271l-43 -269q-1 -6 -30 -6q-28 0 -27 6l115 729q1 6 31 6h8.5t8.5 -0.5t7 -2t2 -3.5l-59 -379l357 379q6 6 36 6h10.5t12 -0.5t10.5 -2t1 -3.5l-313 -332l206 -397q1 -2 -2.5 -3.5t-11 -2t-12 -0.5h-10.5q-25 0 -29 6l-183 356z" />
    <glyph glyph-name="L" unicode="L" horiz-adv-x="481" 
d="M480 27q-5 -27 -10 -27h-371l115 731q1 6 29 6q29 0 28 -6l-107 -677h314q5 0 2 -27z" />
    <glyph glyph-name="M" unicode="M" horiz-adv-x="777" 
d="M678 2q-1 -6 -30 -6h-8t-7.5 0.5t-6.5 2t-2 3.5l61 388q4 23 10.5 69.5t11 75.5t11 64t12.5 58l-310 -655q-3 -6 -34 -6q-27 0 -28 6l-101 657h-2q-4 -43 -38 -268l-61 -389q-1 -6 -29 -6q-29 0 -28 6l115 729q1 6 44 6q38 0 39 -7q9 -58 34 -207t41 -256t26 -208
q42 101 91.5 209t120 254.5t99.5 208.5q3 6 38 6h16t14.5 -0.5t12 -2t3.5 -3.5z" />
    <glyph glyph-name="N" unicode="N" horiz-adv-x="689" 
d="M590 2q-1 -6 -44 -6q-35 0 -37 6l-148 400l-100 271h-1q-13 -100 -29.5 -210t-40 -251.5t-34.5 -209.5q-1 -6 -29 -6q-29 0 -28 6l115 729q1 6 44 6q41 0 43 -6l136 -375l107 -292h1q23 160 103 667q1 6 29 6h9.5t9 -0.5t7.5 -2t2 -3.5z" />
    <glyph glyph-name="O" unicode="O" horiz-adv-x="677" 
d="M616 184q-14 -100 -88 -148t-188 -48q-117 0 -176 52t-44 149q11 68 30 192.5t26 165.5q16 100 88.5 149t183.5 49q120 0 180 -51.5t44 -155.5q-11 -67 -30.5 -191t-25.5 -163zM559 184l57 363q12 76 -33.5 112t-134.5 36q-191 0 -215 -148l-46 -290q-2 -12 -5.5 -36.5
t-5.5 -36.5q-12 -75 33 -111t134 -36t146.5 36t69.5 111z" />
    <glyph glyph-name="P" unicode="P" horiz-adv-x="563" 
d="M593 539l-10 -65q-15 -93 -71 -145t-170 -52h-143l-43 -275q-1 -6 -30 -6t-28 6l116 731h201q108 0 150 -52.5t28 -141.5zM525 473l11 66q12 76 -19.5 110.5t-114.5 34.5h-138l-57 -358h138q82 0 125.5 36.5t54.5 110.5z" />
    <glyph glyph-name="Q" unicode="Q" horiz-adv-x="697" 
d="M620 184q-14 -100 -88 -148t-188 -48q-117 0 -176 52t-44 149q11 68 30 192.5t26 165.5q16 100 88.5 149t183.5 49q120 0 180 -51.5t44 -155.5q-11 -67 -30.5 -191t-25.5 -163zM563 184l57 363q12 76 -33.5 112t-134.5 36q-191 0 -215 -148l-46 -290q-2 -12 -5.5 -36.5
t-5.5 -36.5q-12 -75 33 -111t134 -36t146.5 36t69.5 111zM623 -90q7 0 4 -22q-3 -18 -11.5 -23.5t-25.5 -5.5q-48 0 -122 31.5t-104 31.5q-8 0 -19.5 -2t-12.5 -2q-5 0 -3 23q1 5 2 8.5t2 6.5t3 5t3 3.5t4 2.5l4.5 1.5t6.5 0.5h6.5h8h9.5q36 0 108 -30.5t106 -30.5q8 0 19 1
t12 1z" />
    <glyph glyph-name="R" unicode="R" horiz-adv-x="589" 
d="M432 303l97 -301q1 -2 -2.5 -3.5t-10.5 -2t-11.5 -0.5h-10.5q-25 0 -27 6l-90 291h-171l-46 -291q-1 -6 -30 -6t-28 6l116 731h201q108 0 150 -53.5t28 -140.5l-8 -49q-13 -79 -48.5 -124t-108.5 -63zM532 489l8 50q12 76 -19.5 110.5t-114.5 34.5h-138l-54 -342h138
q83 0 125.5 35t54.5 112z" />
    <glyph glyph-name="S" unicode="S" horiz-adv-x="535" 
d="M514 186q-14 -90 -86.5 -144t-177.5 -54q-108 0 -196 70q-4 3 2 16.5t15.5 24.5t12.5 9q30 -26 77.5 -46.5t95.5 -20.5q77 0 131.5 41t65.5 111q5 32 -1.5 56t-28 43.5t-39 30t-54.5 29.5q-17 9 -25 13q-32 17 -49 27t-42.5 30.5t-37.5 40.5t-19 50.5t-2 66.5
q12 73 74.5 119t158.5 46q91 0 169 -45q4 -2 0 -15.5t-12 -24.5t-12 -8q-62 41 -149 41q-69 0 -116 -32t-56 -91q-5 -29 3 -52t29.5 -41t38.5 -28.5t47 -25.5q11 -5 16 -8q32 -17 53.5 -29.5t48 -34.5t41 -44t22.5 -53.5t2 -67.5z" />
    <glyph glyph-name="T" unicode="T" horiz-adv-x="489" 
d="M596 709q-5 -25 -10 -25h-202l-108 -682q-1 -6 -29 -6q-29 0 -28 6l108 682h-208q-7 0 -2 25q2 24 10 24h467q4 0 2 -24z" />
    <glyph glyph-name="U" unicode="U" horiz-adv-x="645" 
d="M668 731l-86 -543q-14 -90 -76.5 -145t-186.5 -55q-110 0 -161 57.5t-37 142.5l86 543q1 6 30 6q28 0 27 -6l-87 -548q-11 -70 26.5 -108t122.5 -38q86 0 137 38t62 108l87 548q1 6 28 6q29 0 28 -6z" />
    <glyph glyph-name="V" unicode="V" horiz-adv-x="557" 
d="M648 731l-336 -729q-3 -6 -35 -6q-35 0 -36 6l-108 729q-1 6 31 6q28 0 29 -6l52 -382q20 -146 37 -293h2l131 292l172 383q3 6 32 6h9.5t9.5 -0.5t8.5 -2t1.5 -3.5z" />
    <glyph glyph-name="W" unicode="W" horiz-adv-x="852" 
d="M931 731l-277 -729q-2 -6 -37 -6q-36 0 -36 6l-32 396q-12 140 -18 255h-1l-92 -249l-152 -402q-2 -6 -36 -6t-34 6l-65 729q-1 6 31 6q27 0 27 -6l29 -367q19 -275 20 -307h1q33 102 109 306l139 368q2 6 35 6q29 0 29 -6l31 -367q22 -276 23 -307h1q21 61 63.5 177.5
t47.5 130.5l133 366q2 6 32 6h9.5t9 -0.5t8.5 -2t2 -3.5z" />
    <glyph glyph-name="X" unicode="X" horiz-adv-x="554" 
d="M335 323l-247 -321q-5 -6 -35 -6h-10.5t-11 0.5t-9.5 2t-1 3.5l287 367l-167 362q-1 2 2 3.5t9 2t10 0.5h10q28 0 31 -6l141 -319l238 319q5 6 33 6h10t10.5 -0.5t9.5 -2t1 -3.5l-274 -363l161 -366q1 -2 -2 -3.5t-9.5 -2t-10.5 -0.5h-10q-26 0 -29 6z" />
    <glyph glyph-name="Y" unicode="Y" horiz-adv-x="525" 
d="M624 730l-287 -418l-49 -310q-1 -6 -29 -6q-29 0 -28 6l49 309l-149 419q-1 2 2.5 3.5t9 2t10 1t9.5 0.5q28 0 30 -7l124 -366l246 366q5 7 36 7h9.5t9 -0.5t7.5 -2.5t0 -4z" />
    <glyph glyph-name="Z" unicode="Z" horiz-adv-x="534" 
d="M502 25q-2 -25 -9 -25h-458l5 32l482 649h-363q-6 0 -1 27q2 25 10 25h438l-6 -34l-479 -647h380q6 0 1 -27z" />
    <glyph glyph-name="bracketleft" unicode="[" horiz-adv-x="323" 
d="M240 -135h-166l142 897h166q5 0 3 -22q-5 -23 -10 -23h-111l-128 -807h111q5 0 3 -23q-4 -22 -10 -22z" />
    <glyph glyph-name="backslash" unicode="\" horiz-adv-x="420" 
d="M318 2l-152 729q0 1 3 2.5t8 2l10 1t9 0.5q28 0 29 -6l150 -730q0 -2 -2.5 -3t-8 -1.5t-8.5 -0.5h-8q-29 0 -30 6z" />
    <glyph glyph-name="bracketright" unicode="]" horiz-adv-x="323" 
d="M205 -135h-166q-6 0 -2 22q2 23 9 23h111l128 806h-111q-7 0 -2 23q2 22 9 22h166z" />
    <glyph glyph-name="asciicircum" unicode="^" horiz-adv-x="531" 
d="M365 713l134 -340q1 -2 -2 -3.5t-8.5 -2t-9 -0.5h-9.5q-28 0 -30 6l-108 289l-103 -289q-2 -6 -29 -6q-28 1 -28 6l131 340q3 6 31 6t31 -6z" />
    <glyph glyph-name="underscore" unicode="_" horiz-adv-x="408" 
d="M10 -125v60h388v-60h-388z" />
    <glyph glyph-name="grave" unicode="`" horiz-adv-x="480" 
d="M350 606l-79 137q-6 9 11 11q7 1 18 1q25 0 28 -6l67 -141q3 -5 -2 -6.5t-18 -1.5q-20 0 -25 6z" />
    <glyph glyph-name="a" unicode="a" horiz-adv-x="529" 
d="M525 502l-80 -500q-1 -6 -29 -6h-8t-7.5 0.5t-6.5 2t-2 3.5l27 162q-97 -176 -227 -176q-64 0 -97 47.5t-20 128.5l30 193q30 196 228 196q51 0 106 -16t86 -35zM433 260l33 215q-59 31 -136 31q-148 0 -172 -158l-28 -184q-9 -62 13 -94.5t66 -32.5q105 0 224 223z" />
    <glyph glyph-name="b" unicode="b" horiz-adv-x="551" 
d="M542 358l-28 -175q-31 -195 -235 -195q-96 0 -140.5 50.5t-30.5 142.5l89 562q1 6 28 6h8.5t8.5 -0.5t7 -2t2 -3.5l-46 -290q69 100 191 100q78 0 119.5 -51t26.5 -144zM462 193l25 156q13 79 -19.5 116.5t-91.5 37.5q-71 0 -124.5 -48t-63.5 -114l-24 -148
q-13 -83 18.5 -120t103.5 -37q74 0 118 36.5t58 120.5z" />
    <glyph glyph-name="c" unicode="c" horiz-adv-x="480" 
d="M264 -12q-85 0 -134 54t-36 141l28 175q15 95 74.5 145t156.5 50q87 0 155 -56q5 -6 0.5 -17.5t-14.5 -21.5t-14 -6l-6 6q-6 5 -11 8.5t-14 10t-18.5 10.5t-21.5 8.5t-26.5 7t-29.5 2.5q-154 0 -178 -156l-25 -157q-12 -76 22 -116t103 -40t149 54q6 4 14 -5t10.5 -19.5
t-1.5 -15.5q-74 -62 -183 -62z" />
    <glyph glyph-name="d" unicode="d" horiz-adv-x="559" 
d="M549 731l-116 -729q-1 -6 -28 -6h-8.5t-8 0.5t-6.5 2t-2 3.5l26 163q-33 -52 -44 -66q-85 -111 -177 -111q-70 0 -103 50.5t-21 124.5l33 194q31 196 216 196q59 0 97 -28t48 -52l41 258q1 6 27 6h8.5t8.5 -0.5t7 -2t2 -3.5zM420 262l16 98q10 58 -26 101.5t-94 43.5
q-144 0 -170 -157l-29 -181q-11 -66 11 -98.5t69 -32.5q52 0 106 57.5t117 168.5z" />
    <glyph glyph-name="e" unicode="e" horiz-adv-x="534" 
d="M493 364q-13 -56 -49.5 -92t-86.5 -49t-110.5 -18t-121.5 1l-6 -38q-9 -64 29 -98.5t114 -34.5q79 0 167 45q5 4 13 -5.5t10.5 -20.5t-1.5 -15q-86 -51 -196 -51q-105 0 -154 55t-32 154l26 157q34 199 230 199q95 0 141 -51.5t27 -137.5zM444 376q12 58 -20 94t-103 36
q-65 0 -112 -38.5t-60 -119.5l-16 -99q157 -7 226.5 21.5t84.5 105.5z" />
    <glyph glyph-name="f" unicode="f" horiz-adv-x="301" 
d="M340 505q-2 -23 -9 -23h-92l-76 -480q-1 -6 -28 -6h-8.5t-8.5 0.5t-7 2t-2 3.5l76 480h-74q-5 0 -3 23q4 22 10 22h74l17 108q8 50 41 80t82 30h56q6 0 3 -24q-4 -23 -10 -23h-48q-59 0 -72 -73l-15 -98h92q6 0 2 -22z" />
    <glyph glyph-name="g" unicode="g" horiz-adv-x="557" 
d="M565 502l-72 -455q-18 -131 -70.5 -197.5t-164.5 -66.5q-40 0 -78.5 10t-55.5 18.5t-25 14.5q-5 7 -1.5 18t12 21t12.5 7q57 -42 141 -42q34 0 61 9q85 29 105 149l29 177l-4 -7q-4 -7 -8.5 -14.5t-12.5 -20t-17 -24.5t-20.5 -25.5t-24 -25.5t-27 -23t-29.5 -19
t-32.5 -13t-34.5 -5q-76 0 -111 45.5t-24 120.5l32 203q15 95 73.5 145.5t149.5 50.5q50 0 99 -12.5t73 -25.5zM473 262l33 209q-60 33 -138 33q-96 0 -136 -72q-29 -51 -52 -205q-2 -13 -6 -41q-4 -24 -6 -37q-8 -51 12.5 -82t66.5 -31q43 0 92.5 45t81 91.5t52.5 89.5z
" />
    <glyph glyph-name="h" unicode="h" 
d="M472 2q-1 -6 -28 -6h-8.5t-8.5 0.5t-7 2t-2 3.5l60 377q9 58 -15 89t-70 31q-28 0 -57.5 -12t-52.5 -29.5t-42 -35t-29 -28.5l-10 -12l-60 -380q-1 -6 -28 -6h-8.5t-8.5 0.5t-7 2t-2 3.5l117 741q1 6 29 6h8.5t8 -0.5t6.5 -2t2 -3.5l-47 -298q92 108 199 108
q61 0 97.5 -45t25.5 -115z" />
    <glyph glyph-name="i" unicode="i" horiz-adv-x="230" 
d="M114 -4h-8.5t-8.5 0.5t-7 2t-2 3.5l85 538q1 6 28 6h8.5t8.5 -0.5t7 -2t2 -3.5l-85 -538q-1 -6 -28 -6zM214 631h-8.5t-8.5 0.5t-7 2t-2 3.5l17 106q1 6 28 6h8.5t8.5 -0.5t7 -2t2 -3.5l-17 -106q-1 -6 -28 -6z" />
    <glyph glyph-name="j" unicode="j" horiz-adv-x="239" 
d="M29 -204h-57q-3 0 -3.5 8t1.5 15q2 23 9 23h40q52 0 60 48l103 649q1 6 28 6h8.5t8.5 -0.5t7 -2t2 -3.5l-103 -649q-7 -44 -33.5 -69t-70.5 -25zM223 631h-8.5t-8.5 0.5t-7 2t-2 3.5l17 106q1 6 28 6h8.5t8.5 -0.5t7 -2t2 -3.5l-17 -106q-1 -6 -28 -6z" />
    <glyph glyph-name="k" unicode="k" horiz-adv-x="462" 
d="M521 539l-262 -249l187 -288q1 -2 -2.5 -3.5t-11 -2t-12 -0.5h-10.5q-24 0 -27 6l-165 253l-42 -36l-34 -217q-1 -6 -29 -6h-8.5t-8 0.5t-6.5 2t-2 3.5l117 741q1 6 28 6h8.5t8.5 -0.5t7 -2t2 -3.5l-72 -453l263 250q6 6 33 6q40 -1 38 -7z" />
    <glyph glyph-name="l" unicode="l" horiz-adv-x="258" 
d="M230 0h-41q-47 0 -71 29t-16 74l101 640q1 6 28 6h8.5t8.5 -0.5t7 -2t2 -3.5l-101 -638q-5 -31 8 -45t46 -14h27q5 0 6 -3.5t-1 -18.5q-2 -16 -4.5 -20t-7.5 -4z" />
    <glyph glyph-name="m" unicode="m" horiz-adv-x="810" 
d="M494 372l-58 -370q-1 -6 -28 -6h-8.5t-8.5 0.5t-7 2t-2 3.5l60 377q9 57 -10 88t-59 31t-89 -40.5t-84 -88.5l-58 -367q-1 -6 -28 -6h-8.5t-8.5 0.5t-7 2t-2 3.5l85 538q1 6 27 6h8.5t8.5 -0.5t7 -2t2 -3.5l-16 -104q90 117 176 117q52 0 81.5 -36t30.5 -81
q95 117 178 117q61 0 94.5 -41.5t22.5 -111.5l-63 -398q-1 -6 -28 -6h-8.5t-8.5 0.5t-7 2t-2 3.5l60 377q18 119 -67 119q-41 0 -89 -37t-86 -89z" />
    <glyph glyph-name="n" unicode="n" 
d="M472 2q-1 -6 -28 -6h-8.5t-8.5 0.5t-7 2t-2 3.5l58 367q20 130 -83 130q-47 0 -98.5 -36t-93.5 -86l-59 -375q-1 -6 -28 -6h-8.5t-8.5 0.5t-7 2t-2 3.5l85 538q1 6 28 6h8.5t8 -0.5t6.5 -2t2 -3.5l-15 -97q94 110 202 110q61 0 96.5 -45t24.5 -115z" />
    <glyph glyph-name="o" unicode="o" horiz-adv-x="548" 
d="M273 -12q-96 0 -145 51.5t-35 143.5l28 175q31 195 237 195q98 0 146.5 -54t34.5 -141l-28 -175q-14 -95 -74.5 -145t-163.5 -50zM484 349q25 155 -132 155q-154 0 -178 -155l-25 -157q-25 -156 129 -156q157 0 181 156z" />
    <glyph glyph-name="p" unicode="p" horiz-adv-x="523" 
d="M513 350l-24 -153q-33 -209 -193 -209q-32 0 -60 11.5t-46 28.5t-31.5 34t-19.5 28l-6 12l-49 -297q-1 -9 -26 -9q-6 0 -10.5 0.5t-8.5 1t-6 2.5t-2 5l111 699q104 49 203 49t141.5 -52.5t26.5 -150.5zM430 172l28 175q13 83 -18.5 118t-102.5 35q-26 0 -62.5 -9
t-60.5 -17l-23 -9l-46 -277q55 -150 160 -150q53 0 84.5 38.5t40.5 95.5z" />
    <glyph glyph-name="q" unicode="q" horiz-adv-x="559" 
d="M525 502l-115 -700q-1 -6 -29 -6h-8t-7.5 0.5t-6.5 2t-2 3.5l61 364q-15 -28 -34.5 -54t-48.5 -56.5t-67.5 -49t-78.5 -18.5q-64 0 -95.5 47t-18.5 129l30 193q30 196 228 196q51 0 106 -16t86 -35zM431 247l35 228q-59 31 -136 31q-148 0 -172 -158l-28 -184
q-10 -62 9 -94.5t60 -32.5q66 0 127 64t105 146z" />
    <glyph glyph-name="r" unicode="r" horiz-adv-x="327" 
d="M386 488h-32q-32 0 -67.5 -29t-88.5 -95l-57 -362q-1 -6 -28 -6h-8.5t-8 0.5t-6.5 2t-2 3.5l85 538q1 6 27 6h8t7.5 -0.5t6.5 -2t2 -3.5l-19 -121q58 72 93.5 98.5t78.5 26.5h20q7 0 1 -29q-5 -27 -12 -27z" />
    <glyph glyph-name="s" unicode="s" horiz-adv-x="425" 
d="M203 -12q-37 0 -80 12t-69 29q-3 2 2 14.5t13.5 23t11.5 8.5q62 -39 125 -39q56 0 96 31.5t45 74.5q5 40 -19 70t-60.5 48.5t-72 38.5t-57 52t-13.5 76q10 55 58.5 90.5t123.5 35.5q76 0 124 -23q4 -4 1 -15t-9.5 -22t-9.5 -10q-59 22 -114 22q-50 0 -82.5 -24t-39.5 -60
q-5 -26 11 -47t43 -34.5t59 -32t59 -38t42 -54t9 -78.5q-8 -58 -62 -103.5t-135 -45.5z" />
    <glyph glyph-name="t" unicode="t" horiz-adv-x="337" 
d="M279 0h-68q-48 0 -71.5 29t-15.5 74l60 379h-76q-6 0 -4 22q5 23 11 23h76l21 131q1 6 28 6h8.5t8.5 -0.5t7 -2t2 -3.5l-21 -131h118q6 0 2 -23q-4 -22 -9 -22h-118l-60 -377q-5 -31 7.5 -44.5t45.5 -13.5h55q6 0 7 -3.5t-2 -18.5q-3 -25 -12 -25z" />
    <glyph glyph-name="u" unicode="u" 
d="M165 540q1 6 28 6h8.5t8.5 -0.5t7 -2t2 -3.5l-60 -378q-9 -58 13.5 -89.5t66.5 -31.5q20 0 42 7t40.5 17.5t36.5 24t32 26.5t24.5 24t15.5 18l6 6l59 376q1 6 28 6h8.5t8.5 -0.5t7 -2t2 -3.5l-85 -538q-1 -6 -28 -6h-8.5t-8 0.5t-6.5 2t-2 3.5l15 97q-42 -49 -93.5 -80
t-100.5 -31q-65 0 -102.5 45t-26.5 115z" />
    <glyph glyph-name="v" unicode="v" horiz-adv-x="448" 
d="M517 540l-262 -538q-3 -6 -34 -6q-29 0 -30 6l-90 538q-1 6 30 6q28 0 29 -6l44 -286q22 -160 27 -205h2q46 107 93 206l134 285q3 6 30 6h9.5t8.5 -0.5t7.5 -2t1.5 -3.5z" />
    <glyph glyph-name="w" unicode="w" horiz-adv-x="656" 
d="M421 2l-18 292q-5 120 -4 167h-2q-33 -94 -61 -168l-114 -291q-2 -6 -34 -6q-29 0 -29 6l-43 538q0 6 30 6q28 0 28 -6l17 -280q8 -134 8 -204h2q9 28 76 205l108 279q2 6 28 6q27 0 27 -6l16 -280q7 -163 8 -203h2q8 24 77 204l110 279q2 6 29 6h9.5t9 -0.5t8 -2
t1.5 -3.5l-225 -538q-3 -6 -34 -6q-30 0 -30 6z" />
    <glyph glyph-name="x" unicode="x" horiz-adv-x="437" 
d="M481 540l-190 -266l110 -272q1 -2 -2 -3.5t-8.5 -2t-9 -0.5h-9.5q-21 0 -24 6l-91 233l-163 -233q-4 -6 -32 -6h-9.5t-9 0.5t-8 2t-0.5 3.5l197 273l-116 265q-1 2 2 3.5t9 2t10 0.5h10q23 0 25 -6l95 -223l156 223q5 6 31 6h9.5t9 -0.5t7.5 -2t1 -3.5z" />
    <glyph glyph-name="y" unicode="y" horiz-adv-x="462" 
d="M534 540l-374 -735q-3 -6 -30 -6q-28 1 -28 6l103 201l-103 534q-1 6 30 6q26 0 27 -6l84 -467l229 467q3 6 34 6q4 0 9 -0.5l10 -1t7.5 -1.5t1.5 -3z" />
    <glyph glyph-name="z" unicode="z" horiz-adv-x="430" 
d="M36 28l356 463h-264q-7 0 -2 24t10 24h340l-5 -28l-357 -463h295q7 0 2 -24q-2 -24 -9 -24h-370z" />
    <glyph glyph-name="braceleft" unicode="{" horiz-adv-x="339" 
d="M141 314v-3q48 -7 73 -39.5t17 -84.5l-34 -214q-4 -28 8 -43.5t38 -15.5h36q7 0 2 -23q-3 -26 -10 -26h-45q-40 0 -64.5 30.5t-17.5 77.5q20 144 34 215q13 83 -89 98q-7 1 -2 26q3 24 10 25q107 15 121 103q3 20 7 56t7 62t9 59.5t16 56.5t24 44.5t36 32t51 10.5h45
q7 0 2 -24q-2 -24 -10 -24h-36q-25 0 -42 -16t-22 -44l-34 -217q-9 -52 -43.5 -83.5t-86.5 -38.5z" />
    <glyph glyph-name="bar" unicode="|" horiz-adv-x="226" 
d="M175 -263q-26 0 -26 6v1051q0 6 26 6q27 0 27 -5v-1052q0 -6 -27 -6z" />
    <glyph glyph-name="braceright" unicode="}" horiz-adv-x="339" 
d="M297 316q-49 7 -74 38.5t-17 83.5l34 215q4 28 -8 44t-38 16h-36q-4 0 -2 24q5 24 10 24h45q42 0 65.5 -30t16.5 -78q-1 -5 -2.5 -15t-2.5 -15l-28 -181q-14 -88 88 -103q7 -1 2 -25q-2 -25 -10 -26q-84 -11 -110 -67q-9 -17 -15.5 -47.5t-12 -77.5t-7.5 -60
q-14 -95 -38.5 -132.5t-87.5 -37.5h-45q-5 0 -2 26q5 23 10 23h36q26 0 43 15.5t21 43.5q3 20 8.5 65t9 67t11 58.5t18 56t26 42t38.5 34.5t53 16v1z" />
    <glyph glyph-name="asciitilde" unicode="~" horiz-adv-x="531" 
d="M470 311q-12 -28 -41.5 -55t-63.5 -27q-31 0 -56.5 15.5t-46.5 30.5t-40 15q-42 0 -69 -51q-2 -3 -10 2t-14.5 12.5t-5.5 11.5q10 21 36 45.5t60 24.5q36 0 80.5 -30.5t64.5 -30.5q11 0 21 4t17 9t14 13.5t10.5 13t7.5 12.5l5 8q2 4 10.5 -0.5t15 -11.5t5.5 -11z" />
    <glyph glyph-name="nbspace" unicode="&#xa0;" horiz-adv-x="108" 
 />
    <glyph glyph-name="exclamdown" unicode="&#xa1;" horiz-adv-x="253" 
d="M232 507l-72 -502q-1 -9 -33 -9q-6 0 -11 0.5l-10 1t-8 2.5t-3 5l88 502q1 7 25 7q5 0 9 -0.5t7.5 -1t5.5 -2t2 -3.5zM242 737q28 0 27 -6l-15 -95q-1 -6 -29 -6t-27 6l15 95q1 6 29 6z" />
    <glyph glyph-name="cent" unicode="&#xa2;" horiz-adv-x="582" 
d="M439 630l-12 -77q69 -6 128 -55q5 -6 1 -17t-13 -20.5t-13 -5.5q-68 51 -132 51q-150 0 -175 -156l-25 -158q-13 -77 19.5 -116.5t105.5 -39.5q69 0 146 52q9 6 22 -13t5 -25q-26 -21 -69.5 -38.5t-88.5 -21.5l-12 -77q-1 -6 -28 -6h-8.5t-8 0.5t-6.5 2t-2 3.5l12 76
q-77 11 -116.5 60t-26.5 134l28 176q14 88 66.5 138.5t136.5 55.5l12 77q1 6 28 6h8.5t8.5 -0.5t7 -2t2 -3.5z" />
    <glyph glyph-name="sterling" unicode="&#xa3;" horiz-adv-x="637" 
d="M628 662q-16 -22 -22 -17q-40 28 -73 40t-80 12q-56 0 -104 -33.5t-58 -101.5q-4 -26 -5.5 -54t-1.5 -66.5t-1 -63.5h164q2 0 3.5 -1.5t1.5 -4.5t-0.5 -5.5t-1 -6.5t-0.5 -6q-5 -24 -10 -24h-162q-18 -140 -97 -282h331q7 0 2 -24q-2 -24 -9 -24h-405q108 188 122 330
h-77q-8 0 -3 25q2 23 9 23h75q2 20 3 82.5t7 99.5q15 94 74.5 139.5t150.5 45.5q40 0 83.5 -13t65.5 -24.5t30 -17.5t-12 -28z" />
    <glyph glyph-name="currency" unicode="&#xa4;" horiz-adv-x="637" 
d="M675 707q4 -4 1 -15.5t-10.5 -23.5t-11.5 -10q-78 38 -156 38q-195 0 -219 -152l-15 -91h235q5 0 3 -23q-5 -23 -10 -23h-235l-15 -93h235q5 0 3 -23q-5 -23 -10 -23h-235l-13 -83q-7 -44 4 -74.5t38 -46t58 -21.5t71 -6q91 0 161 32q3 1 6 -3.5t5.5 -11.5t4 -14.5
t1.5 -13.5t-2 -7q-29 -13 -83.5 -22t-99.5 -9q-121 0 -178.5 52.5t-40.5 158.5l11 69h-67q-7 0 -2 23q2 23 9 23h67l15 93h-67q-7 0 -2 23q2 23 9 23h67l15 91q16 105 87.5 153t196.5 48q42 0 91 -11.5t78 -26.5z" />
    <glyph glyph-name="yen" unicode="&#xa5;" horiz-adv-x="637" 
d="M176 237q-7 0 -2 24q2 24 10 24h148q0 5 2 14t2 13l-149 419q-1 2 2 3.5t9 2t10 0.5h10q27 0 29 -6l124 -366l246 366q4 6 37 6h9.5t9 -0.5t7.5 -2.5t0 -4l-287 -418q-1 -4 -2 -13t-2 -14h154q4 0 2 -24q-5 -24 -10 -24h-154l-37 -235q-1 -6 -29 -6q-29 0 -28 6l37 235
h-148z" />
    <glyph glyph-name="brokenbar" unicode="&#xa6;" horiz-adv-x="226" 
d="M177 323q-26 0 -26 6v465q0 6 27 6q26 0 26 -6v-465q0 -6 -27 -6zM177 -265q-26 0 -26 6v465q0 6 27 6q26 0 26 -6v-465q0 -6 -27 -6z" />
    <glyph glyph-name="section" unicode="&#xa7;" horiz-adv-x="488" 
d="M443 339q-10 -59 -54 -97t-78 -36q115 -54 97 -162q-10 -62 -64 -100.5t-129 -38.5q-89 0 -150 40q-4 2 2.5 15.5t16 24.5t12.5 8q22 -14 32 -20t34.5 -13.5t52.5 -7.5q50 0 91.5 25.5t49.5 74.5q7 47 -19.5 76t-90.5 58t-86.5 69.5t-12.5 105.5q5 35 43 72.5t91 45.5
q-123 44 -106 150q9 55 55 91t121 36q82 0 130 -24q4 -2 -0.5 -14t-13 -22t-12.5 -9q-60 23 -104 23q-55 0 -86.5 -24.5t-37.5 -63.5q-6 -37 15 -62t89 -53q69 -29 95 -69t17 -99zM312 443q-42 1 -77 -28.5t-43 -71.5q-8 -41 17.5 -72t67.5 -31t76.5 28.5t41.5 70.5
q7 43 -17 72.5t-66 31.5z" />
    <glyph glyph-name="dieresis" unicode="&#xa8;" horiz-adv-x="545" 
d="M290 626q-28 0 -27 7l14 93q1 7 30 7q4 0 8.5 -0.5t8.5 -1t6.5 -2t2.5 -3.5l-14 -93q-1 -7 -29 -7zM453 626q-28 0 -27 7l14 93q1 7 30 7q4 0 8.5 -0.5t8.5 -1t6.5 -2t2.5 -3.5l-14 -93q-1 -7 -29 -7z" />
    <glyph glyph-name="copyright" unicode="&#xa9;" horiz-adv-x="780" 
d="M800 357q0 -148 -104.5 -252.5t-252.5 -104.5t-252.5 104.5t-104.5 252.5t104.5 252.5t252.5 104.5t252.5 -104.5t104.5 -252.5zM759 357q0 130 -92.5 222.5t-223.5 92.5t-223 -92t-92 -223t92.5 -223.5t222.5 -92.5q131 0 223.5 92.5t92.5 223.5zM443 138
q-70 0 -109.5 38t-39.5 108v131q0 70 39.5 108t109.5 38q67 0 125 -42q4 -3 0 -14.5t-11.5 -19.5t-10.5 -5q-52 35 -97 35q-56 0 -81 -26t-25 -83v-114q0 -56 25.5 -82.5t80.5 -26.5q52 0 100 36q3 3 10.5 -4.5t11.5 -17.5t1 -13q-20 -19 -55.5 -32.5t-73.5 -13.5z" />
    <glyph glyph-name="ordfeminine" unicode="&#xaa;" horiz-adv-x="430" 
d="M387 358h-8t-7 0.5t-5.5 2t-1.5 3.5l7 44q-26 -25 -62 -40.5t-70 -15.5q-55 0 -83.5 32t-21.5 78l4 27q17 103 195 103h67q9 57 -7.5 80.5t-69.5 23.5q-55 0 -117 -29q-9 -5 -15 14q-7 20 0 24q68 33 137 33q63 0 97.5 -33.5t23.5 -102.5l-38 -238q-1 -6 -25 -6zM396 557
h-60q-71 0 -106.5 -15.5t-41.5 -51.5l-4 -27q-5 -33 12.5 -52t52.5 -19q72 0 130 58z" />
    <glyph glyph-name="guillemotleft" unicode="&#xab;" horiz-adv-x="561" 
d="M293 316l196 229q2 3 14 -4t22 -16.5t7 -12.5l-169 -196l107 -195q2 -3 -11 -13t-27.5 -16.5t-15.5 -3.5zM95 316l196 229q2 3 14 -4t22 -16.5t7 -12.5l-169 -196l107 -195q2 -3 -11 -13t-27.5 -16.5t-15.5 -3.5z" />
    <glyph glyph-name="logicalnot" unicode="&#xac;" horiz-adv-x="637" 
d="M565 142q-24 0 -24 6v169h-418q-6 0 -6 24t6 24h463v-217q0 -6 -21 -6z" />
    <glyph glyph-name="uni00AD" unicode="&#xad;" horiz-adv-x="469" 
d="M129 273q-7 0 -2 24q2 24 9 24h297q5 0 3 -24q-5 -24 -10 -24h-297z" />
    <glyph glyph-name="registered" unicode="&#xae;" horiz-adv-x="549" 
d="M550 535q0 -87 -61 -148.5t-148 -61.5t-148.5 61.5t-61.5 148.5t61.5 148.5t148.5 61.5t148 -61.5t61 -148.5zM517 535q0 73 -51.5 125t-124.5 52t-125 -52t-52 -125t52 -124.5t125 -51.5t124.5 51.5t51.5 124.5zM387 513l41 -78q3 -6 -6 -7h-11q-17 0 -20 5l-37 73h-49
v-73q0 -6 -19 -6q-18 0 -18 6v217h79q38 0 56 -15t18 -51v-15q0 -41 -34 -56zM385 569v15q0 19 -8 26t-31 7h-42v-80h42q22 0 30.5 7t8.5 25z" />
    <glyph glyph-name="macron" unicode="&#xaf;" horiz-adv-x="480" 
d="M169 661q-6 0 -6 24t6 24h221q6 0 6 -24t-6 -24h-221z" />
    <glyph glyph-name="degree" unicode="&#xb0;" horiz-adv-x="429" 
d="M453 590q0 -64 -45 -109t-109 -45t-109.5 45t-45.5 109t45.5 109.5t109.5 45.5t109 -45.5t45 -109.5zM403 589q0 44 -30.5 74.5t-74.5 30.5q-43 0 -73.5 -30.5t-30.5 -74.5q0 -43 30.5 -73t73.5 -30q44 0 74.5 30t30.5 73z" />
    <glyph glyph-name="plusminus" unicode="&#xb1;" horiz-adv-x="637" 
d="M599 265h-229v-214h228q6 0 6 -26q0 -25 -6 -25h-501q-6 0 -6 25q0 26 6 26h222v214h-222q-6 0 -6 24t6 24h222v227q0 6 25 6q26 0 26 -6v-227h229q6 0 6 -24t-6 -24z" />
    <glyph glyph-name="twosuperior" unicode="&#xb2;" horiz-adv-x="345" 
d="M291 745q50 0 79.5 -27t22.5 -73q-7 -47 -38 -75t-108 -60q-25 -10 -41 -22t-24.5 -27t-11.5 -26t-6 -29h184q7 0 2 -23q-2 -25 -10 -25h-235l8 49q9 57 38 91t97 60q50 20 70 38t24 48q4 27 -12 41.5t-50 14.5t-91 -25q-6 -3 -10.5 7t-4.5 21t4 15q52 27 113 27z" />
    <glyph glyph-name="threesuperior" unicode="&#xb3;" horiz-adv-x="345" 
d="M350 472l-4 -26q-6 -42 -43.5 -69t-89.5 -27q-27 0 -52 7.5t-36.5 13.5t-15.5 10q-5 3 6.5 24.5t16.5 19.5q42 -28 82 -28q35 0 56.5 16.5t24.5 40.5l3 18q3 22 -12.5 38t-52.5 16h-23q-6 0 -1 24q2 24 10 24h39q24 0 41.5 17.5t19.5 31.5l4 27q5 27 -11 39.5t-43 12.5
q-31 0 -84 -30q-5 -2 -12 7.5t-9 20t2 14.5q53 32 103 32q121 0 103 -110l-3 -18q-9 -51 -63 -69q3 -1 7 -2.5t12.5 -8t14 -14.5t9.5 -21.5t1 -30.5z" />
    <glyph glyph-name="acute" unicode="&#xb4;" horiz-adv-x="480" 
d="M415 743l-123 -137q-5 -6 -25 -6t-20 4q0 2 2 4l111 141q5 6 30 6q27 0 28 -6q0 -3 -3 -6z" />
    <glyph glyph-name="mu" unicode="&#xb5;" horiz-adv-x="559" 
d="M173 540q1 6 27 6h8.5t8.5 -0.5t7 -2t2 -3.5l-56 -355q-10 -62 22.5 -102.5t83.5 -40.5q26 0 52.5 12.5t46 29.5t35.5 35t24 29l8 12l60 380q1 6 28 6h8.5t8.5 -0.5t7 -2t2 -3.5l-85 -538q-1 -6 -28 -6h-8.5t-8 0.5t-6.5 2t-2 3.5l15 97q-73 -111 -165 -111q-42 0 -74 23
t-41 59l-43 -268q-1 -6 -28 -6h-8.5t-8.5 0.5t-7 2t-2 3.5z" />
    <glyph glyph-name="paragraph" unicode="&#xb6;" horiz-adv-x="476" 
d="M399 707l-124 -784q0 -5 -28 -5q-23 0 -23 5l66 417h-7q-71 0 -120.5 53.5t-32.5 152.5q15 87 85 143t202 56q65 0 103 -6l-130 -816q0 -5 -24 -5q-28 0 -28 5l124 784h-63z" />
    <glyph glyph-name="periodcentered" unicode="&#xb7;" horiz-adv-x="227" 
d="M145 240q-28 0 -27 6l19 119q1 6 29 6t27 -6l-19 -119q-1 -6 -29 -6z" />
    <glyph glyph-name="cedilla" unicode="&#xb8;" horiz-adv-x="480" 
d="M215 -199q-43 0 -79 27q-3 2 0 10.5t9 15t10 3.5q30 -22 60 -22q53 0 60 39l2 12q4 23 -15.5 31t-58.5 5l16 101h38l-11 -71q38 -1 57 -18.5t15 -43.5l-3 -22q-6 -30 -31.5 -48.5t-68.5 -18.5z" />
    <glyph glyph-name="onesuperior" unicode="&#xb9;" horiz-adv-x="277" 
d="M276 736l-60 -377q-1 -6 -27 -6h-9t-7.5 0.5t-6.5 2t-2 3.5l50 314h-49q-5 0 -3 20q3 17 9 19l66 24h39z" />
    <glyph glyph-name="ordmasculine" unicode="&#xba;" horiz-adv-x="458" 
d="M288 358q-69 0 -102 36.5t-23 97.5l19 120q22 133 161 133q68 0 101.5 -34.5t23.5 -98.5l-19 -120q-20 -134 -161 -134zM422 603q15 99 -83 99t-114 -99l-16 -104q-17 -100 82 -100t115 100z" />
    <glyph glyph-name="guillemotright" unicode="&#xbb;" horiz-adv-x="561" 
d="M439 545l124 -229l-197 -228q-2 -3 -14 3.5t-21.5 16t-6.5 13.5l169 195l-107 196q-1 3 11.5 13t26.5 16.5t15 3.5zM241 545l124 -229l-197 -228q-2 -3 -14 3.5t-21.5 16t-6.5 13.5l169 195l-107 196q-1 3 11.5 13t26.5 16.5t15 3.5z" />
    <glyph glyph-name="onequarter" unicode="&#xbc;" horiz-adv-x="764" 
d="M295 705l-60 -377q-1 -6 -27 -6h-9t-7.5 0.5t-6.5 2t-2 3.5l50 314h-49q-5 0 -3 20q3 17 9 19l66 24h39zM676 731l-494 -731q-4 -6 -27 -6h-9.5t-9 0.5t-7 2t-0.5 3.5l494 731q4 6 28 6h9t8.5 -0.5t7 -2t0.5 -3.5zM686 141q-4 -22 -10 -22h-43l-11 -73q-1 -6 -27 -6h-9
t-7.5 0.5t-6.5 2t-2 3.5l11 73h-170l7 43l210 258q5 6 28 6h8.5t8 -0.5t6.5 -2t2 -3.5l-41 -257h43q5 0 3 -22zM618 348l-150 -185h120z" />
    <glyph glyph-name="onehalf" unicode="&#xbd;" horiz-adv-x="764" 
d="M295 705l-60 -377q-1 -6 -27 -6h-9t-7.5 0.5t-6.5 2t-2 3.5l50 314h-49q-5 0 -3 20q3 17 9 19l66 24h39zM676 731l-494 -731q-4 -6 -27 -6h-9.5t-9 0.5t-7 2t-0.5 3.5l494 731q4 6 28 6h9t8.5 -0.5t7 -2t0.5 -3.5zM666 442q51 0 79.5 -29t19.5 -82q-7 -42 -37.5 -69
t-106.5 -56q-25 -9 -41 -21t-24.5 -27t-11.5 -26t-6 -30h184q7 0 2 -23q-5 -25 -10 -25h-235l8 49q9 58 34.5 89.5t92.5 57.5q51 20 74.5 40t27.5 50q4 27 -12 41.5t-50 14.5q-32 0 -89 -25q-6 -3 -11.5 7t-6.5 21t3 15q21 11 55.5 19.5t60.5 8.5z" />
    <glyph glyph-name="threequarters" unicode="&#xbe;" horiz-adv-x="764" 
d="M727 141q-4 -22 -10 -22h-43l-11 -73q-1 -6 -27 -6h-9t-7.5 0.5t-6.5 2t-2 3.5l11 73h-170l7 43l210 258q5 6 28 6h8.5t8 -0.5t6.5 -2t2 -3.5l-41 -257h43q5 0 3 -22zM738 731l-494 -731q-4 -6 -27 -6h-9.5t-9 0.5t-7 2t-0.5 3.5l494 731q4 6 28 6h9t8.5 -0.5t7 -2
t0.5 -3.5zM363 439l-3 -22q-6 -43 -45 -73.5t-90 -30.5q-27 0 -52.5 7.5t-38 14t-15.5 9.5q-4 3 9 24.5t18 19.5q50 -32 80 -32t53.5 16t28.5 45l2 18q3 18 -12.5 35t-51.5 17h-23q-7 0 -2 26q3 26 10 26h39q24 0 41.5 16.5t19.5 30.5l5 27q4 27 -12 39.5t-43 12.5
q-33 0 -86 -30q-5 -2 -11 7.5t-7 20t3 14.5q51 31 102 31q120 0 102 -109l-2 -13q-8 -52 -63 -74q52 -17 44 -73zM659 348l-150 -185h120z" />
    <glyph glyph-name="questiondown" unicode="&#xbf;" horiz-adv-x="449" 
d="M211 -152q54 0 121 43q5 3 13 -8t11 -22.5t-1 -16.5q-75 -47 -158 -47q-73 0 -113.5 52.5t-29.5 120.5q6 38 29 73.5t52 62.5t58 53.5t51.5 58.5t27.5 65l6 34q1 6 27 6h9t7.5 -0.5t6 -2t1.5 -3.5l-6 -35q-7 -43 -30 -79.5t-51 -63t-55.5 -51t-49 -54t-26.5 -62.5
q-8 -52 16 -88t84 -36zM340 546q28 0 27 -6l-19 -119q-1 -6 -29 -6t-27 6l19 119q1 6 29 6z" />
    <glyph glyph-name="Agrave" unicode="&#xc0;" horiz-adv-x="577" 
d="M405 737q29 0 30 -6l106 -729q1 -6 -32 -6q-27 0 -28 6l-25 180h-279l-83 -180q-3 -6 -31 -6h-9.5t-8.5 0.5t-7.5 2t-1.5 3.5l338 729q3 6 31 6zM200 232h250l-55 425zM384 806l-79 137q-6 9 11 11q7 1 18 1q25 0 28 -6l67 -141q3 -5 -2 -6.5t-18 -1.5q-20 0 -25 6z" />
    <glyph glyph-name="Aacute" unicode="&#xc1;" horiz-adv-x="577" 
d="M405 737q29 0 30 -6l106 -729q1 -6 -32 -6q-27 0 -28 6l-25 180h-279l-83 -180q-3 -6 -31 -6h-9.5t-8.5 0.5t-7.5 2t-1.5 3.5l338 729q3 6 31 6zM200 232h250l-55 425zM566 943l-123 -137q-5 -6 -25 -6t-20 4q0 2 2 4l111 141q5 6 30 6q27 0 28 -6q0 -3 -3 -6z" />
    <glyph glyph-name="Acircumflex" unicode="&#xc2;" horiz-adv-x="577" 
d="M405 737q29 0 30 -6l106 -729q1 -6 -32 -6q-27 0 -28 6l-25 180h-279l-83 -180q-3 -6 -31 -6h-9.5t-8.5 0.5t-7.5 2t-1.5 3.5l338 729q3 6 31 6zM200 232h250l-55 425zM503 818q-21 0 -24 6l-45 98l-78 -98q-4 -6 -26 -6h-9t-8 0.5t-6.5 2t0.5 3.5l101 124q5 6 31 6
t29 -6l60 -124q1 -2 -1 -3.5t-7 -2t-8.5 -0.5h-8.5z" />
    <glyph glyph-name="Atilde" unicode="&#xc3;" horiz-adv-x="577" 
d="M405 737q29 0 30 -6l106 -729q1 -6 -32 -6q-27 0 -28 6l-25 180h-279l-83 -180q-3 -6 -31 -6h-9.5t-8.5 0.5t-7.5 2t-1.5 3.5l338 729q3 6 31 6zM200 232h250l-55 425zM554 901q-10 -27 -34 -47t-52 -20t-63 24.5t-50 24.5q-33 0 -57 -40q-1 -3 -9 2t-14.5 12t-5.5 10
q8 21 31.5 40.5t51.5 19.5q29 0 64 -24.5t52 -24.5q37 0 57 45q2 4 10 -0.5t14 -11.5t5 -10z" />
    <glyph glyph-name="Adieresis" unicode="&#xc4;" horiz-adv-x="577" 
d="M405 737q29 0 30 -6l106 -729q1 -6 -32 -6q-27 0 -28 6l-25 180h-279l-83 -180q-3 -6 -31 -6h-9.5t-8.5 0.5t-7.5 2t-1.5 3.5l338 729q3 6 31 6zM200 232h250l-55 425zM337 826q-28 0 -27 7l14 93q1 7 30 7q4 0 8.5 -0.5t8.5 -1t6.5 -2t2.5 -3.5l-14 -93q-1 -7 -29 -7z
M500 826q-28 0 -27 7l14 93q1 7 30 7q4 0 8.5 -0.5t8.5 -1t6.5 -2t2.5 -3.5l-14 -93q-1 -7 -29 -7z" />
    <glyph glyph-name="Aring" unicode="&#xc5;" horiz-adv-x="577" 
d="M405 737q29 0 30 -6l106 -729q1 -6 -32 -6q-27 0 -28 6l-25 180h-279l-83 -180q-3 -6 -31 -6h-9.5t-8.5 0.5t-7.5 2t-1.5 3.5l338 729q3 6 31 6zM200 232h250l-55 425zM502 857q-5 -32 -29.5 -53.5t-56.5 -21.5q-34 0 -53.5 23t-14.5 57q5 30 30 52t56 22q33 0 53 -23
t15 -56zM466 855q4 20 -6 33t-29 13q-17 0 -31 -12t-16 -27q-4 -20 5.5 -32.5t28.5 -12.5q17 0 31.5 11.5t16.5 26.5z" />
    <glyph glyph-name="AE" unicode="&#xc6;" horiz-adv-x="817" 
d="M403 0l28 182h-231l-114 -180q-4 -6 -31 -6h-9.5t-9.5 0.5t-8.5 2t-1.5 3.5l468 731h379q6 0 1 -26q-2 -25 -9 -25h-296l-44 -274h259q7 0 2 -25q-2 -25 -10 -25h-259l-48 -307h298q5 0 2 -25q-5 -26 -10 -26h-356zM439 232l69 437l-273 -437h204z" />
    <glyph glyph-name="Ccedilla" unicode="&#xc7;" horiz-adv-x="579" 
d="M312 -199q-43 0 -79 27q-3 2 0 10.5t9 15t10 3.5q30 -22 60 -22q53 0 60 39l2 12q4 23 -15.5 31t-58.5 5l10 67q-105 7 -155 58t-35 145l56 352q16 103 87.5 152t184.5 49q51 0 101.5 -11t79.5 -27q4 -4 0.5 -15.5t-11.5 -23.5t-12 -10q-78 38 -154 38q-85 0 -145.5 -36
t-73.5 -116l-57 -359q-7 -44 4.5 -74.5t38.5 -46t58 -21.5t72 -6q94 0 164 32q3 1 6 -3.5t5 -11.5t3.5 -14.5t1 -13.5t-2.5 -7q-63 -29 -178 -31l-5 -36q38 -1 57 -18.5t15 -43.5l-3 -22q-6 -30 -31.5 -48.5t-68.5 -18.5z" />
    <glyph glyph-name="Egrave" unicode="&#xc8;" horiz-adv-x="515" 
d="M464 26q-5 -26 -10 -26h-355l116 733h353q6 0 1 -26q-3 -25 -9 -25h-296l-44 -274h259q7 0 2 -25q-3 -25 -10 -25h-259l-48 -307h298q4 0 2 -25zM411 806l-79 137q-6 9 11 11q7 1 18 1q25 0 28 -6l67 -141q3 -5 -2 -6.5t-18 -1.5q-20 0 -25 6z" />
    <glyph glyph-name="Eacute" unicode="&#xc9;" horiz-adv-x="515" 
d="M464 26q-5 -26 -10 -26h-355l116 733h353q6 0 1 -26q-3 -25 -9 -25h-296l-44 -274h259q7 0 2 -25q-3 -25 -10 -25h-259l-48 -307h298q4 0 2 -25zM532 943l-123 -137q-5 -6 -25 -6t-20 4q0 2 2 4l111 141q5 6 30 6q27 0 28 -6q0 -3 -3 -6z" />
    <glyph glyph-name="Ecircumflex" unicode="&#xca;" horiz-adv-x="515" 
d="M464 26q-5 -26 -10 -26h-355l116 733h353q6 0 1 -26q-3 -25 -9 -25h-296l-44 -274h259q7 0 2 -25q-3 -25 -10 -25h-259l-48 -307h298q4 0 2 -25zM487 818q-21 0 -24 6l-45 98l-78 -98q-4 -6 -26 -6h-9t-8 0.5t-6.5 2t0.5 3.5l101 124q5 6 31 6t29 -6l60 -124
q1 -2 -1 -3.5t-7 -2t-8.5 -0.5h-8.5z" />
    <glyph glyph-name="Edieresis" unicode="&#xcb;" horiz-adv-x="515" 
d="M464 26q-5 -26 -10 -26h-355l116 733h353q6 0 1 -26q-3 -25 -9 -25h-296l-44 -274h259q7 0 2 -25q-3 -25 -10 -25h-259l-48 -307h298q4 0 2 -25zM320 826q-28 0 -27 7l14 93q1 7 30 7q4 0 8.5 -0.5t8.5 -1t6.5 -2t2.5 -3.5l-14 -93q-1 -7 -29 -7zM483 826q-28 0 -27 7
l14 93q1 7 30 7q4 0 8.5 -0.5t8.5 -1t6.5 -2t2.5 -3.5l-14 -93q-1 -7 -29 -7z" />
    <glyph glyph-name="Igrave" unicode="&#xcc;" horiz-adv-x="263" 
d="M165 2q-1 -6 -30 -6q-28 0 -27 6l115 729q1 6 29 6q29 0 28 -6zM236 806l-79 137q-6 9 11 11q7 1 18 1q25 0 28 -6l67 -141q3 -5 -2 -6.5t-18 -1.5q-20 0 -25 6z" />
    <glyph glyph-name="Iacute" unicode="&#xcd;" horiz-adv-x="263" 
d="M165 2q-1 -6 -30 -6q-28 0 -27 6l115 729q1 6 29 6q29 0 28 -6zM414 943l-123 -137q-5 -6 -25 -6t-20 4q0 2 2 4l111 141q5 6 30 6q27 0 28 -6q0 -3 -3 -6z" />
    <glyph glyph-name="Icircumflex" unicode="&#xce;" horiz-adv-x="263" 
d="M165 2q-1 -6 -30 -6q-28 0 -27 6l115 729q1 6 29 6q29 0 28 -6zM349 818q-21 0 -24 6l-45 98l-78 -98q-4 -6 -26 -6h-9t-8 0.5t-6.5 2t0.5 3.5l101 124q5 6 31 6t29 -6l60 -124q1 -2 -1 -3.5t-7 -2t-8.5 -0.5h-8.5z" />
    <glyph glyph-name="Idieresis" unicode="&#xcf;" horiz-adv-x="263" 
d="M165 2q-1 -6 -30 -6q-28 0 -27 6l115 729q1 6 29 6q29 0 28 -6zM187 826q-28 0 -27 7l14 93q1 7 30 7q4 0 8.5 -0.5t8.5 -1t6.5 -2t2.5 -3.5l-14 -93q-1 -7 -29 -7zM350 826q-28 0 -27 7l14 93q1 7 30 7q4 0 8.5 -0.5t8.5 -1t6.5 -2t2.5 -3.5l-14 -93q-1 -7 -29 -7z" />
    <glyph glyph-name="Eth" unicode="&#xd0;" horiz-adv-x="648" 
d="M82 351q-7 0 -2 24q2 24 10 24h72l53 334h227q230 0 199 -205l-53 -333q-16 -102 -68.5 -148.5t-166.5 -46.5h-254l55 351h-72zM531 195l53 334q25 154 -147 154h-173l-45 -284h165q4 0 2 -24q-5 -24 -10 -24h-165l-48 -301h182q84 0 129 34t57 111z" />
    <glyph glyph-name="Ntilde" unicode="&#xd1;" horiz-adv-x="689" 
d="M590 2q-1 -6 -44 -6q-35 0 -37 6l-148 400l-100 271h-1q-13 -100 -29.5 -210t-40 -251.5t-34.5 -209.5q-1 -6 -29 -6q-29 0 -28 6l115 729q1 6 44 6q41 0 43 -6l136 -375l107 -292h1q23 160 103 667q1 6 29 6h9.5t9 -0.5t7.5 -2t2 -3.5zM610 901q-10 -27 -34 -47t-52 -20
t-63 24.5t-50 24.5q-33 0 -57 -40q-1 -3 -9 2t-14.5 12t-5.5 10q8 21 31.5 40.5t51.5 19.5q29 0 64 -24.5t52 -24.5q37 0 57 45q2 4 10 -0.5t14 -11.5t5 -10z" />
    <glyph glyph-name="Ograve" unicode="&#xd2;" horiz-adv-x="677" 
d="M616 184q-14 -100 -88 -148t-188 -48q-117 0 -176 52t-44 149q11 68 30 192.5t26 165.5q16 100 88.5 149t183.5 49q120 0 180 -51.5t44 -155.5q-11 -67 -30.5 -191t-25.5 -163zM559 184l57 363q12 76 -33.5 112t-134.5 36q-191 0 -215 -148l-46 -290q-2 -12 -5.5 -36.5
t-5.5 -36.5q-12 -75 33 -111t134 -36t146.5 36t69.5 111zM439 806l-79 137q-6 9 11 11q7 1 18 1q13 0 20 -2.5t9 -4.5t4 -8.5t3 -8.5l59 -123q3 -5 -2 -6.5t-18 -1.5q-20 0 -25 6z" />
    <glyph glyph-name="Oacute" unicode="&#xd3;" horiz-adv-x="677" 
d="M616 184q-14 -100 -88 -148t-188 -48q-117 0 -176 52t-44 149q11 68 30 192.5t26 165.5q16 100 88.5 149t183.5 49q120 0 180 -51.5t44 -155.5q-11 -67 -30.5 -191t-25.5 -163zM559 184l57 363q12 76 -33.5 112t-134.5 36q-191 0 -215 -148l-46 -290q-2 -12 -5.5 -36.5
t-5.5 -36.5q-12 -75 33 -111t134 -36t146.5 36t69.5 111zM481 806q-5 -6 -25 -6t-20 4q0 2 2 4l97 123l5 7.5t5 6.5t6 5t11 4t17 1q27 0 28 -6q0 -3 -3 -6z" />
    <glyph glyph-name="Ocircumflex" unicode="&#xd4;" horiz-adv-x="677" 
d="M616 184q-14 -100 -88 -148t-188 -48q-117 0 -176 52t-44 149q11 68 30 192.5t26 165.5q16 100 88.5 149t183.5 49q120 0 180 -51.5t44 -155.5q-11 -67 -30.5 -191t-25.5 -163zM559 184l57 363q12 76 -33.5 112t-134.5 36q-191 0 -215 -148l-46 -290q-2 -12 -5.5 -36.5
t-5.5 -36.5q-12 -75 33 -111t134 -36t146.5 36t69.5 111zM553 818q-21 0 -24 6l-45 98l-78 -98q-4 -6 -26 -6h-9t-8 0.5t-6.5 2t0.5 3.5l88 109q8 10 11 13t11 5.5t22 2.5q26 0 29 -6l60 -124q1 -2 -1 -3.5t-7 -2t-8.5 -0.5h-8.5z" />
    <glyph glyph-name="Otilde" unicode="&#xd5;" horiz-adv-x="677" 
d="M616 184q-14 -100 -88 -148t-188 -48q-117 0 -176 52t-44 149q11 68 30 192.5t26 165.5q16 100 88.5 149t183.5 49q120 0 180 -51.5t44 -155.5q-11 -67 -30.5 -191t-25.5 -163zM559 184l57 363q12 76 -33.5 112t-134.5 36q-191 0 -215 -148l-46 -290q-2 -12 -5.5 -36.5
t-5.5 -36.5q-12 -75 33 -111t134 -36t146.5 36t69.5 111zM604 901q-10 -27 -34 -47t-52 -20t-63 24.5t-50 24.5q-33 0 -57 -40q-1 -3 -9 2t-14.5 12t-5.5 10q8 21 31.5 40.5t51.5 19.5q29 0 64 -24.5t52 -24.5q37 0 57 45q2 4 10 -0.5t14 -11.5t5 -10z" />
    <glyph glyph-name="Odieresis" unicode="&#xd6;" horiz-adv-x="677" 
d="M616 184q-14 -100 -88 -148t-188 -48q-117 0 -176 52t-44 149q11 68 30 192.5t26 165.5q16 100 88.5 149t183.5 49q120 0 180 -51.5t44 -155.5q-11 -67 -30.5 -191t-25.5 -163zM559 184l57 363q12 76 -33.5 112t-134.5 36q-191 0 -215 -148l-46 -290q-2 -12 -5.5 -36.5
t-5.5 -36.5q-12 -75 33 -111t134 -36t146.5 36t69.5 111zM387 826q-28 0 -27 7q2 15 6.5 46t7.5 47q1 7 30 7q4 0 8.5 -0.5t8.5 -1t6.5 -2t2.5 -3.5q-3 -16 -7.5 -47t-6.5 -46q-1 -7 -29 -7zM550 826q-28 0 -27 7q3 15 7 46t7 47q1 7 30 7q4 0 8.5 -0.5t8.5 -1t6.5 -2
t2.5 -3.5q-2 -16 -6.5 -47t-7.5 -46q-1 -7 -29 -7z" />
    <glyph glyph-name="multiply" unicode="&#xd7;" horiz-adv-x="548" 
d="M497 376l-144 -144l144 -144q8 -8 -11 -27t-27 -11l-144 144l-144 -144q-4 -4 -16 3t-19.5 18.5t-2.5 16.5l144 144l-144 144q-4 4 4.5 15t19.5 19t14 4l144 -144l144 144q4 4 15 -4t19 -19t4 -15z" />
    <glyph glyph-name="Oslash" unicode="&#xd8;" horiz-adv-x="677" 
d="M611 187q-3 -19 -11 -43q-26 -78 -94.5 -117t-165.5 -39q-128 0 -182 53l-32 -41q-4 -6 -30 -6h-9.5t-9 0.5t-7.5 2t-1 3.5l59 77q-24 44 -11 126q1 7 3.5 21.5t3.5 21.5l41 261q18 128 83 185t198 57q119 0 181 -56l34 42q4 6 29 6h9.5t9.5 -0.5t8.5 -2t0.5 -3.5
l-63 -78q23 -51 14 -107q-1 -7 -3.5 -22t-3.5 -23zM171 187q-7 -41 -1 -62l422 524q-39 49 -149 49q-192 0 -214 -148zM554 187l58 363q5 33 1 53l-419 -518q42 -46 150 -46q187 0 210 148z" />
    <glyph glyph-name="Ugrave" unicode="&#xd9;" horiz-adv-x="645" 
d="M668 731l-86 -543q-14 -90 -76.5 -145t-186.5 -55q-110 0 -161 57.5t-37 142.5l86 543q1 6 30 6q28 0 27 -6l-87 -548q-11 -70 26.5 -108t122.5 -38q86 0 137 38t62 108l87 548q1 6 28 6q29 0 28 -6zM445 806l-79 137q-6 9 11 11q7 1 18 1q25 0 28 -6l67 -141
q3 -5 -2 -6.5t-18 -1.5q-20 0 -25 6z" />
    <glyph glyph-name="Uacute" unicode="&#xda;" horiz-adv-x="645" 
d="M668 731l-86 -543q-14 -90 -76.5 -145t-186.5 -55q-110 0 -161 57.5t-37 142.5l86 543q1 6 30 6q28 0 27 -6l-87 -548q-11 -70 26.5 -108t122.5 -38q86 0 137 38t62 108l87 548q1 6 28 6q29 0 28 -6zM570 943l-123 -137q-5 -6 -25 -6t-20 4q0 2 2 4l111 141q5 6 30 6
q27 0 28 -6q0 -3 -3 -6z" />
    <glyph glyph-name="Ucircumflex" unicode="&#xdb;" horiz-adv-x="645" 
d="M668 731l-86 -543q-14 -90 -76.5 -145t-186.5 -55q-110 0 -161 57.5t-37 142.5l86 543q1 6 30 6q28 0 27 -6l-87 -548q-11 -70 26.5 -108t122.5 -38q86 0 137 38t62 108l87 548q1 6 28 6q29 0 28 -6zM537 818q-21 0 -24 6l-45 98l-78 -98q-4 -6 -26 -6h-9t-8 0.5t-6.5 2
t0.5 3.5l101 124q5 6 31 6t29 -6l60 -124q1 -2 -1 -3.5t-7 -2t-8.5 -0.5h-8.5z" />
    <glyph glyph-name="Udieresis" unicode="&#xdc;" horiz-adv-x="645" 
d="M668 731l-86 -543q-14 -90 -76.5 -145t-186.5 -55q-110 0 -161 57.5t-37 142.5l86 543q1 6 30 6q28 0 27 -6l-87 -548q-11 -70 26.5 -108t122.5 -38q86 0 137 38t62 108l87 548q1 6 28 6q29 0 28 -6zM371 826q-28 0 -27 7l14 93q1 7 30 7q4 0 8.5 -0.5t8.5 -1t6.5 -2
t2.5 -3.5l-14 -93q-1 -7 -29 -7zM534 826q-28 0 -27 7l14 93q1 7 30 7q4 0 8.5 -0.5t8.5 -1t6.5 -2t2.5 -3.5l-14 -93q-1 -7 -29 -7z" />
    <glyph glyph-name="Yacute" unicode="&#xdd;" horiz-adv-x="535" 
d="M629 730l-287 -418l-49 -310q-1 -6 -29 -6q-29 0 -28 6l49 309l-149 419q-1 2 2.5 3.5t9 2t10 1t9.5 0.5q28 0 30 -7l124 -366l246 366q5 7 36 7h9.5t9 -0.5t7.5 -2.5t0 -4zM533 943l-123 -137q-5 -6 -25 -6t-20 4q0 2 2 4l111 141q5 6 30 6q27 0 28 -6q0 -3 -3 -6z" />
    <glyph glyph-name="Thorn" unicode="&#xde;" horiz-adv-x="638" 
d="M599 342q-19 -114 -77.5 -156.5t-175.5 -42.5h-168l-22 -141q-1 -6 -30 -6t-28 6l115 729q1 6 29 6q29 0 28 -6l-20 -130h168q113 0 159 -48t31 -150zM542 341l9 62q13 82 -23 114.5t-125 32.5h-160l-56 -354h186q146 0 169 145z" />
    <glyph glyph-name="germandbls" unicode="&#xdf;" horiz-adv-x="579" 
d="M527 499q-49 6 -84 -3q-68 -18 -79 -81q-4 -26 9.5 -46.5t37 -33t50 -30t48.5 -36.5t33.5 -54.5t3.5 -81.5q-8 -57 -59 -101t-131 -44q-79 0 -142 41q-3 2 2 14.5t13.5 23t11.5 8.5q62 -39 122 -39q54 0 89 30.5t42 75.5q7 43 -12 72q-14 22 -49 44t-63 38t-47.5 50
t-11.5 82q8 52 57.5 84.5t123.5 31.5q18 64 -4.5 108.5t-95.5 44.5q-139 0 -163 -160l-85 -535q-1 -6 -29 -6t-27 6l86 546q14 89 70 143t150 54q57 0 94 -23.5t50 -60.5t10 -79.5t-21 -82.5z" />
    <glyph glyph-name="agrave" unicode="&#xe0;" horiz-adv-x="529" 
d="M525 502l-80 -500q-1 -6 -29 -6h-8t-7.5 0.5t-6.5 2t-2 3.5l27 162q-97 -176 -227 -176q-64 0 -97 47.5t-20 128.5l30 193q30 196 228 196q51 0 106 -16t86 -35zM433 260l33 215q-59 31 -136 31q-148 0 -172 -158l-28 -184q-9 -62 13 -94.5t66 -32.5q105 0 224 223z
M356 606l-79 137q-6 9 11 11q7 1 18 1q13 0 20 -2.5t9 -4.5t4 -8.5t3 -8.5l59 -123q3 -5 -2 -6.5t-18 -1.5q-20 0 -25 6z" />
    <glyph glyph-name="aacute" unicode="&#xe1;" horiz-adv-x="529" 
d="M525 502l-80 -500q-1 -6 -29 -6h-8t-7.5 0.5t-6.5 2t-2 3.5l27 162q-97 -176 -227 -176q-64 0 -97 47.5t-20 128.5l30 193q30 196 228 196q51 0 106 -16t86 -35zM433 260l33 215q-59 31 -136 31q-148 0 -172 -158l-28 -184q-9 -62 13 -94.5t66 -32.5q105 0 224 223z
M377 606q-5 -6 -25 -6t-20 4q0 2 2 4l97 123l5 7.5t5 6.5t6 5t11 4t17 1q27 0 28 -6q0 -3 -3 -6z" />
    <glyph glyph-name="acircumflex" unicode="&#xe2;" horiz-adv-x="529" 
d="M525 502l-80 -500q-1 -6 -29 -6h-8t-7.5 0.5t-6.5 2t-2 3.5l27 162q-97 -176 -227 -176q-64 0 -97 47.5t-20 128.5l30 193q30 196 228 196q51 0 106 -16t86 -35zM433 260l33 215q-59 31 -136 31q-148 0 -172 -158l-28 -184q-9 -62 13 -94.5t66 -32.5q105 0 224 223z
M449 618q-21 0 -24 6l-45 98l-78 -98q-4 -6 -26 -6h-9t-8 0.5t-6.5 2t0.5 3.5l88 109q8 10 11 13t11 5.5t22 2.5q26 0 29 -6l60 -124q1 -2 -1 -3.5t-7 -2t-8.5 -0.5h-8.5z" />
    <glyph glyph-name="atilde" unicode="&#xe3;" horiz-adv-x="529" 
d="M525 502l-80 -500q-1 -6 -29 -6h-8t-7.5 0.5t-6.5 2t-2 3.5l27 162q-97 -176 -227 -176q-64 0 -97 47.5t-20 128.5l30 193q30 196 228 196q51 0 106 -16t86 -35zM433 260l33 215q-59 31 -136 31q-148 0 -172 -158l-28 -184q-9 -62 13 -94.5t66 -32.5q105 0 224 223z
M499 701q-10 -27 -34 -47t-52 -20t-63 24.5t-50 24.5q-33 0 -57 -40q-1 -3 -9 2t-14.5 12t-5.5 10q8 21 31.5 40.5t51.5 19.5q29 0 64 -24.5t52 -24.5q37 0 57 45q2 4 10 -0.5t14 -11.5t5 -10z" />
    <glyph glyph-name="adieresis" unicode="&#xe4;" horiz-adv-x="529" 
d="M525 502l-80 -500q-1 -6 -29 -6h-8t-7.5 0.5t-6.5 2t-2 3.5l27 162q-97 -176 -227 -176q-64 0 -97 47.5t-20 128.5l30 193q30 196 228 196q51 0 106 -16t86 -35zM433 260l33 215q-59 31 -136 31q-148 0 -172 -158l-28 -184q-9 -62 13 -94.5t66 -32.5q105 0 224 223z
M282 626q-28 0 -27 7q3 16 7.5 47t6.5 46q1 7 30 7q4 0 8.5 -0.5t8.5 -1t6.5 -2t2.5 -3.5q-2 -15 -6.5 -46t-7.5 -47q-1 -7 -29 -7zM445 626q-28 0 -27 7q3 16 7.5 47t6.5 46q1 7 30 7q4 0 8.5 -0.5t8.5 -1t6.5 -2t2.5 -3.5q-3 -15 -7.5 -46t-6.5 -47q-1 -7 -29 -7z" />
    <glyph glyph-name="aring" unicode="&#xe5;" horiz-adv-x="529" 
d="M525 502l-80 -500q-1 -6 -29 -6h-8t-7.5 0.5t-6.5 2t-2 3.5l27 162q-97 -176 -227 -176q-64 0 -97 47.5t-20 128.5l30 193q30 196 228 196q51 0 106 -16t86 -35zM433 260l33 215q-59 31 -136 31q-148 0 -172 -158l-28 -184q-9 -62 13 -94.5t66 -32.5q105 0 224 223z
M448 689q-5 -32 -29.5 -53.5t-56.5 -21.5q-34 0 -53.5 23t-14.5 57q5 30 30 52t56 22q33 0 53 -23t15 -56zM412 687q4 20 -6 33t-29 13q-17 0 -31 -12t-16 -27q-4 -20 5.5 -32.5t28.5 -12.5q17 0 31.5 11.5t16.5 26.5z" />
    <glyph glyph-name="ae" unicode="&#xe6;" horiz-adv-x="867" 
d="M839 256h-350l-11 -71q-11 -69 22.5 -108t107.5 -39q84 0 168 42q4 2 11.5 -9t10 -21.5t-1.5 -15.5q-89 -46 -192 -46q-129 0 -168 84q-99 -84 -211 -84q-78 0 -119.5 47t-30.5 114l3 21q15 92 102 124t262 9l12 72q19 127 -111 127q-86 0 -152 -33q-6 -3 -12.5 8.5
t-7 23.5t5.5 17q78 35 171 35q62 0 101 -24.5t50 -68.5q64 94 178 94q92 0 141.5 -58t34.5 -153zM236 37q92 0 187 83q-5 32 1 68l12 72q-149 22 -221 0.5t-83 -91.5l-3 -20q-9 -54 22 -83t85 -29zM792 300l8 48q12 77 -24.5 118t-101.5 41q-62 0 -110 -40.5t-60 -115.5
l-8 -51h296z" />
    <glyph glyph-name="ccedilla" unicode="&#xe7;" horiz-adv-x="480" 
d="M237 -199q-43 0 -79 27q-3 2 0 10.5t9 15t10 3.5q30 -22 60 -22q53 0 60 39l2 12q4 23 -15.5 31t-58.5 5l11 68q-74 9 -114 61.5t-28 131.5l28 175q15 95 74.5 145t156.5 50q87 0 155 -56q5 -6 0.5 -17.5t-14.5 -21.5t-14 -6l-6 6q-6 5 -11 8.5t-14 10t-18.5 10.5
t-21.5 8.5t-26.5 7t-29.5 2.5q-154 0 -178 -156l-25 -157q-12 -76 22 -116t103 -40t149 54q6 4 14 -5t10.5 -19.5t-1.5 -15.5q-71 -59 -174 -62l-5 -36q38 -1 57 -18.5t15 -43.5l-3 -22q-6 -30 -31.5 -48.5t-68.5 -18.5z" />
    <glyph glyph-name="egrave" unicode="&#xe8;" horiz-adv-x="537" 
d="M493 364q-13 -56 -49.5 -92t-86.5 -49t-110.5 -18t-121.5 1l-6 -38q-9 -64 29 -98.5t114 -34.5q79 0 167 45q5 4 13 -5.5t10.5 -20.5t-1.5 -15q-86 -51 -196 -51q-105 0 -154 55t-32 154l26 157q34 199 230 199q95 0 141 -51.5t27 -137.5zM444 376q12 58 -20 94t-103 36
q-65 0 -112 -38.5t-60 -119.5l-16 -99q157 -7 226.5 21.5t84.5 105.5zM348 606l-79 137q-6 9 11 11q7 1 18 1q25 0 28 -6l67 -141q3 -5 -2 -6.5t-18 -1.5q-20 0 -25 6z" />
    <glyph glyph-name="eacute" unicode="&#xe9;" horiz-adv-x="537" 
d="M493 364q-13 -56 -49.5 -92t-86.5 -49t-110.5 -18t-121.5 1l-6 -38q-9 -64 29 -98.5t114 -34.5q79 0 167 45q5 4 13 -5.5t10.5 -20.5t-1.5 -15q-86 -51 -196 -51q-105 0 -154 55t-32 154l26 157q34 199 230 199q95 0 141 -51.5t27 -137.5zM444 376q12 58 -20 94t-103 36
q-65 0 -112 -38.5t-60 -119.5l-16 -99q157 -7 226.5 21.5t84.5 105.5zM508 743l-123 -137q-5 -6 -25 -6t-20 4q0 2 2 4l111 141q5 6 30 6q27 0 28 -6q0 -3 -3 -6z" />
    <glyph glyph-name="ecircumflex" unicode="&#xea;" horiz-adv-x="537" 
d="M493 364q-13 -56 -49.5 -92t-86.5 -49t-110.5 -18t-121.5 1l-6 -38q-9 -64 29 -98.5t114 -34.5q79 0 167 45q5 4 13 -5.5t10.5 -20.5t-1.5 -15q-86 -51 -196 -51q-105 0 -154 55t-32 154l26 157q34 199 230 199q95 0 141 -51.5t27 -137.5zM444 376q12 58 -20 94t-103 36
q-65 0 -112 -38.5t-60 -119.5l-16 -99q157 -7 226.5 21.5t84.5 105.5zM450 618q-21 0 -24 6l-45 98l-78 -98q-4 -6 -26 -6h-8.5t-8.5 0.5t-6.5 2t0.5 3.5l101 124q5 6 31 6t29 -6l60 -124q1 -2 -1 -3.5t-7 -2t-8 -0.5h-9z" />
    <glyph glyph-name="edieresis" unicode="&#xeb;" horiz-adv-x="537" 
d="M493 364q-13 -56 -49.5 -92t-86.5 -49t-110.5 -18t-121.5 1l-6 -38q-9 -64 29 -98.5t114 -34.5q79 0 167 45q5 4 13 -5.5t10.5 -20.5t-1.5 -15q-86 -51 -196 -51q-105 0 -154 55t-32 154l26 157q34 199 230 199q95 0 141 -51.5t27 -137.5zM444 376q12 58 -20 94t-103 36
q-65 0 -112 -38.5t-60 -119.5l-16 -99q157 -7 226.5 21.5t84.5 105.5zM284 626q-28 0 -27 7l14 93q1 7 30 7q4 0 8.5 -0.5t8.5 -1t6.5 -2t2.5 -3.5l-14 -93q-1 -7 -29 -7zM447 626q-28 0 -27 7l14 93q1 7 30 7q4 0 8.5 -0.5t8.5 -1t6.5 -2t2.5 -3.5l-14 -93q-1 -7 -29 -7z
" />
    <glyph glyph-name="igrave" unicode="&#xec;" horiz-adv-x="230" 
d="M112 -4h-8.5t-8.5 0.5t-7 2t-2 3.5l85 538q1 6 28 6h8.5t8.5 -0.5t7 -2t2 -3.5l-85 -538q-1 -6 -28 -6zM181 606l-79 137q-6 9 11 11q7 1 18 1q25 0 28 -6l67 -141q3 -5 -2 -6.5t-18 -1.5q-20 0 -25 6z" />
    <glyph glyph-name="iacute" unicode="&#xed;" horiz-adv-x="230" 
d="M112 -4h-8.5t-8.5 0.5t-7 2t-2 3.5l85 538q1 6 28 6h8.5t8.5 -0.5t7 -2t2 -3.5l-85 -538q-1 -6 -28 -6zM355 743l-123 -137q-5 -6 -25 -6t-20 4q0 2 2 4l111 141q5 6 30 6q27 0 28 -6q0 -3 -3 -6z" />
    <glyph glyph-name="icircumflex" unicode="&#xee;" horiz-adv-x="230" 
d="M112 -4h-8.5t-8.5 0.5t-7 2t-2 3.5l85 538q1 6 28 6h8.5t8.5 -0.5t7 -2t2 -3.5l-85 -538q-1 -6 -28 -6zM297 618q-21 0 -24 6l-45 98l-78 -98q-4 -6 -26 -6h-9t-8 0.5t-6.5 2t0.5 3.5l101 124q5 6 31 6t29 -6l60 -124q1 -2 -1 -3.5t-7 -2t-8.5 -0.5h-8.5z" />
    <glyph glyph-name="idieresis" unicode="&#xef;" horiz-adv-x="230" 
d="M112 -4h-8.5t-8.5 0.5t-7 2t-2 3.5l85 538q1 6 28 6h8.5t8.5 -0.5t7 -2t2 -3.5l-85 -538q-1 -6 -28 -6zM131 626q-28 0 -27 7l14 93q1 7 30 7q4 0 8.5 -0.5t8.5 -1t6.5 -2t2.5 -3.5l-14 -93q-1 -7 -29 -7zM294 626q-28 0 -27 7l14 93q1 7 30 7q4 0 8.5 -0.5t8.5 -1
t6.5 -2t2.5 -3.5l-14 -93q-1 -7 -29 -7z" />
    <glyph glyph-name="eth" unicode="&#xf0;" horiz-adv-x="588" 
d="M365 510q93 0 146 -62q-6 91 -69 162l-57 -49q-4 -3 -12.5 4t-13.5 17t-1 14l55 48q-11 15 -54 62q-5 5 17 25t28 15q20 -21 54 -63l58 50q2 2 10.5 -5t14.5 -17t2 -13l-58 -50q48 -59 69.5 -139t0.5 -210l-19 -117q-15 -92 -76 -143t-159 -51q-112 0 -164.5 51.5
t-38.5 143.5l21 132q15 95 80 145t166 50zM172 306l-18 -114q-13 -81 26 -118.5t114 -37.5q74 0 125.5 37.5t64.5 118.5l17 107q11 70 -30 116t-109 46q-75 0 -126 -37.5t-64 -117.5z" />
    <glyph glyph-name="ntilde" unicode="&#xf1;" 
d="M472 2q-1 -6 -28 -6h-8.5t-8.5 0.5t-7 2t-2 3.5l58 367q20 130 -83 130q-47 0 -98.5 -36t-93.5 -86l-59 -375q-1 -6 -28 -6h-8.5t-8.5 0.5t-7 2t-2 3.5l85 538q1 6 28 6h8.5t8 -0.5t6.5 -2t2 -3.5l-15 -97q94 110 202 110q61 0 96.5 -45t24.5 -115zM512 701
q-10 -27 -34 -47t-52 -20t-63 24.5t-50 24.5q-33 0 -57 -40q-1 -3 -9 2t-14.5 12t-5.5 10q8 21 31.5 40.5t51.5 19.5q29 0 64 -24.5t52 -24.5q37 0 57 45q2 4 10 -0.5t14 -11.5t5 -10z" />
    <glyph glyph-name="ograve" unicode="&#xf2;" horiz-adv-x="548" 
d="M273 -12q-96 0 -145 51.5t-35 143.5l28 175q31 195 237 195q98 0 146.5 -54t34.5 -141l-28 -175q-14 -95 -74.5 -145t-163.5 -50zM484 349q25 155 -132 155q-154 0 -178 -155l-25 -157q-25 -156 129 -156q157 0 181 156zM354 606l-79 137q-6 9 11 11q7 1 18 1q25 0 28 -6
l67 -141q3 -5 -2 -6.5t-18 -1.5q-20 0 -25 6z" />
    <glyph glyph-name="oacute" unicode="&#xf3;" horiz-adv-x="548" 
d="M273 -12q-96 0 -145 51.5t-35 143.5l28 175q31 195 237 195q98 0 146.5 -54t34.5 -141l-28 -175q-14 -95 -74.5 -145t-163.5 -50zM484 349q25 155 -132 155q-154 0 -178 -155l-25 -157q-25 -156 129 -156q157 0 181 156zM501 743l-123 -137q-5 -6 -25 -6t-20 4q0 2 2 4
l111 141q5 6 30 6q27 0 28 -6q0 -3 -3 -6z" />
    <glyph glyph-name="ocircumflex" unicode="&#xf4;" horiz-adv-x="548" 
d="M273 -12q-96 0 -145 51.5t-35 143.5l28 175q31 195 237 195q98 0 146.5 -54t34.5 -141l-28 -175q-14 -95 -74.5 -145t-163.5 -50zM484 349q25 155 -132 155q-154 0 -178 -155l-25 -157q-25 -156 129 -156q157 0 181 156zM457 618q-21 0 -24 6l-45 98l-78 -98
q-4 -6 -26 -6h-9t-8 0.5t-6.5 2t0.5 3.5l101 124q5 6 31 6t29 -6l60 -124q1 -2 -1 -3.5t-7 -2t-8.5 -0.5h-8.5z" />
    <glyph glyph-name="otilde" unicode="&#xf5;" horiz-adv-x="548" 
d="M273 -12q-96 0 -145 51.5t-35 143.5l28 175q31 195 237 195q98 0 146.5 -54t34.5 -141l-28 -175q-14 -95 -74.5 -145t-163.5 -50zM484 349q25 155 -132 155q-154 0 -178 -155l-25 -157q-25 -156 129 -156q157 0 181 156zM508 701q-10 -27 -34 -47t-52 -20t-63 24.5
t-50 24.5q-33 0 -57 -40q-1 -3 -9 2t-14.5 12t-5.5 10q8 21 31.5 40.5t51.5 19.5q29 0 64 -24.5t52 -24.5q37 0 57 45q2 4 10 -0.5t14 -11.5t5 -10z" />
    <glyph glyph-name="odieresis" unicode="&#xf6;" horiz-adv-x="548" 
d="M273 -12q-96 0 -145 51.5t-35 143.5l28 175q31 195 237 195q98 0 146.5 -54t34.5 -141l-28 -175q-14 -95 -74.5 -145t-163.5 -50zM484 349q25 155 -132 155q-154 0 -178 -155l-25 -157q-25 -156 129 -156q157 0 181 156zM291 626q-28 0 -27 7l14 93q1 7 30 7
q4 0 8.5 -0.5t8.5 -1t6.5 -2t2.5 -3.5l-14 -93q-1 -7 -29 -7zM454 626q-28 0 -27 7l14 93q1 7 30 7q4 0 8.5 -0.5t8.5 -1t6.5 -2t2.5 -3.5l-14 -93q-1 -7 -29 -7z" />
    <glyph glyph-name="divide" unicode="&#xf7;" horiz-adv-x="637" 
d="M95 262h501q6 0 6 -26q0 -25 -6 -25h-501q-6 0 -6 25q0 26 6 26zM349 -6q-28 0 -28 6v119q0 6 28 6t28 -6v-119q0 -6 -28 -6zM348 358q-28 0 -28 6v119q0 6 28 6t28 -6v-119q0 -6 -28 -6z" />
    <glyph glyph-name="oslash" unicode="&#xf8;" horiz-adv-x="548" 
d="M283 -12q-78 0 -122 23l-23 -32q-4 -6 -29 -6h-9.5t-8.5 0.5t-7 2t-1 3.5l43 59q-47 50 -33 145l28 176q15 92 76.5 142.5t150.5 50.5q88 0 131 -26l20 29q4 6 28 6h9.5t9 -0.5t7.5 -2t1 -3.5l-42 -58q41 -56 27 -138l-28 -176q-14 -93 -75 -144t-153 -51zM174 350
l-26 -169q-9 -58 12 -95l287 396q-35 23 -95 23q-74 0 -117 -36t-61 -119zM484 350q10 67 -6 98l-286 -394q33 -18 86 -18q157 0 181 156z" />
    <glyph glyph-name="ugrave" unicode="&#xf9;" 
d="M165 540q1 6 28 6h8.5t8.5 -0.5t7 -2t2 -3.5l-60 -378q-9 -58 13.5 -89.5t66.5 -31.5q20 0 42 7t40.5 17.5t36.5 24t32 26.5t24.5 24t15.5 18l6 6l59 376q1 6 28 6h8.5t8.5 -0.5t7 -2t2 -3.5l-85 -538q-1 -6 -28 -6h-8.5t-8 0.5t-6.5 2t-2 3.5l15 97q-42 -49 -93.5 -80
t-100.5 -31q-65 0 -102.5 45t-26.5 115zM369 606l-79 137q-6 9 11 11q7 1 18 1q25 0 28 -6l67 -141q3 -5 -2 -6.5t-18 -1.5q-20 0 -25 6z" />
    <glyph glyph-name="uacute" unicode="&#xfa;" 
d="M165 540q1 6 28 6h8.5t8.5 -0.5t7 -2t2 -3.5l-60 -378q-9 -58 13.5 -89.5t66.5 -31.5q20 0 42 7t40.5 17.5t36.5 24t32 26.5t24.5 24t15.5 18l6 6l59 376q1 6 28 6h8.5t8.5 -0.5t7 -2t2 -3.5l-85 -538q-1 -6 -28 -6h-8.5t-8 0.5t-6.5 2t-2 3.5l15 97q-42 -49 -93.5 -80
t-100.5 -31q-65 0 -102.5 45t-26.5 115zM504 743l-123 -137q-5 -6 -25 -6t-20 4q0 2 2 4l111 141q5 6 30 6q27 0 28 -6q0 -3 -3 -6z" />
    <glyph glyph-name="ucircumflex" unicode="&#xfb;" 
d="M165 540q1 6 28 6h8.5t8.5 -0.5t7 -2t2 -3.5l-60 -378q-9 -58 13.5 -89.5t66.5 -31.5q20 0 42 7t40.5 17.5t36.5 24t32 26.5t24.5 24t15.5 18l6 6l59 376q1 6 28 6h8.5t8.5 -0.5t7 -2t2 -3.5l-85 -538q-1 -6 -28 -6h-8.5t-8 0.5t-6.5 2t-2 3.5l15 97q-42 -49 -93.5 -80
t-100.5 -31q-65 0 -102.5 45t-26.5 115zM458 618q-21 0 -24 6l-45 98l-78 -98q-4 -6 -26 -6h-8.5t-8.5 0.5t-6.5 2t0.5 3.5l101 124q5 6 31 6t29 -6l60 -124q1 -2 -1 -3.5t-7 -2t-8 -0.5h-9z" />
    <glyph glyph-name="udieresis" unicode="&#xfc;" 
d="M165 540q1 6 28 6h8.5t8.5 -0.5t7 -2t2 -3.5l-60 -378q-9 -58 13.5 -89.5t66.5 -31.5q20 0 42 7t40.5 17.5t36.5 24t32 26.5t24.5 24t15.5 18l6 6l59 376q1 6 28 6h8.5t8.5 -0.5t7 -2t2 -3.5l-85 -538q-1 -6 -28 -6h-8.5t-8 0.5t-6.5 2t-2 3.5l15 97q-42 -49 -93.5 -80
t-100.5 -31q-65 0 -102.5 45t-26.5 115zM292 626q-28 0 -27 7l14 93q1 7 30 7q4 0 8.5 -0.5t8.5 -1t6.5 -2t2.5 -3.5l-14 -93q-1 -7 -29 -7zM455 626q-28 0 -27 7l14 93q1 7 30 7q4 0 8.5 -0.5t8.5 -1t6.5 -2t2.5 -3.5l-14 -93q-1 -7 -29 -7z" />
    <glyph glyph-name="yacute" unicode="&#xfd;" horiz-adv-x="462" 
d="M534 540l-374 -735q-3 -6 -30 -6q-28 1 -28 6l103 201l-103 534q-1 6 30 6q26 0 27 -6l84 -467l229 467q3 6 34 6q4 0 9 -0.5l10 -1t7.5 -1.5t1.5 -3zM462 743l-123 -137q-5 -6 -25 -6t-20 4q0 2 2 4l111 141q5 6 30 6q27 0 28 -6q0 -3 -3 -6z" />
    <glyph glyph-name="thorn" unicode="&#xfe;" horiz-adv-x="562" 
d="M302 -12q-60 0 -98.5 23.5t-52.5 58.5l-43 -268q-1 -6 -28 -6h-8.5t-8.5 0.5t-7 2t-2 3.5l149 937q0 6 27 6q26 0 26 -6l-44 -274q27 37 72.5 63t103.5 26q88 0 131.5 -50.5t28.5 -144.5l-28 -176q-15 -94 -73.5 -144.5t-144.5 -50.5zM364 504q-61 0 -109.5 -40.5
t-56.5 -95.5l-30 -187q-10 -66 27.5 -105.5t104.5 -39.5q144 0 168 156l25 158q25 154 -129 154z" />
    <glyph glyph-name="ydieresis" unicode="&#xff;" horiz-adv-x="462" 
d="M534 540l-374 -735q-3 -6 -30 -6q-28 1 -28 6l103 201l-103 534q-1 6 30 6q26 0 27 -6l84 -467l229 467q3 6 34 6q4 0 9 -0.5l10 -1t7.5 -1.5t1.5 -3zM249 626q-28 0 -27 7l14 93q1 7 30 7q4 0 8.5 -0.5t8.5 -1t6.5 -2t2.5 -3.5l-14 -93q-1 -7 -29 -7zM412 626
q-28 0 -27 7l14 93q1 7 30 7q4 0 8.5 -0.5t8.5 -1t6.5 -2t2.5 -3.5l-14 -93q-1 -7 -29 -7z" />
    <glyph glyph-name="Amacron" unicode="&#x100;" horiz-adv-x="557" 
d="M395 737q29 0 30 -6l106 -729q1 -6 -32 -6q-27 0 -28 6l-25 180h-279l-83 -180q-3 -6 -31 -6h-9.5t-8.5 0.5t-7.5 2t-1.5 3.5l338 729q3 6 31 6zM190 232h250l-55 425zM309 861q-6 0 -6 24t6 24h221q6 0 6 -24t-6 -24h-221z" />
    <glyph glyph-name="amacron" unicode="&#x101;" horiz-adv-x="529" 
d="M525 502l-80 -500q-1 -6 -29 -6h-8t-7.5 0.5t-6.5 2t-2 3.5l27 162q-97 -176 -227 -176q-64 0 -97 47.5t-20 128.5l30 193q30 196 228 196q51 0 106 -16t86 -35zM433 260l33 215q-59 31 -136 31q-148 0 -172 -158l-28 -184q-9 -62 13 -94.5t66 -32.5q105 0 224 223z
M253 661q-6 0 -6 24t6 24h221q6 0 6 -24t-6 -24h-221z" />
    <glyph glyph-name="Abreve" unicode="&#x102;" horiz-adv-x="557" 
d="M395 737q29 0 30 -6l106 -729q1 -6 -32 -6q-27 0 -28 6l-25 180h-279l-83 -180q-3 -6 -31 -6h-9.5t-8.5 0.5t-7.5 2t-1.5 3.5l338 729q3 6 31 6zM190 232h250l-55 425zM531 952q-8 -48 -43 -81t-83 -33q-43 0 -69.5 33.5t-19.5 80.5q0 4 24 4q12 0 12 -2v-2
q-6 -33 10.5 -55t46.5 -22q32 0 55 23.5t28 53.5q0 5 18 5q21 0 21 -5z" />
    <glyph glyph-name="abreve" unicode="&#x103;" horiz-adv-x="529" 
d="M525 502l-80 -500q-1 -6 -29 -6h-8t-7.5 0.5t-6.5 2t-2 3.5l27 162q-97 -176 -227 -176q-64 0 -97 47.5t-20 128.5l30 193q30 196 228 196q51 0 106 -16t86 -35zM433 260l33 215q-59 31 -136 31q-148 0 -172 -158l-28 -184q-9 -62 13 -94.5t66 -32.5q105 0 224 223z
M473 752q-8 -48 -43 -81t-83 -33q-43 0 -69.5 33.5t-19.5 80.5q0 4 24 4q12 0 12 -2v-2q-6 -33 10.5 -55t46.5 -22q32 0 55 23.5t28 53.5q0 5 18 5q21 0 21 -5z" />
    <glyph glyph-name="Aogonek" unicode="&#x104;" horiz-adv-x="557" 
d="M395 737q29 0 30 -6l106 -729q0 -3 -9 -5q-47 -20 -86.5 -52.5t-43.5 -69.5q-6 -53 49 -53q15 0 36 7.5t24 10.5q4 2 10 -6t7.5 -16t-2.5 -11q-38 -23 -85 -23q-40 0 -66.5 23.5t-18.5 71.5q4 23 18 43t38.5 35.5t38 23t36.5 17.5q-6 2 -6 4l-25 180h-279l-83 -180
q-3 -6 -31 -6h-9.5t-8.5 0.5t-7.5 2t-1.5 3.5l338 729q3 6 31 6zM190 232h250l-55 425z" />
    <glyph glyph-name="aogonek" unicode="&#x105;" horiz-adv-x="529" 
d="M525 502l-80 -500q-2 -5 -12 -5q-47 -21 -86 -53.5t-43 -68.5q-6 -53 49 -53q15 0 36 7.5t24 10.5q4 2 10 -6t7.5 -16t-2.5 -11q-38 -23 -85 -23q-40 0 -66.5 23.5t-18.5 71.5q10 64 126 117l8 4v2l27 162q-97 -176 -227 -176q-64 0 -97 47.5t-20 128.5l30 193
q30 196 228 196q51 0 106 -16t86 -35zM433 260l33 215q-59 31 -136 31q-148 0 -172 -158l-28 -184q-9 -62 13 -94.5t66 -32.5q105 0 224 223z" />
    <glyph glyph-name="Cacute" unicode="&#x106;" horiz-adv-x="554" 
d="M629 707q4 -4 0.5 -15.5t-11.5 -23.5t-12 -10q-78 38 -154 38q-85 0 -145.5 -36t-73.5 -116l-57 -359q-7 -44 4.5 -74.5t38.5 -46t58 -21.5t72 -6q94 0 164 32q3 1 6 -3.5t5 -11.5t3.5 -14.5t1 -13.5t-2.5 -7q-29 -13 -84 -22t-100 -9q-120 0 -179 51.5t-43 152.5l56 352
q16 103 87.5 152t184.5 49q51 0 101.5 -11t79.5 -27zM590 943l-123 -137q-5 -6 -25 -6t-20 4q0 2 2 4l111 141q5 6 30 6q27 0 28 -6q0 -3 -3 -6z" />
    <glyph glyph-name="cacute" unicode="&#x107;" horiz-adv-x="480" 
d="M264 -12q-85 0 -134 54t-36 141l28 175q15 95 74.5 145t156.5 50q87 0 155 -56q5 -6 0.5 -17.5t-14.5 -21.5t-14 -6l-6 6q-6 5 -11 8.5t-14 10t-18.5 10.5t-21.5 8.5t-26.5 7t-29.5 2.5q-154 0 -178 -156l-25 -157q-12 -76 22 -116t103 -40t149 54q6 4 14 -5t10.5 -19.5
t-1.5 -15.5q-74 -62 -183 -62zM493 743l-123 -137q-5 -6 -25 -6t-20 4q0 2 2 4l111 141q5 6 30 6q27 0 28 -6q0 -3 -3 -6z" />
    <glyph glyph-name="Ccaron" unicode="&#x10c;" horiz-adv-x="554" 
d="M629 707q4 -4 0.5 -15.5t-11.5 -23.5t-12 -10q-78 38 -154 38q-85 0 -145.5 -36t-73.5 -116l-57 -359q-7 -44 4.5 -74.5t38.5 -46t58 -21.5t72 -6q94 0 164 32q3 1 6 -3.5t5 -11.5t3.5 -14.5t1 -13.5t-2.5 -7q-29 -13 -84 -22t-100 -9q-120 0 -179 51.5t-43 152.5l56 352
q16 103 87.5 152t184.5 49q51 0 101.5 -11t79.5 -27zM381 958q20 0 23 -6l45 -98l78 98q4 6 27 6h9t8 -0.5t6.5 -2t-0.5 -3.5l-101 -124q-5 -6 -31 -6t-29 6l-60 124q-1 2 1 3.5t7 2t8.5 0.5h8.5z" />
    <glyph glyph-name="ccaron" unicode="&#x10d;" horiz-adv-x="480" 
d="M264 -12q-85 0 -134 54t-36 141l28 175q15 95 74.5 145t156.5 50q87 0 155 -56q5 -6 0.5 -17.5t-14.5 -21.5t-14 -6l-6 6q-6 5 -11 8.5t-14 10t-18.5 10.5t-21.5 8.5t-26.5 7t-29.5 2.5q-154 0 -178 -156l-25 -157q-12 -76 22 -116t103 -40t149 54q6 4 14 -5t10.5 -19.5
t-1.5 -15.5q-74 -62 -183 -62zM304 758q20 0 23 -6l45 -98l78 98q4 6 27 6h8.5t8.5 -0.5t6.5 -2t-0.5 -3.5l-101 -124q-5 -6 -31 -6t-29 6l-60 124q-1 2 1 3.5t7 2t8 0.5h9z" />
    <glyph glyph-name="Dcaron" unicode="&#x10e;" horiz-adv-x="648" 
d="M641 528l-53 -333q-16 -104 -75.5 -149.5t-177.5 -45.5h-236l116 733h238q111 0 156.5 -56.5t31.5 -148.5zM531 195l53 334q25 154 -147 154h-173l-101 -633h169q97 0 142 33t57 112zM368 958q20 0 23 -6l45 -98l78 98q4 6 27 6h8.5t8.5 -0.5t6.5 -2t-0.5 -3.5l-101 -124
q-5 -6 -31 -6t-29 6l-60 124q-1 2 1 3.5t7 2t8 0.5h9z" />
    <glyph glyph-name="dcaron" unicode="&#x10f;" horiz-adv-x="718" 
d="M61 163l33 194q31 196 216 196q59 0 97 -28t48 -52l41 258q1 6 27 6h8.5t8.5 -0.5t7 -2t2 -3.5l-116 -729q-1 -6 -28 -6h-8.5t-8 0.5t-6.5 2t-2 3.5l26 163q-33 -52 -44 -66q-85 -111 -177 -111q-70 0 -103 50.5t-21 124.5zM146 348l-29 -181q-11 -66 11 -98.5t69 -32.5
q52 0 106 57.5t117 168.5l16 98q10 58 -26 101.5t-94 43.5q-144 0 -170 -157zM632 539q-12 11 -5 18q36 35 49 68t27 120q1 6 28 6h8.5t8.5 -0.5t7 -2t2 -3.5q-12 -77 -37.5 -126t-68.5 -85q-8 -6 -19 5z" />
    <glyph glyph-name="Dcroat" unicode="&#x110;" horiz-adv-x="648" 
d="M82 351q-7 0 -2 24q2 24 10 24h72l53 334h227q230 0 199 -205l-53 -333q-16 -102 -68.5 -148.5t-166.5 -46.5h-254l55 351h-72zM531 195l53 334q25 154 -147 154h-173l-45 -284h165q4 0 2 -24q-5 -24 -10 -24h-165l-48 -301h182q84 0 129 34t57 111z" />
    <glyph glyph-name="dcroat" unicode="&#x111;" horiz-adv-x="559" 
d="M315 603q-7 0 -2 24q2 24 9 24h161l13 80q1 6 27 6h8.5t8.5 -0.5t7 -2t2 -3.5l-13 -80h83q5 0 3 -24q-5 -24 -10 -24h-84l-95 -601q-1 -6 -28 -6h-8.5t-8 0.5t-6.5 2t-2 3.5l26 163q-33 -52 -44 -66q-85 -111 -177 -111q-70 0 -103 50.5t-21 124.5l33 194q31 196 216 196
q59 0 97 -28t48 -52l20 130h-160zM420 262l16 98q10 58 -26 101.5t-94 43.5q-144 0 -170 -157l-29 -181q-11 -66 11 -98.5t69 -32.5q52 0 106 57.5t117 168.5z" />
    <glyph glyph-name="Emacron" unicode="&#x112;" horiz-adv-x="510" 
d="M464 26q-5 -26 -10 -26h-355l116 733h353q6 0 1 -26q-3 -25 -9 -25h-296l-44 -274h259q7 0 2 -25q-3 -25 -10 -25h-259l-48 -307h298q4 0 2 -25zM314 861q-6 0 -6 24t6 24h221q6 0 6 -24t-6 -24h-221z" />
    <glyph glyph-name="emacron" unicode="&#x113;" horiz-adv-x="534" 
d="M493 364q-13 -56 -49.5 -92t-86.5 -49t-110.5 -18t-121.5 1l-6 -38q-9 -64 29 -98.5t114 -34.5q79 0 167 45q5 4 13 -5.5t10.5 -20.5t-1.5 -15q-86 -51 -196 -51q-105 0 -154 55t-32 154l26 157q34 199 230 199q95 0 141 -51.5t27 -137.5zM444 376q12 58 -20 94t-103 36
q-65 0 -112 -38.5t-60 -119.5l-16 -99q157 -7 226.5 21.5t84.5 105.5zM246 661q-6 0 -6 24t6 24h221q6 0 6 -24t-6 -24h-221z" />
    <glyph glyph-name="Edotaccent" unicode="&#x116;" horiz-adv-x="510" 
d="M464 26q-5 -26 -10 -26h-355l116 733h353q6 0 1 -26q-3 -25 -9 -25h-296l-44 -274h259q7 0 2 -25q-3 -25 -10 -25h-259l-48 -307h298q4 0 2 -25zM407 850q-41 0 -40 11l11 66q1 11 44 11t42 -11l-11 -66q-1 -11 -46 -11z" />
    <glyph glyph-name="edotaccent" unicode="&#x117;" horiz-adv-x="534" 
d="M493 364q-13 -56 -49.5 -92t-86.5 -49t-110.5 -18t-121.5 1l-6 -38q-9 -64 29 -98.5t114 -34.5q79 0 167 45q5 4 13 -5.5t10.5 -20.5t-1.5 -15q-86 -51 -196 -51q-105 0 -154 55t-32 154l26 157q34 199 230 199q95 0 141 -51.5t27 -137.5zM444 376q12 58 -20 94t-103 36
q-65 0 -112 -38.5t-60 -119.5l-16 -99q157 -7 226.5 21.5t84.5 105.5zM329 650q-41 0 -40 11l11 66q1 11 44 11t42 -11l-11 -66q-1 -11 -46 -11z" />
    <glyph glyph-name="Eogonek" unicode="&#x118;" horiz-adv-x="510" 
d="M406 0h-307l116 733h353q6 0 1 -26q-3 -25 -9 -25h-296l-44 -274h259q7 0 2 -25q-3 -25 -10 -25h-259l-48 -307h298q4 0 2 -25q-5 -26 -10 -26q-48 -20 -90.5 -53.5t-47.5 -71.5q-6 -53 49 -53q15 0 36 7.5t24 10.5q4 2 10 -6t7.5 -16t-2.5 -11q-38 -23 -85 -23
q-40 0 -66.5 23.5t-18.5 71.5q10 65 129 118q5 2 7 3z" />
    <glyph glyph-name="eogonek" unicode="&#x119;" horiz-adv-x="534" 
d="M493 364q-13 -56 -49.5 -92t-86.5 -49t-110.5 -18t-121.5 1l-6 -38q-7 -64 29.5 -98.5t113.5 -34.5q79 0 167 45q5 4 13 -5.5t10.5 -20.5t-1.5 -15q-9 -6 -51.5 -21.5t-79 -31t-70 -45.5t-37.5 -66q-6 -53 49 -53q15 0 36 7.5t24 10.5q4 2 10 -6t7.5 -16t-2.5 -11
q-38 -23 -85 -23q-40 0 -66.5 23.5t-18.5 71.5q10 62 111 110q-8 -1 -23 -1q-105 0 -154 55t-32 154l26 157q34 199 230 199q95 0 141 -51.5t27 -137.5zM444 376q12 58 -20 94t-103 36q-65 0 -112 -38.5t-60 -119.5q-3 -17 -8 -49.5t-8 -49.5q157 -7 226.5 21.5t84.5 105.5z
" />
    <glyph glyph-name="Ecaron" unicode="&#x11a;" horiz-adv-x="510" 
d="M464 26q-5 -26 -10 -26h-355l116 733h353q6 0 1 -26q-3 -25 -9 -25h-296l-44 -274h259q7 0 2 -25q-3 -25 -10 -25h-259l-48 -307h298q4 0 2 -25zM341 958q20 0 23 -6l45 -98l78 98q4 6 27 6h9t8 -0.5t6.5 -2t-0.5 -3.5l-101 -124q-5 -6 -31 -6t-29 6l-60 124q-1 2 1 3.5
t7 2t8.5 0.5h8.5z" />
    <glyph glyph-name="ecaron" unicode="&#x11b;" horiz-adv-x="534" 
d="M493 364q-13 -56 -49.5 -92t-86.5 -49t-110.5 -18t-121.5 1l-6 -38q-9 -64 29 -98.5t114 -34.5q79 0 167 45q5 4 13 -5.5t10.5 -20.5t-1.5 -15q-86 -51 -196 -51q-105 0 -154 55t-32 154l26 157q34 199 230 199q95 0 141 -51.5t27 -137.5zM444 376q12 58 -20 94t-103 36
q-65 0 -112 -38.5t-60 -119.5l-16 -99q157 -7 226.5 21.5t84.5 105.5zM271 758q20 0 23 -6l45 -98l78 98q4 6 27 6h9t8 -0.5t6.5 -2t-0.5 -3.5l-101 -124q-5 -6 -31 -6t-29 6l-60 124q-1 2 1 3.5t7 2t8.5 0.5h8.5z" />
    <glyph glyph-name="Gbreve" unicode="&#x11e;" horiz-adv-x="662" 
d="M554 188l23 146h-144q-6 0 -1 26q3 26 10 26h201l-32 -198q-16 -102 -88 -151t-188 -49q-110 0 -170 55.5t-45 151.5l56 349q16 105 87 153t197 48q43 0 92.5 -11.5t77.5 -26.5q4 -4 0.5 -15.5t-11.5 -23.5t-12 -10q-74 36 -156 36q-32 0 -63 -6t-65.5 -20.5t-58.5 -45.5
t-31 -75l-56 -355q-6 -37 2.5 -65.5t25.5 -45t42 -26.5t48 -13.5t48 -3.5q32 0 61.5 6t63 20.5t56.5 46t30 77.5zM576 952q-8 -48 -43 -81t-83 -33q-43 0 -69.5 33.5t-19.5 80.5q0 4 24 4q12 0 12 -2v-2q-6 -33 10.5 -55t46.5 -22q32 0 55 23.5t28 53.5q0 5 18 5q21 0 21 -5
z" />
    <glyph glyph-name="gbreve" unicode="&#x11f;" horiz-adv-x="557" 
d="M565 502l-72 -455q-18 -131 -70.5 -197.5t-164.5 -66.5q-40 0 -78.5 10t-55.5 18.5t-25 14.5q-5 7 -1.5 18t12 21t12.5 7q57 -42 141 -42q34 0 61 9q85 29 105 149l29 177l-4 -7q-4 -7 -8.5 -14.5t-12.5 -20t-17 -24.5t-20.5 -25.5t-24 -25.5t-27 -23t-29.5 -19
t-32.5 -13t-34.5 -5q-76 0 -111 45.5t-24 120.5l32 203q15 95 73.5 145.5t149.5 50.5q50 0 99 -12.5t73 -25.5zM473 262l33 209q-60 33 -138 33q-96 0 -136 -72q-29 -51 -52 -205q-2 -13 -6 -41q-4 -24 -6 -37q-8 -51 12.5 -82t66.5 -31q43 0 92.5 45t81 91.5t52.5 89.5z
M521 752q-8 -48 -43 -81t-83 -33q-43 0 -69.5 33.5t-19.5 80.5q0 4 24 4q12 0 12 -2v-2q-6 -33 10.5 -55t46.5 -22q32 0 55 23.5t28 53.5q0 5 18 5q21 0 21 -5z" />
    <glyph glyph-name="Gcommaaccent" unicode="&#x122;" horiz-adv-x="662" 
d="M554 188l23 146h-144q-6 0 -1 26q3 26 10 26h201l-32 -198q-16 -102 -88 -151t-188 -49q-110 0 -170 55.5t-45 151.5l56 349q16 105 87 153t197 48q43 0 92.5 -11.5t77.5 -26.5q4 -4 0.5 -15.5t-11.5 -23.5t-12 -10q-74 36 -156 36q-32 0 -63 -6t-65.5 -20.5t-58.5 -45.5
t-31 -75l-56 -355q-6 -37 2.5 -65.5t25.5 -45t42 -26.5t48 -13.5t48 -3.5q32 0 61.5 6t63 20.5t56.5 46t30 77.5zM224 -267q-12 11 -5 18q36 35 49 68t27 120q1 6 28 6h8.5t8.5 -0.5t7 -2t2 -3.5q-12 -77 -37.5 -126t-68.5 -85q-8 -6 -19 5z" />
    <glyph glyph-name="gcommaaccent" unicode="&#x123;" horiz-adv-x="557" 
d="M565 502l-72 -455q-18 -131 -70.5 -197.5t-164.5 -66.5q-40 0 -78.5 10t-55.5 18.5t-25 14.5q-5 7 -1.5 18t12 21t12.5 7q57 -42 141 -42q34 0 61 9q85 29 105 149l29 177l-4 -7q-4 -7 -8.5 -14.5t-12.5 -20t-17 -24.5t-20.5 -25.5t-24 -25.5t-27 -23t-29.5 -19
t-32.5 -13t-34.5 -5q-76 0 -111 45.5t-24 120.5l32 203q15 95 73.5 145.5t149.5 50.5q50 0 99 -12.5t73 -25.5zM473 262l33 209q-60 33 -138 33q-96 0 -136 -72q-29 -51 -52 -205q-2 -13 -6 -41q-4 -24 -6 -37q-8 -51 12.5 -82t66.5 -31q43 0 92.5 45t81 91.5t52.5 89.5z
M488 838q12 -11 5 -18q-36 -35 -49 -68t-27 -120q-1 -6 -28 -6h-8.5t-8.5 0.5t-7 2t-2 3.5q12 77 37.5 126t68.5 85q8 6 19 -5z" />
    <glyph glyph-name="Itilde" unicode="&#x128;" horiz-adv-x="263" 
d="M165 2q-1 -6 -30 -6q-28 0 -27 6l115 729q1 6 29 6q29 0 28 -6zM414 901q-10 -27 -34 -47t-52 -20t-63 24.5t-50 24.5q-33 0 -57 -40q-1 -3 -9 2t-14.5 12t-5.5 10q8 21 31.5 40.5t51.5 19.5q29 0 64 -24.5t52 -24.5q37 0 57 45q2 4 10 -0.5t14 -11.5t5 -10z" />
    <glyph glyph-name="itilde" unicode="&#x129;" horiz-adv-x="230" 
d="M114 -4h-8.5t-8.5 0.5t-7 2t-2 3.5l85 538q1 6 28 6h8.5t8.5 -0.5t7 -2t2 -3.5l-85 -538q-1 -6 -28 -6zM358 701q-10 -27 -34 -47t-52 -20t-63 24.5t-50 24.5q-33 0 -57 -40q-1 -3 -9 2t-14.5 12t-5.5 10q8 21 31.5 40.5t51.5 19.5q29 0 64 -24.5t52 -24.5q37 0 57 45
q2 4 10 -0.5t14 -11.5t5 -10z" />
    <glyph glyph-name="uni012A" unicode="&#x12a;" horiz-adv-x="263" 
d="M165 2q-1 -6 -30 -6q-28 0 -27 6l115 729q1 6 29 6q29 0 28 -6zM155 861q-6 0 -6 24t6 24h221q6 0 6 -24t-6 -24h-221z" />
    <glyph glyph-name="imacron" unicode="&#x12b;" horiz-adv-x="230" 
d="M114 -4h-8.5t-8.5 0.5t-7 2t-2 3.5l85 538q1 6 28 6h8.5t8.5 -0.5t7 -2t2 -3.5l-85 -538q-1 -6 -28 -6zM104 661q-6 0 -6 24t6 24h221q6 0 6 -24t-6 -24h-221z" />
    <glyph glyph-name="Iogonek" unicode="&#x12e;" horiz-adv-x="263" 
d="M165 2q-1 -2 -8 -4q-47 -20 -87 -53t-44 -70q-6 -53 49 -53q15 0 36 7.5t24 10.5q4 2 10 -6t7.5 -16t-2.5 -11q-38 -23 -85 -23q-40 0 -66.5 23.5t-18.5 71.5q4 23 18 43t39.5 36.5t37 22t36.5 17.5q-4 2 -3 4l115 729q1 6 29 6q29 0 28 -6z" />
    <glyph glyph-name="iogonek" unicode="&#x12f;" horiz-adv-x="230" 
d="M142 2q-2 -5 -11 -5q-47 -21 -86 -53.5t-43 -68.5q-6 -53 49 -53q15 0 36 7.5t24 10.5q4 2 10 -6t7.5 -16t-2.5 -11q-38 -23 -85 -23q-40 0 -66.5 23.5t-18.5 71.5q3 19 15.5 37t25 29.5t34.5 24.5t30.5 17t27.5 12q-1 1 -1 3l85 538q1 6 28 6h8.5t8.5 -0.5t7 -2t2 -3.5z
M214 631h-8.5t-8.5 0.5t-7 2t-2 3.5q3 18 8.5 53.5t8.5 52.5q1 6 28 6h11q7 0 11.5 -1.5t3.5 -4.5q-3 -17 -8.5 -52.5t-8.5 -53.5q-1 -6 -28 -6z" />
    <glyph glyph-name="Idotaccent" unicode="&#x130;" horiz-adv-x="263" 
d="M165 2q-1 -6 -30 -6q-28 0 -27 6l115 729q1 6 29 6q29 0 28 -6zM268 850q-41 0 -40 11l11 66q1 11 44 11t42 -11l-11 -66q-1 -11 -46 -11z" />
    <glyph glyph-name="dotlessi" unicode="&#x131;" horiz-adv-x="230" 
d="M112 -4h-8.5t-8.5 0.5t-7 2t-2 3.5l85 538q1 6 28 6h8.5t8.5 -0.5t7 -2t2 -3.5l-85 -538q-1 -6 -28 -6z" />
    <glyph glyph-name="Kcommaaccent" unicode="&#x136;" horiz-adv-x="557" 
d="M199 271l-43 -269q-1 -6 -30 -6q-28 0 -27 6l115 729q1 6 31 6h8.5t8.5 -0.5t7 -2t2 -3.5l-59 -379l357 379q6 6 36 6h10.5t12 -0.5t10.5 -2t1 -3.5l-313 -332l206 -397q1 -2 -2.5 -3.5t-11 -2t-12 -0.5h-10.5q-25 0 -29 6l-183 356zM194 -267q-12 11 -5 18q36 35 49 68
t27 120q1 6 28 6h8.5t8.5 -0.5t7 -2t2 -3.5q-12 -77 -37.5 -126t-68.5 -85q-8 -6 -19 5z" />
    <glyph glyph-name="kcommaaccent" unicode="&#x137;" horiz-adv-x="462" 
d="M521 539l-262 -249l187 -288q1 -2 -2.5 -3.5t-11 -2t-12 -0.5h-10.5q-24 0 -27 6l-165 253l-42 -36l-34 -217q-1 -6 -29 -6h-8.5t-8 0.5t-6.5 2t-2 3.5l117 741q1 6 28 6h8.5t8.5 -0.5t7 -2t2 -3.5l-72 -453l263 250q6 6 33 6q40 -1 38 -7zM154 -267q-12 11 -5 18
q36 35 49 68t27 120q1 6 28 6h8.5t8.5 -0.5t7 -2t2 -3.5q-12 -77 -37.5 -126t-68.5 -85q-8 -6 -19 5z" />
    <glyph glyph-name="kgreenlandic" unicode="&#x138;" horiz-adv-x="462" 
d="M521 539l-262 -249l187 -288q1 -2 -2.5 -3.5t-11 -2t-12 -0.5h-10.5q-24 0 -27 6l-165 253l-42 -36l-34 -217q-1 -6 -29 -6h-8.5t-8 0.5t-6.5 2t-2 3.5l87 541q1 6 28 6h8.5t8.5 -0.5t7 -2t2 -3.5l-42 -253l263 250q6 6 33 6q40 -1 38 -7z" />
    <glyph glyph-name="Lacute" unicode="&#x139;" horiz-adv-x="481" 
d="M480 27q-5 -27 -10 -27h-371l115 731q1 6 29 6q29 0 28 -6l-107 -677h314q5 0 2 -27zM413 943l-123 -137q-5 -6 -25 -6t-20 4q0 2 2 4l111 141q5 6 30 6q27 0 28 -6q0 -3 -3 -6z" />
    <glyph glyph-name="lacute" unicode="&#x13a;" horiz-adv-x="258" 
d="M230 0h-41q-47 0 -71 29t-16 74l101 640q1 6 28 6h8.5t8.5 -0.5t7 -2t2 -3.5l-101 -638q-5 -31 8 -45t46 -14h27q5 0 6 -3.5t-1 -18.5q-2 -16 -4.5 -20t-7.5 -4zM382 943l-123 -137q-5 -6 -25 -6t-20 4q0 2 2 4l111 141q5 6 30 6q27 0 28 -6q0 -3 -3 -6z" />
    <glyph glyph-name="Lcommaaccent" unicode="&#x13b;" horiz-adv-x="481" 
d="M480 27q-5 -27 -10 -27h-371l115 731q1 6 29 6q29 0 28 -6l-107 -677h314q5 0 2 -27zM184 -267q-12 11 -5 18q36 35 49 68t27 120q1 6 28 6h8.5t8.5 -0.5t7 -2t2 -3.5q-12 -77 -37.5 -126t-68.5 -85q-8 -6 -19 5z" />
    <glyph glyph-name="lcommaaccent" unicode="&#x13c;" horiz-adv-x="258" 
d="M230 0h-41q-47 0 -71 29t-16 74l101 640q1 6 28 6h8.5t8.5 -0.5t7 -2t2 -3.5l-101 -638q-5 -31 8 -45t46 -14h27q5 0 6 -3.5t-1 -18.5q-2 -16 -4.5 -20t-7.5 -4zM44 -267q-12 11 -5 18q36 35 49 68t27 120q1 6 28 6h8.5t8.5 -0.5t7 -2t2 -3.5q-12 -77 -37.5 -126
t-68.5 -85q-8 -6 -19 5z" />
    <glyph glyph-name="Lcaron" unicode="&#x13d;" horiz-adv-x="481" 
d="M480 27q-5 -27 -10 -27h-371l115 731q1 6 29 6q29 0 28 -6l-107 -677h314q5 0 2 -27zM314 519q-12 11 -5 18q36 35 49 68t27 120q1 6 28 6h8.5t8.5 -0.5t7 -2t2 -3.5q-12 -77 -37.5 -126t-68.5 -85q-8 -6 -19 5z" />
    <glyph glyph-name="lcaron" unicode="&#x13e;" horiz-adv-x="258" 
d="M230 0h-41q-47 0 -71 29t-16 74l101 640q1 6 28 6h8.5t8.5 -0.5t7 -2t2 -3.5l-101 -638q-5 -31 8 -45t46 -14h27q5 0 6 -3.5t-1 -18.5q-2 -16 -4.5 -20t-7.5 -4zM304 539q-12 11 -5 18q36 35 49 68t27 120q1 6 28 6h8.5t8.5 -0.5t7 -2t2 -3.5q-12 -77 -37.5 -126
t-68.5 -85q-8 -6 -19 5z" />
    <glyph glyph-name="Lslash" unicode="&#x141;" horiz-adv-x="485" 
d="M160 364l58 367q1 6 29 6q29 0 28 -6l-53 -337l127 67q3 2 8.5 -7.5t8 -19.5t-0.5 -13l-151 -80l-47 -292h314q7 0 2 -25q-4 -24 -9 -24h-371l49 311l-66 -34q-3 -2 -9 7.5t-8 19.5t1 13z" />
    <glyph glyph-name="lslash" unicode="&#x142;" horiz-adv-x="226" 
d="M139 2q-1 -6 -28 -6h-8.5t-8.5 0.5t-7 2t-2 3.5l48 307l-77 -39q-3 -2 -9 7.5t-8 19.5t1 13l102 52l58 369q1 6 28 6h8.5t8.5 -0.5t7 -2t2 -3.5l-53 -339l81 42q4 2 9.5 -7.5t8 -19.5t-0.5 -13l-107 -55z" />
    <glyph glyph-name="Nacute" unicode="&#x143;" horiz-adv-x="689" 
d="M590 2q-1 -6 -44 -6q-35 0 -37 6l-148 400l-100 271h-1q-13 -100 -29.5 -210t-40 -251.5t-34.5 -209.5q-1 -6 -29 -6q-29 0 -28 6l115 729q1 6 44 6q41 0 43 -6l136 -375l107 -292h1q23 160 103 667q1 6 29 6h9.5t9 -0.5t7.5 -2t2 -3.5zM494 806q-5 -6 -25 -6t-20 4
q0 2 2 4l97 123l5 7.5t5 6.5t6 5t11 4t17 1q27 0 28 -6q0 -3 -3 -6z" />
    <glyph glyph-name="nacute" unicode="&#x144;" 
d="M472 2q-1 -6 -28 -6h-8.5t-8.5 0.5t-7 2t-2 3.5l58 367q20 130 -83 130q-47 0 -98.5 -36t-93.5 -86l-59 -375q-1 -6 -28 -6h-8.5t-8.5 0.5t-7 2t-2 3.5l85 538q1 6 28 6h8.5t8 -0.5t6.5 -2t2 -3.5l-15 -97q94 110 202 110q61 0 96.5 -45t24.5 -115zM509 743l-123 -137
q-5 -6 -25 -6t-20 4q0 2 2 4l111 141q5 6 30 6q27 0 28 -6q0 -3 -3 -6z" />
    <glyph glyph-name="Ncommaaccent" unicode="&#x145;" horiz-adv-x="689" 
d="M590 2q-1 -6 -44 -6q-35 0 -37 6l-148 400l-100 271h-1q-13 -100 -29.5 -210t-40 -251.5t-34.5 -209.5q-1 -6 -29 -6q-29 0 -28 6l115 729q1 6 44 6q41 0 43 -6l136 -375l107 -292h1q23 160 103 667q1 6 29 6h9.5t9 -0.5t7.5 -2t2 -3.5zM234 -267q-12 11 -5 18
q36 35 49 68t27 120q1 6 28 6h8.5t8.5 -0.5t7 -2t2 -3.5q-12 -77 -37.5 -126t-68.5 -85q-8 -6 -19 5z" />
    <glyph glyph-name="ncommaaccent" unicode="&#x146;" 
d="M472 2q-1 -6 -28 -6h-8.5t-8.5 0.5t-7 2t-2 3.5l58 367q20 130 -83 130q-47 0 -98.5 -36t-93.5 -86l-59 -375q-1 -6 -28 -6h-8.5t-8.5 0.5t-7 2t-2 3.5l85 538q1 6 28 6h8.5t8 -0.5t6.5 -2t2 -3.5l-15 -97q94 110 202 110q61 0 96.5 -45t24.5 -115zM174 -267
q-12 11 -5 18q36 35 49 68t27 120q1 6 28 6h8.5t8.5 -0.5t7 -2t2 -3.5q-12 -77 -37.5 -126t-68.5 -85q-8 -6 -19 5z" />
    <glyph glyph-name="Ncaron" unicode="&#x147;" horiz-adv-x="689" 
d="M590 2q-1 -6 -44 -6q-35 0 -37 6l-148 400l-100 271h-1q-13 -100 -29.5 -210t-40 -251.5t-34.5 -209.5q-1 -6 -29 -6q-29 0 -28 6l115 729q1 6 44 6q41 0 43 -6l136 -375l107 -292h1q23 160 103 667q1 6 29 6h9.5t9 -0.5t7.5 -2t2 -3.5zM418 958q20 0 23 -6l45 -98l78 98
q4 6 27 6h8.5t8.5 -0.5t6.5 -2t-0.5 -3.5l-88 -109q-8 -10 -11 -13t-11 -5.5t-22 -2.5q-26 0 -29 6l-60 124q-1 2 1 3.5t7 2t8 0.5h9z" />
    <glyph glyph-name="ncaron" unicode="&#x148;" 
d="M472 2q-1 -6 -28 -6h-8.5t-8.5 0.5t-7 2t-2 3.5l58 367q20 130 -83 130q-47 0 -98.5 -36t-93.5 -86l-59 -375q-1 -6 -28 -6h-8.5t-8.5 0.5t-7 2t-2 3.5l85 538q1 6 28 6h8.5t8 -0.5t6.5 -2t2 -3.5l-15 -97q94 110 202 110q61 0 96.5 -45t24.5 -115zM310 758q20 0 23 -6
l45 -98l78 98q4 6 27 6h8.5t8.5 -0.5t6.5 -2t-0.5 -3.5l-101 -124q-5 -6 -31 -6t-29 6l-60 124q-1 2 1 3.5t7 2t8 0.5h9z" />
    <glyph glyph-name="Eng" unicode="&#x14a;" horiz-adv-x="689" 
d="M705 731l-115 -729q-15 -92 -51 -131t-114 -39h-51q-7 0 -2 26q2 25 10 25h54q26 0 43 7.5t27 26.5t14.5 33.5t10.5 45.5q-21 2 -22 6l-248 671h-1q-12 -94 -36 -245l-68 -426q-1 -6 -29 -6q-29 0 -28 6l115 729q1 6 44 6q41 0 43 -6l243 -667h1q23 160 103 667q1 6 29 6
h9.5t9 -0.5t7.5 -2t2 -3.5z" />
    <glyph glyph-name="eng" unicode="&#x14b;" 
d="M349 -204h-57q-3 0 -3.5 8t1.5 15q2 23 9 23h40q33 0 45.5 17.5t20.5 67.5l71 442q20 130 -83 130q-47 0 -98.5 -36t-93.5 -86l-59 -375q-1 -6 -28 -6h-8.5t-8.5 0.5t-7 2t-2 3.5l85 538q1 6 28 6h8.5t8 -0.5t6.5 -2t2 -3.5l-15 -97q94 110 202 110q62 0 96.5 -45
t24.5 -115q-32 -208 -64 -393q-2 -11 -6 -40.5t-6 -40t-7 -33.5t-10 -31.5t-13.5 -23t-19 -20t-25.5 -10.5t-34 -5z" />
    <glyph glyph-name="Omacron" unicode="&#x14c;" horiz-adv-x="677" 
d="M616 184q-14 -100 -88 -148t-188 -48q-117 0 -176 52t-44 149q11 68 30 192.5t26 165.5q16 100 88.5 149t183.5 49q120 0 180 -51.5t44 -155.5q-11 -67 -30.5 -191t-25.5 -163zM559 184l57 363q12 76 -33.5 112t-134.5 36q-191 0 -215 -148l-46 -290q-2 -12 -5.5 -36.5
t-5.5 -36.5q-12 -75 33 -111t134 -36t146.5 36t69.5 111zM367 861q-6 0 -6 24t6 24h221q6 0 6 -24t-6 -24h-221z" />
    <glyph glyph-name="omacron" unicode="&#x14d;" horiz-adv-x="548" 
d="M273 -12q-96 0 -145 51.5t-35 143.5l28 175q31 195 237 195q98 0 146.5 -54t34.5 -141l-28 -175q-14 -95 -74.5 -145t-163.5 -50zM484 349q25 155 -132 155q-154 0 -178 -155l-25 -157q-25 -156 129 -156q157 0 181 156zM273 661q-6 0 -6 24t6 24h221q6 0 6 -24t-6 -24
h-221z" />
    <glyph glyph-name="Ohungarumlaut" unicode="&#x150;" horiz-adv-x="677" 
d="M616 184q-14 -100 -88 -148t-188 -48q-117 0 -176 52t-44 149q11 68 30 192.5t26 165.5q16 100 88.5 149t183.5 49q120 0 180 -51.5t44 -155.5q-11 -67 -30.5 -191t-25.5 -163zM559 184l57 363q12 76 -33.5 112t-134.5 36q-191 0 -215 -148l-46 -290q-2 -12 -5.5 -36.5
t-5.5 -36.5q-12 -75 33 -111t134 -36t146.5 36t69.5 111zM553 807q-6 -6 -26 -6t-20 4q0 2 2 4l97 123l5 7.5t5 6.5t6 5t11 4t17 1q28 0 28 -6q0 -3 -3 -6zM404 807q-6 -6 -26 -6t-20 4q0 2 2 4l97 123l5 7.5t5 6.5t6 5t11 4t17 1q28 0 28 -6q0 -3 -3 -6z" />
    <glyph glyph-name="ohungarumlaut" unicode="&#x151;" horiz-adv-x="548" 
d="M273 -12q-96 0 -145 51.5t-35 143.5l28 175q31 195 237 195q98 0 146.5 -54t34.5 -141l-28 -175q-14 -95 -74.5 -145t-163.5 -50zM484 349q25 155 -132 155q-154 0 -178 -155l-25 -157q-25 -156 129 -156q157 0 181 156zM571 744l-122 -137q-6 -6 -26 -6t-20 4q0 2 2 4
l111 141q5 6 30 6q28 0 28 -6q0 -3 -3 -6zM422 744l-122 -137q-6 -6 -26 -6t-20 4q0 2 2 4l111 141q5 6 30 6q28 0 28 -6q0 -3 -3 -6z" />
    <glyph glyph-name="OE" unicode="&#x152;" horiz-adv-x="982" 
d="M550 55q-2 -3 -6 -7.5t-21 -16t-38.5 -20.5t-59.5 -16t-83 -7q-117 0 -177 53t-43 162l54 344q16 101 89.5 149.5t188.5 48.5q64 0 113 -16.5t65 -32.5l17 -16l9 53h364q4 0 2 -25q-5 -24 -10 -24h-307l-44 -277h257q7 0 2 -24q-2 -24 -10 -24h-257l-49 -310h322
q7 0 2 -24q-2 -25 -9 -25h-379zM571 184l57 363q12 78 -39.5 113.5t-134.5 35.5q-34 0 -65 -5.5t-65.5 -20.5t-59 -46.5t-31.5 -76.5l-57 -363q-7 -45 7 -76.5t44 -45.5t59 -19.5t63 -5.5q39 0 73 7t66 22.5t54 45.5t29 72z" />
    <glyph glyph-name="oe" unicode="&#x153;" horiz-adv-x="906" 
d="M278 -12q-99 0 -146.5 52t-33.5 143l28 176q31 195 236 195q139 0 174 -89q70 89 181 89q93 0 141.5 -56.5t33.5 -154.5l-16 -99h-350l-8 -52q-11 -74 21 -114.5t108 -40.5q85 0 171 43q4 2 11 -9t9.5 -21.5t-2.5 -15.5q-89 -46 -192 -46q-132 0 -171 87
q-64 -87 -195 -87zM490 358q19 147 -133 147q-154 0 -178 -155l-25 -158q-25 -156 129 -156q152 0 179 147zM829 288l10 60q12 77 -24.5 118t-101.5 41q-61 0 -108 -39t-61 -110l-11 -70h296z" />
    <glyph glyph-name="Racute" unicode="&#x154;" horiz-adv-x="589" 
d="M432 303l97 -301q1 -2 -2.5 -3.5t-10.5 -2t-11.5 -0.5h-10.5q-25 0 -27 6l-90 291h-171l-46 -291q-1 -6 -30 -6t-28 6l116 731h201q108 0 150 -53.5t28 -140.5l-8 -49q-13 -79 -48.5 -124t-108.5 -63zM532 489l8 50q12 76 -19.5 110.5t-114.5 34.5h-138l-54 -342h138
q83 0 125.5 35t54.5 112zM557 943l-123 -137q-5 -6 -25 -6t-20 4q0 2 2 4l111 141q5 6 30 6q27 0 28 -6q0 -3 -3 -6z" />
    <glyph glyph-name="racute" unicode="&#x155;" horiz-adv-x="327" 
d="M386 488h-32q-32 0 -67.5 -29t-88.5 -95l-57 -362q-1 -6 -28 -6h-8.5t-8 0.5t-6.5 2t-2 3.5l85 538q1 6 27 6h8t7.5 -0.5t6.5 -2t2 -3.5l-19 -121q58 72 93.5 98.5t78.5 26.5h20q7 0 1 -29q-5 -27 -12 -27zM436 743l-123 -137q-5 -6 -25 -6t-20 4q0 2 2 4l111 141
q5 6 30 6q27 0 28 -6q0 -3 -3 -6z" />
    <glyph glyph-name="Rcommaaccent" unicode="&#x156;" horiz-adv-x="589" 
d="M432 303l97 -301q1 -2 -2.5 -3.5t-10.5 -2t-11.5 -0.5h-10.5q-25 0 -27 6l-90 291h-171l-46 -291q-1 -6 -30 -6t-28 6l116 731h201q108 0 150 -53.5t28 -140.5l-8 -49q-13 -79 -48.5 -124t-108.5 -63zM532 489l8 50q12 76 -19.5 110.5t-114.5 34.5h-138l-54 -342h138
q83 0 125.5 35t54.5 112zM194 -267q-12 11 -5 18q36 35 49 68t27 120q1 6 28 6h8.5t8.5 -0.5t7 -2t2 -3.5q-12 -77 -37.5 -126t-68.5 -85q-8 -6 -19 5z" />
    <glyph glyph-name="rcommaaccent" unicode="&#x157;" horiz-adv-x="327" 
d="M386 488h-32q-32 0 -67.5 -29t-88.5 -95l-57 -362q-1 -6 -28 -6h-8.5t-8 0.5t-6.5 2t-2 3.5l85 538q1 6 27 6h8t7.5 -0.5t6.5 -2t2 -3.5l-19 -121q58 72 93.5 98.5t78.5 26.5h20q7 0 1 -29q-5 -27 -12 -27zM8 -267q-12 11 -5 18q36 35 49 68t27 120q1 6 28 6h8.5
t8.5 -0.5t7 -2t2 -3.5q-12 -77 -37.5 -126t-68.5 -85q-8 -6 -19 5z" />
    <glyph glyph-name="Rcaron" unicode="&#x158;" horiz-adv-x="589" 
d="M432 303l97 -301q1 -2 -2.5 -3.5t-10.5 -2t-11.5 -0.5h-10.5q-25 0 -27 6l-90 291h-171l-46 -291q-1 -6 -30 -6t-28 6l116 731h201q108 0 150 -53.5t28 -140.5l-8 -49q-13 -79 -48.5 -124t-108.5 -63zM532 489l8 50q12 76 -19.5 110.5t-114.5 34.5h-138l-54 -342h138
q83 0 125.5 35t54.5 112zM348 958q20 0 23 -6l45 -98l78 98q4 6 27 6h8.5t8.5 -0.5t6.5 -2t-0.5 -3.5l-101 -124q-5 -6 -31 -6t-29 6l-60 124q-1 2 1 3.5t7 2t8 0.5h9z" />
    <glyph glyph-name="rcaron" unicode="&#x159;" horiz-adv-x="327" 
d="M386 488h-32q-32 0 -67.5 -29t-88.5 -95l-57 -362q-1 -6 -28 -6h-8.5t-8 0.5t-6.5 2t-2 3.5l85 538q1 6 27 6h8t7.5 -0.5t6.5 -2t2 -3.5l-19 -121q58 72 93.5 98.5t78.5 26.5h20q7 0 1 -29q-5 -27 -12 -27zM237 758q20 0 23 -6l45 -98l78 98q4 6 27 6h9t8 -0.5t6.5 -2
t-0.5 -3.5l-101 -124q-5 -6 -31 -6t-29 6l-60 124q-1 2 1 3.5t7 2t8.5 0.5h8.5z" />
    <glyph glyph-name="Sacute" unicode="&#x15a;" horiz-adv-x="535" 
d="M514 186q-14 -90 -86.5 -144t-177.5 -54q-108 0 -196 70q-4 3 2 16.5t15.5 24.5t12.5 9q30 -26 77.5 -46.5t95.5 -20.5q77 0 131.5 41t65.5 111q5 32 -1.5 56t-28 43.5t-39 30t-54.5 29.5q-17 9 -25 13q-32 17 -49 27t-42.5 30.5t-37.5 40.5t-19 50.5t-2 66.5
q12 73 74.5 119t158.5 46q91 0 169 -45q4 -2 0 -15.5t-12 -24.5t-12 -8q-62 41 -149 41q-69 0 -116 -32t-56 -91q-5 -29 3 -52t29.5 -41t38.5 -28.5t47 -25.5q11 -5 16 -8q32 -17 53.5 -29.5t48 -34.5t41 -44t22.5 -53.5t2 -67.5zM530 943l-123 -137q-5 -6 -25 -6t-20 4
q0 2 2 4l111 141q5 6 30 6q27 0 28 -6q0 -3 -3 -6z" />
    <glyph glyph-name="sacute" unicode="&#x15b;" horiz-adv-x="425" 
d="M203 -12q-37 0 -80 12t-69 29q-3 2 2 14.5t13.5 23t11.5 8.5q62 -39 125 -39q56 0 96 31.5t45 74.5q5 40 -19 70t-60.5 48.5t-72 38.5t-57 52t-13.5 76q10 55 58.5 90.5t123.5 35.5q76 0 124 -23q4 -4 1 -15t-9.5 -22t-9.5 -10q-59 22 -114 22q-50 0 -82.5 -24t-39.5 -60
q-5 -26 11 -47t43 -34.5t59 -32t59 -38t42 -54t9 -78.5q-8 -58 -62 -103.5t-135 -45.5zM445 743l-123 -137q-5 -6 -25 -6t-20 4q0 2 2 4l111 141q5 6 30 6q27 0 28 -6q0 -3 -3 -6z" />
    <glyph glyph-name="Scedilla" unicode="&#x15e;" horiz-adv-x="535" 
d="M236 -199q-43 0 -79 27q-3 2 0 10.5t9 15t10 3.5q30 -22 60 -22q53 0 60 39l2 12q4 23 -15.5 31t-58.5 5l10 67q-103 6 -180 69q-4 3 2 16.5t15.5 24.5t12.5 9q30 -26 77.5 -46.5t95.5 -20.5q77 0 131.5 41t65.5 111q5 32 -1.5 56t-28 43.5t-39 30t-54.5 29.5
q-17 9 -25 13q-32 17 -49 27t-42.5 30.5t-37.5 40.5t-19 50.5t-2 66.5q12 73 74.5 119t158.5 46q91 0 169 -45q4 -2 0 -15.5t-12 -24.5t-12 -8q-62 41 -149 41q-69 0 -116 -32t-56 -91q-5 -29 3 -52t29.5 -41t38.5 -28.5t47 -25.5q11 -5 16 -8q32 -17 53.5 -29.5t48 -34.5
t41 -44t22.5 -53.5t2 -67.5q-13 -85 -79 -138t-163 -59l-5 -37q38 -1 57 -18.5t15 -43.5l-3 -22q-6 -30 -31.5 -48.5t-68.5 -18.5z" />
    <glyph glyph-name="scedilla" unicode="&#x15f;" horiz-adv-x="425" 
d="M181 -199q-43 0 -79 27q-3 2 0 10.5t9 15t10 3.5q30 -22 60 -22q53 0 60 39l2 12q4 23 -15.5 31t-58.5 5l10 67q-77 9 -125 40q-3 2 2 14.5t13.5 23t11.5 8.5q62 -39 125 -39q56 0 96 31.5t45 74.5q5 40 -19 70t-60.5 48.5t-72 38.5t-57 52t-13.5 76q10 55 58.5 90.5
t123.5 35.5q76 0 124 -23q4 -4 1 -15t-9.5 -22t-9.5 -10q-59 22 -114 22q-50 0 -82.5 -24t-39.5 -60q-5 -26 11 -47t43 -34.5t59 -32t59 -38t42 -54t9 -78.5q-8 -56 -58 -100t-125 -48l-5 -37q38 -1 57 -18.5t15 -43.5l-3 -22q-6 -30 -31.5 -48.5t-68.5 -18.5z" />
    <glyph glyph-name="Scaron" unicode="&#x160;" horiz-adv-x="530" 
d="M519 186q-14 -90 -86.5 -144t-177.5 -54q-108 0 -196 70q-4 3 2 16.5t15.5 24.5t12.5 9q30 -26 77.5 -46.5t95.5 -20.5q77 0 131.5 41t65.5 111q5 32 -1.5 56t-28 43.5t-39 30t-54.5 29.5q-17 9 -25 13q-32 17 -49 27t-42.5 30.5t-37.5 40.5t-19 50.5t-2 66.5
q12 73 74.5 119t158.5 46q91 0 169 -45q4 -2 0 -15.5t-12 -24.5t-12 -8q-61 41 -149 41q-69 0 -116 -32t-56 -91q-5 -29 3 -52t29.5 -41t38.5 -28.5t47 -25.5q11 -5 16 -8q32 -17 53.5 -29.5t48 -34.5t41 -44t22.5 -53.5t2 -67.5zM337 958q20 0 23 -6l45 -98l78 98q4 6 27 6
h9t8 -0.5t6.5 -2t-0.5 -3.5l-101 -124q-5 -6 -31 -6t-29 6l-60 124q-1 2 1 3.5t7 2t8.5 0.5h8.5z" />
    <glyph glyph-name="scaron" unicode="&#x161;" horiz-adv-x="435" 
d="M208 -12q-37 0 -80 12t-69 29q-3 2 2 14.5t13.5 23t11.5 8.5q62 -39 125 -39q56 0 96 31.5t45 74.5q5 40 -19 70t-60.5 48.5t-72 38.5t-57 52t-13.5 76q10 55 58.5 90.5t123.5 35.5q76 0 124 -23q4 -4 1 -15t-9.5 -22t-9.5 -10q-59 22 -114 22q-50 0 -82.5 -24t-39.5 -60
q-5 -26 11 -47t43 -34.5t59 -32t59 -38t42 -54t9 -78.5q-8 -58 -62 -103.5t-135 -45.5zM251 758q20 0 23 -6l45 -98l78 98q4 6 27 6h9t8 -0.5t6.5 -2t-0.5 -3.5l-101 -124q-5 -6 -31 -6t-29 6l-60 124q-1 2 1 3.5t7 2t8.5 0.5h8.5z" />
    <glyph glyph-name="Tcommaaccent" unicode="&#x162;" horiz-adv-x="489" 
d="M596 709q-5 -25 -10 -25h-202l-108 -682q-1 -6 -29 -6q-29 0 -28 6l108 682h-208q-7 0 -2 25q2 24 10 24h467q4 0 2 -24zM139 -267q-12 11 -5 18q36 35 49 68t27 120q1 6 28 6h8.5t8.5 -0.5t7 -2t2 -3.5q-12 -77 -37.5 -126t-68.5 -85q-8 -6 -19 5z" />
    <glyph glyph-name="tcommaaccent" unicode="&#x163;" horiz-adv-x="337" 
d="M279 0h-68q-48 0 -71.5 29t-15.5 74l60 379h-76q-6 0 -4 22q5 23 11 23h76l21 131q1 6 28 6h8.5t8.5 -0.5t7 -2t2 -3.5l-21 -131h118q6 0 2 -23q-4 -22 -9 -22h-118l-60 -377q-5 -31 7.5 -44.5t45.5 -13.5h55q6 0 7 -3.5t-2 -18.5q-3 -25 -12 -25zM94 -267q-12 11 -5 18
q36 35 49 68t27 120q1 6 28 6h8.5t8.5 -0.5t7 -2t2 -3.5q-12 -77 -37.5 -126t-68.5 -85q-8 -6 -19 5z" />
    <glyph glyph-name="Tcaron" unicode="&#x164;" horiz-adv-x="489" 
d="M596 709q-5 -25 -10 -25h-202l-108 -682q-1 -6 -29 -6q-29 0 -28 6l108 682h-208q-7 0 -2 25q2 24 10 24h467q4 0 2 -24zM313 958q20 0 23 -6l45 -98l78 98q4 6 27 6h9t8 -0.5t6.5 -2t-0.5 -3.5l-101 -124q-5 -6 -31 -6t-29 6l-60 124q-1 2 1 3.5t7 2t8.5 0.5h8.5z" />
    <glyph glyph-name="tcaron" unicode="&#x165;" horiz-adv-x="539" 
d="M279 0h-68q-48 0 -71.5 29t-15.5 74l60 379h-76q-6 0 -4 22q5 23 11 23h76l21 131q1 6 28 6h8.5t8.5 -0.5t7 -2t2 -3.5l-21 -131h118q6 0 2 -23q-4 -22 -9 -22h-118l-60 -377q-5 -31 7.5 -44.5t45.5 -13.5h55q6 0 7 -3.5t-2 -18.5q-3 -25 -12 -25zM414 539q-12 11 -5 18
q36 35 49 68t27 120q1 6 28 6h8.5t8.5 -0.5t7 -2t2 -3.5q-12 -77 -37.5 -126t-68.5 -85q-8 -6 -19 5z" />
    <glyph glyph-name="Tbar" unicode="&#x166;" horiz-adv-x="489" 
d="M596 709q-5 -25 -10 -25h-202l-26 -162h201q2 0 3.5 -1.5t1.5 -4.5t-0.5 -5.5t-1 -6.5t-0.5 -6q-5 -24 -10 -24h-201l-75 -472q-1 -6 -29 -6q-29 0 -28 6l74 472h-209q-7 0 -2 24q2 24 9 24h210l26 162h-208q-7 0 -2 25q2 24 10 24h467q4 0 2 -24z" />
    <glyph glyph-name="tbar" unicode="&#x167;" horiz-adv-x="337" 
d="M92 356q-7 0 -2 24q2 24 9 24h72l13 78h-76q-6 0 -4 22q5 23 11 23h76l21 131q1 6 28 6h8.5t8.5 -0.5t7 -2t2 -3.5l-21 -131h118q6 0 2 -23q-4 -22 -9 -22h-118l-13 -78h116q2 0 3.5 -1.5t1.5 -4.5t-0.5 -5.5t-1 -6.5t-0.5 -6q-5 -24 -10 -24h-116l-40 -251
q-5 -31 7.5 -44.5t45.5 -13.5h55q6 0 7 -3.5t-2 -18.5q-3 -25 -12 -25h-68q-48 0 -71.5 29t-15.5 74l40 253h-72z" />
    <glyph glyph-name="Utilde" unicode="&#x168;" horiz-adv-x="645" 
d="M668 731l-86 -543q-14 -90 -76.5 -145t-186.5 -55q-110 0 -161 57.5t-37 142.5l86 543q1 6 30 6q28 0 27 -6l-87 -548q-11 -70 26.5 -108t122.5 -38q86 0 137 38t62 108l87 548q1 6 28 6q29 0 28 -6zM595 901q-10 -27 -34 -47t-52 -20t-63 24.5t-50 24.5q-33 0 -57 -40
q-1 -3 -9 2t-14.5 12t-5.5 10q8 21 31.5 40.5t51.5 19.5q29 0 64 -24.5t52 -24.5q37 0 57 45q2 4 10 -0.5t14 -11.5t5 -10z" />
    <glyph glyph-name="utilde" unicode="&#x169;" 
d="M165 540q1 6 28 6h8.5t8.5 -0.5t7 -2t2 -3.5l-60 -378q-9 -58 13.5 -89.5t66.5 -31.5q20 0 42 7t40.5 17.5t36.5 24t32 26.5t24.5 24t15.5 18l6 6l59 376q1 6 28 6h8.5t8.5 -0.5t7 -2t2 -3.5l-85 -538q-1 -6 -28 -6h-8.5t-8 0.5t-6.5 2t-2 3.5l15 97q-42 -49 -93.5 -80
t-100.5 -31q-65 0 -102.5 45t-26.5 115zM519 701q-10 -27 -34 -47t-52 -20t-63 24.5t-50 24.5q-33 0 -57 -40q-1 -3 -9 2t-14.5 12t-5.5 10q8 21 31.5 40.5t51.5 19.5q29 0 64 -24.5t52 -24.5q37 0 57 45q2 4 10 -0.5t14 -11.5t5 -10z" />
    <glyph glyph-name="Umacron" unicode="&#x16a;" horiz-adv-x="645" 
d="M668 731l-86 -543q-14 -90 -76.5 -145t-186.5 -55q-110 0 -161 57.5t-37 142.5l86 543q1 6 30 6q28 0 27 -6l-87 -548q-11 -70 26.5 -108t122.5 -38q86 0 137 38t62 108l87 548q1 6 28 6q29 0 28 -6zM341 861q-6 0 -6 24t6 24h221q6 0 6 -24t-6 -24h-221z" />
    <glyph glyph-name="umacron" unicode="&#x16b;" 
d="M165 540q1 6 28 6h8.5t8.5 -0.5t7 -2t2 -3.5l-60 -378q-9 -58 13.5 -89.5t66.5 -31.5q20 0 42 7t40.5 17.5t36.5 24t32 26.5t24.5 24t15.5 18l6 6l59 376q1 6 28 6h8.5t8.5 -0.5t7 -2t2 -3.5l-85 -538q-1 -6 -28 -6h-8.5t-8 0.5t-6.5 2t-2 3.5l15 97q-42 -49 -93.5 -80
t-100.5 -31q-65 0 -102.5 45t-26.5 115zM265 661q-6 0 -6 24t6 24h221q6 0 6 -24t-6 -24h-221z" />
    <glyph glyph-name="Uring" unicode="&#x16e;" horiz-adv-x="645" 
d="M668 731l-86 -543q-14 -90 -76.5 -145t-186.5 -55q-110 0 -161 57.5t-37 142.5l86 543q1 6 30 6q28 0 27 -6l-87 -548q-11 -70 26.5 -108t122.5 -38q86 0 137 38t62 108l87 548q1 6 28 6q29 0 28 -6zM536 889q-5 -32 -29.5 -53.5t-56.5 -21.5q-34 0 -53.5 23t-14.5 57
q5 30 30 52t56 22q33 0 53 -23t15 -56zM500 887q4 20 -6 33t-29 13q-17 0 -31 -12t-16 -27q-4 -20 5.5 -32.5t28.5 -12.5q17 0 31.5 11.5t16.5 26.5z" />
    <glyph glyph-name="uring" unicode="&#x16f;" 
d="M165 540q1 6 28 6h8.5t8.5 -0.5t7 -2t2 -3.5l-60 -378q-9 -58 13.5 -89.5t66.5 -31.5q20 0 42 7t40.5 17.5t36.5 24t32 26.5t24.5 24t15.5 18l6 6l59 376q1 6 28 6h8.5t8.5 -0.5t7 -2t2 -3.5l-85 -538q-1 -6 -28 -6h-8.5t-8 0.5t-6.5 2t-2 3.5l15 97q-42 -49 -93.5 -80
t-100.5 -31q-65 0 -102.5 45t-26.5 115zM453 689q-5 -32 -29.5 -53.5t-56.5 -21.5q-34 0 -53.5 23t-14.5 57q5 30 30 52t56 22q33 0 53 -23t15 -56zM417 687q4 20 -6 33t-29 13q-17 0 -31 -12t-16 -27q-4 -20 5.5 -32.5t28.5 -12.5q17 0 31.5 11.5t16.5 26.5z" />
    <glyph glyph-name="Uhungarumlaut" unicode="&#x170;" horiz-adv-x="645" 
d="M668 731l-86 -543q-14 -90 -76.5 -145t-186.5 -55q-110 0 -161 57.5t-37 142.5l86 543q1 6 30 6q28 0 27 -6l-87 -548q-11 -70 26.5 -108t122.5 -38q86 0 137 38t62 108l87 548q1 6 28 6q29 0 28 -6zM649 944l-122 -137q-6 -6 -26 -6t-20 4q0 2 2 4l111 141q5 6 30 6
q28 0 28 -6q0 -3 -3 -6zM500 944l-122 -137q-6 -6 -26 -6t-20 4q0 2 2 4l111 141q5 6 30 6q28 0 28 -6q0 -3 -3 -6z" />
    <glyph glyph-name="uhungarumlaut" unicode="&#x171;" 
d="M165 540q1 6 28 6h8.5t8.5 -0.5t7 -2t2 -3.5l-60 -378q-9 -58 13.5 -89.5t66.5 -31.5q20 0 42 7t40.5 17.5t36.5 24t32 26.5t24.5 24t15.5 18l6 6l59 376q1 6 28 6h8.5t8.5 -0.5t7 -2t2 -3.5l-85 -538q-1 -6 -28 -6h-8.5t-8 0.5t-6.5 2t-2 3.5l15 97q-42 -49 -93.5 -80
t-100.5 -31q-65 0 -102.5 45t-26.5 115zM563 744l-122 -137q-6 -6 -26 -6t-20 4q0 2 2 4l111 141q5 6 30 6q28 0 28 -6q0 -3 -3 -6zM414 744l-122 -137q-6 -6 -26 -6t-20 4q0 2 2 4l111 141q5 6 30 6q28 0 28 -6q0 -3 -3 -6z" />
    <glyph glyph-name="Uogonek" unicode="&#x172;" horiz-adv-x="645" 
d="M668 731l-86 -543q-25 -152 -165 -188q-48 -20 -90 -53.5t-47 -71.5q-6 -53 49 -53q15 0 36 7.5t24 10.5q4 2 10 -6t7.5 -16t-2.5 -11q-38 -23 -85 -23q-40 0 -66.5 23.5t-18.5 71.5q10 61 110 110q-8 -1 -25 -1q-110 0 -161 57.5t-37 142.5l86 543q1 6 30 6q28 0 27 -6
l-87 -548q-12 -70 26 -108t123 -38q86 0 137 38t62 108l87 548q1 6 28 6q29 0 28 -6z" />
    <glyph glyph-name="uogonek" unicode="&#x173;" 
d="M165 540q1 6 28 6h8.5t8.5 -0.5t7 -2t2 -3.5l-60 -378q-9 -58 13.5 -89.5t66.5 -31.5q20 0 42 7t40.5 17.5t36.5 24t32 26.5t24.5 24t15.5 18l6 6l59 376q1 6 28 6h8.5t8.5 -0.5t7 -2t2 -3.5l-85 -538q-2 -5 -12 -5q-47 -21 -86 -53.5t-43 -68.5q-6 -53 49 -53
q15 0 36 7.5t24 10.5q4 2 10 -6t7.5 -16t-2.5 -11q-38 -23 -85 -23q-40 0 -66.5 23.5t-18.5 71.5q4 24 19 44.5t41.5 37t38 22.5t36.5 17q-1 0 -1 2l15 97q-42 -49 -93.5 -80t-100.5 -31q-65 0 -102.5 45t-26.5 115z" />
    <glyph glyph-name="Ydieresis" unicode="&#x178;" horiz-adv-x="535" 
d="M629 730l-287 -418l-49 -310q-1 -6 -29 -6q-29 0 -28 6l49 309l-149 419q-1 2 2.5 3.5t9 2t10 1t9.5 0.5q28 0 30 -7l124 -366l246 366q5 7 36 7h9.5t9 -0.5t7.5 -2.5t0 -4zM314 826q-28 0 -27 7l14 93q1 7 30 7q4 0 8.5 -0.5t8.5 -1t6.5 -2t2.5 -3.5l-14 -93
q-1 -7 -29 -7zM477 826q-28 0 -27 7l14 93q1 7 30 7q4 0 8.5 -0.5t8.5 -1t6.5 -2t2.5 -3.5l-14 -93q-1 -7 -29 -7z" />
    <glyph glyph-name="Zacute" unicode="&#x179;" horiz-adv-x="534" 
d="M502 25q-2 -25 -9 -25h-458l5 32l482 649h-363q-6 0 -1 27q2 25 10 25h438l-6 -34l-479 -647h380q6 0 1 -27zM530 943l-123 -137q-5 -6 -25 -6t-20 4q0 2 2 4l111 141q5 6 30 6q27 0 28 -6q0 -3 -3 -6z" />
    <glyph glyph-name="zacute" unicode="&#x17a;" horiz-adv-x="430" 
d="M36 28l356 463h-264q-7 0 -2 24t10 24h340l-5 -28l-357 -463h295q7 0 2 -24q-2 -24 -9 -24h-370zM458 743l-123 -137q-5 -6 -25 -6t-20 4q0 2 2 4l111 141q5 6 30 6q27 0 28 -6q0 -3 -3 -6z" />
    <glyph glyph-name="Zdotaccent" unicode="&#x17b;" horiz-adv-x="534" 
d="M502 25q-2 -25 -9 -25h-458l5 32l482 649h-363q-6 0 -1 27q2 25 10 25h438l-6 -34l-479 -647h380q6 0 1 -27zM389 850q-41 0 -40 11l11 66q1 11 44 11t42 -11l-11 -66q-1 -11 -46 -11z" />
    <glyph glyph-name="zdotaccent" unicode="&#x17c;" horiz-adv-x="430" 
d="M36 28l356 463h-264q-7 0 -2 24t10 24h340l-5 -28l-357 -463h295q7 0 2 -24q-2 -24 -9 -24h-370zM317 650q-41 0 -40 11l11 66q1 11 44 11t42 -11l-11 -66q-1 -11 -46 -11z" />
    <glyph glyph-name="Zcaron" unicode="&#x17d;" horiz-adv-x="534" 
d="M502 25q-2 -25 -9 -25h-458l5 32l482 649h-363q-6 0 -1 27q2 25 10 25h438l-6 -34l-479 -647h380q6 0 1 -27zM332 958q20 0 23 -6l45 -98l78 98q4 6 27 6h8.5t8.5 -0.5t6.5 -2t-0.5 -3.5l-101 -124q-5 -6 -31 -6t-29 6l-60 124q-1 2 1 3.5t7 2t8 0.5h9z" />
    <glyph glyph-name="zcaron" unicode="&#x17e;" horiz-adv-x="450" 
d="M42 28l356 463h-264q-7 0 -2 24t10 24h340l-5 -28l-357 -463h295q7 0 2 -24q-2 -24 -9 -24h-370zM259 758q20 0 23 -6l45 -98l78 98q4 6 27 6h9t8 -0.5t6.5 -2t-0.5 -3.5l-101 -124q-5 -6 -31 -6t-29 6l-60 124q-1 2 1 3.5t7 2t8.5 0.5h8.5z" />
    <glyph glyph-name="florin" unicode="&#x192;" horiz-adv-x="300" 
d="M164 -20q0 -47 -28.5 -76.5t-77.5 -29.5h-56q-6 0 -6 24q0 23 6 23h48q30 0 45 16t14 38v519h-74q-6 0 -6 23q0 22 6 22h74v96q0 50 28.5 80t77.5 30h56q6 0 6 -24q0 -23 -6 -23h-48q-60 0 -60 -73v-86h92q6 0 6 -22q0 -23 -6 -23h-91v-514z" />
    <glyph glyph-name="Scommaaccent" unicode="&#x218;" horiz-adv-x="535" 
d="M514 186q-14 -90 -86.5 -144t-177.5 -54q-108 0 -196 70q-4 3 2 16.5t15.5 24.5t12.5 9q30 -26 77.5 -46.5t95.5 -20.5q77 0 131.5 41t65.5 111q5 32 -1.5 56t-28 43.5t-39 30t-54.5 29.5q-17 9 -25 13q-32 17 -49 27t-42.5 30.5t-37.5 40.5t-19 50.5t-2 66.5
q12 73 74.5 119t158.5 46q91 0 169 -45q4 -2 0 -15.5t-12 -24.5t-12 -8q-62 41 -149 41q-69 0 -116 -32t-56 -91q-5 -29 3 -52t29.5 -41t38.5 -28.5t47 -25.5q11 -5 16 -8q32 -17 53.5 -29.5t48 -34.5t41 -44t22.5 -53.5t2 -67.5zM144 -267q-12 11 -5 18q36 35 49 68t27 120
q1 6 28 6h8.5t8.5 -0.5t7 -2t2 -3.5q-12 -77 -37.5 -126t-68.5 -85q-8 -6 -19 5z" />
    <glyph glyph-name="scommaaccent" unicode="&#x219;" horiz-adv-x="425" 
d="M203 -12q-37 0 -80 12t-69 29q-3 2 2 14.5t13.5 23t11.5 8.5q62 -39 125 -39q56 0 96 31.5t45 74.5q5 40 -19 70t-60.5 48.5t-72 38.5t-57 52t-13.5 76q10 55 58.5 90.5t123.5 35.5q76 0 124 -23q4 -4 1 -15t-9.5 -22t-9.5 -10q-59 22 -114 22q-50 0 -82.5 -24t-39.5 -60
q-5 -26 11 -47t43 -34.5t59 -32t59 -38t42 -54t9 -78.5q-8 -58 -62 -103.5t-135 -45.5zM104 -267q-12 11 -5 18q36 35 49 68t27 120q1 6 28 6h8.5t8.5 -0.5t7 -2t2 -3.5q-12 -77 -37.5 -126t-68.5 -85q-8 -6 -19 5z" />
    <glyph glyph-name="uni021A" unicode="&#x21a;" horiz-adv-x="489" 
d="M596 709q-5 -25 -10 -25h-202l-108 -682q-1 -6 -29 -6q-29 0 -28 6l108 682h-208q-7 0 -2 25q2 24 10 24h467q4 0 2 -24zM139 -267q-12 11 -5 18q36 35 49 68t27 120q1 6 28 6h8.5t8.5 -0.5t7 -2t2 -3.5q-12 -77 -37.5 -126t-68.5 -85q-8 -6 -19 5z" />
    <glyph glyph-name="uni021B" unicode="&#x21b;" horiz-adv-x="337" 
d="M279 0h-68q-48 0 -71.5 29t-15.5 74l60 379h-76q-6 0 -4 22q5 23 11 23h76l21 131q1 6 28 6h8.5t8.5 -0.5t7 -2t2 -3.5l-21 -131h118q6 0 2 -23q-4 -22 -9 -22h-118l-60 -377q-5 -31 7.5 -44.5t45.5 -13.5h55q6 0 7 -3.5t-2 -18.5q-3 -25 -12 -25zM94 -267q-12 11 -5 18
q36 35 49 68t27 120q1 6 28 6h8.5t8.5 -0.5t7 -2t2 -3.5q-12 -77 -37.5 -126t-68.5 -85q-8 -6 -19 5z" />
    <glyph glyph-name="circumflex" unicode="&#x2c6;" horiz-adv-x="480" 
d="M458 618q-21 0 -24 6l-45 98l-78 -98q-4 -6 -26 -6h-8.5t-8.5 0.5t-6.5 2t0.5 3.5l101 124q5 6 31 6t29 -6l60 -124q1 -2 -1 -3.5t-7 -2t-8 -0.5h-9z" />
    <glyph glyph-name="caron" unicode="&#x2c7;" horiz-adv-x="480" 
d="M308 758q20 0 23 -6l45 -98l78 98q4 6 27 6h8.5t8.5 -0.5t6.5 -2t-0.5 -3.5l-101 -124q-5 -6 -31 -6t-29 6l-60 124q-1 2 1 3.5t7 2t8 0.5h9z" />
    <glyph glyph-name="breve" unicode="&#x2d8;" horiz-adv-x="480" 
d="M498 752q-8 -48 -43 -81t-83 -33q-43 0 -69.5 33.5t-19.5 80.5q0 4 24 4q12 0 12 -2v-2q-6 -33 10.5 -55t46.5 -22q32 0 55 23.5t28 53.5q0 5 18 5q21 0 21 -5z" />
    <glyph glyph-name="dotaccent" unicode="&#x2d9;" horiz-adv-x="480" 
d="M355 650q-41 0 -40 11l11 66q1 11 44 11t42 -11l-11 -66q-1 -11 -46 -11z" />
    <glyph glyph-name="ring" unicode="&#x2da;" horiz-adv-x="548" 
d="M461 689q-5 -32 -29.5 -53.5t-56.5 -21.5q-34 0 -53.5 23t-14.5 57q5 30 30 52t56 22q33 0 53 -23t15 -56zM425 687q4 20 -6 33t-29 13q-17 0 -31 -12t-16 -27q-4 -20 5.5 -32.5t28.5 -12.5q17 0 31.5 11.5t16.5 26.5z" />
    <glyph glyph-name="ogonek" unicode="&#x2db;" horiz-adv-x="480" 
d="M270 16h48q-48 -20 -90.5 -53.5t-47.5 -71.5q-6 -53 49 -53q15 0 36 7.5t24 10.5q4 2 10 -6t7.5 -16t-2.5 -11q-38 -23 -85 -23q-40 0 -66.5 23.5t-18.5 71.5q10 65 129 118q5 2 7 3z" />
    <glyph glyph-name="tilde" unicode="&#x2dc;" horiz-adv-x="480" 
d="M484 701q-10 -27 -34 -47t-52 -20t-63 24.5t-50 24.5q-33 0 -57 -40q-1 -3 -9 2t-14.5 12t-5.5 10q8 21 31.5 40.5t51.5 19.5q29 0 64 -24.5t52 -24.5q37 0 57 45q2 4 10 -0.5t14 -11.5t5 -10z" />
    <glyph glyph-name="hungarumlaut" unicode="&#x2dd;" horiz-adv-x="558" 
d="M605 744l-122 -137q-6 -6 -26 -6t-20 4q0 2 2 4l111 141q5 6 30 6q28 0 28 -6q0 -3 -3 -6zM456 744l-122 -137q-6 -6 -26 -6t-20 4q0 2 2 4l111 141q5 6 30 6q28 0 28 -6q0 -3 -3 -6z" />
    <glyph glyph-name="pi" unicode="&#x3c0;" horiz-adv-x="780" 
d="M572 495v-405q0 -46 40 -46h75q6 0 6 -22t-6 -22h-86q-46 0 -64.5 25t-18.5 71v399h-186v-493q0 -6 -27 -6t-27 6v493h-98q-6 0 -6 23q0 25 6 25h497q6 0 6 -24t-6 -24h-105z" />
    <glyph glyph-name="endash" unicode="&#x2013;" horiz-adv-x="581" 
d="M127 264q-4 0 -2 24q5 24 10 24h409q7 0 2 -24q-2 -24 -10 -24h-409z" />
    <glyph glyph-name="emdash" unicode="&#x2014;" horiz-adv-x="1081" 
d="M127 264q-4 0 -2 24q5 24 10 24h909q7 0 2 -24q-2 -24 -10 -24h-909z" />
    <glyph glyph-name="afii00208" unicode="&#x2015;" horiz-adv-x="1081" 
d="M127 264q-4 0 -2 24q5 24 10 24h909q7 0 2 -24q-2 -24 -10 -24h-909z" />
    <glyph glyph-name="quoteleft" unicode="&#x2018;" horiz-adv-x="225" 
d="M274 749q12 -11 5 -18q-36 -35 -49 -68t-27 -120q-1 -6 -28 -6h-8.5t-8.5 0.5t-7 2t-2 3.5q12 77 37.5 126t68.5 85q8 6 19 -5z" />
    <glyph glyph-name="quoteright" unicode="&#x2019;" horiz-adv-x="225" 
d="M154 539q-12 11 -5 18q36 35 49 68t27 120q1 6 28 6h8.5t8.5 -0.5t7 -2t2 -3.5q-12 -77 -37.5 -126t-68.5 -85q-8 -6 -19 5z" />
    <glyph glyph-name="quotesinglbase" unicode="&#x201a;" horiz-adv-x="227" 
d="M56 -97q-12 11 -5 18q36 35 49 68t27 120q1 6 28 6h8.5t8.5 -0.5t7 -2t2 -3.5q-12 -77 -37.5 -126t-68.5 -85q-8 -6 -19 5z" />
    <glyph glyph-name="quotedblleft" unicode="&#x201c;" horiz-adv-x="369" 
d="M417 749q12 -11 5 -18q-36 -34 -48.5 -67t-26.5 -121q-1 -6 -28 -6h-8.5t-8.5 0.5t-7 2t-2 3.5q21 141 105 211q8 6 19 -5zM273 749q12 -11 5 -18q-36 -34 -48.5 -67t-26.5 -121q-1 -6 -28 -6h-8.5t-8.5 0.5t-7 2t-2 3.5q21 141 105 211q8 6 19 -5z" />
    <glyph glyph-name="quotedblright" unicode="&#x201d;" horiz-adv-x="366" 
d="M152 524q-12 10 -5 18q36 34 49 67t27 121q1 6 28 6h8.5t8.5 -0.5t7 -2t2 -3.5q-12 -77 -37 -126t-68 -85q-9 -6 -20 5zM296 524q-12 10 -5 18q36 34 49 67t27 121q1 6 28 6h8.5t8.5 -0.5t7 -2t2 -3.5q-12 -77 -37 -126t-68 -85q-9 -6 -20 5z" />
    <glyph glyph-name="quotedblbase" unicode="&#x201e;" horiz-adv-x="389" 
d="M54 -97q-12 11 -5 18q36 35 49 68t27 120q1 6 28 6h8.5t8.5 -0.5t7 -2t2 -3.5q-12 -77 -37.5 -126t-68.5 -85q-8 -6 -19 5zM198 -97q-12 11 -5 18q36 35 49 68t27 120q1 6 28 6h8.5t8.5 -0.5t7 -2t2 -3.5q-12 -77 -37.5 -126t-68.5 -85q-8 -6 -19 5z" />
    <glyph glyph-name="dagger" unicode="&#x2020;" horiz-adv-x="531" 
d="M519 504l-146 10l-57 -315q-1 -5 -20 -5q-18 0 -17 5l44 315l-150 -10q-5 -1 -3 20q1 2 2 11l2 10t2.5 10t4 7.5t4.5 2.5l143 -11l25 174q1 9 30 9q7 0 13 -0.5t10 -3t4 -5.5l-30 -174l148 11q7 0 2 -30q-4 -31 -11 -31z" />
    <glyph glyph-name="daggerdbl" unicode="&#x2021;" horiz-adv-x="531" 
d="M491 353l-151 11l-31 -185q-1 -6 -17 -6h-5.5t-4 0.5t-3.5 2t-1 3.5l26 185l-154 -11q-6 0 -1 31q1 6 2 10.5t2 9.5t3 7.5t4 2.5l150 -11l14 112l-149 -11q-2 0 -3 2t-1 6t0.5 7.5t1.5 8.5t1 7q6 31 11 31l145 -12l22 177q1 6 30 6q28 0 27 -6l-34 -177l150 12q7 0 1 -31
q-3 -31 -11 -31l-147 11l-21 -112l154 11q4 -3 3.5 -11t-2.5 -19q-3 -31 -11 -31z" />
    <glyph glyph-name="bullet" unicode="&#x2022;" horiz-adv-x="464" 
d="M177 318q7 43 42 73.5t78 30.5t69 -30.5t19 -73.5t-42.5 -73.5t-78.5 -30.5t-68.5 30.5t-18.5 73.5z" />
    <glyph glyph-name="ellipsis" unicode="&#x2026;" horiz-adv-x="612" 
d="M107 -4q-28 0 -27 6l19 119q1 6 29 6t27 -6l-19 -119q-1 -6 -29 -6zM305 -4q-28 0 -27 6l19 119q1 6 29 6t27 -6l-19 -119q-1 -6 -29 -6zM503 -4q-28 0 -27 6l19 119q1 6 29 6t27 -6l-19 -119q-1 -6 -29 -6z" />
    <glyph glyph-name="perthousand" unicode="&#x2030;" horiz-adv-x="969" 
d="M199 380q-57 0 -84.5 30t-18.5 87l22 138q17 102 137 102q58 0 86 -29.5t19 -89.5l-22 -138q-16 -100 -139 -100zM670 731l-493 -725q-3 -6 -31 -6h-10t-10.5 0.5t-9 2t-1.5 3.5l493 725q4 6 32 6h10t10 -0.5t8.5 -2t1.5 -3.5zM526 -16q-57 0 -84 29.5t-17 87.5l23 151
q17 102 138 102q55 0 83 -31t20 -82l-24 -155q-15 -102 -139 -102zM308 635q5 33 -11.5 45.5t-48.5 12.5q-67 0 -77 -58l-24 -155q-5 -33 11 -44.5t48 -11.5q69 0 78 56zM637 252q6 33 -11 45.5t-48 12.5q-68 0 -78 -58l-26 -166q-5 -33 11.5 -45t47.5 -12q70 0 78 57z
M824 -16q-57 0 -84 29.5t-17 87.5l23 151q17 102 138 102q55 0 83 -31t20 -82l-24 -155q-15 -102 -139 -102zM935 252q6 33 -11 45.5t-48 12.5q-68 0 -78 -58l-26 -166q-5 -33 11.5 -45t47.5 -12q70 0 78 57z" />
    <glyph glyph-name="guilsinglleft" unicode="&#x2039;" horiz-adv-x="369" 
d="M112 316l196 229q2 3 14 -4t22 -16.5t7 -12.5l-169 -196l107 -195q2 -3 -11 -13t-27.5 -16.5t-15.5 -3.5z" />
    <glyph glyph-name="guilsinglright" unicode="&#x203a;" horiz-adv-x="369" 
d="M232 545l124 -229l-197 -228q-2 -3 -14 3.5t-21.5 16t-6.5 13.5l169 195l-107 196q-1 3 11.5 13t26.5 16.5t15 3.5z" />
    <glyph glyph-name="fraction" unicode="&#x2044;" horiz-adv-x="468" 
d="M498 731l-376 -729q-3 -6 -28 -6h-9.5t-9 0.5t-8 2t-1.5 3.5l376 729q3 6 28 6h9.5t9 -0.5t8 -2t1.5 -3.5z" />
    <glyph glyph-name="Euro" unicode="&#x20ac;" horiz-adv-x="637" 
d="M676 707q4 -4 0.5 -15.5t-11.5 -23.5t-12 -10q-78 38 -155 38q-195 0 -219 -152l-15 -91h235q5 0 3 -23q-5 -23 -10 -23h-235l-15 -93h235q5 0 3 -23q-5 -23 -10 -23h-235l-13 -83q-7 -44 4 -74.5t38 -46t58 -21.5t71 -6q92 0 162 32q3 1 6 -3.5t5 -11.5t3.5 -14.5
t1 -13.5t-2.5 -7q-29 -13 -83 -22t-99 -9q-118 0 -177.5 51t-41.5 164l11 65h-67q-7 0 -2 23q2 23 9 23h67l15 93h-67q-7 0 -2 23q2 23 9 23h67l15 91q16 106 86 153.5t198 47.5q43 0 92.5 -11.5t77.5 -26.5z" />
    <glyph glyph-name="trademark" unicode="&#x2122;" horiz-adv-x="557" 
d="M447 456q-15 0 -17 6l-67 220q1 -12 1 -18v-203q0 -5 -17 -5t-17 5v270q0 4 23 4q25 0 26 -4l68 -225l68 225q1 4 26 4q26 0 26 -4v-270q0 -5 -19 -5t-19 5v203l2 18l-67 -220q-2 -6 -17 -6zM211 703v-243q0 -4 -19 -4q-18 0 -18 4v243h-76q-4 0 -4 15t4 15h191
q4 0 4 -15t-4 -15h-78z" />
    <glyph glyph-name="Omega" unicode="&#x2126;" horiz-adv-x="748" 
d="M509 0v48q24 16 35.5 24.5t36.5 29.5t37 41.5t12 40.5v363q0 45 -19.5 76.5t-52 46.5t-63 21t-63.5 6t-63.5 -6t-62.5 -21t-51.5 -46.5t-19.5 -76.5v-363q0 -60 122 -136v-48h-184q-6 0 -6 24t6 24h114q-4 1 -11.5 4t-26.5 14.5t-33 26t-26 39t-12 52.5v363q0 100 69 149
t185 49q117 0 186 -49t69 -149v-363q0 -28 -11 -52.5t-26.5 -39t-31.5 -25.5t-27 -15l-11 -4h112q6 0 6 -24t-6 -24h-183z" />
    <glyph glyph-name="partialdiff" unicode="&#x2202;" horiz-adv-x="590" 
d="M559 184q0 -48 -20.5 -87t-53.5 -62t-70 -35t-73 -12q-101 0 -160 57t-59 140v130q0 87 60 141.5t159 54.5q45 0 79.5 -13.5t46.5 -27.5l13 -13q-17 70 -82 150q-19 23 -56.5 57.5t-42.5 39.5t13 24.5t24 15.5q69 -55 99 -95q1 -1 9.5 -12.5t16.5 -22t20.5 -30.5t22 -40
t20.5 -48.5t18.5 -57t12 -65.5t4.5 -74zM506 193v106q0 70 -48 116t-116 46q-67 0 -116 -38.5t-49 -116.5v-114q0 -79 49 -117.5t116 -38.5q63 0 113.5 43t50.5 114z" />
    <glyph glyph-name="Delta" unicode="&#x2206;" horiz-adv-x="748" 
d="M85 0l288 731q2 6 33 6t33 -6l291 -731h-645zM401 668l-241 -619h489z" />
    <glyph glyph-name="product" unicode="&#x220f;" horiz-adv-x="748" 
d="M791 357q0 -148 -104.5 -252.5t-252.5 -104.5t-252.5 104.5t-104.5 252.5t104.5 252.5t252.5 104.5t252.5 -104.5t104.5 -252.5zM750 357q0 130 -92.5 222.5t-223.5 92.5q-130 0 -222.5 -92t-92.5 -223t92.5 -223.5t222.5 -92.5t223 92.5t93 223.5zM467 303h-86v-132
q0 -8 -23 -8q-22 0 -22 8v366h122q116 0 116 -102v-30q0 -8 -0.5 -16t-6.5 -25t-16 -29t-32 -22t-52 -10zM531 435q0 38 -20.5 50t-56.5 12h-74v-152h87q64 0 64 60v30z" />
    <glyph glyph-name="summation" unicode="&#x2211;" horiz-adv-x="748" 
d="M635 0h-454v37l263 343l-254 316v37h432q6 0 6 -24q0 -25 -6 -25h-348l241 -304l-251 -331h371q6 0 6 -23q0 -26 -6 -26z" />
    <glyph glyph-name="minus" unicode="&#x2212;" horiz-adv-x="748" 
d="M256 280q-6 0 -6 24t6 24h322q6 0 6 -24t-6 -24h-322z" />
    <glyph glyph-name="radical" unicode="&#x221a;" horiz-adv-x="495" 
d="M511 731l-205 -729q-2 -6 -27 -6q-26 0 -28 6l-125 365q-1 2 1 3.5t6.5 2t8 0.5h8.5q28 0 30 -6l99 -303l178 667q2 6 27 6h9t8.5 -0.5t8 -2t1.5 -3.5z" />
    <glyph glyph-name="infinity" unicode="&#x221e;" horiz-adv-x="770" 
d="M602 113q-71 0 -182 115q-110 -115 -183 -115q-57 0 -91 39.5t-34 102.5q0 67 37 108.5t92 41.5q75 0 184 -115q110 115 182 115q55 0 90.5 -42t35.5 -108q0 -65 -36.5 -103.5t-94.5 -38.5zM603 359q-51 0 -152 -104q92 -95 155 -95q39 0 62.5 26.5t23.5 68.5
q0 45 -24 74.5t-65 29.5zM239 359q-40 0 -63 -30.5t-23 -73.5q0 -45 23.5 -70t65.5 -25q59 0 152 95q-100 104 -155 104z" />
    <glyph glyph-name="integral" unicode="&#x222b;" horiz-adv-x="343" 
d="M193 -16v644q0 32 10 54t27 32.5t33 14.5t34 4h48q6 0 6 -22t-6 -22h-29q-14 0 -27 -3t-27.5 -20t-14.5 -46v-580q0 -78 -11 -104q-18 -42 -72 -42h-64q-6 0 -6 23t6 23h54q39 0 39 44z" />
    <glyph glyph-name="approxequal" unicode="&#x2248;" horiz-adv-x="581" 
d="M509 369q-13 -29 -42 -55.5t-63 -26.5q-31 0 -56.5 15.5t-46.5 30.5t-40 15q-16 0 -29.5 -8.5t-20 -17t-19.5 -26.5q-1 -2 -9.5 3t-15.5 12.5t-5 10.5q9 22 35.5 46t60.5 24q36 0 80 -30.5t66 -30.5q7 0 14 1.5t12.5 4.5t10 6t8.5 7.5t7 8t5.5 8.5t4 7t3.5 6l2 5
q4 4 13 2t17.5 -8t7.5 -10zM509 184q-13 -29 -42 -55.5t-63 -26.5q-31 0 -56.5 15t-46.5 30.5t-40 15.5q-16 0 -29.5 -8.5t-20 -17t-19.5 -26.5q-1 -2 -9.5 3t-15.5 12.5t-5 10.5q9 22 35.5 46t60.5 24q36 0 80 -30.5t66 -30.5q7 0 14 1.5t12.5 4.5t10 6t8.5 7.5t7 8
t5.5 8.5t4 7t3.5 7l2 4q4 4 13 2t17.5 -8t7.5 -10z" />
    <glyph glyph-name="notequal" unicode="&#x2260;" horiz-adv-x="531" 
d="M496 176q0 -24 -6 -24h-221l-78 -103q-2 -3 -12 2.5t-18 13t-6 9.5l58 78h-81q-6 0 -6 24t6 24h121l71 93h-192q-6 0 -6 25q0 23 6 23h228l80 105q3 4 13 -1t17 -13.5t4 -11.5l-61 -79h77q6 0 6 -23q0 -25 -6 -25h-112l-71 -93h183q6 0 6 -24z" />
    <glyph glyph-name="lessequal" unicode="&#x2264;" horiz-adv-x="569" 
d="M150 272l337 125q2 1 3.5 -1.5t2 -8t0.5 -9v-9.5q0 -27 -6 -29l-286 -100l286 -94q6 -2 6 -27v-9.5t-0.5 -9t-2 -8t-3.5 -1.5l-337 123q-6 2 -6 29t6 29zM149 49h340q6 0 6 -24q0 -25 -6 -25h-340q-6 0 -6 23q0 26 6 26z" />
    <glyph glyph-name="greaterequal" unicode="&#x2265;" horiz-adv-x="545" 
d="M137 394l334 -119q6 -3 6 -30q0 -29 -6 -31l-337 -123q-4 -1 -5 8q-1 4 -1 20q0 25 6 27l286 97l-286 94q-5 2 -5 29q0 4 0.5 9t1.5 9.5t2.5 7.5t3.5 2zM131 49h340q6 0 6 -25q0 -24 -6 -24h-340q-6 0 -6 24q0 25 6 25z" />
    <glyph glyph-name="lozenge" unicode="&#x25ca;" horiz-adv-x="748" 
d="M730 364l-273 -362q-5 -6 -19 -6q-15 0 -19 6l-281 369l276 360q4 6 19 6t19 -6zM428 659l-220 -286l232 -304l222 290z" />
    <glyph glyph-name="fi" unicode="&#xfb01;" horiz-adv-x="502" 
d="M340 505q-2 -23 -9 -23h-92l-76 -480q-1 -6 -28 -6h-8.5t-8.5 0.5t-7 2t-2 3.5l76 480h-74q-5 0 -3 23q4 22 10 22h74l17 108q8 50 41 80t82 30h56q6 0 3 -24q-4 -23 -10 -23h-48q-59 0 -72 -73l-15 -98h92q6 0 2 -22zM387 -4h-8.5t-8.5 0.5t-7 2t-2 3.5l85 538q1 6 28 6
h8.5t8.5 -0.5t7 -2t2 -3.5l-85 -538q-1 -6 -28 -6zM487 631h-8.5t-8.5 0.5t-7 2t-2 3.5l17 106q1 6 28 6h8.5t8.5 -0.5t7 -2t2 -3.5l-17 -106q-1 -6 -28 -6z" />
    <glyph glyph-name="fl" unicode="&#xfb02;" horiz-adv-x="560" 
d="M340 505q-2 -23 -9 -23h-91l-76 -480q-1 -6 -29 -6h-8.5t-8.5 0.5t-7 2t-2 3.5l76 480h-74q-5 0 -3 23q4 22 10 22h74l17 108q8 51 38 80.5t79 29.5h62q6 0 3 -24q-4 -23 -10 -23h-48q-59 0 -72 -73l-15 -98h92q6 0 2 -22zM532 0h-41q-47 0 -71 29t-16 74l101 640
q1 6 28 6h8.5t8.5 -0.5t7 -2t2 -3.5l-101 -638q-5 -31 8 -45t46 -14h27q5 0 6 -3.5t-1 -18.5q-2 -16 -4.5 -20t-7.5 -4z" />
    <glyph glyph-name="CR" horiz-adv-x="215" 
 />
    <glyph glyph-name="dummy1" horiz-adv-x="0" 
 />
    <glyph glyph-name="dummy2" horiz-adv-x="0" 
 />
    </font>
</defs>
</svg>
