
<?xml version="1.0" standalone="no"?>
<!DOCTYPE svg PUBLIC "-//W3C//DTD SVG 1.1//EN" "http://www.w3.org/Graphics/SVG/1.1/DTD/svg11.dtd" >
<svg xmlns="http://www.w3.org/2000/svg" xmlns:xlink="http://www.w3.org/1999/xlink" version="1.1">
<metadata>
Created by FontForge 20170731 at Wed Nov 23 11:04:37 2005
 By ,,,
Copyright (c) 2005 by Telenor ASA. All rights reserved.
</metadata>
<defs>
<font id="Telenor-MediumItalic" horiz-adv-x="583" >
  <font-face 
    font-family="Telenor"
    font-weight="500"
    font-style="italic"
    font-stretch="normal"
    units-per-em="1000"
    panose-1="2 0 0 0 0 0 0 0 0 0"
    ascent="800"
    descent="-200"
    x-height="541"
    cap-height="737"
    bbox="-62.0625 -316 1086.86 977"
    underline-thickness="50"
    underline-position="-150"
    unicode-range="U+0020-FB02"
  />
<missing-glyph horiz-adv-x="1000" 
 />
    <glyph glyph-name=".notdef" horiz-adv-x="1000" 
 />
    <glyph glyph-name=".null" horiz-adv-x="0" 
 />
    <glyph glyph-name="nonmarkingreturn" horiz-adv-x="333" 
 />
    <glyph glyph-name="space" unicode=" " horiz-adv-x="215" 
 />
    <glyph glyph-name="exclam" unicode="!" horiz-adv-x="293" 
d="M321 727l-98 -499q-2 -8 -40 -8h-15t-11.5 1t-9 2.5t-2.5 4.5l63 499q1 10 59 10q24 0 39.5 -2t14.5 -8zM149 -3h-17.5t-16 1t-14 3t-4.5 5l17 105q1 9 54 9h16.5t16.5 -1t14.5 -3t4.5 -5l-17 -105q-2 -9 -54 -9z" />
    <glyph glyph-name="quotedbl" unicode="&#x22;" horiz-adv-x="417" 
d="M461 729l-56 -262q-3 -9 -36 -9q-7 0 -12 0.5t-10.5 1t-8 2.5t-2.5 5l27 262q0 8 50 8h15t15.5 -1t14 -2.5t3.5 -4.5zM285 729l-57 -262q-2 -9 -36 -9q-7 0 -12 0.5l-10 1t-7.5 2.5t-2.5 5l26 262q1 8 50 8q50 0 49 -8z" />
    <glyph glyph-name="numbersign" unicode="#" horiz-adv-x="652" 
d="M670 481q-6 -37 -17 -37h-94l-31 -144h93q9 0 3 -37q-8 -39 -17 -39h-96l-48 -220q-2 -8 -45 -8h-15.5t-13 1t-11 2.5t-2.5 4.5l47 220h-134l-49 -220q-1 -8 -49 -8h-15t-12 1t-10 2.5t-2 4.5l48 220h-101q-10 0 -1 40q5 36 13 36h106l30 144h-104q-6 0 0 39q6 38 14 38
h109l45 208q1 8 39 8h15t15.5 -1t14.5 -2.5t4 -4.5l-45 -208h135l46 208q1 8 42 8h15t14.5 -1t12.5 -2.5t3 -4.5l-45 -208h91q10 0 2 -40zM471 444h-136l-31 -144h136z" />
    <glyph glyph-name="dollar" unicode="$" horiz-adv-x="659" 
d="M258 -67l14 87q-97 13 -171 69q-5 3 8 27t30 44.5t22 17.5q30 -24 81 -46t98 -22q64 0 105.5 29t50.5 83q5 30 -11 52t-45 35t-64.5 25.5t-70.5 27.5t-63 36t-41.5 56t-5.5 83q8 56 57.5 104t127.5 64l15 94q1 8 55 8t54 -8l-15 -90q79 -6 157 -48q5 -2 -5 -25.5
t-24.5 -44.5t-19.5 -18q-79 46 -165 46q-56 0 -90 -25t-40 -62q-4 -28 12 -47.5t45.5 -32.5t65 -25t71 -28t63 -38t40.5 -60t5 -89q-11 -70 -73.5 -124t-149.5 -68l-15 -87q-1 -10 -56 -10q-22 0 -37.5 2t-14.5 8z" />
    <glyph glyph-name="percent" unicode="%" horiz-adv-x="774" 
d="M236 377q-64 0 -99 31.5t-26 90.5l21 137q9 56 50.5 82t102.5 26q65 0 99.5 -31t25.5 -93l-22 -136q-8 -55 -50 -81t-102 -26zM744 729l-501 -721q-4 -8 -51 -8q-50 2 -50 8l500 721q5 8 52 8h17.5t16 -1t14 -2.5t2.5 -4.5zM597 -16q-68 0 -102 29.5t-25 89.5l23 144
q8 56 49.5 82t101.5 26q66 0 100.5 -31t25.5 -89l-23 -143q-8 -56 -49 -82t-101 -26zM328 636q4 23 -9 31.5t-41 8.5t-43.5 -8t-19.5 -32l-23 -152q-4 -23 8.5 -31.5t40.5 -8.5q29 0 45 8t19 32zM688 247q4 24 -9 32.5t-41 8.5t-43.5 -8.5t-19.5 -32.5l-24 -155
q-4 -24 8.5 -32.5t41.5 -8.5q28 0 43.5 8.5t19.5 32.5z" />
    <glyph glyph-name="ampersand" unicode="&#x26;" horiz-adv-x="679" 
d="M703 306l-120 -152l73 -101q5 -7 -13.5 -24t-40.5 -29t-27 -5l-58 79q-31 -31 -86.5 -58.5t-129.5 -27.5q-111 0 -171.5 51t-43.5 157l5 36q9 53 54 95t120 88q-25 31 -35.5 46.5t-20.5 46t-5 60.5l3 25q11 64 58.5 108.5t143.5 43.5q61 0 97.5 -26t45 -56.5t3.5 -62.5
l-6 -42q-8 -45 -42 -81t-102 -81l122 -169l60 79q8 8 59 8h20.5t18.5 -1t15.5 -2.5t2.5 -4.5zM391 656q-41 0 -57.5 -15t-23.5 -58l-2 -18q-3 -19 5 -40t15 -30t25 -31q43 26 63 46t26 53l3 18q3 21 2.5 38t-14.5 27t-42 10zM465 150l-142 198l-49 -29q-68 -45 -77 -100
l-4 -33q-10 -61 24.5 -85t96.5 -24q86 0 151 73z" />
    <glyph glyph-name="quotesingle" unicode="'" horiz-adv-x="222" 
d="M275 729l-56 -262q-3 -9 -36 -9q-7 0 -12 0.5t-10.5 1t-8 2.5t-2.5 5l27 262q0 8 50 8h15t15.5 -1t14 -2.5t3.5 -4.5z" />
    <glyph glyph-name="parenleft" unicode="(" horiz-adv-x="367" 
d="M336 776q8 6 35 -21q14 -8 27 -23.5t9 -21.5q-56 -54 -110 -157t-73 -221q-19 -115 1 -222t53 -164q2 -4 -6 -10t-20.5 -12t-26.5 -11t-24.5 -5.5t-14.5 2.5q-38 50 -63 171t-2 266q22 135 87 253t128 176z" />
    <glyph glyph-name="parenright" unicode=")" horiz-adv-x="367" 
d="M282 765q44 -58 72.5 -181.5t6.5 -258.5q-23 -145 -86.5 -266.5t-116.5 -169.5q-7 -6 -29 5.5t-39 28.5t-12 23q50 57 104 164t72 222q18 117 -3.5 220t-59.5 158q-4 6 16.5 22t45 27.5t29.5 5.5z" />
    <glyph glyph-name="asterisk" unicode="*" horiz-adv-x="420" 
d="M176 653l104 -50l8 124q1 10 44 10q7 0 13.5 -0.5t13 -1.5t10.5 -3.5t3 -6.5l-31 -121l120 49q5 3 11 -10q13 -31 8 -60q-1 -9 -6 -10l-124 -28l67 -93q4 -5 -13 -19.5t-36.5 -24.5t-22.5 -3l-48 106l-82 -106q-5 -6 -22.5 5t-30 26.5t-6.5 20.5l95 91l-115 29
q-7 2 0.5 22t20 38.5t19.5 15.5z" />
    <glyph glyph-name="plus" unicode="+" horiz-adv-x="659" 
d="M609 212h-203v-208q0 -8 -48 -8q-47 0 -47 8v208h-200q-8 0 -8 44q0 43 9 43h199v204q0 8 47 8q48 0 48 -8v-204h203q8 0 8 -44q0 -43 -8 -43z" />
    <glyph glyph-name="comma" unicode="," horiz-adv-x="274" 
d="M13 -130q-20 22 -7 31q45 37 60.5 74t30.5 132q2 8 52 8h16.5t16 -1t14 -2.5t3.5 -4.5q-29 -180 -161 -252q-12 -5 -25 15z" />
    <glyph glyph-name="hyphen" unicode="-" horiz-adv-x="494" 
d="M125 264q-8 0 -1 43t15 43h326q9 0 2 -43t-16 -43h-326z" />
    <glyph glyph-name="period" unicode="." horiz-adv-x="247" 
d="M122 -4h-16t-14 1t-12 2.5t-4 4.5l21 127q1 8 48 8h16.5t14 -1t12.5 -2.5t3 -4.5l-20 -127q-1 -8 -49 -8z" />
    <glyph glyph-name="slash" unicode="/" horiz-adv-x="414" 
d="M519 729l-405 -725q-4 -8 -53 -8h-19t-16.5 1t-13.5 2.5t-2 4.5l405 725q5 8 53 8h18.5t16.5 -1t14 -2.5t2 -4.5z" />
    <glyph glyph-name="zero" unicode="0" horiz-adv-x="659" 
d="M329 -14q-116 0 -176 56.5t-43 162.5l53 334q33 208 287 208q116 0 173.5 -56t40.5 -162l-53 -337q-18 -109 -88 -157.5t-194 -48.5zM555 527q10 66 -19 94.5t-102 28.5q-75 0 -114.5 -28.5t-49.5 -94.5l-51 -322q-10 -67 20.5 -94.5t105.5 -27.5q74 0 111.5 27.5
t47.5 94.5z" />
    <glyph glyph-name="one" unicode="1" horiz-adv-x="419" 
d="M234 -4h-18.5t-16 1t-14 2.5t-4.5 4.5l97 613q-25 -10 -63 -18.5t-55 -8.5q-9 0 -2 42q6 42 17 45q37 7 154 56h76l-116 -729q-1 -8 -55 -8z" />
    <glyph glyph-name="two" unicode="2" horiz-adv-x="593" 
d="M394 315q-119 -53 -163 -94t-56 -112l-3 -19h359q8 0 2 -46q-8 -44 -15 -44h-470l12 77q19 119 76 185t187 123q111 50 146.5 79.5t43.5 78.5q8 50 -21.5 80.5t-90.5 30.5q-80 0 -185 -49q-7 -3 -18 18t-15 41.5t1 27.5q108 55 232 55q104 0 159.5 -57t41.5 -147
q-14 -89 -62 -134.5t-161 -93.5z" />
    <glyph glyph-name="three" unicode="3" horiz-adv-x="567" 
d="M109 138q88 -56 168 -56q55 0 93.5 26.5t45.5 75.5l6 35q9 55 -17.5 80.5t-89.5 25.5h-61q-7 0 -1 47q6 48 16 48h66q116 0 133 104l4 31q8 44 -19 70.5t-81 26.5q-81 0 -173 -51q-6 -4 -17.5 17t-16.5 41.5t0 27.5q108 61 228 61q90 0 144.5 -52t41.5 -133l-7 -46
q-9 -57 -48 -95t-89 -49q47 -10 76 -51t20 -98l-7 -41q-31 -199 -252 -199q-56 0 -106.5 14t-65.5 22.5t-42 24.5q-6 4 4.5 28.5t25.5 46t21 18.5z" />
    <glyph glyph-name="four" unicode="4" horiz-adv-x="612" 
d="M583 147h-94l-23 -143q-1 -8 -50 -8h-18.5t-16 1t-13.5 2.5t-4 4.5l23 143h-315q-5 0 -1 32q5 30 11 37l408 513q6 8 49 8t43 -8l-79 -492h94q8 0 2 -45q-8 -45 -16 -45zM204 237h197l50 315z" />
    <glyph glyph-name="five" unicode="5" horiz-adv-x="591" 
d="M272 -16q-116 0 -206 77q-5 4 7.5 27.5t29 44.5t21.5 17q27 -20 46.5 -32t52 -23t65.5 -11q127 0 146 124l9 54q19 126 -89 126q-70 0 -121 -59h-94l64 404h400q9 0 1 -45q-6 -45 -15 -45h-295l-31 -195q57 36 125 36q87 0 134 -60.5t32 -157.5l-11 -68
q-16 -105 -85.5 -159.5t-185.5 -54.5z" />
    <glyph glyph-name="six" unicode="6" horiz-adv-x="655" 
d="M327 -14q-118 0 -173 69t-38 177l44 273q19 118 87.5 180t202.5 62q109 0 194 -45q5 -3 -5.5 -26.5t-25 -44.5t-19.5 -18q-73 41 -151 41q-77 0 -120.5 -36.5t-52.5 -100.5l-15 -90q12 19 59.5 44t114.5 25q99 0 153.5 -61t39.5 -157l-11 -67q-18 -112 -90.5 -168.5
t-193.5 -56.5zM503 214l9 54q10 64 -19.5 100.5t-93.5 36.5q-70 0 -114.5 -37t-54.5 -100l-8 -49q-11 -68 20.5 -106t98.5 -38q64 0 107.5 35.5t54.5 103.5z" />
    <glyph glyph-name="seven" unicode="7" horiz-adv-x="564" 
d="M147 4l354 637h-349q-8 0 -2 47q8 45 17 45h459q5 0 6 -4.5t-2 -26.5q-6 -35 -15 -51l-354 -647q-4 -8 -58 -8h-19.5t-18.5 1t-15.5 2.5t-2.5 4.5z" />
    <glyph glyph-name="eight" unicode="8" horiz-adv-x="637" 
d="M308 -14q-110 0 -170.5 53.5t-49.5 146.5l3 19q11 62 47 105t85 65q-29 17 -52 62.5t-15 94.5l3 18q16 101 81 149t183 48q105 0 159.5 -53.5t43.5 -143.5l-2 -17q-18 -115 -120 -158q42 -18 65 -62t14 -102l-3 -24q-33 -201 -272 -201zM357 333q-140 0 -158 -120l-4 -20
q-9 -59 25.5 -89t95.5 -30q60 0 105 30.5t54 88.5l3 20q10 62 -23.5 91t-97.5 29zM258 545l-3 -15q-9 -59 23 -88.5t91 -29.5q61 0 102 29t50 89l3 14q10 61 -18.5 88.5t-95.5 27.5q-134 0 -152 -115z" />
    <glyph glyph-name="nine" unicode="9" horiz-adv-x="656" 
d="M407 747q129 0 184 -71t38 -181l-43 -267q-40 -242 -293 -242q-107 0 -193 44q-5 3 5.5 27t25 45t19.5 18q69 -41 152 -41q77 0 120.5 36.5t53.5 100.5l14 90q-11 -19 -59 -44.5t-113 -25.5q-100 0 -154.5 65t-39.5 157l10 64q16 107 88.5 166t184.5 59zM241 519l-8 -54
q-10 -63 20.5 -100t91.5 -37q70 0 115 38t56 103l7 50q11 66 -20.5 102.5t-99.5 36.5q-64 0 -107.5 -35.5t-54.5 -103.5z" />
    <glyph glyph-name="colon" unicode=":" horiz-adv-x="273" 
d="M142 -4h-16t-14 1t-12 2.5t-4 4.5l20 127q2 8 49 8h16t14.5 -1t12 -2.5t3.5 -4.5l-20 -127q-1 -8 -49 -8zM202 403h-16t-14 1t-12 2.5t-3 4.5l19 127q2 8 49 8h16t14 -1t12 -2.5t4 -4.5l-20 -127q-2 -8 -49 -8z" />
    <glyph glyph-name="semicolon" unicode=";" horiz-adv-x="267" 
d="M5 -130q-21 22 -7 31q45 37 60.5 73.5t30.5 132.5q1 8 51 8h17.5t16 -1t14 -2.5t3.5 -4.5q-29 -180 -161 -252q-12 -5 -25 15zM182 403h-16t-14.5 1t-12.5 2.5t-3 4.5l20 127q1 8 48 8h16t14.5 -1t12.5 -2.5t3 -4.5l-20 -127q-1 -8 -48 -8z" />
    <glyph glyph-name="less" unicode="&#x3c;" horiz-adv-x="542" 
d="M93 297l369 128q3 1 4.5 -3t2.5 -13t1 -15v-16q0 -46 -8 -49l-244 -81l244 -77q8 -2 8 -46v-16t-1 -15.5t-2.5 -13.5t-4.5 -3l-369 127q-9 3 -9 47q0 43 9 46z" />
    <glyph glyph-name="equal" unicode="=" horiz-adv-x="542" 
d="M111 281q-8 0 -8 43q0 44 8 44h388q9 0 9 -44q0 -43 -9 -43h-388zM111 125q-8 0 -8 43t8 43h388q9 0 9 -43t-9 -43h-388z" />
    <glyph glyph-name="greater" unicode="&#x3e;" horiz-adv-x="542" 
d="M101 425l369 -128q8 -3 8 -46q0 -44 -8 -47l-369 -127q-3 -1 -5 3t-3 13.5t-1 15.5v16q0 44 9 46l243 77l-243 81q-9 3 -9 49q0 9 0.5 16t1 15.5t2.5 12.5t5 3z" />
    <glyph glyph-name="question" unicode="?" horiz-adv-x="460" 
d="M309 654q-52 0 -123 -42q-3 -2 -8.5 5t-10.5 18.5t-9 24.5t-5 22t2 12q87 51 175 51q90 0 132.5 -57t30.5 -132q-7 -40 -29 -74t-49.5 -58t-55 -47.5t-49 -52.5t-26.5 -62l-6 -33q-1 -8 -45 -8h-17.5t-12.5 1t-9.5 2.5t-2.5 4.5l6 38q6 40 27 75.5t46.5 61t51 49t45 50
t23.5 52.5q7 43 -15 71t-66 28zM196 -4h-16t-14 1t-12 2.5t-4 4.5l20 127q2 8 49 8h16t14 -1t12 -2.5t4 -4.5l-20 -127q-1 -8 -49 -8z" />
    <glyph glyph-name="at" unicode="@" horiz-adv-x="870" 
d="M675 80q-29 0 -50.5 12t-32 31.5t-13.5 28.5t-5 20q-55 -100 -145 -100q-69 0 -103 46t-23 118q3 18 9.5 59t9.5 63q11 73 59 111.5t121 38.5q43 0 83.5 -12.5t58 -23t25.5 -17.5l-37 -235q-4 -29 8 -54t39 -25t47 20.5t27 59.5l26 153q2 31 2 62.5t-16 61.5t-41.5 53.5
t-74 37.5t-113.5 14q-59 0 -107 -12t-80.5 -29t-58 -48.5t-39 -55.5t-25.5 -66.5t-16 -65.5t-11 -67q-3 -17 -4 -26q-18 -112 35.5 -179.5t190.5 -67.5q97 0 222 44q5 2 11 -10q13 -31 9 -56q0 -6 -3 -7q-135 -45 -250 -45q-64 0 -116.5 15t-84.5 40t-56 57t-32.5 66.5
t-12.5 68.5t3 63l22 144q5 37 19.5 75t46 81t74.5 76t112.5 55t154.5 22q67 0 121 -14t87.5 -37.5t58 -54t33.5 -63t13.5 -64.5t-2.5 -59q-2 -14 -6 -41t-6 -43t-7 -41t-9.5 -40.5t-11.5 -36.5t-15.5 -34t-20.5 -27t-26.5 -22t-33 -13t-40.5 -5zM567 260q7 53 23 159
q-43 24 -89 24q-36 0 -62.5 -17.5t-35.5 -53.5q-10 -33 -26 -147q-7 -37 10 -61t48 -24q47 0 84.5 42t47.5 78z" />
    <glyph glyph-name="A" unicode="A" horiz-adv-x="610" 
d="M419 737q60 0 61 -9l113 -724q0 -2 -2 -3.5t-7 -2t-10 -1.5t-12.5 -1h-12h-12.5q-50 0 -51 8l-23 165h-262l-76 -165q-4 -8 -57 -8h-18.5t-16 1t-13.5 2.5t-3 4.5l340 724q5 9 62 9zM242 260h209l-47 360z" />
    <glyph glyph-name="B" unicode="B" horiz-adv-x="616" 
d="M597 234l-8 -50q-15 -94 -75 -139t-178 -45h-253l116 735h257q94 0 139 -49t33 -125l-4 -24q-10 -68 -40.5 -102.5t-84.5 -48.5q52 -15 79.5 -55t18.5 -97zM517 530l3 18q8 48 -17 72.5t-88 24.5h-123l-34 -215h129q56 0 88.5 23t41.5 77zM482 197l5 28q8 53 -17.5 84
t-86.5 31h-140l-39 -250h133q66 0 101 25t44 82z" />
    <glyph glyph-name="C" unicode="C" horiz-adv-x="579" 
d="M653 704q2 -2 0 -11.5t-8.5 -23t-13 -26t-13.5 -20.5t-10 -7q-87 41 -163 41q-70 0 -121 -33.5t-62 -98.5l-50 -319q-6 -39 3 -66t31.5 -40t47.5 -18t57 -5q84 0 180 34q6 2 12.5 -20t8 -43t-3.5 -27q-31 -13 -97.5 -24t-117.5 -11q-119 0 -182.5 57t-46.5 166l50 316
q34 222 295 222q115 0 204 -43z" />
    <glyph glyph-name="D" unicode="D" horiz-adv-x="663" 
d="M671 503l-45 -281q-18 -114 -87 -168t-199 -54h-257l116 733h259q119 0 174.5 -61t38.5 -169zM517 222l45 280q22 139 -122 139h-147l-88 -549h144q148 0 168 130z" />
    <glyph glyph-name="E" unicode="E" horiz-adv-x="526" 
d="M488 46q-8 -46 -15 -46h-390l116 733h388q8 0 0 -48q-8 -45 -15 -45h-279l-35 -213h248q10 0 2 -45t-16 -45h-248l-38 -245h280q8 0 2 -46z" />
    <glyph glyph-name="F" unicode="F" horiz-adv-x="498" 
d="M575 687q-6 -47 -15 -47h-267l-38 -233h242q8 0 2 -46q-9 -50 -17 -50h-242l-49 -307q-1 -8 -55 -8h-18.5t-16 1t-14 2.5t-4.5 4.5l116 729h376q8 0 0 -46z" />
    <glyph glyph-name="G" unicode="G" horiz-adv-x="669" 
d="M535 215l16 99h-139q-8 0 0 47q4 46 15 46h245l-31 -197q-18 -109 -94 -167t-210 -58q-125 0 -186.5 63.5t-47.5 156.5l51 322q35 220 299 220q111 0 199 -43q3 -2 1 -11.5t-8 -23.5t-13 -26.5t-14 -20.5t-10 -7q-83 40 -164 40q-66 0 -118.5 -32t-63.5 -98l-48 -308
q-11 -70 27.5 -105.5t111.5 -35.5q161 0 182 139z" />
    <glyph glyph-name="H" unicode="H" horiz-adv-x="696" 
d="M613 4q-1 -8 -55 -8h-19t-16.5 1t-14 2.5t-4.5 4.5l53 330h-313l-53 -330q-1 -8 -55 -8h-18.5t-16 1t-14 2.5t-4.5 4.5l115 725q1 8 55 8h18.5t16.5 -1t14 -2.5t4 -4.5l-47 -298h313l47 298q1 8 56 8h18.5t16 -1t14 -2.5t4.5 -4.5z" />
    <glyph glyph-name="I" unicode="I" horiz-adv-x="277" 
d="M194 4q-1 -8 -55 -8h-18.5t-16.5 1t-14 2.5t-4 4.5l115 725q1 8 55 8h18.5t16 -1t14 -2.5t4.5 -4.5z" />
    <glyph glyph-name="J" unicode="J" horiz-adv-x="349" 
d="M382 729l-91 -572q-25 -157 -194 -157h-65q-8 0 0 46q6 46 15 46h55q36 0 55.5 15.5t25.5 51.5l90 570q1 8 55 8h19t16.5 -1t14 -2.5t4.5 -4.5z" />
    <glyph glyph-name="K" unicode="K" horiz-adv-x="599" 
d="M232 259l-41 -255q-1 -8 -55 -8h-18.5t-16 1t-14 2.5t-4.5 4.5l115 725q1 8 56 8h18.5t16 -1t13.5 -2.5t4 -4.5l-52 -334l315 333q10 9 61 9h25t21.5 -1t17 -2.5t1.5 -4.5l-307 -323l197 -402q2 -2 -3 -4t-15.5 -2.5t-21.5 -1t-25 -0.5q-53 0 -59 8l-157 329z" />
    <glyph glyph-name="L" unicode="L" horiz-adv-x="509" 
d="M508 49q-7 -49 -16 -49h-409l115 729q1 8 55 8h18.5t16 -1t14 -2.5t4.5 -4.5l-100 -631h301q7 0 1 -49z" />
    <glyph glyph-name="M" unicode="M" horiz-adv-x="802" 
d="M719 4q-1 -8 -48 -8h-17.5t-15 1t-12 2.5t-3.5 4.5l61 389q24 152 39 210l-271 -599q-4 -8 -52 -8q-47 0 -48 8l-80 600h-2q-5 -73 -26 -210l-61 -390q-1 -8 -52 -8h-18t-14.5 1t-12 2.5t-3.5 4.5l115 725q1 8 74 8q67 0 69 -9q6 -48 22 -158t24.5 -172t17.5 -149
t12 -153q25 72 62 161.5t63 148t77.5 170.5t70.5 153q3 8 69 8h32t22.5 -1t16.5 -2.5t4 -4.5z" />
    <glyph glyph-name="N" unicode="N" horiz-adv-x="721" 
d="M638 4q-1 -2 -16 -2q-1 -6 -52 -6q-63 0 -66 8l-146 392q-55 152 -78 222h-1q-8 -96 -21.5 -193t-37 -235t-31.5 -186q-1 -8 -54 -8h-18.5t-16 1t-13.5 2.5t-4 4.5l115 725q1 8 71 8q71 0 74 -8l133 -359q54 -143 83 -236h2q7 69 18.5 153.5t20 138.5t26 159.5
t23.5 143.5q1 8 54 8h18.5t15 -1t12.5 -2.5t4 -4.5z" />
    <glyph glyph-name="O" unicode="O" horiz-adv-x="691" 
d="M652 209q-16 -107 -94.5 -165.5t-203.5 -58.5q-138 0 -201.5 65.5t-46.5 170.5l48 301q16 108 94 166.5t205 58.5q136 0 200 -63.5t48 -165.5zM544 214q5 34 15 95.5t18 112t15 95.5q11 69 -24.5 104.5t-119.5 35.5q-166 0 -186 -140l-45 -276q-4 -28 -4 -61
q-1 -52 36.5 -78.5t109.5 -26.5q163 0 185 139z" />
    <glyph glyph-name="P" unicode="P" 
d="M623 526l-10 -60q-32 -208 -260 -208h-121l-41 -254q-1 -8 -55 -8h-18.5t-16.5 1t-14.5 2.5t-4.5 4.5l116 729h234q111 0 158 -58t33 -149zM506 474l7 45q10 63 -14 93.5t-96 30.5h-110l-47 -295h110q72 0 106 31t44 95z" />
    <glyph glyph-name="Q" unicode="Q" horiz-adv-x="698" 
d="M653 209q-16 -107 -94 -165.5t-203 -58.5q-138 0 -201.5 65.5t-47.5 170.5q10 59 28 174t20 127q17 109 94.5 167t204.5 58q137 0 201 -63.5t48 -165.5zM546 214l48 303q11 69 -24.5 104.5t-119.5 35.5q-165 0 -187 -140q-7 -44 -22 -136t-22 -140q-5 -37 -4 -61
q-1 -52 36 -78.5t110 -26.5q163 0 185 139zM612 -89q10 0 3 -44q-4 -27 -15.5 -37.5t-33.5 -10.5q-46 0 -112 30.5t-102 30.5q-14 0 -27 -2l-13 -1q-11 0 -3 44q2 12 4 20.5t6 14t5.5 8.5t7.5 4.5l8 2t11 0t13 -0.5q48 0 117.5 -30.5t99.5 -30.5q7 0 18 1t13 1z" />
    <glyph glyph-name="R" unicode="R" horiz-adv-x="614" 
d="M472 287l96 -283q1 -3 -3.5 -4.5t-15.5 -2.5t-19.5 -1h-24.5q-53 0 -57 8l-82 266h-131l-42 -266q-1 -8 -56 -8h-18.5t-16 1t-14 2.5t-4.5 4.5l116 729h244q107 0 154 -57.5t32 -149.5l-8 -48q-12 -78 -46 -122t-104 -69zM515 485l6 34q10 64 -14 94t-96 30h-117
l-45 -284h117q72 0 105.5 30.5t43.5 95.5z" />
    <glyph glyph-name="S" unicode="S" horiz-adv-x="560" 
d="M547 192q-15 -93 -87 -150t-193 -57q-123 0 -224 74q-4 3 8 27t28 44.5t21 17.5q29 -23 80.5 -45t96.5 -22q66 0 107.5 30t50.5 85q10 60 -50 100q-14 9 -93 50q-37 19 -62 36.5t-49 44t-33 61.5t-2 78q12 75 76 127.5t175 52.5q104 0 197 -52q3 -2 0.5 -11.5t-8.5 -23.5
t-13 -26.5t-14 -20.5t-10 -6q-77 46 -166 46q-57 0 -91 -25.5t-40 -68.5q-8 -50 54 -90q12 -7 88 -46q175 -88 153 -230z" />
    <glyph glyph-name="T" unicode="T" horiz-adv-x="542" 
d="M646 689q-8 -46 -17 -46h-202l-101 -639q-1 -8 -55 -8h-18.5t-16 1t-14 2.5t-4.5 4.5l101 639h-204q-9 0 -1 46q6 44 15 44h515q3 0 4 -2t1 -7t-0.5 -9.5t-1.5 -12.5t-1 -13z" />
    <glyph glyph-name="U" unicode="U" horiz-adv-x="671" 
d="M709 729l-82 -519q-18 -109 -92 -166.5t-194 -57.5q-119 0 -183.5 61t-47.5 165l82 517q1 8 56 8h18t15.5 -1t13.5 -2.5t4 -4.5l-84 -526q-10 -63 24.5 -95.5t103.5 -32.5q70 0 116.5 33t56.5 95l84 526q1 8 55 8h19t16.5 -1t14 -2.5t4.5 -4.5z" />
    <glyph glyph-name="V" unicode="V" horiz-adv-x="599" 
d="M699 729l-334 -724q-5 -9 -63 -9q-59 0 -60 9l-115 724q-1 5 15 6.5t42 1.5q53 0 55 -8l48 -360q17 -126 27 -277h2q47 128 114 276l159 361q4 8 59 8h18.5t16 -1t13.5 -2.5t3 -4.5z" />
    <glyph glyph-name="W" unicode="W" horiz-adv-x="900" 
d="M992 729l-282 -724q-3 -9 -64 -9q-64 0 -65 9l-28 345q-7 102 -11 232h-1q-54 -157 -82 -229l-133 -348q-3 -9 -62 -9q-62 0 -63 9l-64 724q-1 5 14.5 6.5t40.5 1.5q52 0 52 -8l23 -344q11 -167 8 -288h2q39 135 97 287l134 345q3 8 56 8q48 0 49 -8l30 -345
q16 -167 16 -287h2q31 106 98 288l124 344q3 8 59 8h18.5t16 -1t13 -2.5t2.5 -4.5z" />
    <glyph glyph-name="X" unicode="X" horiz-adv-x="609" 
d="M352 286l-213 -281q-8 -9 -65 -9q-59 2 -59 9l289 367l-162 354q-5 9 38 11h18q54 0 58 -9l117 -278l206 279q7 8 64 8h23.5t17.5 -1t13 -2.5t1 -4.5l-276 -360l169 -364q1 -3 -3.5 -5t-14 -2.5t-19.5 -1t-24 -0.5q-52 0 -57 9z" />
    <glyph glyph-name="Y" unicode="Y" horiz-adv-x="581" 
d="M688 728l-297 -430l-46 -293q-2 -9 -56 -9h-18.5t-16 1t-14 3t-3.5 5l45 292l-158 431q-1 3 3 5t13.5 2.5t19.5 1t24 0.5q51 0 54 -9l113 -332l217 332q6 9 66 9q14 0 23 -0.5t17.5 -1t12 -2.5t1.5 -5z" />
    <glyph glyph-name="Z" unicode="Z" horiz-adv-x="563" 
d="M538 45q-8 -45 -15 -45h-491l9 58l444 583h-337q-9 0 0 47q6 45 16 45h472l-10 -60l-440 -581h351q7 0 1 -47z" />
    <glyph glyph-name="bracketleft" unicode="[" horiz-adv-x="363" 
d="M291 -142h-223l143 904h224q9 0 1 -43q-6 -44 -15 -44h-120l-116 -730h120q10 0 2 -44q-8 -43 -16 -43z" />
    <glyph glyph-name="backslash" unicode="\" horiz-adv-x="411" 
d="M298 4l-160 725q-1 2 4 4t13.5 2.5t16.5 1t18 0.5q48 0 50 -8l155 -725q1 -2 -3.5 -4t-12.5 -2.5t-15.5 -1t-16.5 -0.5q-47 0 -49 8z" />
    <glyph glyph-name="bracketright" unicode="]" horiz-adv-x="363" 
d="M249 -142h-224q-9 0 -1 43q6 44 15 44h120l116 729h-120q-8 0 -2 44q8 43 16 43h223z" />
    <glyph glyph-name="asciicircum" unicode="^" horiz-adv-x="542" 
d="M390 722l144 -378q1 -3 -3 -4.5t-13.5 -2.5t-16 -1h-18.5q-48 0 -51 8l-98 280l-91 -280q-2 -8 -50 -8h-18.5t-15.5 1t-12.5 2.5t-2.5 4.5l143 378q3 8 52 8q48 0 51 -8z" />
    <glyph glyph-name="underscore" unicode="_" horiz-adv-x="399" 
d="M6 -125v60h388v-60h-388z" />
    <glyph glyph-name="grave" unicode="`" horiz-adv-x="489" 
d="M335 607l-83 138q-9 14 34 16h12q42 0 46 -9l62 -142q4 -7 -9 -9q-7 -1 -24 -1q-34 0 -38 7z" />
    <glyph glyph-name="a" unicode="a" horiz-adv-x="561" 
d="M568 503l-80 -499q-1 -9 -50 -9q-12 0 -20 0.5t-14.5 1.5t-9.5 3t-3 5q1 6 10.5 58t13.5 79q-31 -56 -85 -105t-122 -49q-71 0 -106.5 51t-22.5 138q5 30 14 90t14 90q15 100 77.5 149.5t161.5 49.5q121 0 222 -53zM434 270l27 180q-52 23 -111 23q-123 0 -143 -130
l-27 -165q-8 -47 8 -72.5t53 -25.5q88 0 193 190z" />
    <glyph glyph-name="b" unicode="b" horiz-adv-x="597" 
d="M592 354l-25 -158q-34 -211 -260 -211q-111 0 -166 57.5t-39 161.5l86 537q1 8 53 8h16.5t16.5 -1t14.5 -2.5t4.5 -4.5l-44 -268q70 83 176 83q85 0 133.5 -55t33.5 -147zM463 205l22 132q10 64 -16 95t-76 31q-65 0 -111.5 -43t-57.5 -111l-17 -101q-22 -134 107 -134
q127 0 149 131z" />
    <glyph glyph-name="c" unicode="c" horiz-adv-x="491" 
d="M271 -15q-94 0 -146.5 57.5t-38.5 147.5l25 160q35 205 246 205q108 0 171 -57q5 -5 -4.5 -26.5t-24 -39.5t-21.5 -12q-1 1 -10 7t-13.5 8.5t-14.5 8.5t-18 9t-19 7t-23 5.5t-24 1.5q-122 0 -141 -128l-23 -145q-10 -59 16.5 -89.5t81.5 -30.5q59 0 136 49
q10 6 22.5 -12.5t17 -38.5t-1.5 -28q-84 -59 -193 -59z" />
    <glyph glyph-name="d" unicode="d" horiz-adv-x="592" 
d="M601 733l-115 -729q-2 -8 -59 -8h-14.5t-13.5 1t-12 2.5t-3 4.5l21 128q-12 -19 -27 -38t-41.5 -46t-60 -43.5t-67.5 -16.5q-69 0 -108.5 51.5t-26.5 137.5l29 184q15 98 73.5 146.5t149.5 48.5q80 0 133 -56l38 233q1 9 48 9q57 0 56 -9zM425 271l13 79q8 48 -21 85.5
t-84 37.5q-110 0 -130 -123l-26 -163q-19 -109 60 -109q85 0 188 193z" />
    <glyph glyph-name="e" unicode="e" horiz-adv-x="552" 
d="M528 375q-25 -194 -352 -178l-3 -22q-8 -52 23 -77.5t87 -25.5q77 0 172 45q7 4 17.5 -14.5t15 -37.5t-0.5 -25q-103 -55 -213 -55q-111 0 -164 59.5t-35 166.5l23 142q17 102 80 152.5t163 50.5t149.5 -50t37.5 -131zM435 376q7 41 -16.5 67.5t-79.5 26.5
q-55 0 -91.5 -31.5t-45.5 -92.5l-11 -73q226 -12 244 103z" />
    <glyph glyph-name="f" unicode="f" horiz-adv-x="353" 
d="M390 486q-6 -44 -16 -44h-92l-69 -437q-2 -9 -54 -9q-10 0 -18 0.5t-16.5 1t-13 2.5t-3.5 5l69 437h-69q-8 0 -2 43q5 42 15 42h69l12 75q11 70 52 106.5t105 36.5h78h2t1.5 -1l1 -2t1 -3.5t0 -5.5t-0.5 -7.5t-1 -10t-2 -13.5q-3 -20 -5.5 -29t-4.5 -11t-5 -2h-56
q-28 0 -43 -15t-20 -47l-11 -71h94q8 0 2 -41z" />
    <glyph glyph-name="g" unicode="g" horiz-adv-x="591" 
d="M599 492l-71 -446q-20 -125 -81.5 -193t-185.5 -68q-59 0 -112 16.5t-83 39.5q-6 5 4 25.5t24 38t20 13.5q42 -31 105 -41q31 -6 66 -3q112 12 132 136l21 125q-99 -141 -196 -141q-79 0 -120 52.5t-27 136.5q12 67 28 173q16 98 80 149t160 51q128 0 236 -64zM461 287
q10 59 25 157q-51 30 -116 30q-21 0 -39 -4.5t-31.5 -10.5t-25 -18.5t-19.5 -23.5t-15 -30.5t-11 -33.5t-9 -39.5t-7 -41t-6.5 -46t-6.5 -46.5q-7 -43 7.5 -68.5t49.5 -25.5t72 26.5t65 66.5t43 64.5t24 43.5z" />
    <glyph glyph-name="h" unicode="h" horiz-adv-x="584" 
d="M514 4q-1 -8 -54 -8h-16.5t-16 1t-14 2.5t-4.5 4.5l57 359q14 97 -65 97q-46 0 -96 -36t-66 -62l-57 -358q-1 -8 -54 -8h-16.5t-16 1t-14 2.5t-4.5 4.5l117 737q1 8 54 8q20 0 36 -1.5t15 -6.5l-44 -274q15 18 35 34.5t63.5 35.5t89.5 19q66 -1 104.5 -48t27.5 -119z" />
    <glyph glyph-name="i" unicode="i" horiz-adv-x="256" 
d="M127 -4h-16.5t-16 1t-14 2.5t-4.5 4.5l84 533q2 8 54 8h16.5t16 -1t14 -2.5t4.5 -4.5l-85 -533q-1 -8 -53 -8zM225 617h-16.5t-16 1t-14 3t-4.5 5l19 115q1 8 53 8h16.5t16 -1t14 -2.5t4.5 -4.5l-18 -115q-1 -9 -54 -9z" />
    <glyph glyph-name="j" unicode="j" horiz-adv-x="260" 
d="M37 -202h-94q-9 0 -2 45q7 44 16 44h54q51 0 58 51l95 599q2 8 54 8h16.5t16 -1t14 -2.5t4.5 -4.5l-98 -617q-9 -59 -43.5 -90.5t-90.5 -31.5zM229 617h-16.5t-16 1t-14 3t-4.5 5l19 115q1 8 53 8h16.5t16 -1t14 -2.5t4.5 -4.5l-18 -115q-1 -9 -54 -9z" />
    <glyph glyph-name="k" unicode="k" horiz-adv-x="519" 
d="M592 535l-242 -234l167 -297q2 -3 -3 -4.5t-17.5 -2.5t-21 -1h-23.5q-51 0 -57 8l-127 229l-55 -45l-31 -184q-1 -8 -54 -8h-16.5t-16 1t-14 2.5t-4.5 4.5l117 737q1 8 53 8h17.5t16 -1t14 -2.5t4.5 -4.5l-67 -421l225 216q10 9 73 9q67 -1 62 -10z" />
    <glyph glyph-name="l" unicode="l" horiz-adv-x="296" 
d="M256 0h-47q-59 0 -92.5 36.5t-23.5 96.5l97 608q1 8 53 8h17.5t16 -1t14 -2.5t4.5 -4.5l-95 -598q-9 -52 43 -52h27q11 0 12.5 -7.5t-2.5 -37.5t-8.5 -38t-15.5 -8z" />
    <glyph glyph-name="m" unicode="m" horiz-adv-x="852" 
d="M537 359l-56 -355q-1 -8 -54 -8h-16.5t-16 1t-14 2.5t-4.5 4.5l57 356q15 96 -54 96q-32 0 -75 -34t-69 -71l-55 -347q-1 -8 -53 -8h-16.5t-16 1t-14 2.5t-4.5 4.5l84 533q2 8 53 8h16t14.5 -1t12.5 -2.5t3 -4.5l-13 -88q84 105 176 105q47 0 78 -31t35 -72
q91 103 178 103q59 0 100 -46.5t28 -124.5l-60 -379q-1 -8 -52 -8h-17.5t-16.5 1t-14.5 2.5t-4.5 4.5l57 357q7 48 -4.5 71.5t-48.5 23.5q-35 0 -77 -30t-66 -67z" />
    <glyph glyph-name="n" unicode="n" 
d="M512 4q-1 -8 -53 -8h-16.5t-16.5 1t-14.5 2.5t-4.5 4.5l57 356q15 100 -65 100q-40 0 -85.5 -30t-76.5 -70l-57 -356q-1 -8 -53 -8h-16.5t-16 1t-14 2.5t-4.5 4.5l84 534q2 8 54 8q9 0 16.5 -0.5t15.5 -1t12.5 -2.5t3.5 -4l-11 -73q14 17 34.5 35t64 37t88.5 19
q70 -1 108 -51t26 -127z" />
    <glyph glyph-name="o" unicode="o" horiz-adv-x="579" 
d="M290 -15q-107 0 -162.5 55.5t-40.5 151.5l25 159q33 205 258 205q106 0 163 -56.5t42 -152.5l-26 -157q-15 -100 -83 -152.5t-176 -52.5zM470 347q19 120 -109 120q-64 0 -99.5 -28.5t-45.5 -91.5l-24 -153q-10 -62 16.5 -91t90.5 -29q127 0 147 120z" />
    <glyph glyph-name="p" unicode="p" horiz-adv-x="577" 
d="M570 341q-8 -56 -23 -146q-33 -210 -205 -210q-88 0 -158 92l-47 -271q-2 -10 -60 -10h-16t-14.5 1t-12 3t-2.5 6l112 690q112 60 236 60q98 0 152 -56.5t38 -158.5zM442 188l23 152q21 127 -96 127q-66 0 -129 -29l-37 -233q20 -59 55 -92.5t80 -33.5q41 0 68.5 28.5
t35.5 80.5z" />
    <glyph glyph-name="q" unicode="q" horiz-adv-x="594" 
d="M568 503l-113 -698q-1 -9 -50 -9q-12 0 -20 0.5t-14.5 1.5t-9.5 3t-3 5l54 323q-31 -54 -81.5 -97.5t-119.5 -43.5q-70 0 -107.5 51t-24.5 138l29 189q14 93 76.5 141.5t161.5 48.5q111 0 222 -53zM433 265l28 185q-52 23 -111 23q-123 0 -142 -122l-28 -173
q-16 -98 55 -98q51 0 104.5 55t93.5 130z" />
    <glyph glyph-name="r" unicode="r" horiz-adv-x="377" 
d="M420 438h-44q-33 0 -66.5 -27.5t-81.5 -86.5l-51 -320q-1 -8 -55 -8h-16.5t-15.5 1t-13.5 2.5t-4.5 4.5l85 534q1 8 52 8q20 0 34.5 -1.5t13.5 -6.5l-19 -117q57 73 91 98.5t78 25.5h31q10 0 0 -54q-9 -53 -18 -53z" />
    <glyph glyph-name="s" unicode="s" horiz-adv-x="461" 
d="M227 -14q-55 0 -104.5 16.5t-75.5 35.5q-4 3 6 24t23.5 39.5t17.5 15.5q71 -46 137 -46q46 0 75 22.5t34 53.5q4 31 -20 54t-60.5 39.5t-72 36t-56.5 55t-12 84.5q11 63 61.5 100.5t143.5 37.5q90 0 152 -32q7 -4 -9.5 -43.5t-24.5 -37.5q-72 29 -131 29q-39 0 -64 -16.5
t-30 -39.5q-4 -21 13 -38t44.5 -29t59 -29.5t58 -37t41.5 -55t8 -81.5q-10 -70 -67 -114t-147 -44z" />
    <glyph glyph-name="t" unicode="t" horiz-adv-x="372" 
d="M308 0h-68q-62 0 -93.5 36t-21.5 97l49 309h-73q-9 0 -3 43q7 42 16 42h73l21 129q1 8 53 8h16t15 -1t13 -2.5t3 -4.5l-20 -129h111q9 0 1 -42q-6 -43 -14 -43h-111l-49 -303q-4 -27 6.5 -39t40.5 -12h48q11 0 13 -6.5t-2 -36.5q-5 -30 -9 -37.5t-15 -7.5z" />
    <glyph glyph-name="u" unicode="u" 
d="M155 538q2 8 54 8h16.5t16 -1t14.5 -2.5t4 -4.5l-57 -361q-8 -46 9 -71t56 -25q45 0 96 37t68 64l55 356q2 8 54 8h16.5t16 -1t14 -2.5t4.5 -4.5l-85 -534q-1 -8 -53 -8q-20 0 -35 1.5t-14 6.5l12 71q-24 -28 -74.5 -59t-104.5 -31q-74 0 -114.5 50t-27.5 127z" />
    <glyph glyph-name="v" unicode="v" horiz-adv-x="497" 
d="M568 537l-260 -532q-6 -9 -60 -9q-55 0 -56 8l-95 533q0 3 4.5 4.5t14.5 2.5t16.5 1h18.5q54 0 55 -8l33 -221q20 -160 21 -234h2q33 99 95 234l102 221q4 8 55 8h19.5t17.5 -1t14.5 -2.5t2.5 -4.5z" />
    <glyph glyph-name="w" unicode="w" horiz-adv-x="717" 
d="M444 4l-16 215q-9 105 -6 170h-1q-23 -79 -60 -170l-87 -215q-3 -8 -59 -8q-52 0 -54 8l-53 533q-1 5 13.5 6.5t39.5 1.5q50 0 50 -9l17 -244q6 -109 3 -197h2q34 108 69 198l100 243q3 9 48 9q42 0 42 -8l19 -245q6 -84 4 -197h1q32 109 67 198l95 244q4 8 51 8h18.5
t15.5 -1t12.5 -2.5t2.5 -4.5l-226 -533q-4 -8 -56 -8q-51 0 -52 8z" />
    <glyph glyph-name="x" unicode="x" horiz-adv-x="494" 
d="M551 537l-202 -264l118 -269q1 -3 -3 -4.5t-14 -2.5t-17 -1h-19q-46 0 -51 8l-81 197l-144 -197q-6 -8 -59 -8h-19.5t-18 1t-14.5 2.5t-2 4.5l209 272l-123 261q-1 3 3.5 4.5t14.5 2.5t17 1h19q54 0 57 -8l80 -187l138 187q7 8 59 8h19t17.5 -1t14 -2.5t1.5 -4.5z" />
    <glyph glyph-name="y" unicode="y" horiz-adv-x="522" 
d="M594 537l-387 -728q-5 -8 -55 -8h-18.5t-16 1t-13 2.5t-2.5 4.5l107 204l-111 524q-1 3 2.5 4.5t13 2.5t17 1h22.5q53 0 54 -8l74 -411l197 411q5 8 61 8q10 0 19 -0.5t18.5 -1t14.5 -2.5t3 -4z" />
    <glyph glyph-name="z" unicode="z" horiz-adv-x="467" 
d="M41 47l316 408h-236q-7 0 -1 43q7 43 15 43h378l-8 -47l-315 -408h257q8 0 1 -42q-7 -44 -14 -44h-400z" />
    <glyph glyph-name="braceleft" unicode="{" horiz-adv-x="371" 
d="M178 310v-1q42 -7 64.5 -40.5t15.5 -81.5q-20 -122 -29 -183q-11 -59 43 -59h32q9 0 2 -43t-15 -43h-56q-50 0 -80.5 35.5t-21.5 91.5q29 185 30 194q12 73 -76 86q-11 1 -2 42q4 41 14 42q52 7 75 30t33 77q3 20 7.5 58t8 61.5t10.5 55.5t18 52t27 39.5t41.5 28.5
t58.5 9h55q3 0 4 -2.5t1 -7.5t-0.5 -9l-1.5 -12t-1 -12q-7 -43 -15 -43h-36q-50 0 -57 -52q-11 -64 -31 -194q-7 -48 -39.5 -80t-78.5 -39z" />
    <glyph glyph-name="bar" unicode="|" horiz-adv-x="267" 
d="M196 -263q-49 0 -49 8v1047q0 9 50 9q49 0 49 -8v-1048q0 -8 -50 -8z" />
    <glyph glyph-name="braceright" unicode="}" horiz-adv-x="371" 
d="M278 314q-43 6 -65 38.5t-15 79.5l30 191q8 52 -41 52h-35q-9 0 -2 43q4 43 15 43h56q47 0 75.5 -29.5t27.5 -75.5q0 -16 -3 -34l-28 -181q-7 -41 12.5 -61.5t64.5 -26.5q9 -1 2 -41q-6 -42 -16 -43q-84 -11 -100 -74q-7 -23 -12 -52.5t-11 -74t-8 -57.5
q-11 -77 -46.5 -114t-100.5 -37h-55q-9 0 -2 44q7 43 15 43h33q52 0 61 59q3 18 7.5 55.5t8 58.5t10.5 53t16.5 51.5t23.5 40t34.5 32t47.5 15.5v2z" />
    <glyph glyph-name="asciitilde" unicode="~" horiz-adv-x="532" 
d="M485 294q-18 -27 -50 -52t-68 -25q-39 0 -81.5 28t-56.5 28q-34 0 -65 -46q-4 -5 -17 4.5t-23.5 23.5t-7.5 19q16 25 46.5 49t67.5 24q36 0 79.5 -28t59.5 -28q8 0 16.5 3t14.5 7t13 11t10.5 11t8.5 10.5t6 7.5q4 4 17 -6t23 -23.5t7 -17.5z" />
    <glyph glyph-name="nbspace" unicode="&#xa0;" horiz-adv-x="174" 
 />
    <glyph glyph-name="exclamdown" unicode="&#xa1;" horiz-adv-x="293" 
d="M273 506l-62 -499q-2 -10 -61 -10h-13.5t-14.5 0.5t-14 1t-11 1.5t-7.5 3t-2.5 4l96 499q2 9 47 9q10 0 16.5 -0.5t13.5 -1t10.5 -2.5t2.5 -5zM266 737h16.5t16 -1t14 -2.5t4.5 -4.5l-17 -106q-1 -9 -54 -9h-16.5t-16 1t-14.5 3t-4 5l17 106q1 8 54 8z" />
    <glyph glyph-name="cent" unicode="&#xa2;" horiz-adv-x="582" 
d="M445 632l-13 -81q70 -10 117 -52q9 -7 -13 -44t-33 -30q-71 43 -125 43q-120 0 -141 -129l-22 -145q-21 -121 99 -121q59 0 135 46q9 6 22 -11t17.5 -36t-1.5 -26q-56 -41 -145 -56l-13 -81q-2 -9 -53 -9h-17t-15.5 1t-14 3t-3.5 5l12 81q-70 15 -106 67.5t-23 132.5
l25 160q28 180 193 201l13 81q1 8 53 8h16.5t16.5 -1t14.5 -2.5t4.5 -4.5z" />
    <glyph glyph-name="sterling" unicode="&#xa3;" horiz-adv-x="659" 
d="M655 640q-29 -38 -35 -38q-75 53 -148 53q-47 0 -85 -26.5t-46 -77.5q-4 -23 -5.5 -45t-2.5 -58.5t-1 -47.5h141q9 0 2 -45t-16 -45h-138q-19 -116 -74 -220h311q9 0 2 -45t-15 -45h-452q108 194 123 310h-75q-10 0 -1 46q5 44 15 44h69q1 15 2 46.5t2.5 57t5.5 49.5
q16 97 81.5 144.5t159.5 47.5q61 0 118.5 -18.5t82.5 -38.5q7 -5 -21 -48z" />
    <glyph glyph-name="currency" unicode="&#xa4;" horiz-adv-x="659" 
d="M699 704q4 -2 -0.5 -17t-12.5 -31.5t-17 -29.5t-13 -11q-85 41 -157 41q-80 0 -125 -29.5t-56 -102.5l-7 -46h208q8 0 2 -40q-7 -42 -15 -42h-208l-11 -68h208q8 0 2 -41q-6 -39 -15 -39l-207 -1l-7 -42q-11 -72 24 -100.5t115 -28.5q73 0 169 33q4 1 8.5 -7t7.5 -20.5
t5.5 -25.5t1.5 -23t-4 -12q-31 -13 -93.5 -24t-113.5 -11q-120 0 -184 58t-43 170l5 33h-68q-7 0 -3 40q6 41 16 41h68l10 68h-68q-7 0 -1 41q4 41 14 41h69l7 47q34 222 294 222q106 0 195 -43z" />
    <glyph glyph-name="yen" unicode="&#xa5;" horiz-adv-x="659" 
d="M167 198q-9 0 -2 43t15 43h140q0 4 2 14l-159 431q-1 3 3.5 4.5t14 2l19 1t23.5 0.5q52 0 55 -8l112 -332l218 332q6 8 65 8q55 0 55 -7q0 -1 -1 -2l-297 -430q0 -2 -1 -7t-1 -7h140q9 0 2 -43t-15 -43h-141l-30 -193q-1 -9 -55 -9h-19t-16.5 1t-14 3t-3.5 5l30 193h-139
z" />
    <glyph glyph-name="brokenbar" unicode="&#xa6;" horiz-adv-x="252" 
d="M188 325q-48 0 -48 9v458q0 8 49 8q47 0 47 -9v-457q0 -9 -48 -9zM188 -264q-48 0 -48 9v456q0 9 49 9q47 0 47 -10v-455q0 -9 -48 -9z" />
    <glyph glyph-name="section" unicode="&#xa7;" horiz-adv-x="507" 
d="M499 350q-5 -48 -36.5 -83.5t-69.5 -49.5q37 -22 56.5 -62t12.5 -87q-13 -76 -76 -117.5t-157 -41.5q-93 0 -172 56q-4 2 6.5 23t24.5 39t19 14q74 -47 140 -47q40 0 70 19.5t36 53.5q7 40 -18 63t-73 42q-82 30 -109.5 72t-17.5 104q5 34 34.5 69t72.5 47
q-92 48 -78 141q10 61 62.5 103.5t143.5 42.5q84 0 154 -36q6 -2 -2 -22t-20 -38.5t-17 -16.5q-69 31 -126 31q-40 0 -63.5 -17t-26.5 -43q-5 -26 12 -45t78 -43q78 -32 112.5 -71t27.5 -100zM317 416q-32 0 -56.5 -22t-30.5 -57q-5 -30 21 -53.5t62 -23.5q29 0 55 22t31 53
q5 35 -22.5 57.5t-59.5 23.5z" />
    <glyph glyph-name="dieresis" unicode="&#xa8;" horiz-adv-x="578" 
d="M294 620q-18 0 -32 3t-13 9l16 100q1 11 48 11q17 0 31 -3t13 -8l-16 -100q-1 -12 -47 -12zM482 620q-17 0 -31.5 3t-13.5 9l16 100q1 11 49 11q17 0 31 -3t13 -8l-16 -100q-1 -12 -48 -12z" />
    <glyph glyph-name="copyright" unicode="&#xa9;" horiz-adv-x="771" 
d="M798 356q0 -148 -105 -252.5t-253 -104.5t-253 104.5t-105 252.5t105 253t253 105t253 -105t105 -253zM744 356q0 125 -89 213.5t-214 88.5t-213.5 -88.5t-88.5 -213.5t88.5 -214t213.5 -89t214 89t89 214zM439 142q-73 0 -115 38.5t-42 111.5v118q0 72 42.5 111.5
t114.5 39.5q80 0 133 -42q4 -3 -1.5 -19t-15 -29t-15.5 -10q-53 31 -92 31q-45 0 -65.5 -22t-20.5 -69v-105q0 -88 86 -88q45 0 94 33q6 5 15.5 -7.5t15 -28.5t0.5 -19q-56 -44 -134 -44z" />
    <glyph glyph-name="ordfeminine" unicode="&#xaa;" horiz-adv-x="441" 
d="M389 348q-14 0 -27.5 2.5t-12.5 6.5l6 37q-23 -24 -57.5 -37.5t-64.5 -13.5q-58 0 -88 33t-22 83l3 21q18 115 201 113h59q7 43 -6 62t-55 19q-53 0 -119 -30q-6 -3 -11 4t-10 22q-11 32 -2 37q70 35 148 35q68 0 110 -36.5t31 -108.5l-39 -240q-1 -9 -44 -9zM377 536
h-48q-111 0 -119 -54l-3 -20q-4 -24 10.5 -38.5t43.5 -14.5q55 0 104 44z" />
    <glyph glyph-name="guillemotleft" unicode="&#xab;" horiz-adv-x="570" 
d="M310 318l193 229q5 6 24 -3.5t34 -23.5t11 -19l-157 -183l99 -183q2 -5 -17 -19t-41 -23.5t-25 -2.5zM85 318l194 229q5 6 24 -3.5t34 -23.5t11 -19l-158 -183l99 -183q3 -5 -16.5 -19t-41.5 -23.5t-25 -2.5z" />
    <glyph glyph-name="logicalnot" unicode="&#xac;" horiz-adv-x="659" 
d="M584 120q-39 0 -39 8v159h-421q-8 0 -8 38q0 40 8 40l496 -1v-236q0 -8 -36 -8z" />
    <glyph glyph-name="uni00AD" unicode="&#xad;" horiz-adv-x="494" 
d="M125 264q-8 0 -1 43t15 43h326q9 0 2 -43t-16 -43h-326z" />
    <glyph glyph-name="registered" unicode="&#xae;" horiz-adv-x="549" 
d="M554 535q0 -87 -61 -148.5t-148 -61.5t-148.5 61.5t-61.5 148.5t61.5 148.5t148.5 61.5t148 -61.5t61 -148.5zM510 535q0 70 -48.5 119t-116.5 49q-70 0 -118.5 -49t-48.5 -119q0 -68 49 -116.5t118 -48.5q68 0 116.5 48.5t48.5 116.5zM390 509l39 -72q3 -6 -7 -7
q-4 -1 -13 -1q-20 0 -24 6l-35 68h-32v-68q0 -6 -23 -6q-21 0 -21 6v211h77q73 0 73 -65v-16q0 -41 -34 -56zM381 565v13q0 15 -7 21t-25 6h-31v-64h35q28 0 28 24z" />
    <glyph glyph-name="macron" unicode="&#xaf;" horiz-adv-x="489" 
d="M172 653q-8 0 -8 40t8 40h243q8 0 8 -40t-8 -40h-243z" />
    <glyph glyph-name="degree" unicode="&#xb0;" horiz-adv-x="441" 
d="M464 588q0 -67 -47 -114t-114 -47t-114 47t-47 114t47 114t114 47t114 -47t47 -114zM391 587q0 37 -26.5 63t-62.5 26t-62 -26t-26 -63q0 -36 26 -61.5t62 -25.5t62.5 25.5t26.5 61.5z" />
    <glyph glyph-name="plusminus" unicode="&#xb1;" horiz-adv-x="659" 
d="M608 246h-203v-156h202q9 0 9 -45t-9 -45h-496q-8 0 -8 45t8 45h199v156l-199 1q-8 0 -8 43t8 43h199v205q0 8 48 8q47 0 47 -8v-205h203q9 0 9 -43q0 -44 -9 -44z" />
    <glyph glyph-name="twosuperior" unicode="&#xb2;" horiz-adv-x="336" 
d="M284 745q59 0 91 -30.5t24 -84.5q-8 -47 -42.5 -75t-103.5 -55q-40 -16 -55 -34t-19 -46h178q4 0 0 -35q-4 -34 -11 -34h-255l10 57q8 55 33 88t79 57q7 3 22.5 10t23 10.5t19 9.5t18 10.5t13.5 11t10.5 14t4.5 15.5q3 20 -9.5 32t-40.5 12q-35 0 -97 -32q-6 -3 -14 12
t-10 30.5t3 21.5q55 35 128 35z" />
    <glyph glyph-name="threesuperior" unicode="&#xb3;" horiz-adv-x="336" 
d="M369 473l-3 -18q-7 -49 -46 -80t-100 -31q-71 0 -120 36q-5 3 2.5 20.5t18.5 32.5t15 13q47 -29 85 -29q27 0 42.5 11.5t17.5 29.5l3 16q3 15 -8 26.5t-37 11.5h-36q-4 0 0 36q7 35 12 35h43q20 0 32 11t14 24l3 18q3 17 -8 28t-31 11q-31 0 -85 -30q-6 -3 -15.5 12
t-13 30.5t0.5 21.5q19 14 56 25t73 11q54 0 84.5 -28t22.5 -81l-4 -22q-4 -25 -22 -42t-34 -24q6 -3 13.5 -8.5t18 -24.5t6.5 -42z" />
    <glyph glyph-name="acute" unicode="&#xb4;" horiz-adv-x="489" 
d="M427 745l-126 -138q-7 -7 -40 -7q-32 0 -33 6q0 2 2 4l108 142q6 9 49 9q47 0 43 -11q0 -2 -3 -5z" />
    <glyph glyph-name="mu" unicode="&#xb5;" horiz-adv-x="588" 
d="M161 537q0 3 9 3q1 6 44 6h16.5t16 -1t14 -2.5t3.5 -4.5l-52 -337q-8 -48 16 -79.5t68 -31.5q33 0 65.5 21.5t48 40t26.5 36.5l55 350q2 8 54 8h17.5t16 -1t14 -2.5t3.5 -4.5l-84 -534q-1 -8 -54 -8q-20 0 -34.5 1.5t-13.5 6.5l12 73q-64 -92 -139 -92q-38 0 -64 21.5
t-31 40.5q-6 -41 -19 -122t-19 -121q-2 -8 -54 -8h-17.5t-16 1t-14 2.5t-3.5 4.5z" />
    <glyph glyph-name="paragraph" unicode="&#xb6;" horiz-adv-x="506" 
d="M397 669l-118 -743q-1 -7 -45 -7q-40 0 -40 7l65 408h-7q-53 0 -100 50t-34 143q13 92 88.5 155t222.5 63q86 0 129 -10l-129 -809q-1 -7 -40 -7q-45 0 -45 7l118 743h-65z" />
    <glyph glyph-name="periodcentered" unicode="&#xb7;" horiz-adv-x="267" 
d="M160 238h-16t-14 1t-12 2.5t-4 4.5l21 126q1 9 48 9h16.5t14 -1t12.5 -3t3 -5l-20 -126q-1 -8 -49 -8z" />
    <glyph glyph-name="cedilla" unicode="&#xb8;" horiz-adv-x="489" 
d="M217 -203q-55 0 -98 29q-2 2 3 15.5t12.5 24.5t12.5 8q39 -24 68 -24q42 0 47 29l1 9q3 18 -15 25.5t-60 4.5l16 100h67l-10 -56q42 -3 60 -23.5t13 -49.5l-3 -20q-13 -72 -114 -72z" />
    <glyph glyph-name="onesuperior" unicode="&#xb9;" horiz-adv-x="564" 
d="M305 737l-60 -379q-1 -7 -41 -7q-8 0 -14.5 0.5l-13 1t-10 2t-3.5 3.5l47 291h-43q-3 0 -4 1.5t-1.5 5t0 6.5t1 8.5t0.5 7.5q4 24 12 30l74 29h56z" />
    <glyph glyph-name="ordmasculine" unicode="&#xba;" horiz-adv-x="550" 
d="M294 343q-79 0 -117 40t-27 108l18 112q11 70 57 106t122 36q78 0 118 -39.5t28 -110.5l-17 -107q-23 -145 -182 -145zM415 592q13 81 -74 81q-85 0 -98 -81l-15 -100q-14 -82 72 -82t100 82z" />
    <glyph glyph-name="guillemotright" unicode="&#xbb;" horiz-adv-x="570" 
d="M465 547l122 -229l-194 -228q-6 -7 -25 2.5t-33.5 23.5t-10.5 19l157 183l-99 183q-2 5 17.5 19t41 23.5t24.5 3.5zM240 547l122 -229l-194 -228q-5 -7 -24 2.5t-34 23.5t-11 19l158 183l-99 183q-3 5 16.5 19t41.5 23.5t24 3.5z" />
    <glyph glyph-name="onequarter" unicode="&#xbc;" horiz-adv-x="749" 
d="M309 706l-60 -380q-1 -6 -41 -6h-14.5t-13 0.5t-10.5 2t-3 3.5l47 292l-57 -1q-2 0 -2.5 1.5t-0.5 5t0.5 6.5t1 8t0.5 8q4 27 10 30l87 30h56zM696 729l-501 -725q-7 -9 -41 -9q-41 0 -40 7q0 1 1 2l499 725q6 8 44 8h16.5t12.5 -1t9 -2.5t0 -4.5zM708 141
q-4 -33 -11 -33h-43l-10 -63q-1 -6 -40 -6q-41 0 -41 6l11 63h-167l9 61l206 251q4 6 41 6h9t9 -0.5t9 -1t7 -1t4.5 -1.5t1.5 -2l-39 -246h43q7 0 1 -33zM607 317l-116 -143h93z" />
    <glyph glyph-name="onehalf" unicode="&#xbd;" horiz-adv-x="749" 
d="M309 706l-60 -380q-1 -6 -41 -6h-14.5t-13 0.5t-10.5 2t-3 3.5l47 292l-57 -1q-2 0 -2.5 1.5t-0.5 5t0.5 6.5t1 8t0.5 8q4 27 10 30l87 30h56zM696 729l-501 -725q-7 -9 -41 -9q-41 0 -40 7q0 1 1 2l499 725q6 8 44 8h16.5t12.5 -1t9 -2.5t0 -4.5zM674 447q58 0 89 -33
t22 -86q-8 -44 -43 -72t-102 -54q-40 -15 -55 -34t-18 -47h177q3 -4 2.5 -11t-3.5 -23q-4 -34 -10 -34h-255l10 57q8 55 35 89t82 57q5 2 17.5 7.5t17.5 7.5t15.5 7t15 8t12 7.5t11 9t7.5 9.5t6 11t3 13q3 20 -9 31.5t-40 11.5q-34 0 -98 -31q-6 -3 -14 12t-10 30.5t4 21.5
q65 35 131 35z" />
    <glyph glyph-name="threequarters" unicode="&#xbe;" horiz-adv-x="749" 
d="M735 141q-6 -33 -11 -33h-43l-11 -63q0 -6 -40 -6t-40 6l10 63h-167l10 61l206 251q4 6 41 6q7 0 13.5 -0.5l13 -1t10 -1.5t3.5 -3l-39 -246h43q5 0 1 -33zM750 729l-502 -725q-7 -9 -41 -9q-40 0 -39 7q0 1 1 2l499 725q5 8 43 8h17t13 -1t9 -2.5t0 -4.5zM372 446
l-5 -29q-6 -45 -47.5 -75t-102.5 -30q-65 0 -117 36q-5 3 3 20t19.5 32.5t16.5 13.5q46 -25 72 -28q26 -5 47.5 6.5t25.5 33.5l2 16q2 13 -9 25.5t-35 12.5h-36q-8 0 -1 35q6 36 12 36h42q20 0 32.5 11t14.5 24l3 18q2 17 -9 28t-31 11q-34 0 -85 -30q-7 -3 -15.5 12
t-11.5 30.5t2 21.5q49 35 122 36q55 1 87.5 -26.5t24.5 -82.5l-4 -20q-3 -19 -16.5 -36t-23.5 -23.5t-16 -8.5q6 -2 13.5 -6.5t18 -22t7.5 -41.5zM634 317l-116 -143h92z" />
    <glyph glyph-name="questiondown" unicode="&#xbf;" horiz-adv-x="460" 
d="M230 -112q47 0 120 42q6 3 16.5 -16t17 -41t1.5 -25q-77 -51 -174 -51q-90 0 -133.5 55.5t-32.5 128.5q6 41 28 76t50 60t56 48.5t50 52.5t27 62l5 33q1 8 46 8h16.5t13 -1t10 -2.5t2.5 -4.5l-7 -38q-7 -41 -28 -77t-47 -61t-51.5 -48t-44 -49t-22.5 -53q-5 -44 16 -71.5
t65 -27.5zM343 546h16t14 -1t12 -2.5t4 -4.5l-20 -127q-2 -8 -49 -8h-16t-14 1t-12 2.5t-3 4.5l19 127q2 8 49 8z" />
    <glyph glyph-name="Agrave" unicode="&#xc0;" horiz-adv-x="618" 
d="M422 737q60 0 61 -9l114 -724q0 -3 -5 -4.5t-15 -2.5t-17 -1h-19q-50 0 -51 8l-23 165h-262l-76 -165q-4 -8 -57 -8h-18.5t-16 1t-13.5 2.5t-3 4.5l339 724q6 9 62 9zM246 260h208l-46 360zM392 807l-83 138q-9 14 34 16h12q27 0 35 -1.5t11 -7.5l62 -142q4 -7 -9 -9
q-7 -1 -24 -1q-34 0 -38 7z" />
    <glyph glyph-name="Aacute" unicode="&#xc1;" horiz-adv-x="618" 
d="M422 737q60 0 61 -9l114 -724q0 -3 -5 -4.5t-15 -2.5t-17 -1h-19q-50 0 -51 8l-23 165h-262l-76 -165q-4 -8 -57 -8h-18.5t-16 1t-13.5 2.5t-3 4.5l339 724q6 9 62 9zM246 260h208l-46 360zM604 945l-127 -138q-7 -7 -39 -7q-33 0 -33 6q0 2 2 4l107 142q7 9 49 9
q45 0 45 -10q-1 -3 -4 -6z" />
    <glyph glyph-name="Acircumflex" unicode="&#xc2;" horiz-adv-x="618" 
d="M422 737q60 0 61 -9l114 -724q0 -3 -5 -4.5t-15 -2.5t-17 -1h-19q-50 0 -51 8l-23 165h-262l-76 -165q-4 -8 -57 -8h-18.5t-16 1t-13.5 2.5t-3 4.5l339 724q6 9 62 9zM246 260h208l-46 360zM521 815q-32 0 -37 8l-36 89l-64 -88q-7 -8 -39 -8h-15t-12 1t-9 2.5t0 4.5
l102 128q10 10 44 10q37 0 42 -10l61 -129q3 -5 -7 -6.5t-30 -1.5z" />
    <glyph glyph-name="Atilde" unicode="&#xc3;" horiz-adv-x="618" 
d="M422 737q60 0 61 -9l114 -724q0 -3 -5 -4.5t-15 -2.5t-17 -1h-19q-50 0 -51 8l-23 165h-262l-76 -165q-4 -8 -57 -8h-18.5t-16 1t-13.5 2.5t-3 4.5l339 724q6 9 62 9zM246 260h208l-46 360zM590 894q-39 -68 -99 -68q-30 0 -64.5 22t-44.5 22q-25 0 -52 -36
q-3 -4 -15.5 5t-22.5 21t-8 16q16 28 42 48t56 20q29 0 63.5 -22t46.5 -22q28 0 53 38q3 4 15 -5.5t22 -22t8 -16.5z" />
    <glyph glyph-name="Adieresis" unicode="&#xc4;" horiz-adv-x="618" 
d="M422 737q60 0 61 -9l114 -724q0 -3 -5 -4.5t-15 -2.5t-17 -1h-19q-50 0 -51 8l-23 165h-262l-76 -165q-4 -8 -57 -8h-18.5t-16 1t-13.5 2.5t-3 4.5l339 724q6 9 62 9zM246 260h208l-46 360zM346 820q-17 0 -31.5 3t-13.5 9l16 100q1 11 49 11q17 0 31 -3t13 -8l-16 -100
q-1 -12 -48 -12zM535 820q-18 0 -32 3t-13 9l16 100q1 11 48 11q17 0 31 -3t13 -8l-16 -100q-1 -12 -47 -12z" />
    <glyph glyph-name="Aring" unicode="&#xc5;" horiz-adv-x="618" 
d="M422 737q60 0 61 -9l114 -724q0 -3 -5 -4.5t-15 -2.5t-17 -1h-19q-50 0 -51 8l-23 165h-262l-76 -165q-4 -8 -57 -8h-18.5t-16 1t-13.5 2.5t-3 4.5l339 724q6 9 62 9zM246 260h208l-46 360zM526 861q-7 -34 -34 -56t-60 -22q-38 0 -60 26t-15 64q7 33 33.5 55.5
t59.5 22.5q38 0 60 -25.5t16 -64.5zM483 863q4 21 -6.5 34t-29.5 13q-17 0 -31.5 -12t-16.5 -28q-4 -20 6 -33t30 -13q18 0 32 12t16 27z" />
    <glyph glyph-name="AE" unicode="&#xc6;" horiz-adv-x="850" 
d="M405 0l27 169h-200l-106 -165q-5 -8 -57 -8h-19.5t-18.5 1t-15.5 2.5t-3.5 4.5l472 729h426q8 0 0 -48q-8 -45 -15 -45h-280l-34 -213h248q8 0 2 -45q-8 -45 -16 -45h-248l-38 -245h280q8 0 2 -46q-8 -46 -15 -46h-391zM446 262l56 350l-209 -350h153z" />
    <glyph glyph-name="Ccedilla" unicode="&#xc7;" horiz-adv-x="588" 
d="M314 -203q-54 0 -98 29q-2 2 3 15.5t12.5 24.5t12.5 8q39 -24 68 -24q42 0 47 29l1 9q3 18 -15 25.5t-60 4.5l11 69q-103 9 -155.5 65.5t-36.5 156.5l50 316q34 222 295 222q115 0 204 -43q2 -2 0 -11.5t-8.5 -23t-13 -26t-13.5 -20.5t-10 -7q-87 41 -163 41
q-70 0 -121 -33.5t-62 -98.5l-50 -319q-6 -39 3 -66t31.5 -40t47.5 -18t57 -5q84 0 180 34q6 2 12.5 -20t8 -43t-3.5 -27q-68 -27 -186 -34l-4 -25q42 -3 60 -23.5t13 -49.5l-3 -20q-13 -72 -114 -72z" />
    <glyph glyph-name="Egrave" unicode="&#xc8;" horiz-adv-x="528" 
d="M488 46q-8 -46 -15 -46h-390l116 733h388q8 0 0 -48q-8 -45 -15 -45h-279l-35 -213h248q10 0 2 -45t-16 -45h-248l-38 -245h280q8 0 2 -46zM390 807l-83 138q-12 16 46 16q27 0 35 -1.5t11 -7.5l62 -142q4 -7 -9 -9q-7 -1 -24 -1q-34 0 -38 7z" />
    <glyph glyph-name="Eacute" unicode="&#xc9;" horiz-adv-x="528" 
d="M488 46q-8 -46 -15 -46h-390l116 733h388q8 0 0 -48q-8 -45 -15 -45h-279l-35 -213h248q10 0 2 -45t-16 -45h-248l-38 -245h280q8 0 2 -46zM566 945l-127 -138q-6 -7 -39 -7t-33 6q0 2 2 4l107 142q7 9 50 9q47 0 43 -11q0 -2 -3 -5z" />
    <glyph glyph-name="Ecircumflex" unicode="&#xca;" horiz-adv-x="528" 
d="M488 46q-8 -46 -15 -46h-390l116 733h388q8 0 0 -48q-8 -45 -15 -45h-279l-35 -213h248q10 0 2 -45t-16 -45h-248l-38 -245h280q8 0 2 -46zM501 815q-32 0 -37 8l-35 89l-65 -88q-6 -8 -39 -8h-14.5t-12.5 1t-8 2.5v4.5l101 128q10 10 44 10q37 0 42 -10l62 -129
q3 -5 -7 -6.5t-31 -1.5z" />
    <glyph glyph-name="Edieresis" unicode="&#xcb;" horiz-adv-x="528" 
d="M488 46q-8 -46 -15 -46h-390l116 733h388q8 0 0 -48q-8 -45 -15 -45h-279l-35 -213h248q10 0 2 -45t-16 -45h-248l-38 -245h280q8 0 2 -46zM313 820q-18 0 -32 3t-13 9l15 100q1 11 49 11q17 0 31 -3t13 -8l-16 -100q-1 -12 -47 -12zM501 820q-17 0 -31.5 3t-13.5 9
l16 100q1 11 48 11q18 0 31.5 -3t12.5 -8l-15 -100q-1 -12 -48 -12z" />
    <glyph glyph-name="Igrave" unicode="&#xcc;" horiz-adv-x="277" 
d="M194 4q-1 -8 -55 -8h-18.5t-16.5 1t-14 2.5t-4 4.5l115 725q1 8 55 8h18.5t16 -1t14 -2.5t4.5 -4.5zM225 807l-82 138q-7 15 45 16q43 0 46 -9l62 -142q4 -7 -9 -9q-7 -1 -24 -1q-32 0 -38 7z" />
    <glyph glyph-name="Iacute" unicode="&#xcd;" horiz-adv-x="277" 
d="M194 4q-1 -8 -55 -8h-18.5t-16.5 1t-14 2.5t-4 4.5l115 725q1 8 55 8h18.5t16 -1t14 -2.5t4.5 -4.5zM436 945l-127 -138q-7 -7 -39 -7q-33 0 -33 6q0 2 2 4l107 142q7 9 49 9q55 -1 41 -16z" />
    <glyph glyph-name="Icircumflex" unicode="&#xce;" horiz-adv-x="277" 
d="M194 4q-1 -8 -55 -8h-18.5t-16.5 1t-14 2.5t-4 4.5l115 725q1 8 55 8h18.5t16 -1t14 -2.5t4.5 -4.5zM356 815q-31 0 -37 8l-35 89l-65 -88q-6 -8 -39 -8h-14.5t-12.5 1t-8 2.5v4.5l102 128q9 10 44 10q36 0 42 -10l61 -129q3 -5 -7 -6.5t-31 -1.5z" />
    <glyph glyph-name="Idieresis" unicode="&#xcf;" horiz-adv-x="277" 
d="M194 4q-1 -8 -55 -8h-18.5t-16.5 1t-14 2.5t-4 4.5l115 725q1 8 55 8h18.5t16 -1t14 -2.5t4.5 -4.5zM176 820q-17 0 -31.5 3t-13.5 9l16 100q1 11 49 11q17 0 31 -3t13 -8l-16 -100q-1 -12 -48 -12zM365 820q-17 0 -31.5 3t-13.5 9l16 100q1 11 48 11q18 0 31.5 -3
t12.5 -8l-16 -100q-1 -12 -47 -12z" />
    <glyph glyph-name="Eth" unicode="&#xd0;" horiz-adv-x="663" 
d="M70 331q-7 0 -1 43q7 43 15 43h64l51 316h255q126 0 180.5 -56t36.5 -174l-45 -281q-34 -222 -279 -222h-264l52 331h-65zM517 222l45 280q22 139 -122 139h-147l-36 -224h144q9 0 2 -43q-9 -43 -16 -43h-144l-38 -239h149q143 0 163 130z" />
    <glyph glyph-name="Ntilde" unicode="&#xd1;" horiz-adv-x="721" 
d="M638 4q-1 -2 -16 -2q-1 -6 -52 -6q-63 0 -66 8l-146 392q-55 152 -78 222h-1q-8 -96 -21.5 -193t-37 -235t-31.5 -186q-1 -8 -54 -8h-18.5t-16 1t-13.5 2.5t-4 4.5l115 725q1 8 71 8q71 0 74 -8l133 -359q54 -143 83 -236h2q7 69 18.5 153.5t20 138.5t26 159.5
t23.5 143.5q1 8 54 8h18.5t15 -1t12.5 -2.5t4 -4.5zM636 894q-39 -68 -99 -68q-30 0 -64 22t-45 22q-25 0 -52 -36q-3 -4 -15.5 5t-22.5 21t-8 16q16 28 42 48t56 20q29 0 63.5 -22t46.5 -22q24 0 54 38q2 4 14 -5.5t22 -22t8 -16.5z" />
    <glyph glyph-name="Ograve" unicode="&#xd2;" horiz-adv-x="691" 
d="M652 209q-16 -107 -94.5 -165.5t-203.5 -58.5q-138 0 -201.5 65.5t-46.5 170.5l48 301q16 108 94 166.5t205 58.5q136 0 200 -63.5t48 -165.5zM544 214q5 34 15 95.5t18 112t15 95.5q11 69 -24.5 104.5t-119.5 35.5q-166 0 -186 -140l-45 -276q-4 -28 -4 -61
q-1 -52 36.5 -78.5t109.5 -26.5q163 0 185 139zM433 807l-83 138q-7 11 15 14q11 2 31 2q30 0 38 -3.5t11 -12.5l59 -135q3 -7 -9 -9q-7 -1 -24 -1q-34 0 -38 7z" />
    <glyph glyph-name="Oacute" unicode="&#xd3;" horiz-adv-x="691" 
d="M652 209q-16 -107 -94.5 -165.5t-203.5 -58.5q-138 0 -201.5 65.5t-46.5 170.5l48 301q16 108 94 166.5t205 58.5q136 0 200 -63.5t48 -165.5zM544 214q5 34 15 95.5t18 112t15 95.5q11 69 -24.5 104.5t-119.5 35.5q-166 0 -186 -140l-45 -276q-4 -28 -4 -61
q-1 -52 36.5 -78.5t109.5 -26.5q163 0 185 139zM501 807q-6 -7 -39 -7q-32 0 -33 6q0 2 2 4l102 135q5 7 9 9.5t15 4.5t31 2q47 0 43 -11q0 -2 -3 -5z" />
    <glyph glyph-name="Ocircumflex" unicode="&#xd4;" horiz-adv-x="691" 
d="M652 209q-16 -107 -94.5 -165.5t-203.5 -58.5q-138 0 -201.5 65.5t-46.5 170.5l48 301q16 108 94 166.5t205 58.5q136 0 200 -63.5t48 -165.5zM544 214q5 34 15 95.5t18 112t15 95.5q11 69 -24.5 104.5t-119.5 35.5q-166 0 -186 -140l-45 -276q-4 -28 -4 -61
q-1 -52 36.5 -78.5t109.5 -26.5q163 0 185 139zM560 815q-32 0 -37 8l-36 89l-64 -88q-6 -8 -39 -8h-15q-23 2 -21 8l97 122q15 16 49 16q37 0 42 -10l61 -129q3 -5 -7 -6.5t-30 -1.5z" />
    <glyph glyph-name="Otilde" unicode="&#xd5;" horiz-adv-x="691" 
d="M652 209q-16 -107 -94.5 -165.5t-203.5 -58.5q-138 0 -201.5 65.5t-46.5 170.5l48 301q16 108 94 166.5t205 58.5q136 0 200 -63.5t48 -165.5zM544 214q5 34 15 95.5t18 112t15 95.5q11 69 -24.5 104.5t-119.5 35.5q-166 0 -186 -140l-45 -276q-4 -28 -4 -61
q-1 -52 36.5 -78.5t109.5 -26.5q163 0 185 139zM619 894q-39 -68 -99 -68q-30 0 -64.5 22t-44.5 22q-25 0 -52 -36q-3 -4 -15.5 5t-22.5 21t-8 16q16 28 42 48t56 20q29 0 63.5 -22t46.5 -22q28 0 53 38q3 4 15 -5.5t22 -22t8 -16.5z" />
    <glyph glyph-name="Odieresis" unicode="&#xd6;" horiz-adv-x="691" 
d="M652 209q-16 -107 -94.5 -165.5t-203.5 -58.5q-138 0 -201.5 65.5t-46.5 170.5l48 301q16 108 94 166.5t205 58.5q136 0 200 -63.5t48 -165.5zM544 214q5 34 15 95.5t18 112t15 95.5q11 69 -24.5 104.5t-119.5 35.5q-166 0 -186 -140l-45 -276q-4 -28 -4 -61
q-1 -52 36.5 -78.5t109.5 -26.5q163 0 185 139zM378 820q-17 0 -31.5 3t-13.5 9q7 37 16 100q1 11 49 11q17 0 31 -3t13 -8q-3 -16 -8 -49.5t-8 -50.5q-1 -12 -48 -12zM567 820q-18 0 -32 3t-13 9q10 66 16 100q1 11 48 11q18 0 31.5 -3t12.5 -8q-9 -63 -16 -100
q-1 -12 -47 -12z" />
    <glyph glyph-name="multiply" unicode="&#xd7;" horiz-adv-x="548" 
d="M512 370l-130 -131l132 -132q10 -10 -21 -41t-41 -21l-132 132l-132 -132q-9 -8 -40 22t-22 40l132 132l-132 131q-6 6 8 23.5t31.5 31t22.5 8.5l132 -133l131 132q6 6 23.5 -7t30.5 -31t7 -24z" />
    <glyph glyph-name="Oslash" unicode="&#xd8;" horiz-adv-x="691" 
d="M650 209q-2 -12 -4 -16q-21 -100 -94.5 -154t-197.5 -54q-118 0 -172 36q-12 -17 -31 -41q-4 -9 -42 -9h-16.5t-13 1t-10 3t-0.5 5l63 83q-34 48 -30 127q1 16 5 52l42 265q37 242 296 242q108 0 175 -39l34 43q6 9 42 9q41 0 41 -7q0 -1 -1 -2l-65 -86q34 -48 30 -119
q-2 -32 -5 -49zM208 214q-5 -30 0 -49l352 463q-34 30 -113 30q-165 0 -187 -140zM542 215l50 305q4 29 1 42l-349 -458q35 -28 113 -28q165 0 185 139z" />
    <glyph glyph-name="Ugrave" unicode="&#xd9;" horiz-adv-x="671" 
d="M709 729l-82 -519q-18 -109 -92 -166.5t-194 -57.5q-119 0 -183.5 61t-47.5 165l82 517q1 8 56 8h18t15.5 -1t13.5 -2.5t4 -4.5l-84 -526q-10 -63 24.5 -95.5t103.5 -32.5q70 0 116.5 33t56.5 95l84 526q1 8 55 8h19t16.5 -1t14 -2.5t4.5 -4.5zM439 807l-82 138
q-7 15 45 16q43 0 46 -9l62 -142q4 -7 -9 -9q-7 -1 -24 -1q-32 0 -38 7z" />
    <glyph glyph-name="Uacute" unicode="&#xda;" horiz-adv-x="671" 
d="M709 729l-82 -519q-18 -109 -92 -166.5t-194 -57.5q-119 0 -183.5 61t-47.5 165l82 517q1 8 56 8h18t15.5 -1t13.5 -2.5t4 -4.5l-84 -526q-10 -63 24.5 -95.5t103.5 -32.5q70 0 116.5 33t56.5 95l84 526q1 8 55 8h19t16.5 -1t14 -2.5t4.5 -4.5zM607 945l-127 -138
q-7 -7 -39 -7q-33 0 -33 6q0 2 2 4l107 142q6 9 49 9q55 -1 41 -16z" />
    <glyph glyph-name="Ucircumflex" unicode="&#xdb;" horiz-adv-x="671" 
d="M709 729l-82 -519q-18 -109 -92 -166.5t-194 -57.5q-119 0 -183.5 61t-47.5 165l82 517q1 8 56 8h18t15.5 -1t13.5 -2.5t4 -4.5l-84 -526q-10 -63 24.5 -95.5t103.5 -32.5q70 0 116.5 33t56.5 95l84 526q1 8 55 8h19t16.5 -1t14 -2.5t4.5 -4.5zM551 815q-32 0 -37 8
l-35 89l-65 -88q-6 -8 -39 -8h-14.5t-12.5 1t-8 2.5v4.5l101 128q10 10 44 10q37 0 42 -10l62 -129q3 -5 -7 -6.5t-31 -1.5z" />
    <glyph glyph-name="Udieresis" unicode="&#xdc;" horiz-adv-x="671" 
d="M709 729l-82 -519q-18 -109 -92 -166.5t-194 -57.5q-119 0 -183.5 61t-47.5 165l82 517q1 8 56 8h18t15.5 -1t13.5 -2.5t4 -4.5l-84 -526q-10 -63 24.5 -95.5t103.5 -32.5q70 0 116.5 33t56.5 95l84 526q1 8 55 8h19t16.5 -1t14 -2.5t4.5 -4.5zM370 820q-17 0 -31.5 3
t-13.5 9l16 100q1 11 49 11q17 0 31 -3t13 -8l-16 -100q-1 -12 -48 -12zM559 820q-18 0 -32 3t-13 9l16 100q1 11 48 11q18 0 31.5 -3t12.5 -8l-16 -100q-1 -12 -47 -12z" />
    <glyph glyph-name="Yacute" unicode="&#xdd;" horiz-adv-x="585" 
d="M690 728l-297 -430l-46 -293q-2 -9 -56 -9h-18.5t-16 1t-14 3t-4.5 5l46 292l-159 431q-1 3 3.5 5t14 2.5t19.5 1t24 0.5q51 0 54 -9l113 -332l217 332q6 9 66 9q14 0 23 -0.5t17.5 -1t12 -2.5t1.5 -5zM578 945l-126 -138q-7 -7 -40 -7q-32 0 -33 6q0 2 2 4l108 142
q6 9 49 9q47 0 43 -11q0 -2 -3 -5z" />
    <glyph glyph-name="Thorn" unicode="&#xde;" horiz-adv-x="618" 
d="M621 335q-20 -123 -81.5 -166t-182.5 -43h-147l-19 -122q-1 -8 -56 -8h-18.5t-16 1t-14 2.5t-4.5 4.5l115 725q1 8 55 8h18.5t16 -1t14 -2.5t4.5 -4.5l-18 -117h146q116 0 166 -50.5t33 -156.5zM513 334l10 70q11 66 -17 89.5t-99 23.5h-135l-47 -294h146q62 0 97.5 25.5
t44.5 85.5z" />
    <glyph glyph-name="germandbls" unicode="&#xdf;" horiz-adv-x="631" 
d="M562 467q-22 2 -35 -1q-38 1 -60.5 -16.5t-26.5 -42.5q-3 -19 10.5 -35.5t35.5 -29t47.5 -30.5t46.5 -38t31.5 -55t3.5 -79q-11 -64 -63 -108t-137 -44q-101 0 -174 52q-4 3 6 24t23 39.5t17 15.5q68 -46 130 -46q42 0 50 40q47 17 45 66q-2 20 -17.5 36.5t-37 28t-45 28
t-42 34.5t-28 48.5t-3.5 70.5q8 46 51 80t98 38q10 48 -12 80.5t-77 32.5q-116 0 -136 -126l-84 -526q-1 -8 -53 -8h-17.5t-15.5 1t-13 2.5t-4 4.5l83 529q36 212 250 212q104 0 154 -81t-1 -197z" />
    <glyph glyph-name="agrave" unicode="&#xe0;" horiz-adv-x="549" 
d="M557 503l-79 -499q-2 -9 -51 -9q-11 0 -19.5 0.5t-15 1.5t-9.5 3t-2 5l24 137q-13 -23 -31 -46t-44 -49.5t-61 -42.5t-71 -16q-71 0 -106.5 50.5t-22.5 138.5l27 180q16 100 78 149.5t161 49.5q123 0 222 -53zM423 270l27 180q-46 23 -110 23q-122 0 -144 -130
q-4 -26 -12.5 -81t-13.5 -84q-8 -47 8 -72.5t52 -25.5q49 0 100 56t93 134zM355 607l-82 138q-7 11 15 14q11 2 30 2q30 0 38 -3t11 -13l59 -135q4 -7 -9 -9q-7 -1 -24 -1q-32 0 -38 7z" />
    <glyph glyph-name="aacute" unicode="&#xe1;" horiz-adv-x="549" 
d="M557 503l-79 -499q-2 -9 -51 -9q-11 0 -19.5 0.5t-15 1.5t-9.5 3t-2 5l24 137q-13 -23 -31 -46t-44 -49.5t-61 -42.5t-71 -16q-71 0 -106.5 50.5t-22.5 138.5l27 180q16 100 78 149.5t161 49.5q123 0 222 -53zM423 270l27 180q-46 23 -110 23q-122 0 -144 -130
q-4 -26 -12.5 -81t-13.5 -84q-8 -47 8 -72.5t52 -25.5q49 0 100 56t93 134zM399 607q-7 -7 -40 -7q-32 0 -33 6q0 2 2 4l102 135q5 7 9 9.5t15 4.5t31 2q47 0 43 -11q0 -2 -3 -5z" />
    <glyph glyph-name="acircumflex" unicode="&#xe2;" horiz-adv-x="549" 
d="M557 503l-79 -499q-2 -9 -51 -9q-11 0 -19.5 0.5t-15 1.5t-9.5 3t-2 5l24 137q-13 -23 -31 -46t-44 -49.5t-61 -42.5t-71 -16q-71 0 -106.5 50.5t-22.5 138.5l27 180q16 100 78 149.5t161 49.5q123 0 222 -53zM423 270q4 23 27 180q-46 23 -110 23q-122 0 -144 -130
q-4 -26 -12.5 -81t-13.5 -84q-8 -47 8 -72.5t52 -25.5q49 0 100 56t93 134zM463 615q-32 0 -37 8q-28 71 -35 89l-65 -88q-5 -8 -39 -8h-15q-22 2 -20 8l96 122q15 16 49 16q37 0 42 -10l62 -129q3 -5 -7 -6.5t-31 -1.5z" />
    <glyph glyph-name="atilde" unicode="&#xe3;" horiz-adv-x="549" 
d="M557 503l-79 -499q-2 -9 -51 -9q-11 0 -19.5 0.5t-15 1.5t-9.5 3t-2 5l24 137q-13 -23 -31 -46t-44 -49.5t-61 -42.5t-71 -16q-71 0 -106.5 50.5t-22.5 138.5l27 180q16 100 78 149.5t161 49.5q123 0 222 -53zM423 270l27 180q-46 23 -110 23q-122 0 -144 -130
q-4 -26 -12.5 -81t-13.5 -84q-8 -47 8 -72.5t52 -25.5q49 0 100 56t93 134zM522 695q-39 -67 -99 -67q-30 0 -64.5 22t-44.5 22q-25 0 -52 -36q-3 -4 -15.5 5t-22.5 21t-8 16q16 28 42 48t56 20q29 0 63.5 -22t46.5 -22q28 0 53 38q3 4 15 -5.5t22 -22.5t8 -17z" />
    <glyph glyph-name="adieresis" unicode="&#xe4;" horiz-adv-x="549" 
d="M557 503l-79 -499q-2 -9 -51 -9q-11 0 -19.5 0.5t-15 1.5t-9.5 3t-2 5l24 137q-13 -23 -31 -46t-44 -49.5t-61 -42.5t-71 -16q-71 0 -106.5 50.5t-22.5 138.5l27 180q16 100 78 149.5t161 49.5q123 0 222 -53zM423 270l27 180q-46 23 -110 23q-122 0 -144 -130
q-4 -26 -12.5 -81t-13.5 -84q-8 -47 8 -72.5t52 -25.5q49 0 100 56t93 134zM282 620q-17 0 -31.5 3t-13.5 9q3 17 8 50.5t8 49.5q1 11 48 11q18 0 31.5 -3t12.5 -8l-15 -100q-1 -12 -48 -12zM470 620q-17 0 -31.5 3t-13.5 9q7 37 16 100q1 11 49 11q17 0 31 -3t13 -8
q-3 -16 -8 -49.5t-8 -50.5q-1 -12 -48 -12z" />
    <glyph glyph-name="aring" unicode="&#xe5;" horiz-adv-x="549" 
d="M557 503l-79 -499q-2 -9 -51 -9q-11 0 -19.5 0.5t-15 1.5t-9.5 3t-2 5l24 137q-13 -23 -31 -46t-44 -49.5t-61 -42.5t-71 -16q-71 0 -106.5 50.5t-22.5 138.5l27 180q16 100 78 149.5t161 49.5q123 0 222 -53zM423 270l27 180q-46 23 -110 23q-122 0 -144 -130
q-4 -26 -12.5 -81t-13.5 -84q-8 -47 8 -72.5t52 -25.5q49 0 100 56t93 134zM472 686q-6 -34 -33 -56t-60 -22q-38 0 -60 26t-15 64q6 34 33 56.5t60 22.5q38 0 60 -26t15 -65zM430 688q3 21 -7 34t-29 13q-18 0 -32 -12t-16 -28q-4 -20 6 -33t30 -13q17 0 31 12t17 27z" />
    <glyph glyph-name="ae" unicode="&#xe6;" horiz-adv-x="871" 
d="M849 236h-338l-8 -50q-8 -54 20 -84.5t89 -30.5q75 0 167 44q3 1 8.5 -5.5t11 -17.5t10.5 -23t6 -20.5t-2 -10.5q-102 -52 -220 -52q-119 0 -165 72q-104 -70 -205 -70q-81 0 -126 47.5t-34 117.5l3 19q14 88 100.5 128t257.5 15l8 48q8 53 -14 77.5t-80 24.5
q-75 0 -156 -35q-4 -2 -11 11q-17 33 -17 63q1 10 5 12q89 40 193 40q113 0 154 -69q67 69 171 69q106 0 154.5 -61t32.5 -163zM248 75q83 0 155 62q-3 24 2 56l8 50q-232 34 -248 -67l-3 -18q-6 -40 17 -61.5t69 -21.5zM760 310l5 36q10 60 -17 93t-81 33t-91.5 -33.5
t-46.5 -91.5l-6 -37h237z" />
    <glyph glyph-name="ccedilla" unicode="&#xe7;" horiz-adv-x="491" 
d="M254 -203q-54 0 -98 29q-2 2 3 15.5t12.5 24.5t12.5 8q39 -24 68 -24q42 0 47 29l1 9q3 18 -15 25.5t-60 4.5l11 70q-80 10 -121.5 65t-28.5 137l25 160q35 205 246 205q108 0 171 -57q5 -5 -4.5 -26.5t-24 -39.5t-21.5 -12q-1 1 -10 7t-13.5 8.5t-14.5 8.5t-18 9t-19 7
t-23 5.5t-24 1.5q-122 0 -141 -128l-23 -145q-10 -59 16.5 -89.5t81.5 -30.5q59 0 136 49q10 6 22.5 -12.5t17 -38.5t-1.5 -28q-73 -51 -162 -57l-4 -25q42 -3 60 -23.5t13 -49.5l-3 -20q-13 -72 -114 -72z" />
    <glyph glyph-name="egrave" unicode="&#xe8;" horiz-adv-x="556" 
d="M531 375q-25 -194 -351 -178l-4 -22q-8 -52 23 -77.5t87 -25.5q77 0 172 45q7 4 18 -14.5t15 -37.5t-1 -25q-103 -55 -213 -55q-111 0 -164 59.5t-35 166.5l23 142q17 102 80 152.5t163 50.5q101 0 150 -50t37 -131zM438 376q7 41 -16.5 67.5t-79.5 26.5q-55 0 -91 -31.5
t-46 -92.5l-11 -73q226 -12 244 103zM349 607l-83 138q-9 12 21 15q10 1 25 1q42 0 46 -9l62 -142q3 -7 -8 -9q-8 -1 -25 -1q-34 0 -38 7z" />
    <glyph glyph-name="eacute" unicode="&#xe9;" horiz-adv-x="556" 
d="M531 375q-25 -194 -351 -178l-4 -22q-8 -52 23 -77.5t87 -25.5q77 0 172 45q7 4 18 -14.5t15 -37.5t-1 -25q-103 -55 -213 -55q-111 0 -164 59.5t-35 166.5l23 142q17 102 80 152.5t163 50.5q101 0 150 -50t37 -131zM438 376q7 41 -16.5 67.5t-79.5 26.5q-55 0 -91 -31.5
t-46 -92.5l-11 -73q226 -12 244 103zM534 745l-127 -138q-6 -7 -39 -7t-33 6q0 2 2 4l107 142q7 9 50 9q47 0 43 -11q0 -2 -3 -5z" />
    <glyph glyph-name="ecircumflex" unicode="&#xea;" horiz-adv-x="556" 
d="M531 375q-25 -194 -351 -178l-4 -22q-8 -52 23 -77.5t87 -25.5q77 0 172 45q7 4 18 -14.5t15 -37.5t-1 -25q-103 -55 -213 -55q-111 0 -164 59.5t-35 166.5l23 142q17 102 80 152.5t163 50.5q101 0 150 -50t37 -131zM438 376q7 41 -16.5 67.5t-79.5 26.5q-55 0 -91 -31.5
t-46 -92.5l-11 -73q226 -12 244 103zM462 615q-31 0 -37 8l-35 89l-65 -88q-6 -8 -39 -8h-14.5t-12.5 1t-8 2.5v4.5l102 128q9 10 44 10q36 0 42 -10l61 -129q3 -5 -7 -6.5t-31 -1.5z" />
    <glyph glyph-name="edieresis" unicode="&#xeb;" horiz-adv-x="556" 
d="M531 375q-25 -194 -351 -178l-4 -22q-8 -52 23 -77.5t87 -25.5q77 0 172 45q7 4 18 -14.5t15 -37.5t-1 -25q-103 -55 -213 -55q-111 0 -164 59.5t-35 166.5l23 142q17 102 80 152.5t163 50.5q101 0 150 -50t37 -131zM438 376q7 41 -16.5 67.5t-79.5 26.5q-55 0 -91 -31.5
t-46 -92.5l-11 -73q226 -12 244 103zM282 620q-18 0 -32 3t-13 9l15 100q1 11 49 11q17 0 31 -3t13 -8l-16 -100q-1 -12 -47 -12zM470 620q-17 0 -31.5 3t-13.5 9l16 100q1 11 48 11q18 0 31.5 -3t12.5 -8l-15 -100q-1 -12 -48 -12z" />
    <glyph glyph-name="igrave" unicode="&#xec;" horiz-adv-x="256" 
d="M126 -4h-16.5t-16 1t-14 2.5t-4.5 4.5l84 533q2 8 54 8h17.5t16 -1t14 -2.5t3.5 -4.5l-84 -533q-1 -8 -54 -8zM183 607l-82 138q-7 15 45 16q43 0 46 -9l63 -142q3 -6 -8 -8q-7 -2 -26 -2q-32 0 -38 7z" />
    <glyph glyph-name="iacute" unicode="&#xed;" horiz-adv-x="256" 
d="M126 -4h-16.5t-16 1t-14 2.5t-4.5 4.5l84 533q2 8 54 8h17.5t16 -1t14 -2.5t3.5 -4.5l-84 -533q-1 -8 -54 -8zM388 745l-127 -138q-6 -7 -39 -7t-33 6q0 2 2 4l107 142q7 9 49 9q45 0 45 -10q-1 -3 -4 -6z" />
    <glyph glyph-name="icircumflex" unicode="&#xee;" horiz-adv-x="256" 
d="M126 -4h-16.5t-16 1t-14 2.5t-4.5 4.5l84 533q2 8 54 8h17.5t16 -1t14 -2.5t3.5 -4.5l-84 -533q-1 -8 -54 -8zM312 615q-31 0 -37 8l-35 89l-65 -88q-6 -8 -39 -8h-14.5t-12.5 1t-8 2.5v4.5l102 128q9 10 44 10q36 0 42 -10l61 -129q3 -5 -7 -6.5t-31 -1.5z" />
    <glyph glyph-name="idieresis" unicode="&#xef;" horiz-adv-x="256" 
d="M126 -4h-16.5t-16 1t-14 2.5t-4.5 4.5l84 533q2 8 54 8h17.5t16 -1t14 -2.5t3.5 -4.5l-84 -533q-1 -8 -54 -8zM132 620q-18 0 -32 3t-13 9l15 100q1 11 49 11q17 0 31 -3t13 -8l-16 -100q-1 -12 -47 -12zM320 620q-17 0 -31.5 3t-13.5 9l16 100q1 11 49 11q17 0 30.5 -3
t12.5 -8l-15 -100q-1 -12 -48 -12z" />
    <glyph glyph-name="eth" unicode="&#xf0;" horiz-adv-x="594" 
d="M350 522q100 0 145 -45q-11 74 -64 129l-47 -42q-4 -4 -17.5 7.5t-23.5 26.5t-5 20l44 40l-42 47q-7 8 32.5 44.5t47.5 28.5q12 -12 42 -47l47 43q5 4 19 -7.5t24 -27t5 -19.5l-48 -43q58 -68 77.5 -147t1.5 -191l-22 -137q-16 -102 -81.5 -158t-179.5 -56
q-122 0 -178 59t-41 154l20 123q15 96 83.5 147t160.5 51zM210 305l-16 -102q-10 -66 22.5 -98t86.5 -32q135 0 157 136l14 91q11 64 -23 100t-91 36q-58 0 -98.5 -32.5t-51.5 -98.5z" />
    <glyph glyph-name="ntilde" unicode="&#xf1;" 
d="M512 4q-1 -8 -53 -8h-16.5t-16.5 1t-14.5 2.5t-4.5 4.5l57 356q15 100 -65 100q-40 0 -85.5 -30t-76.5 -70l-57 -356q-1 -8 -53 -8h-16.5t-16 1t-14 2.5t-4.5 4.5l84 534q2 8 54 8q9 0 16.5 -0.5t15.5 -1t12.5 -2.5t3.5 -4l-11 -73q14 17 34.5 35t64 37t88.5 19
q70 -1 108 -51t26 -127zM549 694q-39 -68 -99 -68q-30 0 -64.5 22t-44.5 22q-25 0 -52 -36q-3 -4 -15.5 5t-23 21t-8.5 16q16 28 42.5 48t56.5 20q29 0 63 -22t47 -22q28 0 53 38q3 4 15 -5.5t22 -22t8 -16.5z" />
    <glyph glyph-name="ograve" unicode="&#xf2;" horiz-adv-x="581" 
d="M292 -15q-108 0 -163.5 55.5t-39.5 151.5l25 159q32 205 258 205q106 0 163 -56.5t42 -152.5l-26 -157q-15 -100 -83.5 -152.5t-175.5 -52.5zM472 347q19 120 -109 120q-64 0 -99.5 -28.5t-45.5 -91.5l-24 -153q-10 -62 16.5 -91t90.5 -29q127 0 147 120zM355 607
l-82 138q-7 15 45 16q43 0 46 -9l62 -142q4 -7 -9 -9q-7 -1 -24 -1q-32 0 -38 7z" />
    <glyph glyph-name="oacute" unicode="&#xf3;" horiz-adv-x="581" 
d="M292 -15q-108 0 -163.5 55.5t-39.5 151.5l25 159q32 205 258 205q106 0 163 -56.5t42 -152.5l-26 -157q-15 -100 -83.5 -152.5t-175.5 -52.5zM472 347q19 120 -109 120q-64 0 -99.5 -28.5t-45.5 -91.5l-24 -153q-10 -62 16.5 -91t90.5 -29q127 0 147 120zM536 745
l-127 -138q-7 -7 -39 -7q-33 0 -33 6q0 2 2 4l107 142q7 9 49 9q55 -1 41 -16z" />
    <glyph glyph-name="ocircumflex" unicode="&#xf4;" horiz-adv-x="581" 
d="M292 -15q-108 0 -163.5 55.5t-39.5 151.5l25 159q32 205 258 205q106 0 163 -56.5t42 -152.5l-26 -157q-15 -100 -83.5 -152.5t-175.5 -52.5zM472 347q19 120 -109 120q-64 0 -99.5 -28.5t-45.5 -91.5l-24 -153q-10 -62 16.5 -91t90.5 -29q127 0 147 120zM475 615
q-32 0 -37 8l-36 89l-64 -88q-7 -8 -39 -8h-15t-12 1t-9 2.5t0 4.5l102 128q10 10 44 10q37 0 42 -10l61 -129q3 -5 -7 -6.5t-30 -1.5z" />
    <glyph glyph-name="otilde" unicode="&#xf5;" horiz-adv-x="581" 
d="M292 -15q-108 0 -163.5 55.5t-39.5 151.5l25 159q32 205 258 205q106 0 163 -56.5t42 -152.5l-26 -157q-15 -100 -83.5 -152.5t-175.5 -52.5zM472 347q19 120 -109 120q-64 0 -99.5 -28.5t-45.5 -91.5l-24 -153q-10 -62 16.5 -91t90.5 -29q127 0 147 120zM535 694
q-39 -68 -99 -68q-30 0 -64.5 22t-44.5 22q-25 0 -52 -36q-3 -4 -15.5 5t-22.5 21t-8 16q15 28 41.5 48t56.5 20q29 0 63 -22t47 -22q28 0 53 38q3 4 15 -5.5t22 -22t8 -16.5z" />
    <glyph glyph-name="odieresis" unicode="&#xf6;" horiz-adv-x="581" 
d="M292 -15q-108 0 -163.5 55.5t-39.5 151.5l25 159q32 205 258 205q106 0 163 -56.5t42 -152.5l-26 -157q-15 -100 -83.5 -152.5t-175.5 -52.5zM472 347q19 120 -109 120q-64 0 -99.5 -28.5t-45.5 -91.5l-24 -153q-10 -62 16.5 -91t90.5 -29q127 0 147 120zM294 620
q-17 0 -31.5 3t-13.5 9l16 100q1 11 49 11q17 0 31 -3t13 -8l-16 -100q-1 -12 -48 -12zM483 620q-18 0 -32 3t-13 9l15 100q1 11 49 11q17 0 31 -3t13 -8l-16 -100q-1 -12 -47 -12z" />
    <glyph glyph-name="divide" unicode="&#xf7;" horiz-adv-x="659" 
d="M112 300h496q9 0 9 -44q0 -43 -9 -43h-496q-9 0 -9 43q0 44 9 44zM360 -5q-47 0 -47 8v127q0 8 47 8t47 -8v-127q0 -8 -47 -8zM360 381q-47 0 -47 8v127q0 8 47 8t47 -8v-127q0 -8 -47 -8z" />
    <glyph glyph-name="oslash" unicode="&#xf8;" horiz-adv-x="581" 
d="M305 -15q-76 0 -120 19l-22 -33q-5 -11 -40 -11q-37 0 -37 5q0 1 1 3l45 68q-59 54 -43 158l25 156q15 100 81 153t164 53q79 0 122 -20l20 30q5 9 41 9q36 -1 33 -11l-41 -60q58 -55 42 -156l-25 -158q-15 -100 -81 -152.5t-165 -52.5zM218 346l-24 -156q-7 -41 4 -63
l228 328q-21 12 -63 12q-64 0 -98.5 -29t-46.5 -92zM472 346q7 44 -3 66l-229 -328q24 -10 61 -10q127 0 147 120z" />
    <glyph glyph-name="ugrave" unicode="&#xf9;" 
d="M155 538q2 8 54 8h16.5t16 -1t14.5 -2.5t4 -4.5l-57 -361q-8 -46 9 -71t56 -25q45 0 96 37t68 64l55 356q2 8 54 8h16.5t16 -1t14 -2.5t4.5 -4.5l-85 -534q-1 -8 -53 -8q-20 0 -35 1.5t-14 6.5l12 71q-24 -28 -74.5 -59t-104.5 -31q-74 0 -114.5 50t-27.5 127zM367 607
l-83 138q-9 14 34 16h12q43 0 46 -9l62 -142q4 -7 -9 -9q-7 -1 -24 -1q-32 0 -38 7z" />
    <glyph glyph-name="uacute" unicode="&#xfa;" 
d="M155 538q2 8 54 8h16.5t16 -1t14.5 -2.5t4 -4.5l-57 -361q-8 -46 9 -71t56 -25q45 0 96 37t68 64l55 356q2 8 54 8h16.5t16 -1t14 -2.5t4.5 -4.5l-85 -534q-1 -8 -53 -8q-20 0 -35 1.5t-14 6.5l12 71q-24 -28 -74.5 -59t-104.5 -31q-74 0 -114.5 50t-27.5 127zM533 745
l-127 -138q-7 -7 -39 -7q-33 0 -33 6q0 2 2 4l107 142q6 9 49 9q47 0 44 -11q-1 -2 -3 -5z" />
    <glyph glyph-name="ucircumflex" unicode="&#xfb;" 
d="M155 538q2 8 54 8h16.5t16 -1t14.5 -2.5t4 -4.5l-57 -361q-8 -46 9 -71t56 -25q45 0 96 37t68 64l55 356q2 8 54 8h16.5t16 -1t14 -2.5t4.5 -4.5l-85 -534q-1 -8 -53 -8q-20 0 -35 1.5t-14 6.5l12 71q-24 -28 -74.5 -59t-104.5 -31q-74 0 -114.5 50t-27.5 127zM475 615
q-31 0 -37 8l-35 89l-65 -88q-6 -8 -39 -8h-14.5t-12.5 1t-8 2.5v4.5l101 128q10 10 44 10q37 0 43 -10l61 -129q3 -5 -7 -6.5t-31 -1.5z" />
    <glyph glyph-name="udieresis" unicode="&#xfc;" 
d="M155 538q2 8 54 8h16.5t16 -1t14.5 -2.5t4 -4.5l-57 -361q-8 -46 9 -71t56 -25q45 0 96 37t68 64l55 356q2 8 54 8h16.5t16 -1t14 -2.5t4.5 -4.5l-85 -534q-1 -8 -53 -8q-20 0 -35 1.5t-14 6.5l12 71q-24 -28 -74.5 -59t-104.5 -31q-74 0 -114.5 50t-27.5 127zM294 620
q-17 0 -31.5 3t-13.5 9l16 100q1 11 48 11q18 0 31.5 -3t12.5 -8l-16 -100q-1 -12 -47 -12zM482 620q-17 0 -31.5 3t-13.5 9l16 100q1 11 49 11q17 0 31 -3t13 -8l-16 -100q-1 -12 -48 -12z" />
    <glyph glyph-name="yacute" unicode="&#xfd;" horiz-adv-x="522" 
d="M594 537l-387 -728q-5 -8 -55 -8h-18.5t-16 1t-13 2.5t-2.5 4.5l107 204l-111 524q-1 3 2.5 4.5t13 2.5t17 1h22.5q53 0 54 -8l74 -411l197 411q5 8 61 8q10 0 19 -0.5t18.5 -1t14.5 -2.5t3 -4zM500 745l-127 -138q-7 -7 -39 -7q-33 0 -33 6q0 2 2 4l107 142q7 9 49 9
q45 0 45 -10q-1 -3 -4 -6z" />
    <glyph glyph-name="thorn" unicode="&#xfe;" horiz-adv-x="596" 
d="M324 -15q-58 0 -94 21.5t-43 40.5l-39 -243q-1 -8 -54 -8h-16.5t-16 1t-14 2.5t-4.5 4.5l148 933q1 8 52 8q48 0 48 -8l-42 -261q26 32 70.5 56t101.5 24q85 0 134.5 -52.5t33.5 -149.5l-27 -167q-15 -98 -81.5 -150t-156.5 -52zM379 463q-58 0 -98.5 -38.5t-49.5 -96.5
l-19 -120q-10 -61 20 -97.5t90 -36.5q118 0 138 126l22 137q19 126 -103 126z" />
    <glyph glyph-name="ydieresis" unicode="&#xff;" horiz-adv-x="522" 
d="M594 537l-387 -728q-5 -8 -55 -8h-18.5t-16 1t-13 2.5t-2.5 4.5l107 204l-111 524q-1 3 2.5 4.5t13 2.5t17 1h22.5q53 0 54 -8l74 -411l197 411q5 8 61 8q10 0 19 -0.5t18.5 -1t14.5 -2.5t3 -4zM258 620q-18 0 -32 3t-13 9l16 100q1 11 48 11q17 0 31 -3t13 -8l-16 -100
q-1 -12 -47 -12zM446 620q-17 0 -31.5 3t-13.5 9l16 100q1 11 49 11q17 0 31 -3t13 -8l-16 -100q-1 -12 -48 -12z" />
    <glyph glyph-name="Amacron" unicode="&#x100;" horiz-adv-x="610" 
d="M419 737q60 0 61 -9l113 -724q0 -2 -2 -3.5t-7 -2t-10 -1.5t-12.5 -1h-12h-12.5q-50 0 -51 8l-23 165h-262l-76 -165q-4 -8 -57 -8h-18.5t-16 1t-13.5 2.5t-3 4.5l340 724q5 9 62 9zM242 260h209l-47 360zM318 853q-8 0 -8 40t8 40h243q8 0 8 -40t-8 -40h-243z" />
    <glyph glyph-name="amacron" unicode="&#x101;" horiz-adv-x="561" 
d="M568 503l-80 -499q-1 -9 -50 -9q-12 0 -20 0.5t-14.5 1.5t-9.5 3t-3 5q1 6 10.5 58t13.5 79q-31 -56 -85 -105t-122 -49q-71 0 -106.5 51t-22.5 138q5 30 14 90t14 90q15 100 77.5 149.5t161.5 49.5q121 0 222 -53zM434 270l27 180q-52 23 -111 23q-123 0 -143 -130
l-27 -165q-8 -47 8 -72.5t53 -25.5q88 0 193 190zM265 653q-9 0 -9 40t9 40h242q9 0 9 -40t-9 -40h-242z" />
    <glyph glyph-name="Abreve" unicode="&#x102;" horiz-adv-x="610" 
d="M419 737q60 0 61 -9l113 -724q0 -2 -2 -3.5t-7 -2t-10 -1.5t-12.5 -1h-12h-12.5q-50 0 -51 8l-23 165h-262l-76 -165q-4 -8 -57 -8h-18.5t-16 1t-13.5 2.5t-3 4.5l340 724q5 9 62 9zM242 260h209l-47 360zM572 954q-16 -56 -53.5 -88t-91.5 -32q-50 0 -78.5 35t-26.5 85
q0 7 37 7q23 0 23 -6q-1 -30 13 -47t39 -17q27 0 46 17.5t27 46.5q1 6 36 6q7 0 11.5 -0.5l9 -1t6.5 -2t2 -3.5z" />
    <glyph glyph-name="abreve" unicode="&#x103;" horiz-adv-x="561" 
d="M568 503l-80 -499q-1 -9 -50 -9q-12 0 -20 0.5t-14.5 1.5t-9.5 3t-3 5q1 6 10.5 58t13.5 79q-31 -56 -85 -105t-122 -49q-71 0 -106.5 51t-22.5 138q5 30 14 90t14 90q15 100 77.5 149.5t161.5 49.5q121 0 222 -53zM434 270l27 180q-52 23 -111 23q-123 0 -143 -130
l-27 -165q-8 -47 8 -72.5t53 -25.5q88 0 193 190zM513 754q-16 -56 -53.5 -88t-91.5 -32q-51 0 -79.5 35t-26.5 85q0 7 38 7q23 0 23 -6q-1 -30 13 -47t39 -17q27 0 46 17.5t27 46.5q1 6 36 6q7 0 11.5 -0.5l9 -1t6.5 -2t2 -3.5z" />
    <glyph glyph-name="Aogonek" unicode="&#x104;" horiz-adv-x="610" 
d="M419 737q60 0 61 -9l113 -724q0 -4 -10 -6q-53 -24 -93.5 -56t-43.5 -65q-5 -41 38 -41q29 0 53 21q5 3 14 -5.5t13.5 -19t-0.5 -16.5q-38 -38 -105 -38q-38 0 -68 23.5t-22 75.5q6 40 40 68t88 53q-11 3 -11 6l-23 165h-262l-76 -165q-4 -8 -57 -8h-18.5t-16 1
t-13.5 2.5t-3 4.5l340 724q5 9 62 9zM242 260h209l-47 360z" />
    <glyph glyph-name="aogonek" unicode="&#x105;" horiz-adv-x="561" 
d="M568 503l-80 -499q-2 -4 -9 -6q-129 -61 -137 -121q-3 -41 39 -41q28 0 52 21q8 5 22 -14.5t6 -26.5q-40 -38 -106 -38q-38 0 -68 23.5t-22 75.5q4 22 16 40.5t32.5 34t38.5 25.5t43 22q-4 3 -4 6q1 6 10.5 58t13.5 79q-31 -56 -85 -105t-122 -49q-71 0 -106.5 51
t-22.5 138q5 30 14 90t14 90q15 100 77.5 149.5t161.5 49.5q121 0 222 -53zM434 270l27 180q-52 23 -111 23q-123 0 -143 -130l-27 -165q-8 -47 8 -72.5t53 -25.5q88 0 193 190z" />
    <glyph glyph-name="Cacute" unicode="&#x106;" horiz-adv-x="579" 
d="M653 704q2 -2 0 -11.5t-8.5 -23t-13 -26t-13.5 -20.5t-10 -7q-87 41 -163 41q-70 0 -121 -33.5t-62 -98.5l-50 -319q-6 -39 3 -66t31.5 -40t47.5 -18t57 -5q84 0 180 34q6 2 12.5 -20t8 -43t-3.5 -27q-31 -13 -97.5 -24t-117.5 -11q-119 0 -182.5 57t-46.5 166l50 316
q34 222 295 222q115 0 204 -43zM609 945l-127 -138q-6 -7 -39 -7q-32 0 -33 6q0 2 2 4l107 142q7 9 50 9q47 0 43 -11q0 -2 -3 -5z" />
    <glyph glyph-name="cacute" unicode="&#x107;" horiz-adv-x="491" 
d="M271 -15q-94 0 -146.5 57.5t-38.5 147.5l25 160q35 205 246 205q108 0 171 -57q5 -5 -4.5 -26.5t-24 -39.5t-21.5 -12q-1 1 -10 7t-13.5 8.5t-14.5 8.5t-18 9t-19 7t-23 5.5t-24 1.5q-122 0 -141 -128l-23 -145q-10 -59 16.5 -89.5t81.5 -30.5q59 0 136 49
q10 6 22.5 -12.5t17 -38.5t-1.5 -28q-84 -59 -193 -59zM512 745l-127 -138q-7 -7 -39 -7q-33 0 -33 6q0 2 2 4l107 142q6 9 49 9q55 -1 41 -16z" />
    <glyph glyph-name="Ccaron" unicode="&#x10c;" horiz-adv-x="579" 
d="M653 704q2 -2 0 -11.5t-8.5 -23t-13 -26t-13.5 -20.5t-10 -7q-87 41 -163 41q-70 0 -121 -33.5t-62 -98.5l-50 -319q-6 -39 3 -66t31.5 -40t47.5 -18t57 -5q84 0 180 34q6 2 12.5 -20t8 -43t-3.5 -27q-31 -13 -97.5 -24t-117.5 -11q-119 0 -182.5 57t-46.5 166l50 316
q34 222 295 222q115 0 204 -43zM383 964q32 0 37 -8l36 -89l66 88q8 9 40 9h14.5t12.5 -1t8 -3v-5l-102 -128q-10 -10 -44 -10q-37 0 -42 10l-63 129q-3 5 7 6.5t30 1.5z" />
    <glyph glyph-name="ccaron" unicode="&#x10d;" horiz-adv-x="491" 
d="M271 -15q-94 0 -146.5 57.5t-38.5 147.5l25 160q35 205 246 205q108 0 171 -57q5 -5 -4.5 -26.5t-24 -39.5t-21.5 -12q-1 1 -10 7t-13.5 8.5t-14.5 8.5t-18 9t-19 7t-23 5.5t-24 1.5q-122 0 -141 -128l-23 -145q-10 -59 16.5 -89.5t81.5 -30.5q59 0 136 49
q10 6 22.5 -12.5t17 -38.5t-1.5 -28q-84 -59 -193 -59zM306 764q32 0 37 -8l36 -89l66 88q8 9 40 9h14.5t12.5 -1t8 -3v-5l-102 -128q-10 -10 -44 -10q-37 0 -42 10l-63 129q-3 5 7 6.5t30 1.5z" />
    <glyph glyph-name="Dcaron" unicode="&#x10e;" horiz-adv-x="663" 
d="M671 503l-45 -281q-18 -114 -87 -168t-199 -54h-257l116 733h259q119 0 174.5 -61t38.5 -169zM517 222l45 280q22 139 -122 139h-147l-88 -549h144q148 0 168 130zM372 964q32 0 37 -8l36 -89l66 88q8 9 40 9h14.5t12.5 -1t8 -3v-5l-103 -128q-9 -10 -44 -10
q-36 0 -42 10l-62 129q-3 5 7 6.5t30 1.5z" />
    <glyph glyph-name="dcaron" unicode="&#x10f;" horiz-adv-x="826" 
d="M74 177l29 184q15 98 73.5 146.5t149.5 48.5q80 0 133 -56l38 233q1 9 48 9q57 0 56 -9l-115 -729q-2 -8 -59 -8h-14.5t-13.5 1t-12 2.5t-3 4.5l21 128q-12 -19 -27 -38t-41.5 -46t-60 -43.5t-67.5 -16.5q-69 0 -108.5 51.5t-26.5 137.5zM203 350l-26 -163
q-19 -109 60 -109q85 0 188 193l13 79q8 48 -21 85.5t-84 37.5q-110 0 -130 -123zM662 497q-21 22 -7 31q45 37 60.5 74t30.5 132q1 8 51 8h17.5t16 -1t14 -2.5t3.5 -4.5q-29 -181 -161 -251q-12 -6 -25 14z" />
    <glyph glyph-name="Dcroat" unicode="&#x110;" horiz-adv-x="663" 
d="M70 331q-7 0 -1 43q7 43 15 43h64l51 316h255q126 0 180.5 -56t36.5 -174l-45 -281q-34 -222 -279 -222h-264l52 331h-65zM517 222l45 280q22 139 -122 139h-147l-36 -224h144q9 0 2 -43q-9 -43 -16 -43h-144l-38 -239h149q143 0 163 130z" />
    <glyph glyph-name="dcroat" unicode="&#x111;" horiz-adv-x="592" 
d="M319 589q-9 0 -2 44q7 43 16 43h154l10 57q1 9 48 9q57 0 56 -9l-9 -57h67q8 0 1 -43q-7 -44 -15 -44h-67l-92 -585q-2 -8 -59 -8h-14.5t-13.5 1t-12 2.5t-3 4.5l21 128q-12 -19 -27 -38t-41.5 -46t-60 -43.5t-67.5 -16.5q-69 0 -108.5 51.5t-26.5 137.5l29 184
q15 98 73.5 146.5t149.5 48.5q80 0 133 -56l14 89h-154zM425 271l13 79q8 48 -21 85.5t-84 37.5q-110 0 -130 -123l-26 -163q-19 -109 60 -109q85 0 188 193z" />
    <glyph glyph-name="Emacron" unicode="&#x112;" horiz-adv-x="526" 
d="M488 46q-8 -46 -15 -46h-390l116 733h388q8 0 0 -48q-8 -45 -15 -45h-279l-35 -213h248q10 0 2 -45t-16 -45h-248l-38 -245h280q8 0 2 -46zM305 853q-8 0 -8 40t8 40h243q8 0 8 -40t-8 -40h-243z" />
    <glyph glyph-name="emacron" unicode="&#x113;" horiz-adv-x="552" 
d="M528 375q-25 -194 -352 -178l-3 -22q-8 -52 23 -77.5t87 -25.5q77 0 172 45q7 4 17.5 -14.5t15 -37.5t-0.5 -25q-103 -55 -213 -55q-111 0 -164 59.5t-35 166.5l23 142q17 102 80 152.5t163 50.5t149.5 -50t37.5 -131zM435 376q7 41 -16.5 67.5t-79.5 26.5
q-55 0 -91.5 -31.5t-45.5 -92.5l-11 -73q226 -12 244 103zM251 653q-9 0 -9 40t9 40h243q8 0 8 -40t-8 -40h-243z" />
    <glyph glyph-name="Edotaccent" unicode="&#x116;" horiz-adv-x="526" 
d="M488 46q-8 -46 -15 -46h-390l116 733h388q8 0 0 -48q-8 -45 -15 -45h-279l-35 -213h248q10 0 2 -45t-16 -45h-248l-38 -245h280q8 0 2 -46zM407 826q-64 0 -61 15l15 94q2 14 66 14q23 0 43 -3.5t19 -11.5l-16 -93q-1 -15 -66 -15z" />
    <glyph glyph-name="edotaccent" unicode="&#x117;" horiz-adv-x="552" 
d="M528 375q-25 -194 -352 -178l-3 -22q-8 -52 23 -77.5t87 -25.5q77 0 172 45q7 4 17.5 -14.5t15 -37.5t-0.5 -25q-103 -55 -213 -55q-111 0 -164 59.5t-35 166.5l23 142q17 102 80 152.5t163 50.5t149.5 -50t37.5 -131zM435 376q7 41 -16.5 67.5t-79.5 26.5
q-55 0 -91.5 -31.5t-45.5 -92.5l-11 -73q226 -12 244 103zM349 626q-64 0 -61 15l15 94q2 14 66 14q23 0 43 -3.5t19 -11.5l-16 -93q-1 -15 -66 -15z" />
    <glyph glyph-name="Eogonek" unicode="&#x118;" horiz-adv-x="526" 
d="M386 0h-303l116 733h388q8 0 0 -48q-8 -45 -15 -45h-279l-35 -213h248q10 0 2 -45t-16 -45h-248l-38 -245h280q8 0 2 -46q-8 -46 -15 -46q-54 -24 -96 -57t-46 -66q-5 -41 38 -41q29 0 53 21q5 3 14 -5.5t13.5 -19t-0.5 -16.5q-38 -38 -105 -38q-38 0 -68 23.5t-22 75.5
q5 29 28.5 54.5t45 38t58.5 30.5z" />
    <glyph glyph-name="eogonek" unicode="&#x119;" horiz-adv-x="552" 
d="M528 375q-25 -194 -352 -178q-1 -8 -3 -22q-8 -52 23 -77.5t87 -25.5q77 0 172 45q7 4 17.5 -14.5t15 -37.5t-0.5 -25q-12 -7 -58 -25.5t-81 -34.5t-67.5 -44.5t-35.5 -58.5q-5 -41 38 -41q27 0 53 21q5 3 14 -5.5t13.5 -19t-0.5 -16.5q-40 -38 -105 -38
q-38 0 -68.5 23.5t-21.5 75.5q8 58 102 109q-15 0 -43 4q-88 12 -128 69t-24 152q8 55 23 142q17 102 80 152.5t163 50.5t149.5 -50t37.5 -131zM435 376q7 41 -16.5 67.5t-79.5 26.5q-55 0 -91.5 -31.5t-45.5 -92.5q-9 -54 -11 -73q226 -12 244 103z" />
    <glyph glyph-name="Ecaron" unicode="&#x11a;" horiz-adv-x="526" 
d="M488 46q-8 -46 -15 -46h-390l116 733h388q8 0 0 -48q-8 -45 -15 -45h-279l-35 -213h248q10 0 2 -45t-16 -45h-248l-38 -245h280q8 0 2 -46zM345 964q31 0 36 -8l37 -89l65 88q8 9 40 9h15t13 -1t7.5 -3t-0.5 -5l-102 -128q-10 -10 -44 -10q-37 0 -42 10l-63 129
q-3 5 7 6.5t31 1.5z" />
    <glyph glyph-name="ecaron" unicode="&#x11b;" horiz-adv-x="552" 
d="M528 375q-25 -194 -352 -178l-3 -22q-8 -52 23 -77.5t87 -25.5q77 0 172 45q7 4 17.5 -14.5t15 -37.5t-0.5 -25q-103 -55 -213 -55q-111 0 -164 59.5t-35 166.5l23 142q17 102 80 152.5t163 50.5t149.5 -50t37.5 -131zM435 376q7 41 -16.5 67.5t-79.5 26.5
q-55 0 -91.5 -31.5t-45.5 -92.5l-11 -73q226 -12 244 103zM283 764q32 0 37 -8l36 -89l66 88q8 9 40 9h14.5t12.5 -1t8 -3v-5l-102 -128q-10 -10 -45 -10q-36 0 -42 10l-62 129q-3 5 7 6.5t30 1.5z" />
    <glyph glyph-name="Gbreve" unicode="&#x11e;" horiz-adv-x="669" 
d="M535 215l16 99h-139q-8 0 0 47q4 46 15 46h245l-31 -197q-18 -109 -94 -167t-210 -58q-125 0 -186.5 63.5t-47.5 156.5l51 322q35 220 299 220q111 0 199 -43q3 -2 1 -11.5t-8 -23.5t-13 -26.5t-14 -20.5t-10 -7q-83 40 -164 40q-66 0 -118.5 -32t-63.5 -98l-48 -308
q-11 -70 27.5 -105.5t111.5 -35.5q161 0 182 139zM598 954q-15 -56 -52.5 -88t-91.5 -32q-51 0 -79.5 35t-26.5 85q0 7 38 7h8.5t7 -1t5 -2t1.5 -3q-1 -30 13 -47t40 -17q27 0 46 17.5t26 46.5q2 6 37 6q6 0 11 -0.5t9.5 -1t6.5 -2t1 -3.5z" />
    <glyph glyph-name="gbreve" unicode="&#x11f;" horiz-adv-x="591" 
d="M599 492l-71 -446q-20 -125 -81.5 -193t-185.5 -68q-59 0 -112 16.5t-83 39.5q-6 5 4 25.5t24 38t20 13.5q42 -31 105 -41q31 -6 66 -3q112 12 132 136l21 125q-99 -141 -196 -141q-79 0 -120 52.5t-27 136.5q12 67 28 173q16 98 80 149t160 51q128 0 236 -64zM461 287
q10 59 25 157q-51 30 -116 30q-21 0 -39 -4.5t-31.5 -10.5t-25 -18.5t-19.5 -23.5t-15 -30.5t-11 -33.5t-9 -39.5t-7 -41t-6.5 -46t-6.5 -46.5q-7 -43 7.5 -68.5t49.5 -25.5t72 26.5t65 66.5t43 64.5t24 43.5zM540 754q-16 -56 -53.5 -88t-91.5 -32q-51 0 -79.5 35t-26.5 85
q0 7 38 7h8.5t7 -1t5 -2t1.5 -3q-1 -30 13.5 -47t39.5 -17q27 0 46 17.5t27 46.5q1 6 36 6q7 0 11.5 -0.5l9 -1t6.5 -2t2 -3.5z" />
    <glyph glyph-name="Gcommaaccent" unicode="&#x122;" horiz-adv-x="669" 
d="M535 215l16 99h-139q-8 0 0 47q4 46 15 46h245l-31 -197q-18 -109 -94 -167t-210 -58q-125 0 -186.5 63.5t-47.5 156.5l51 322q35 220 299 220q111 0 199 -43q3 -2 1 -11.5t-8 -23.5t-13 -26.5t-14 -20.5t-10 -7q-83 40 -164 40q-66 0 -118.5 -32t-63.5 -98l-48 -308
q-11 -70 27.5 -105.5t111.5 -35.5q161 0 182 139zM189 -300q-20 22 -7 31q45 37 60.5 74t30.5 132q2 8 52 8h16.5t16 -1t14 -2.5t4.5 -4.5q-28 -179 -162 -252q-12 -5 -25 15z" />
    <glyph glyph-name="gcommaaccent" unicode="&#x123;" horiz-adv-x="591" 
d="M599 492l-71 -446q-20 -125 -81.5 -193t-185.5 -68q-59 0 -112 16.5t-83 39.5q-6 5 4 25.5t24 38t20 13.5q42 -31 105 -41q31 -6 66 -3q112 12 132 136l21 125q-99 -141 -196 -141q-79 0 -120 52.5t-27 136.5q12 67 28 173q16 98 80 149t160 51q128 0 236 -64zM461 287
q5 27 13 79.5t12 77.5q-51 30 -116 30q-21 0 -39 -4.5t-31.5 -10.5t-25 -18.5t-19.5 -23.5t-15 -30.5t-11 -33.5t-9 -39.5t-7 -41t-6.5 -46t-6.5 -46.5q-7 -43 7.5 -68.5t49.5 -25.5t72 26.5t65 66.5t43 64.5t24 43.5zM533 871q19 -23 7 -32q-45 -38 -60.5 -74t-30.5 -131
q-1 -9 -51 -9h-17.5t-16 1t-14 3t-3.5 5q29 179 161 251q11 6 25 -14z" />
    <glyph glyph-name="Itilde" unicode="&#x128;" horiz-adv-x="277" 
d="M194 4q-1 -8 -55 -8h-18.5t-16.5 1t-14 2.5t-4 4.5l115 725q1 8 55 8h18.5t16 -1t14 -2.5t4.5 -4.5zM425 894q-39 -68 -99 -68q-29 0 -63.5 22t-45.5 22q-25 0 -52 -36q-3 -4 -15.5 5t-22.5 21t-8 16q16 28 42 48t57 20q28 0 62.5 -22t46.5 -22q24 0 54 38q3 4 15 -5.5
t21.5 -22t7.5 -16.5z" />
    <glyph glyph-name="itilde" unicode="&#x129;" horiz-adv-x="256" 
d="M127 -4h-16.5t-16 1t-14 2.5t-4.5 4.5l84 533q2 8 54 8h16.5t16 -1t14 -2.5t4.5 -4.5l-85 -533q-1 -8 -53 -8zM375 694q-39 -68 -99 -68q-29 0 -63.5 22t-44.5 22q-27 0 -52 -36q-3 -4 -15.5 5t-23 21t-8.5 16q16 28 42.5 48t56.5 20q28 0 62.5 -22t47.5 -22
q6 0 11.5 1.5t10 4.5t8.5 6t8 7.5t6 7t5.5 6.5t3.5 5q3 4 15 -5.5t21.5 -22t7.5 -16.5z" />
    <glyph glyph-name="uni012A" unicode="&#x12a;" horiz-adv-x="277" 
d="M194 4q-1 -8 -55 -8h-18.5t-16.5 1t-14 2.5t-4 4.5l115 725q1 8 55 8h18.5t16 -1t14 -2.5t4.5 -4.5zM149 853q-9 0 -9 40t9 40h242q9 0 9 -40t-9 -40h-242z" />
    <glyph glyph-name="imacron" unicode="&#x12b;" horiz-adv-x="256" 
d="M127 -4h-16.5t-16 1t-14 2.5t-4.5 4.5l84 533q2 8 54 8h16.5t16 -1t14 -2.5t4.5 -4.5l-85 -533q-1 -8 -53 -8zM106 653q-8 0 -8 40t8 40h243q9 0 9 -40t-9 -40h-243z" />
    <glyph glyph-name="Iogonek" unicode="&#x12e;" horiz-adv-x="277" 
d="M194 4q-1 -4 -11 -5q-131 -62 -137 -122q-5 -41 38 -41q27 0 53 21q5 3 14 -5.5t13.5 -19t-0.5 -16.5q-40 -38 -105 -38q-38 0 -68 23.5t-22 75.5q7 40 41 68t87 53q-11 4 -11 6l115 725q1 8 55 8h18.5t16 -1t14 -2.5t4.5 -4.5z" />
    <glyph glyph-name="iogonek" unicode="&#x12f;" horiz-adv-x="256" 
d="M180 4q-2 -4 -12 -6q-129 -61 -137 -121q-5 -41 39 -41q26 0 52 21q5 3 14 -5.5t14 -20t0 -15.5q-42 -38 -106 -38q-38 0 -68 23.5t-22 75.5q7 41 40.5 68t88.5 54q-2 0 -4 1t-2.5 2t-0.5 2l84 533q2 8 54 8h16.5t16 -1t14 -2.5t4.5 -4.5zM225 617h-16.5t-16 1t-14 3
t-4.5 5q3 17 9.5 55.5t9.5 59.5q1 8 53 8h9h13q31 0 29 -8l-18 -115q-1 -9 -54 -9z" />
    <glyph glyph-name="Idotaccent" unicode="&#x130;" horiz-adv-x="277" 
d="M194 4q-1 -8 -55 -8h-18.5t-16.5 1t-14 2.5t-4 4.5l115 725q1 8 55 8h18.5t16 -1t14 -2.5t4.5 -4.5zM267 826q-22 0 -42 4t-19 11l16 94q1 14 65 14q24 0 43.5 -3.5t18.5 -11.5l-15 -93q-2 -15 -67 -15z" />
    <glyph glyph-name="dotlessi" unicode="&#x131;" horiz-adv-x="256" 
d="M120 -4h-18t-15.5 1t-13.5 2.5t-4 4.5l84 533q2 8 54 8h17.5t16 -1t13.5 -2.5t4 -4.5l-85 -533q-1 -8 -53 -8z" />
    <glyph glyph-name="Kcommaaccent" unicode="&#x136;" horiz-adv-x="599" 
d="M232 259l-41 -255q-1 -8 -55 -8h-18.5t-16 1t-14 2.5t-4.5 4.5l115 725q1 8 56 8h18.5t16 -1t13.5 -2.5t4 -4.5l-52 -334l315 333q10 9 61 9h25t21.5 -1t17 -2.5t1.5 -4.5l-307 -323l197 -402q2 -2 -3 -4t-15.5 -2.5t-21.5 -1t-25 -0.5q-53 0 -59 8l-157 329zM172 -300
q-21 22 -7 31q45 37 60.5 73.5t30.5 132.5q1 8 51 8h17.5t16 -1t14 -2.5t3.5 -4.5q-29 -180 -161 -252q-12 -5 -25 15z" />
    <glyph glyph-name="kcommaaccent" unicode="&#x137;" horiz-adv-x="519" 
d="M592 535l-242 -234l167 -297q2 -3 -3 -4.5t-17.5 -2.5t-21 -1h-23.5q-51 0 -57 8l-127 229l-55 -45l-31 -184q-1 -8 -54 -8h-16.5t-16 1t-14 2.5t-4.5 4.5l117 737q1 8 53 8h17.5t16 -1t14 -2.5t4.5 -4.5l-67 -421l225 216q10 9 73 9q67 -1 62 -10zM138 -300
q-20 22 -7 31q45 37 60.5 74t30.5 132q2 8 51 8h17.5t16 -1t14 -2.5t3.5 -4.5q-29 -180 -161 -252q-12 -5 -25 15z" />
    <glyph glyph-name="kgreenlandic" unicode="&#x138;" horiz-adv-x="519" 
d="M592 535l-242 -234l167 -297q2 -3 -3 -4.5t-17.5 -2.5t-21 -1h-23.5q-51 0 -57 8l-127 229l-55 -45l-31 -184q-1 -8 -54 -8h-16.5t-16 1t-14 2.5t-4.5 4.5l84 537q1 8 54 8h16.5t16 -1t14 -2.5t4.5 -4.5l-34 -221l225 216q10 9 73 9q67 -1 62 -10z" />
    <glyph glyph-name="Lacute" unicode="&#x139;" horiz-adv-x="509" 
d="M508 49q-7 -49 -16 -49h-409l115 729q1 8 55 8h18.5t16 -1t14 -2.5t4.5 -4.5l-100 -631h301q7 0 1 -49zM434 945l-127 -138q-6 -7 -39 -7t-33 6q0 2 2 4l107 142q7 9 50 9q47 0 43 -11q0 -2 -3 -5z" />
    <glyph glyph-name="lacute" unicode="&#x13a;" horiz-adv-x="296" 
d="M256 0h-47q-59 0 -92.5 36.5t-23.5 96.5l97 608q1 8 53 8h17.5t16 -1t14 -2.5t4.5 -4.5l-95 -598q-9 -52 43 -52h27q11 0 12.5 -7.5t-2.5 -37.5t-8.5 -38t-15.5 -8zM414 945l-126 -138q-7 -7 -40 -7q-32 0 -33 6q0 2 2 4l108 142q6 9 49 9q47 0 43 -11q0 -2 -3 -5z" />
    <glyph glyph-name="Lcommaaccent" unicode="&#x13b;" horiz-adv-x="509" 
d="M508 49q-7 -49 -16 -49h-409l115 729q1 8 55 8h18.5t16 -1t14 -2.5t4.5 -4.5l-100 -631h301q7 0 1 -49zM149 -300q-20 22 -7 31q45 37 60.5 74t30.5 132q2 8 52 8h16.5t16 -1t14 -2.5t4.5 -4.5q-28 -179 -162 -252q-12 -5 -25 15z" />
    <glyph glyph-name="lcommaaccent" unicode="&#x13c;" horiz-adv-x="296" 
d="M256 0h-47q-59 0 -92.5 36.5t-23.5 96.5l97 608q1 8 53 8h17.5t16 -1t14 -2.5t4.5 -4.5l-95 -598q-9 -52 43 -52h27q11 0 12.5 -7.5t-2.5 -37.5t-8.5 -38t-15.5 -8zM22 -300q-21 22 -7 31q45 37 60.5 73.5t30.5 132.5q1 8 51 8h17.5t16 -1t14 -2.5t3.5 -4.5
q-29 -180 -161 -252q-12 -5 -25 15z" />
    <glyph glyph-name="Lcaron" unicode="&#x13d;" horiz-adv-x="509" 
d="M508 49q-7 -49 -16 -49h-409l115 729q1 8 55 8h18.5t16 -1t14 -2.5t4.5 -4.5l-100 -631h301q7 0 1 -49zM349 489q-19 23 -7 32q45 37 60.5 73t30.5 132q1 9 51 9h17.5t16 -1t14 -3t3.5 -5q-29 -179 -161 -251q-12 -4 -25 14z" />
    <glyph glyph-name="lcaron" unicode="&#x13e;" horiz-adv-x="296" 
d="M256 0h-47q-59 0 -92.5 36.5t-23.5 96.5l97 608q1 8 53 8h17.5t16 -1t14 -2.5t4.5 -4.5l-95 -598q-9 -52 43 -52h27q11 0 12.5 -7.5t-2.5 -37.5t-8.5 -38t-15.5 -8zM326 497q-20 22 -7 31q45 37 60.5 74t30.5 132q2 8 52 8h16.5t16 -1t14 -2.5t4.5 -4.5
q-29 -180 -161 -251q-12 -6 -26 14z" />
    <glyph glyph-name="Lslash" unicode="&#x141;" horiz-adv-x="517" 
d="M144 377l56 353q1 7 55 7h10h11.5t12 -0.5t9.5 -1.5t7.5 -2t2.5 -3l-46 -298l111 56q3 1 7.5 -5.5t9 -17t8 -22t4 -19.5t-2.5 -10l-152 -76l-40 -248h307q9 0 1 -44q-6 -46 -15 -46h-415l44 282l-50 -25q-3 -1 -7.5 5.5t-9 16.5t-8 21.5t-4 20t2.5 10.5z" />
    <glyph glyph-name="lslash" unicode="&#x142;" horiz-adv-x="264" 
d="M173 4q-1 -8 -54 -8q-22 0 -38 1.5t-15 6.5l44 276l-58 -29q-3 -1 -7.5 6t-9.5 17.5t-8.5 23t-4.5 21t2 10.5l102 50l55 350q1 8 55 8h18.5t16 -1t13.5 -2.5t4 -4.5l-46 -292l64 32q3 1 8 -6t10 -17.5t9 -22.5t4.5 -20.5t-2.5 -10.5l-109 -54z" />
    <glyph glyph-name="Nacute" unicode="&#x143;" horiz-adv-x="721" 
d="M638 4q-1 -2 -16 -2q-1 -6 -52 -6q-63 0 -66 8l-146 392q-55 152 -78 222h-1q-8 -96 -21.5 -193t-37 -235t-31.5 -186q-1 -8 -54 -8h-18.5t-16 1t-13.5 2.5t-4 4.5l115 725q1 8 71 8q71 0 74 -8l133 -359q54 -143 83 -236h2q7 69 18.5 153.5t20 138.5t26 159.5
t23.5 143.5q1 8 54 8h18.5t15 -1t12.5 -2.5t4 -4.5zM519 807q-6 -7 -39 -7q-32 0 -33 6q0 2 2 4l102 135q5 7 9 9.5t15 4.5t31 2q43 0 43 -10q0 -2 -3 -6z" />
    <glyph glyph-name="nacute" unicode="&#x144;" 
d="M512 4q-1 -8 -53 -8h-16.5t-16.5 1t-14.5 2.5t-4.5 4.5l57 356q15 100 -65 100q-40 0 -85.5 -30t-76.5 -70l-57 -356q-1 -8 -53 -8h-16.5t-16 1t-14 2.5t-4.5 4.5l84 534q2 8 54 8q9 0 16.5 -0.5t15.5 -1t12.5 -2.5t3.5 -4l-11 -73q14 17 34.5 35t64 37t88.5 19
q70 -1 108 -51t26 -127zM538 745l-127 -138q-7 -7 -39 -7q-33 0 -33 6q0 2 2 4l107 142q6 9 49 9q47 0 44 -11q-1 -2 -3 -5z" />
    <glyph glyph-name="Ncommaaccent" unicode="&#x145;" horiz-adv-x="721" 
d="M638 4q-1 -2 -16 -2q-1 -6 -52 -6q-63 0 -66 8l-146 392q-55 152 -78 222h-1q-8 -96 -21.5 -193t-37 -235t-31.5 -186q-1 -8 -54 -8h-18.5t-16 1t-13.5 2.5t-4 4.5l115 725q1 8 71 8q71 0 74 -8l133 -359q54 -143 83 -236h2q7 69 18.5 153.5t20 138.5t26 159.5
t23.5 143.5q1 8 54 8h18.5t15 -1t12.5 -2.5t4 -4.5zM218 -300q-20 22 -7 31q45 37 60.5 74t30.5 132q2 8 51 8h17.5t16 -1t14 -2.5t3.5 -4.5q-29 -180 -161 -252q-12 -5 -25 15z" />
    <glyph glyph-name="ncommaaccent" unicode="&#x146;" 
d="M512 4q-1 -8 -53 -8h-16.5t-16.5 1t-14.5 2.5t-4.5 4.5l57 356q15 100 -65 100q-40 0 -85.5 -30t-76.5 -70l-57 -356q-1 -8 -53 -8h-16.5t-16 1t-14 2.5t-4.5 4.5l84 534q2 8 54 8q9 0 16.5 -0.5t15.5 -1t12.5 -2.5t3.5 -4l-11 -73q14 17 34.5 35t64 37t88.5 19
q70 -1 108 -51t26 -127zM152 -300q-21 22 -7 31q45 37 60.5 73.5t30.5 132.5q1 8 51 8h17.5t16 -1t14 -2.5t3.5 -4.5q-29 -180 -161 -252q-12 -5 -25 15z" />
    <glyph glyph-name="Ncaron" unicode="&#x147;" horiz-adv-x="721" 
d="M638 4q-1 -2 -16 -2q-1 -6 -52 -6q-63 0 -66 8l-146 392q-55 152 -78 222h-1q-8 -96 -21.5 -193t-37 -235t-31.5 -186q-1 -8 -54 -8h-18.5t-16 1t-13.5 2.5t-4 4.5l115 725q1 8 71 8q71 0 74 -8l133 -359q54 -143 83 -236h2q7 69 18.5 153.5t20 138.5t26 159.5
t23.5 143.5q1 8 54 8h18.5t15 -1t12.5 -2.5t4 -4.5zM425 964q32 0 37 -8l36 -89l66 88q8 9 40 9h15q21 0 21 -7q0 -1 -1 -2l-98 -122q-14 -16 -48 -16q-37 0 -42 10l-63 129q-3 5 7 6.5t30 1.5z" />
    <glyph glyph-name="ncaron" unicode="&#x148;" 
d="M512 4q-1 -8 -53 -8h-16.5t-16.5 1t-14.5 2.5t-4.5 4.5l57 356q15 100 -65 100q-40 0 -85.5 -30t-76.5 -70l-57 -356q-1 -8 -53 -8h-16.5t-16 1t-14 2.5t-4.5 4.5l84 534q2 8 54 8q9 0 16.5 -0.5t15.5 -1t12.5 -2.5t3.5 -4l-11 -73q14 17 34.5 35t64 37t88.5 19
q70 -1 108 -51t26 -127zM322 764q32 0 37 -8l36 -89l66 88q8 9 40 9h14.5t12.5 -1t8 -3v-5l-102 -128q-10 -10 -45 -10q-36 0 -42 10l-62 129q-3 5 7 6.5t30 1.5z" />
    <glyph glyph-name="Eng" unicode="&#x14a;" horiz-adv-x="721" 
d="M753 729l-117 -742q-13 -86 -59.5 -130.5t-137.5 -44.5h-65q-9 0 -1 47q8 45 15 45h55q43 0 59.5 21t25.5 72q-21 2 -24 7q-15 40 -70.5 186t-89.5 240t-64 188h-1q-10 -110 -28 -228l-62 -386q-1 -8 -54 -8h-18.5t-16 1t-13.5 2.5t-4 4.5l115 725q1 8 71 8q71 0 74 -8
q18 -49 53.5 -143.5t57 -152.5t51.5 -141.5t54 -157.5h2q6 69 17.5 152.5t20.5 140t26 158t24 144.5q1 8 54 8h18.5t15 -1t12.5 -2.5t4 -4.5z" />
    <glyph glyph-name="eng" unicode="&#x14b;" 
d="M364 -202h-94q-8 0 -1 45q7 44 15 44h54q29 0 42.5 14.5t18.5 50.5l65 408q15 100 -65 100q-40 0 -85.5 -30t-76.5 -70l-57 -356q-1 -8 -53 -8h-16.5t-16 1t-14 2.5t-4.5 4.5l84 534q2 8 54 8q9 0 16.5 -0.5t15.5 -1t12.5 -2.5t3.5 -4q-8 -45 -11 -73q14 17 34.5 35
t64 37t88.5 19q62 -1 99 -41t36 -105q-2 -49 -10 -105t-23.5 -140t-19.5 -110q-2 -12 -6.5 -42t-6.5 -41.5t-6.5 -36t-8 -34.5t-10.5 -28.5t-14 -26.5t-17.5 -19.5t-23 -16t-28.5 -8.5t-35 -4z" />
    <glyph glyph-name="Omacron" unicode="&#x14c;" horiz-adv-x="691" 
d="M652 209q-16 -107 -94.5 -165.5t-203.5 -58.5q-138 0 -201.5 65.5t-46.5 170.5l48 301q16 108 94 166.5t205 58.5q136 0 200 -63.5t48 -165.5zM544 214q5 34 15 95.5t18 112t15 95.5q11 69 -24.5 104.5t-119.5 35.5q-166 0 -186 -140l-45 -276q-4 -28 -4 -61
q-1 -52 36.5 -78.5t109.5 -26.5q163 0 185 139zM357 853q-8 0 -8 40t8 40h243q8 0 8 -40t-8 -40h-243z" />
    <glyph glyph-name="omacron" unicode="&#x14d;" horiz-adv-x="579" 
d="M290 -15q-107 0 -162.5 55.5t-40.5 151.5l25 159q33 205 258 205q106 0 163 -56.5t42 -152.5l-26 -157q-15 -100 -83 -152.5t-176 -52.5zM470 347q19 120 -109 120q-64 0 -99.5 -28.5t-45.5 -91.5l-24 -153q-10 -62 16.5 -91t90.5 -29q127 0 147 120zM272 653q-9 0 -9 40
t9 40h242q9 0 9 -40t-9 -40h-242z" />
    <glyph glyph-name="Ohungarumlaut" unicode="&#x150;" horiz-adv-x="691" 
d="M652 209q-16 -107 -94.5 -165.5t-203.5 -58.5q-138 0 -201.5 65.5t-46.5 170.5l48 301q16 108 94 166.5t205 58.5q136 0 200 -63.5t48 -165.5zM544 214q5 34 15 95.5t18 112t15 95.5q11 69 -24.5 104.5t-119.5 35.5q-166 0 -186 -140l-45 -276q-4 -28 -4 -61
q-1 -52 36.5 -78.5t109.5 -26.5q163 0 185 139zM582 807q-7 -7 -40 -7t-33 7q0 1 2 4l102 135q7 9 16 12t38 3q44 0 45 -9q0 -3 -4 -7zM420 807q-7 -7 -40 -7q-32 0 -33 7q0 1 2 4l102 135q7 9 16.5 12t38.5 3q44 0 44 -9q0 -3 -4 -7z" />
    <glyph glyph-name="ohungarumlaut" unicode="&#x151;" horiz-adv-x="579" 
d="M290 -15q-107 0 -162.5 55.5t-40.5 151.5l25 159q33 205 258 205q106 0 163 -56.5t42 -152.5l-26 -157q-15 -100 -83 -152.5t-176 -52.5zM470 347q19 120 -109 120q-64 0 -99.5 -28.5t-45.5 -91.5l-24 -153q-10 -62 16.5 -91t90.5 -29q127 0 147 120zM619 745l-127 -138
q-7 -7 -39 -7q-33 0 -33 7q0 1 2 4l107 141q7 9 49 9q45 0 45 -9q-1 -3 -4 -7zM457 745l-126 -138q-7 -7 -40 -7q-32 0 -33 7q0 1 2 4l108 141q6 9 49 9q45 0 44 -9q0 -3 -4 -7z" />
    <glyph glyph-name="OE" unicode="&#x152;" horiz-adv-x="989" 
d="M524 41q-65 -53 -176 -53q-123 0 -190.5 52t-49.5 162l52 334q17 107 100 158t205 51q61 0 105 -18.5t57 -34.5l7 41h400q8 0 2 -45q-8 -45 -16 -45h-293l-34 -216h242q10 0 2 -44q-8 -46 -16 -46h-242l-39 -247h307q8 0 2 -45q-8 -45 -16 -45q-69 0 -207.5 -0.5
t-208.5 -0.5zM547 195l54 341q10 64 -32.5 91.5t-115.5 27.5q-165 0 -184 -119l-54 -341q-10 -66 33 -91.5t114 -25.5q166 0 185 117z" />
    <glyph glyph-name="oe" unicode="&#x153;" horiz-adv-x="922" 
d="M292 -15q-108 0 -161.5 56.5t-37.5 156.5l24 152q16 101 80.5 153.5t168.5 52.5q138 0 187 -70q70 70 174 70q107 0 156 -60t33 -164l-17 -105h-336l-7 -38q-8 -57 18.5 -88t88.5 -31q74 0 169 45q3 1 8.5 -5.5t10.5 -17.5t10 -23t6 -20.5t-2 -10.5q-98 -52 -220 -52
q-116 0 -161 68q-72 -69 -192 -69zM476 349q16 118 -109 118q-64 0 -99.5 -29t-45.5 -92l-24 -152q-10 -62 16.5 -91t90.5 -29q124 0 146 117zM810 305l7 41q10 60 -17 92.5t-82 32.5q-53 0 -90 -32t-47 -89l-8 -45h237z" />
    <glyph glyph-name="Racute" unicode="&#x154;" horiz-adv-x="614" 
d="M472 287l96 -283q1 -3 -3.5 -4.5t-15.5 -2.5t-19.5 -1h-24.5q-53 0 -57 8l-82 266h-131l-42 -266q-1 -8 -56 -8h-18.5t-16 1t-14 2.5t-4.5 4.5l116 729h244q107 0 154 -57.5t32 -149.5l-8 -48q-12 -78 -46 -122t-104 -69zM515 485l6 34q10 64 -14 94t-96 30h-117
l-45 -284h117q72 0 105.5 30.5t43.5 95.5zM583 945l-127 -138q-6 -7 -39 -7t-33 6q0 2 2 4l107 142q7 9 50 9q47 0 43 -11q0 -2 -3 -5z" />
    <glyph glyph-name="racute" unicode="&#x155;" horiz-adv-x="377" 
d="M420 438h-44q-33 0 -66.5 -27.5t-81.5 -86.5l-51 -320q-1 -8 -55 -8h-16.5t-15.5 1t-13.5 2.5t-4.5 4.5l85 534q1 8 52 8q20 0 34.5 -1.5t13.5 -6.5l-19 -117q57 73 91 98.5t78 25.5h31q10 0 0 -54q-9 -53 -18 -53zM468 745l-126 -138q-7 -7 -40 -7q-32 0 -33 6q0 2 2 4
l108 142q6 9 49 9q47 0 43 -11q0 -2 -3 -5z" />
    <glyph glyph-name="Rcommaaccent" unicode="&#x156;" horiz-adv-x="614" 
d="M472 287l96 -283q1 -3 -3.5 -4.5t-15.5 -2.5t-19.5 -1h-24.5q-53 0 -57 8l-82 266h-131l-42 -266q-1 -8 -56 -8h-18.5t-16 1t-14 2.5t-4.5 4.5l116 729h244q107 0 154 -57.5t32 -149.5l-8 -48q-12 -78 -46 -122t-104 -69zM515 485l6 34q10 64 -14 94t-96 30h-117
l-45 -284h117q72 0 105.5 30.5t43.5 95.5zM172 -300q-21 22 -7 31q45 37 60.5 73.5t30.5 132.5q1 8 51 8h17.5t16 -1t14 -2.5t3.5 -4.5q-29 -180 -161 -252q-12 -5 -25 15z" />
    <glyph glyph-name="rcommaaccent" unicode="&#x157;" horiz-adv-x="377" 
d="M420 438h-44q-33 0 -66.5 -27.5t-81.5 -86.5l-51 -320q-1 -8 -55 -8h-16.5t-15.5 1t-13.5 2.5t-4.5 4.5l85 534q1 8 52 8q20 0 34.5 -1.5t13.5 -6.5l-19 -117q57 73 91 98.5t78 25.5h31q10 0 0 -54q-9 -53 -18 -53zM-23 -300q-20 22 -7 31q45 37 60.5 74t30.5 132
q2 8 52 8h16.5t16 -1t14 -2.5t3.5 -4.5q-29 -180 -161 -252q-12 -5 -25 15z" />
    <glyph glyph-name="Rcaron" unicode="&#x158;" horiz-adv-x="614" 
d="M472 287l96 -283q1 -3 -3.5 -4.5t-15.5 -2.5t-19.5 -1h-24.5q-53 0 -57 8l-82 266h-131l-42 -266q-1 -8 -56 -8h-18.5t-16 1t-14 2.5t-4.5 4.5l116 729h244q107 0 154 -57.5t32 -149.5l-8 -48q-12 -78 -46 -122t-104 -69zM515 485l6 34q10 64 -14 94t-96 30h-117
l-45 -284h117q72 0 105.5 30.5t43.5 95.5zM352 964q31 0 36 -8l37 -89l65 88q8 9 40 9h15t13 -1t7.5 -3t-0.5 -5l-102 -128q-10 -10 -44 -10q-37 0 -42 10l-63 129q-3 5 7 6.5t31 1.5z" />
    <glyph glyph-name="rcaron" unicode="&#x159;" horiz-adv-x="377" 
d="M420 438h-44q-33 0 -66.5 -27.5t-81.5 -86.5l-51 -320q-1 -8 -55 -8h-16.5t-15.5 1t-13.5 2.5t-4.5 4.5l85 534q1 8 52 8q20 0 34.5 -1.5t13.5 -6.5l-19 -117q57 73 91 98.5t78 25.5h31q10 0 0 -54q-9 -53 -18 -53zM247 764q31 0 37 -8l36 -89l65 88q9 9 40 9h15t13 -1
t7.5 -3t-0.5 -5l-102 -128q-9 -10 -44 -10q-37 0 -42 10l-62 129q-3 5 7 6.5t30 1.5z" />
    <glyph glyph-name="Sacute" unicode="&#x15a;" horiz-adv-x="560" 
d="M547 192q-15 -93 -87 -150t-193 -57q-123 0 -224 74q-4 3 8 27t28 44.5t21 17.5q29 -23 80.5 -45t96.5 -22q66 0 107.5 30t50.5 85q10 60 -50 100q-14 9 -93 50q-37 19 -62 36.5t-49 44t-33 61.5t-2 78q12 75 76 127.5t175 52.5q104 0 197 -52q3 -2 0.5 -11.5t-8.5 -23.5
t-13 -26.5t-14 -20.5t-10 -6q-77 46 -166 46q-57 0 -91 -25.5t-40 -68.5q-8 -50 54 -90q12 -7 88 -46q175 -88 153 -230zM562 945l-126 -138q-7 -7 -40 -7q-32 0 -33 6q0 2 2 4l108 142q6 9 49 9q47 0 43 -11q0 -2 -3 -5z" />
    <glyph glyph-name="sacute" unicode="&#x15b;" horiz-adv-x="461" 
d="M227 -14q-55 0 -104.5 16.5t-75.5 35.5q-4 3 6 24t23.5 39.5t17.5 15.5q71 -46 137 -46q46 0 75 22.5t34 53.5q4 31 -20 54t-60.5 39.5t-72 36t-56.5 55t-12 84.5q11 63 61.5 100.5t143.5 37.5q90 0 152 -32q7 -4 -9.5 -43.5t-24.5 -37.5q-72 29 -131 29q-39 0 -64 -16.5
t-30 -39.5q-4 -21 13 -38t44.5 -29t59 -29.5t58 -37t41.5 -55t8 -81.5q-10 -70 -67 -114t-147 -44zM483 745l-127 -138q-7 -7 -39 -7q-33 0 -33 6q0 2 2 4l107 142q7 9 49 9q45 0 45 -10q-1 -3 -4 -6z" />
    <glyph glyph-name="Scedilla" unicode="&#x15e;" horiz-adv-x="560" 
d="M250 -203q-54 0 -98 29q-3 2 2 15.5t13 24.5t13 8q39 -24 68 -24q42 0 47 29l1 9q3 18 -15 25.5t-60 4.5l11 69q-107 10 -189 72q-4 3 8 27t28 44.5t21 17.5q29 -23 80.5 -45t96.5 -22q66 0 107.5 30t50.5 85q10 60 -50 100q-14 9 -93 50q-37 19 -62 36.5t-49 44
t-33 61.5t-2 78q12 75 76 127.5t175 52.5q104 0 197 -52q3 -2 0.5 -11.5t-8.5 -23.5t-13 -26.5t-14 -20.5t-10 -6q-77 46 -166 46q-57 0 -91 -25.5t-40 -68.5q-8 -50 54 -90q12 -7 88 -46q175 -88 153 -230q-14 -87 -78 -143t-171 -63l-4 -24q42 -3 60 -23.5t13 -49.5
l-3 -20q-13 -72 -114 -72z" />
    <glyph glyph-name="scedilla" unicode="&#x15f;" horiz-adv-x="461" 
d="M200 -203q-54 0 -97 29q-3 2 2 15.5t12.5 24.5t12.5 8q39 -24 68 -24q42 0 47 29l2 9q3 18 -15 25.5t-61 4.5l12 72q-86 11 -136 48q-4 3 6 24t23.5 39.5t17.5 15.5q71 -46 137 -46q46 0 75 22.5t34 53.5q4 31 -20 54t-60.5 39.5t-72 36t-56.5 55t-12 84.5
q11 63 61.5 100.5t143.5 37.5q90 0 152 -32q7 -4 -9.5 -43.5t-24.5 -37.5q-72 29 -131 29q-39 0 -64 -16.5t-30 -39.5q-4 -21 13 -38t44.5 -29t59 -29.5t58 -37t41.5 -55t8 -81.5q-9 -65 -60 -108.5t-132 -48.5l-4 -25q42 -3 59.5 -23.5t12.5 -49.5l-3 -20q-12 -72 -114 -72
z" />
    <glyph glyph-name="Scaron" unicode="&#x160;" horiz-adv-x="558" 
d="M549 192q-15 -93 -87 -150t-193 -57q-123 0 -224 74q-4 3 8 27t28 44.5t21 17.5q29 -23 80.5 -45t96.5 -22q65 0 107 30t51 85q10 60 -50 100q-14 9 -93 50q-37 19 -62 36.5t-49 44t-33 61.5t-2 78q12 75 76 127.5t175 52.5q104 0 197 -52q3 -2 0.5 -11.5t-8.5 -23.5
t-13 -26.5t-14 -20.5t-10 -6q-77 46 -166 46q-57 0 -91 -25.5t-40 -68.5q-8 -50 54 -90q12 -7 88 -46q175 -89 153 -230zM338 964q31 0 36 -8l37 -89l65 88q8 9 40 9h14.5t12.5 -1t8 -3v-5l-102 -128q-10 -10 -44 -10q-37 0 -42 10l-63 129q-3 5 7 6.5t31 1.5z" />
    <glyph glyph-name="scaron" unicode="&#x161;" horiz-adv-x="465" 
d="M228 -14q-55 0 -103.5 16.5t-75.5 35.5q-4 3 6 24t23.5 39.5t17.5 15.5q71 -46 137 -46q46 0 75 22.5t33 53.5q5 31 -19 54t-60.5 39.5t-72 36t-56.5 55t-12 84.5q11 63 61.5 100.5t143.5 37.5q90 0 152 -32q8 -4 -9.5 -43.5t-25.5 -37.5q-70 29 -130 29q-40 0 -65 -16.5
t-29 -39.5q-4 -21 12.5 -38t44 -29t59.5 -29.5t58.5 -37t41 -55t8.5 -81.5q-10 -70 -67.5 -114t-147.5 -44zM264 764q31 0 37 -8l36 -89l66 88q8 9 40 9h14.5t12.5 -1t7.5 -3t-0.5 -5l-102 -128q-9 -10 -44 -10q-37 0 -42 10l-62 129q-3 5 7 6.5t30 1.5z" />
    <glyph glyph-name="Tcommaaccent" unicode="&#x162;" horiz-adv-x="542" 
d="M646 689q-8 -46 -17 -46h-202l-101 -639q-1 -8 -55 -8h-18.5t-16 1t-14 2.5t-4.5 4.5l101 639h-204q-9 0 -1 46q6 44 15 44h515q3 0 4 -2t1 -7t-0.5 -9.5t-1.5 -12.5t-1 -13zM123 -300q-20 22 -7 31q45 37 60.5 74t30.5 132q2 8 51 8h17.5t16 -1t14 -2.5t3.5 -4.5
q-29 -180 -161 -252q-12 -5 -25 15z" />
    <glyph glyph-name="tcommaaccent" unicode="&#x163;" horiz-adv-x="372" 
d="M308 0h-68q-62 0 -93.5 36t-21.5 97l49 309h-73q-9 0 -3 43q7 42 16 42h73l21 129q1 8 53 8h16t15 -1t13 -2.5t3 -4.5l-20 -129h111q9 0 1 -42q-6 -43 -14 -43h-111l-49 -303q-4 -27 6.5 -39t40.5 -12h48q11 0 13 -6.5t-2 -36.5q-5 -30 -9 -37.5t-15 -7.5zM65 -300
q-19 23 -6 31q44 38 59.5 74.5t30.5 131.5q2 8 52 8h16.5t16 -1t14 -2.5t4.5 -4.5q-28 -179 -161 -252q-12 -4 -26 15z" />
    <glyph glyph-name="Tcaron" unicode="&#x164;" horiz-adv-x="542" 
d="M646 689q-8 -46 -17 -46h-202l-101 -639q-1 -8 -55 -8h-18.5t-16 1t-14 2.5t-4.5 4.5l101 639h-204q-9 0 -1 46q6 44 15 44h515q3 0 4 -2t1 -7t-0.5 -9.5t-1.5 -12.5t-1 -13zM330 964q32 0 37 -8l36 -89l66 88q8 9 40 9h14.5t12.5 -1t8 -3v-5l-103 -128q-9 -10 -44 -10
q-36 0 -42 10l-62 129q-3 5 7 6.5t30 1.5z" />
    <glyph glyph-name="tcaron" unicode="&#x165;" horiz-adv-x="634" 
d="M308 0h-68q-62 0 -93.5 36t-21.5 97l49 309h-73q-9 0 -3 43q7 42 16 42h73l21 129q1 8 53 8h16t15 -1t13 -2.5t3 -4.5l-20 -129h111q9 0 1 -42q-6 -43 -14 -43h-111l-49 -303q-4 -27 6.5 -39t40.5 -12h48q11 0 13 -6.5t-2 -36.5q-5 -30 -9 -37.5t-15 -7.5zM449 497
q-21 22 -7 31q45 37 60.5 73.5t30.5 132.5q1 8 51 8h17.5t16 -1t14 -2.5t3.5 -4.5q-29 -181 -161 -251q-12 -6 -25 14z" />
    <glyph glyph-name="Tbar" unicode="&#x166;" horiz-adv-x="542" 
d="M646 689q-8 -46 -17 -46h-202l-18 -117h199q7 0 3 -40q-6 -41 -15 -41h-200l-70 -441q-1 -8 -55 -8h-18.5t-16 1t-14 2.5t-4.5 4.5l69 441h-203q-8 0 -2 41q4 40 14 40h204l19 117h-204q-9 0 -1 46q6 44 15 44h515q3 0 4 -2t1 -7t-0.5 -9.5t-1.5 -12.5t-1 -13z" />
    <glyph glyph-name="tbar" unicode="&#x167;" horiz-adv-x="372" 
d="M83 314q-10 0 -2 40q4 40 14 40h71l8 48h-73q-9 0 -3 43q7 42 16 42h73l21 129q1 8 53 8h16t15 -1t13 -2.5t3 -4.5l-20 -129h111q9 0 1 -42q-6 -43 -14 -43h-111l-8 -48h109q7 0 3 -40q-8 -40 -15 -40h-110l-28 -175q-4 -27 6.5 -39t40.5 -12h48q11 0 13 -6.5t-2 -36.5
q-5 -30 -9 -37.5t-15 -7.5h-68q-62 0 -93.5 36t-21.5 97l28 181h-70z" />
    <glyph glyph-name="Utilde" unicode="&#x168;" horiz-adv-x="671" 
d="M709 729l-82 -519q-18 -109 -92 -166.5t-194 -57.5q-119 0 -183.5 61t-47.5 165l82 517q1 8 56 8h18t15.5 -1t13.5 -2.5t4 -4.5l-84 -526q-10 -63 24.5 -95.5t103.5 -32.5q70 0 116.5 33t56.5 95l84 526q1 8 55 8h19t16.5 -1t14 -2.5t4.5 -4.5zM612 894q-39 -68 -99 -68
q-29 0 -63.5 22t-44.5 22q-27 0 -52 -36q-3 -4 -15.5 5t-23 21t-8.5 16q16 28 42.5 48t56.5 20q28 0 62.5 -22t47.5 -22q6 0 11.5 1.5t10 4.5t8.5 6t8 7.5t6 7t5.5 6.5t3.5 5q3 4 15 -5.5t21.5 -22t7.5 -16.5z" />
    <glyph glyph-name="utilde" unicode="&#x169;" 
d="M155 538q2 8 54 8h16.5t16 -1t14.5 -2.5t4 -4.5l-57 -361q-8 -46 9 -71t56 -25q45 0 96 37t68 64l55 356q2 8 54 8h16.5t16 -1t14 -2.5t4.5 -4.5l-85 -534q-1 -8 -53 -8q-20 0 -35 1.5t-14 6.5l12 71q-24 -28 -74.5 -59t-104.5 -31q-74 0 -114.5 50t-27.5 127zM539 694
q-39 -68 -99 -68q-30 0 -64.5 22t-44.5 22q-25 0 -52 -36q-3 -4 -15.5 5t-22.5 21t-8 16q16 28 42 48t56 20q29 0 63 -22t47 -22q28 0 53 38q3 4 15 -5.5t22 -22t8 -16.5z" />
    <glyph glyph-name="Umacron" unicode="&#x16a;" horiz-adv-x="671" 
d="M709 729l-82 -519q-18 -109 -92 -166.5t-194 -57.5q-119 0 -183.5 61t-47.5 165l82 517q1 8 56 8h18t15.5 -1t13.5 -2.5t4 -4.5l-84 -526q-10 -63 24.5 -95.5t103.5 -32.5q70 0 116.5 33t56.5 95l84 526q1 8 55 8h19t16.5 -1t14 -2.5t4.5 -4.5zM343 853q-8 0 -8 40t8 40
h243q9 0 9 -40t-9 -40h-243z" />
    <glyph glyph-name="umacron" unicode="&#x16b;" 
d="M155 538q2 8 54 8h16.5t16 -1t14.5 -2.5t4 -4.5l-57 -361q-8 -46 9 -71t56 -25q45 0 96 37t68 64l55 356q2 8 54 8h16.5t16 -1t14 -2.5t4.5 -4.5l-85 -534q-1 -8 -53 -8q-20 0 -35 1.5t-14 6.5l12 71q-24 -28 -74.5 -59t-104.5 -31q-74 0 -114.5 50t-27.5 127zM270 653
q-9 0 -9 40t9 40h243q8 0 8 -40t-8 -40h-243z" />
    <glyph glyph-name="Uring" unicode="&#x16e;" horiz-adv-x="671" 
d="M709 729l-82 -519q-18 -109 -92 -166.5t-194 -57.5q-119 0 -183.5 61t-47.5 165l82 517q1 8 56 8h18t15.5 -1t13.5 -2.5t4 -4.5l-84 -526q-10 -63 24.5 -95.5t103.5 -32.5q70 0 116.5 33t56.5 95l84 526q1 8 55 8h19t16.5 -1t14 -2.5t4.5 -4.5zM552 886q-6 -34 -33 -56
t-60 -22q-38 0 -60 26t-15 64q6 34 33 56.5t60 22.5q38 0 60 -26t15 -65zM510 888q3 21 -7 34t-29 13q-17 0 -31.5 -12t-16.5 -28q-4 -20 6 -33t30 -13q17 0 31 12t17 27z" />
    <glyph glyph-name="uring" unicode="&#x16f;" 
d="M155 538q2 8 54 8h16.5t16 -1t14.5 -2.5t4 -4.5l-57 -361q-8 -46 9 -71t56 -25q45 0 96 37t68 64l55 356q2 8 54 8h16.5t16 -1t14 -2.5t4.5 -4.5l-85 -534q-1 -8 -53 -8q-20 0 -35 1.5t-14 6.5l12 71q-24 -28 -74.5 -59t-104.5 -31q-74 0 -114.5 50t-27.5 127zM476 686
q-6 -34 -33 -56t-61 -22q-38 0 -59.5 26t-14.5 64q6 34 33 56.5t59 22.5q38 0 60.5 -26t15.5 -65zM434 688q3 21 -7 34t-30 13q-17 0 -31 -12t-16 -28q-4 -20 6 -33t30 -13q17 0 31 12t17 27z" />
    <glyph glyph-name="Uhungarumlaut" unicode="&#x170;" horiz-adv-x="671" 
d="M709 729l-82 -519q-18 -109 -92 -166.5t-194 -57.5q-119 0 -183.5 61t-47.5 165l82 517q1 8 56 8h18t15.5 -1t13.5 -2.5t4 -4.5l-84 -526q-10 -63 24.5 -95.5t103.5 -32.5q70 0 116.5 33t56.5 95l84 526q1 8 55 8h19t16.5 -1t14 -2.5t4.5 -4.5zM694 945l-126 -138
q-7 -7 -40 -7q-32 0 -33 7q0 1 2 4l108 141q6 9 49 9q45 0 44 -9q0 -3 -4 -7zM533 945l-126 -138q-7 -7 -40 -7t-33 7q0 1 2 4l107 141q7 9 49 9q44 0 45 -9q0 -3 -4 -7z" />
    <glyph glyph-name="uhungarumlaut" unicode="&#x171;" 
d="M155 538q2 8 54 8h16.5t16 -1t14.5 -2.5t4 -4.5l-57 -361q-8 -46 9 -71t56 -25q45 0 96 37t68 64l55 356q2 8 54 8h16.5t16 -1t14 -2.5t4.5 -4.5l-85 -534q-1 -8 -53 -8q-20 0 -35 1.5t-14 6.5l12 71q-24 -28 -74.5 -59t-104.5 -31q-74 0 -114.5 50t-27.5 127zM605 745
l-127 -138q-7 -7 -39 -7q-33 0 -33 7q0 1 2 4l107 141q6 9 49 9q45 0 45 -9q-1 -3 -4 -7zM443 745l-126 -138q-7 -7 -40 -7q-32 0 -33 7q0 1 2 4l107 141q7 9 50 9q44 0 44 -9q0 -3 -4 -7z" />
    <glyph glyph-name="Uogonek" unicode="&#x172;" horiz-adv-x="671" 
d="M709 729l-82 -519q-28 -170 -184 -212q-130 -60 -138 -121q-3 -41 39 -41q28 0 52 21q8 5 22 -14.5t6 -26.5q-40 -38 -106 -38q-38 0 -68 23.5t-22 75.5q9 61 104 110q-27 0 -51 6q-94 13 -140 71.5t-31 147.5l82 517q1 8 56 8h18t15.5 -1t13.5 -2.5t4 -4.5l-84 -526
q-10 -62 24.5 -95t103.5 -33q70 0 116.5 33t56.5 95l84 526q1 8 55 8h19t16.5 -1t14 -2.5t4.5 -4.5z" />
    <glyph glyph-name="uogonek" unicode="&#x173;" 
d="M155 538q2 8 54 8h16.5t16 -1t14.5 -2.5t4 -4.5l-57 -361q-8 -46 9 -71t56 -25q45 0 96 37t68 64l55 356q2 8 54 8h16.5t16 -1t14 -2.5t4.5 -4.5l-85 -534q-2 -5 -12 -5q-53 -25 -93.5 -57.5t-43.5 -64.5q-5 -41 38 -41q27 0 53 21q5 3 14 -5.5t13.5 -19t-0.5 -16.5
q-40 -38 -105 -38q-38 0 -68.5 23.5t-21.5 75.5q4 29 27 54t45 38t59 31q-7 1 -7 4l12 71q-24 -28 -74.5 -59t-104.5 -31q-74 0 -114.5 50t-27.5 127z" />
    <glyph glyph-name="Ydieresis" unicode="&#x178;" horiz-adv-x="585" 
d="M690 728l-297 -430l-46 -293q-2 -9 -56 -9h-18.5t-16 1t-14 3t-4.5 5l46 292l-159 431q-1 3 3.5 5t14 2.5t19.5 1t24 0.5q51 0 54 -9l113 -332l217 332q6 9 66 9q14 0 23 -0.5t17.5 -1t12 -2.5t1.5 -5zM330 820q-17 0 -31.5 3t-13.5 9l16 100q1 11 49 11q17 0 31 -3
t13 -8l-16 -100q-1 -12 -48 -12zM519 820q-18 0 -32 3t-13 9l15 100q1 11 49 11q17 0 31 -3t13 -8l-16 -100q-1 -12 -47 -12z" />
    <glyph glyph-name="Zacute" unicode="&#x179;" horiz-adv-x="563" 
d="M538 45q-8 -45 -15 -45h-491l9 58l444 583h-337q-9 0 0 47q6 45 16 45h472l-10 -60l-440 -581h351q7 0 1 -47zM564 945l-127 -138q-6 -7 -39 -7t-33 6q0 2 2 4l107 142q7 9 50 9q47 0 43 -11q0 -2 -3 -5z" />
    <glyph glyph-name="zacute" unicode="&#x17a;" horiz-adv-x="467" 
d="M41 47l316 408h-236q-7 0 -1 43q7 43 15 43h378l-8 -47l-315 -408h257q8 0 1 -42q-7 -44 -14 -44h-400zM490 745l-127 -138q-7 -7 -39 -7q-33 0 -33 6q0 2 2 4l107 142q7 9 49 9q55 -1 41 -16z" />
    <glyph glyph-name="Zdotaccent" unicode="&#x17b;" horiz-adv-x="563" 
d="M538 45q-8 -45 -15 -45h-491l9 58l444 583h-337q-9 0 0 47q6 45 16 45h472l-10 -60l-440 -581h351q7 0 1 -47zM402 826q-64 0 -61 15l15 94q2 14 66 14q24 0 43.5 -3.5t18.5 -11.5l-16 -93q-1 -15 -66 -15z" />
    <glyph glyph-name="zdotaccent" unicode="&#x17c;" horiz-adv-x="467" 
d="M41 47l316 408h-236q-7 0 -1 43q7 43 15 43h378l-8 -47l-315 -408h257q8 0 1 -42q-7 -44 -14 -44h-400zM328 626q-22 0 -42.5 4t-19.5 11l16 94q1 14 65 14q24 0 43.5 -3.5t18.5 -11.5l-15 -93q-2 -15 -66 -15z" />
    <glyph glyph-name="Zcaron" unicode="&#x17d;" horiz-adv-x="563" 
d="M538 45q-8 -45 -15 -45h-491l9 58l444 583h-337q-9 0 0 47q6 45 16 45h472l-10 -60l-440 -581h351q7 0 1 -47zM346 964q32 0 37 -8l36 -89l66 88q8 9 40 9h14.5t12.5 -1t8 -3v-5l-103 -128q-9 -10 -44 -10q-36 0 -42 10l-62 129q-3 5 7 6.5t30 1.5z" />
    <glyph glyph-name="zcaron" unicode="&#x17e;" horiz-adv-x="475" 
d="M43 47l317 408h-237q-7 0 -1 43q7 43 16 43h377l-8 -47l-315 -408h257q10 0 1 -42q-5 -44 -14 -44h-400zM269 764q31 0 37 -8l36 -89l65 88q9 9 40 9h15t13 -1t7.5 -3t-0.5 -5l-102 -128q-9 -10 -44 -10q-37 0 -42 10l-62 129q-3 5 7 6.5t30 1.5z" />
    <glyph glyph-name="florin" unicode="&#x192;" horiz-adv-x="350" 
d="M212 1q0 -69 -35 -105.5t-100 -36.5h-77q-9 0 -9 43q0 20 1 29.5t2.5 11.5t5.5 2h55q54 0 52 54v448h-69q-8 0 -8 43q0 42 8 42h69v70q0 70 35.5 106.5t99.5 36.5h78q8 0 8 -43q0 -20 -1 -29t-2.5 -11t-4.5 -2h-56q-29 0 -41 -15t-12 -47v-66h94q9 0 9 -41q0 -44 -9 -44
h-93v-446z" />
    <glyph glyph-name="Scommaaccent" unicode="&#x218;" horiz-adv-x="560" 
d="M547 192q-15 -93 -87 -150t-193 -57q-123 0 -224 74q-4 3 8 27t28 44.5t21 17.5q29 -23 80.5 -45t96.5 -22q66 0 107.5 30t50.5 85q10 60 -50 100q-14 9 -93 50q-37 19 -62 36.5t-49 44t-33 61.5t-2 78q12 75 76 127.5t175 52.5q104 0 197 -52q3 -2 0.5 -11.5t-8.5 -23.5
t-13 -26.5t-14 -20.5t-10 -6q-77 46 -166 46q-57 0 -91 -25.5t-40 -68.5q-8 -50 54 -90q12 -7 88 -46q175 -88 153 -230zM115 -300q-19 23 -6 31q44 38 59.5 74.5t30.5 131.5q2 8 52 8h16.5t16 -1t14 -2.5t4.5 -4.5q-28 -179 -161 -252q-12 -4 -26 15z" />
    <glyph glyph-name="scommaaccent" unicode="&#x219;" horiz-adv-x="461" 
d="M227 -14q-55 0 -104.5 16.5t-75.5 35.5q-4 3 6 24t23.5 39.5t17.5 15.5q71 -46 137 -46q46 0 75 22.5t34 53.5q4 31 -20 54t-60.5 39.5t-72 36t-56.5 55t-12 84.5q11 63 61.5 100.5t143.5 37.5q90 0 152 -32q7 -4 -9.5 -43.5t-24.5 -37.5q-72 29 -131 29q-39 0 -64 -16.5
t-30 -39.5q-4 -21 13 -38t44.5 -29t59 -29.5t58 -37t41.5 -55t8 -81.5q-10 -70 -67 -114t-147 -44zM75 -300q-19 23 -6 31q44 38 59.5 74.5t30.5 131.5q2 8 52 8h16.5t16 -1t14 -2.5t4.5 -4.5q-28 -179 -161 -252q-12 -4 -26 15z" />
    <glyph glyph-name="uni021A" unicode="&#x21a;" horiz-adv-x="542" 
d="M646 689q-8 -46 -17 -46h-202l-101 -639q-1 -8 -55 -8h-18.5t-16 1t-14 2.5t-4.5 4.5l101 639h-204q-9 0 -1 46q6 44 15 44h515q3 0 4 -2t1 -7t-0.5 -9.5t-1.5 -12.5t-1 -13zM123 -300q-20 22 -7 31q45 37 60.5 74t30.5 132q2 8 51 8h17.5t16 -1t14 -2.5t3.5 -4.5
q-29 -180 -161 -252q-12 -5 -25 15z" />
    <glyph glyph-name="uni021B" unicode="&#x21b;" horiz-adv-x="372" 
d="M308 0h-68q-62 0 -93.5 36t-21.5 97l49 309h-73q-9 0 -3 43q7 42 16 42h73l21 129q1 8 53 8h16t15 -1t13 -2.5t3 -4.5l-20 -129h111q9 0 1 -42q-6 -43 -14 -43h-111l-49 -303q-4 -27 6.5 -39t40.5 -12h48q11 0 13 -6.5t-2 -36.5q-5 -30 -9 -37.5t-15 -7.5zM65 -300
q-19 23 -6 31q44 38 59.5 74.5t30.5 131.5q2 8 52 8h16.5t16 -1t14 -2.5t4.5 -4.5q-28 -179 -161 -252q-12 -4 -26 15z" />
    <glyph glyph-name="circumflex" unicode="&#x2c6;" horiz-adv-x="489" 
d="M475 615q-31 0 -37 8l-35 89l-65 -88q-6 -8 -39 -8h-14.5t-12.5 1t-8 2.5v4.5l101 128q10 10 44 10q37 0 43 -10l61 -129q3 -5 -7 -6.5t-31 -1.5z" />
    <glyph glyph-name="caron" unicode="&#x2c7;" horiz-adv-x="489" 
d="M322 764q31 0 36 -8l37 -89l65 88q8 9 40 9h15t13 -1t7.5 -3t-0.5 -5l-102 -128q-10 -10 -44 -10q-37 0 -42 10l-63 129q-3 5 7 6.5t31 1.5z" />
    <glyph glyph-name="breve" unicode="&#x2d8;" horiz-adv-x="489" 
d="M535 754q-15 -56 -52.5 -88t-91.5 -32q-51 0 -79.5 35t-26.5 85q0 7 37 7q23 0 23 -6q-1 -30 13 -47t40 -17t45 17.5t27 46.5q1 6 37 6q6 0 11 -0.5t9 -1t6 -2t2 -3.5z" />
    <glyph glyph-name="dotaccent" unicode="&#x2d9;" horiz-adv-x="489" 
d="M353 626q-22 0 -42.5 4t-19.5 11l16 94q1 14 65 14q24 0 43.5 -3.5t18.5 -11.5l-15 -93q-3 -15 -66 -15z" />
    <glyph glyph-name="ring" unicode="&#x2da;" horiz-adv-x="578" 
d="M483 686q-7 -34 -34 -56t-60 -22q-38 0 -59.5 26t-15.5 64q7 34 34 56.5t59 22.5q38 0 60.5 -26t15.5 -65zM440 688q4 21 -6 34t-30 13q-17 0 -31 -12t-16 -28q-4 -20 6 -33t29 -13q17 0 31.5 12t16.5 27z" />
    <glyph glyph-name="ogonek" unicode="&#x2db;" horiz-adv-x="489" 
d="M256 16h87q-54 -24 -96 -57t-46 -66q-5 -41 39 -41q28 0 52 21q5 3 14.5 -5.5t13.5 -19t-1 -16.5q-38 -38 -105 -38q-38 0 -68 23.5t-22 75.5q5 29 28.5 54.5t45 38t58.5 30.5z" />
    <glyph glyph-name="tilde" unicode="&#x2dc;" horiz-adv-x="489" 
d="M493 694q-39 -68 -99 -68q-30 0 -64.5 22t-44.5 22q-25 0 -52 -36q-3 -4 -15.5 5t-22.5 21t-8 16q16 28 42 48t56 20q29 0 63 -22t47 -22q28 0 53 38q3 4 15 -5.5t22 -22t8 -16.5z" />
    <glyph glyph-name="hungarumlaut" unicode="&#x2dd;" horiz-adv-x="588" 
d="M637 745l-127 -138q-7 -7 -39 -7q-33 0 -33 7q0 1 2 4l107 141q7 9 49 9q45 0 45 -9q-1 -3 -4 -7zM475 745l-126 -138q-7 -7 -40 -7q-32 0 -33 7q0 1 2 4l107 141q7 9 50 9q45 0 44 -9q0 -3 -4 -7z" />
    <glyph glyph-name="pi" unicode="&#x3c0;" horiz-adv-x="771" 
d="M597 452v-321q0 -43 40 -43h65q8 0 8 -44t-8 -44h-97q-55 0 -84 32t-29 93v327h-128v-448q0 -8 -54 -8q-53 0 -53 8v448h-96q-8 0 -8 44q0 45 8 45h540q7 0 7 -44q0 -45 -8 -45h-103z" />
    <glyph glyph-name="endash" unicode="&#x2013;" horiz-adv-x="572" 
d="M125 258q-8 0 -2 41q6 40 14 40h405q8 0 2 -40q-6 -41 -15 -41h-404z" />
    <glyph glyph-name="emdash" unicode="&#x2014;" horiz-adv-x="1072" 
d="M125 258q-8 0 -2 41q6 40 14 40h905q8 0 2 -40q-6 -41 -15 -41h-904z" />
    <glyph glyph-name="afii00208" unicode="&#x2015;" horiz-adv-x="1072" 
d="M125 258q-8 0 -2 41q6 40 14 40h905q8 0 2 -40q-6 -41 -15 -41h-904z" />
    <glyph glyph-name="quoteleft" unicode="&#x2018;" horiz-adv-x="280" 
d="M337 737q21 -22 7 -31q-45 -37 -60.5 -74t-30.5 -132q-1 -8 -51 -8h-17.5t-16 1t-14 2.5t-3.5 4.5q29 180 161 252q12 4 25 -15z" />
    <glyph glyph-name="quoteright" unicode="&#x2019;" horiz-adv-x="280" 
d="M145 497q-20 22 -7 31q45 37 60.5 74t30.5 132q2 8 52 8h16.5t16 -1t14 -2.5t4.5 -4.5q-29 -180 -161 -251q-13 -6 -26 14z" />
    <glyph glyph-name="quotesinglbase" unicode="&#x201a;" horiz-adv-x="260" 
d="M14 -130q-21 22 -7 31q45 37 60.5 74t30.5 132q1 8 51 8h17.5t16 -1t14 -2.5t3.5 -4.5q-29 -180 -161 -252q-12 -5 -25 15z" />
    <glyph glyph-name="quotedblleft" unicode="&#x201c;" horiz-adv-x="472" 
d="M530 741q19 -23 7 -32q-45 -36 -60.5 -72.5t-30.5 -132.5q-1 -9 -51 -9h-17.5t-16 1t-14 3t-3.5 5q28 181 160 251q12 6 26 -14zM338 741q18 -23 7 -32q-45 -36 -60.5 -72.5t-30.5 -132.5q-2 -9 -52 -9h-16.5t-16 1t-14 3t-4.5 5q29 181 161 251q11 5 26 -14z" />
    <glyph glyph-name="quotedblright" unicode="&#x201d;" horiz-adv-x="471" 
d="M144 492q-17 22 -6 32q45 37 60.5 73t30.5 132q2 9 52 9h16.5t16 -1t14 -3t4.5 -5q-29 -182 -161 -253q-11 -5 -27 16zM336 492q-17 22 -6 32q45 37 61 73t31 132q1 9 51 9h16.5t16 -1t14.5 -3t4 -5q-29 -182 -161 -253q-10 -5 -27 16z" />
    <glyph glyph-name="quotedblbase" unicode="&#x201e;" horiz-adv-x="470" 
d="M45 -131q-18 22 -6 32q45 37 61 73.5t31 131.5q1 8 51 8h16.5t16 -1t14.5 -2.5t4 -4.5q-29 -180 -161 -251q-12 -6 -27 14zM238 -131q-20 21 -7 32q45 36 60.5 72.5t31.5 132.5q2 8 51 8h17.5t16 -1t14 -2.5t3.5 -4.5q-29 -181 -161 -251q-12 -7 -26 14z" />
    <glyph glyph-name="dagger" unicode="&#x2020;" horiz-adv-x="542" 
d="M528 492l-140 11l-58 -314q-1 -8 -33 -8h-12t-9.5 1t-7.5 2.5t-2 4.5l42 315l-146 -12q-3 0 -4 4t-0.5 11.5t1.5 13.5t2 15q2 9 3 14.5t3 13.5t5 11.5t6 3.5l138 -13l22 161q1 10 47 10q18 0 31.5 -2t12.5 -8l-30 -161l143 13q3 0 4.5 -4t1 -11t-1.5 -13.5t-2 -14.5
q-2 -11 -2.5 -15t-3 -13t-5 -12.5t-5.5 -3.5z" />
    <glyph glyph-name="daggerdbl" unicode="&#x2021;" horiz-adv-x="542" 
d="M505 339l-142 13l-30 -165q-1 -8 -32 -8h-11.5t-9 1t-7.5 2.5t-1 4.5l21 165l-147 -13q-3 0 -4 4t-0.5 11.5t1.5 14t2 14.5q2 17 6 30.5t9 12.5l143 -12l10 90l-142 -12q-2 0 -3 1t-1.5 4t-0.5 6t0.5 8t0.5 8.5t1 9t1 7.5q8 44 16 44l137 -14l20 162q2 9 47 9h14.5t14 -1
t12.5 -3t3 -5l-31 -162l142 14q9 0 1 -44t-16 -44l-138 12l-17 -90l145 12q7 1 3 -32v-7q-1 -3 -1 -4q-9 -44 -16 -44z" />
    <glyph glyph-name="bullet" unicode="&#x2022;" horiz-adv-x="459" 
d="M135 319q10 60 59 102.5t109 42.5t96 -42.5t26 -102.5q-9 -60 -58.5 -102.5t-109.5 -42.5t-95.5 42.5t-26.5 102.5z" />
    <glyph glyph-name="ellipsis" unicode="&#x2026;" horiz-adv-x="719" 
d="M122 -4h-16t-14 1t-12 2.5t-4 4.5l21 127q1 8 48 8h16.5t14 -1t12.5 -2.5t3 -4.5l-20 -127q-1 -8 -49 -8zM359 -4h-16t-14 1t-12 2.5t-4 4.5l20 127q2 8 49 8h16t14 -1t12 -2.5t3 -4.5l-20 -127q-1 -8 -48 -8zM595 -4h-16t-14 1t-12 2.5t-4 4.5l20 127q2 8 49 8h16
t14.5 -1t12 -2.5t3.5 -4.5l-20 -127q-1 -8 -49 -8z" />
    <glyph glyph-name="perthousand" unicode="&#x2030;" horiz-adv-x="1066" 
d="M222 377q-64 0 -99 31.5t-26 90.5l22 137q9 55 50 81.5t102 26.5q65 0 100 -31t25 -93l-21 -136q-9 -55 -50.5 -81t-102.5 -26zM729 729l-501 -721q-4 -8 -50 -8q-50 2 -50 8l500 721q6 8 52 8h17.5t16 -1t13.5 -2.5t2 -4.5zM583 -16q-67 0 -101 29.5t-25 89.5l22 144
q18 108 152 108q65 0 99.5 -31t25.5 -89l-22 -143q-8 -56 -49.5 -82t-101.5 -26zM315 636q4 23 -9.5 31.5t-41.5 8.5t-43.5 -8t-19.5 -32l-23 -152q-4 -23 9 -31.5t41 -8.5q29 0 44.5 8t18.5 32zM674 247q4 24 -8.5 32.5t-41.5 8.5q-28 0 -43.5 -8.5t-19.5 -32.5l-24 -155
q-4 -24 9 -32.5t41 -8.5t43.5 8.5t19.5 32.5zM912 -16q-67 0 -101 29.5t-25 89.5l22 144q18 108 152 108q65 0 99.5 -31t25.5 -89l-22 -143q-8 -56 -49.5 -82t-101.5 -26zM1003 247q4 24 -8.5 32.5t-41.5 8.5q-28 0 -43.5 -8.5t-19.5 -32.5l-24 -155q-4 -24 9 -32.5t41 -8.5
t43.5 8.5t19.5 32.5z" />
    <glyph glyph-name="guilsinglleft" unicode="&#x2039;" horiz-adv-x="360" 
d="M92 318l193 229q5 6 24 -3.5t34 -23.5t11 -19l-157 -183l99 -183q2 -5 -17.5 -19t-41 -23.5t-24.5 -2.5z" />
    <glyph glyph-name="guilsinglright" unicode="&#x203a;" horiz-adv-x="360" 
d="M235 547l122 -229l-194 -228q-5 -7 -24 2.5t-33.5 23.5t-10.5 19l157 183l-99 183q-3 5 16.5 19t41.5 23.5t24 3.5z" />
    <glyph glyph-name="fraction" unicode="&#x2044;" horiz-adv-x="413" 
d="M469 729l-314 -725q-4 -8 -52 -8h-18.5t-16 1t-13.5 2.5t-3 4.5l314 725q3 8 51 8h19t16.5 -1t13.5 -2.5t3 -4.5z" />
    <glyph glyph-name="Euro" unicode="&#x20ac;" horiz-adv-x="659" 
d="M698 704q3 -2 1 -11.5t-7.5 -23.5t-12 -26.5t-13.5 -20.5t-10 -7q-85 41 -157 41q-80 0 -125 -29.5t-56 -102.5l-7 -46h208q8 0 2 -40q-7 -42 -15 -42h-208l-11 -68h208q8 0 2 -41q-6 -39 -15 -39l-207 -1l-7 -42q-11 -72 24 -100.5t115 -28.5q75 0 172 33q4 1 8 -7
t7 -20.5t5 -25.5t1.5 -23t-3.5 -12q-31 -13 -93 -24t-113 -11q-121 0 -185 54.5t-45 175.5l5 31h-68q-7 0 -3 40q6 41 16 41h68l10 68h-68q-7 0 -1 41q4 41 14 41h69l7 47q18 117 93 169.5t203 52.5q104 0 192 -43z" />
    <glyph glyph-name="trademark" unicode="&#x2122;" horiz-adv-x="653" 
d="M507 442q-20 0 -22 6l-66 207q3 -16 3 -55v-152q0 -6 -22 -6q-25 0 -25 6v281q0 5 32 5q33 0 35 -5l65 -220l64 220q1 5 34 5q34 0 34 -5v-281q0 -6 -24 -6q-25 0 -25 6v152q0 25 2 55l-64 -207q-2 -6 -21 -6zM245 689v-241q0 -6 -26 -6t-26 6v241h-76q-6 0 -6 22t6 22
h205q6 0 6 -22t-6 -22h-77z" />
    <glyph glyph-name="Omega" unicode="&#x2126;" horiz-adv-x="739" 
d="M494 0v86q34 18 64 50t30 63v331q0 64 -47.5 90t-116.5 26q-164 0 -164 -116v-331q0 -32 30 -63t66 -50v-86h-235q-2 12 -2 44q0 34 2 46h86q-1 2 -18 17.5t-30 38t-13 49.5v341q0 107 77.5 158t200.5 51q124 0 201 -51t77 -158v-341q0 -27 -12.5 -49.5t-29 -38.5
t-17.5 -17h85q2 -8 2 -46q0 -36 -2 -44h-234z" />
    <glyph glyph-name="partialdiff" unicode="&#x2202;" horiz-adv-x="679" 
d="M621 217q0 -104 -63.5 -167t-173.5 -63q-119 0 -180.5 58t-61.5 157v120q0 99 64.5 156.5t173.5 57.5q25 0 46 -6t36 -14t17 -8q-1 2 -8 15.5t-18 31.5t-25 35q-15 17 -35 35.5t-43 38.5t-33 29q-8 8 26.5 48t44.5 33q67 -52 111 -105q51 -56 87 -140.5t35 -183.5v-128z
M517 215v99q0 64 -40 100.5t-97 36.5q-55 0 -92.5 -33t-37.5 -99v-112q0 -64 39 -97t90 -33q59 0 98.5 33.5t39.5 104.5z" />
    <glyph glyph-name="Delta" unicode="&#x2206;" horiz-adv-x="739" 
d="M46 0l305 728q3 9 51 9t51 -9l307 -728h-714zM392 601l-212 -515h425z" />
    <glyph glyph-name="product" unicode="&#x220f;" horiz-adv-x="739" 
d="M783 356q0 -148 -105 -252.5t-253 -104.5t-252.5 104.5t-104.5 252.5t104.5 253t252.5 105t253 -105t105 -253zM716 357q0 120 -85 205t-205 85t-205 -85t-85 -205t85 -205t205 -85t205 85t85 205zM461 292h-69v-122q0 -6 -36 -6t-36 6v368h132q128 0 128 -109v-28
q0 -8 -1 -16.5t-7.5 -27t-17.5 -31.5t-35.5 -23.5t-57.5 -10.5zM510 429q0 27 -14 35.5t-47 8.5h-58v-116h71q26 0 37 9.5t11 34.5v28z" />
    <glyph glyph-name="summation" unicode="&#x2211;" horiz-adv-x="739" 
d="M663 0h-511v60l268 319l-258 294v60h487q9 0 9 -44q0 -46 -9 -46h-324l230 -264l-240 -289h348q8 0 8 -44q0 -46 -8 -46z" />
    <glyph glyph-name="minus" unicode="&#x2212;" horiz-adv-x="739" 
d="M247 261q-9 0 -9 44q0 43 9 43h356q9 0 9 -43q0 -44 -9 -44h-356z" />
    <glyph glyph-name="radical" unicode="&#x221a;" horiz-adv-x="538" 
d="M576 729l-211 -724q-3 -9 -59 -9q-54 0 -59 9l-135 381q-1 2 3.5 4t13.5 2.5t17.5 1t18.5 0.5q55 0 57 -8l86 -257l165 600q3 8 51 8h19t16.5 -1t13.5 -2.5t3 -4.5z" />
    <glyph glyph-name="infinity" unicode="&#x221e;" horiz-adv-x="919" 
d="M680 107q-72 0 -182 98q-107 -98 -183 -98q-67 0 -105 43t-38 106q0 66 41.5 110.5t105.5 44.5q78 0 184 -98q107 98 182 98q66 0 105 -45t39 -110t-41 -107t-108 -42zM681 331q-35 0 -119 -75q74 -68 122 -68q29 0 46.5 18.5t17.5 49.5q0 33 -18.5 54t-48.5 21zM317 331
q-28 0 -46 -22t-18 -53q0 -33 18 -50.5t49 -17.5q43 0 119 68q-78 75 -122 75z" />
    <glyph glyph-name="integral" unicode="&#x222b;" horiz-adv-x="585" 
d="M282 7l1 605q0 60 32.5 90.5t83.5 30.5h79q8 0 8 -44t-8 -44h-50q-42 0 -42 -41v-576q0 -69 -25.5 -104.5t-86.5 -35.5h-84q-9 0 -9 44q0 45 9 45h62q30 0 30 30z" />
    <glyph glyph-name="approxequal" unicode="&#x2248;" horiz-adv-x="555" 
d="M505 339q-15 -26 -49.5 -51.5t-71.5 -25.5q-39 0 -82 28t-57 28q-35 0 -72 -47q-4 -4 -17 5.5t-23 23t-7 18.5q14 23 48.5 48t71.5 25q36 0 80 -28t60 -28q32 0 71 49q4 5 17 -4t23.5 -22t7.5 -19zM508 182q-15 -25 -51.5 -51.5t-72.5 -26.5q-39 0 -82 28.5t-57 28.5
q-33 0 -70 -47q-3 -4 -16 5.5t-23 23t-7 18.5q13 23 46.5 48t70.5 25q36 0 80 -28t60 -28q30 0 74 49q3 5 16.5 -4t24 -22t7.5 -19z" />
    <glyph glyph-name="notequal" unicode="&#x2260;" horiz-adv-x="542" 
d="M518 172q0 -40 -9 -40h-237l-77 -91q-4 -4 -21 7.5t-31 26.5t-10 19q20 26 30 38h-42q-8 0 -8 40q0 42 8 42h115l53 64h-168q-8 0 -8 41v16q0 26 8 26h241l79 94q4 4 21 -7.5t31 -26.5t9 -20l-33 -40h40q9 0 9 -42v-15q0 -26 -9 -26h-112l-53 -64h165q9 0 9 -42z" />
    <glyph glyph-name="lessequal" unicode="&#x2264;" horiz-adv-x="545" 
d="M131 338l370 127q3 1 4.5 -3t2.5 -13t1 -15v-16q0 -46 -8 -48l-244 -82l244 -76q8 -3 8 -47v-16t-1 -15.5t-2.5 -13.5t-4.5 -3l-370 127q-8 3 -8 47t8 47zM130 88h373q9 0 9 -44t-9 -44h-373q-9 0 -9 43q0 45 9 45z" />
    <glyph glyph-name="greaterequal" unicode="&#x2265;" horiz-adv-x="536" 
d="M133 464l368 -125q8 -3 8 -47q0 -45 -8 -48l-369 -127q-3 -1 -5 3t-3 13.5t-1 15.5v16q0 44 9 47l243 77l-243 80q-9 2 -9 48q0 8 0.5 16t1.5 15.5t3 12t5 3.5zM129 88h373q8 0 8 -44t-8 -44h-373q-9 0 -9 44t9 44z" />
    <glyph glyph-name="lozenge" unicode="&#x25ca;" horiz-adv-x="739" 
d="M751 370l-290 -365q-8 -9 -33 -9q-26 0 -33 9l-295 367l294 357q7 8 32 8q26 0 33 -8zM424 614l-195 -241l200 -254l196 249z" />
    <glyph glyph-name="fi" unicode="&#xfb01;" horiz-adv-x="584" 
d="M390 486q-6 -44 -16 -44h-92l-69 -437q-2 -9 -54 -9q-10 0 -18 0.5t-16.5 1t-13 2.5t-3.5 5l69 437h-69q-8 0 -2 43q5 42 15 42h69l12 75q11 70 52 106.5t105 36.5h78h2t1.5 -1l1 -2t1 -3.5t0 -5.5t-0.5 -7.5t-1 -10t-2 -13.5q-3 -20 -5.5 -29t-4.5 -11t-5 -2h-56
q-28 0 -43 -15t-20 -47l-11 -71h94q8 0 2 -41zM442 -4h-17.5t-16 1t-14 2.5t-4.5 4.5l85 533q1 8 54 8h16.5t16 -1t14 -2.5t3.5 -4.5l-84 -533q-1 -8 -53 -8zM540 617h-17.5t-16 1t-14 3t-3.5 5l18 115q1 8 54 8h16.5t16 -1t14 -2.5t4.5 -4.5l-18 -115q-2 -9 -54 -9z" />
    <glyph glyph-name="fl" unicode="&#xfb02;" horiz-adv-x="616" 
d="M390 486q-6 -44 -16 -44h-92l-69 -437q-2 -9 -54 -9q-10 0 -18 0.5t-16.5 1t-13 2.5t-3.5 5l69 437h-69q-8 0 -2 43q5 42 15 42h69l13 86q10 62 47.5 97t91.5 35h95h2t1.5 -1l1 -2t1 -3.5t0 -5.5t-0.5 -7.5t-1 -10t-2 -13.5q-3 -20 -5.5 -29t-4.5 -11t-5 -2h-56
q-53 0 -62 -62l-12 -71h94q8 0 2 -41zM590 0h-47q-61 0 -93.5 36t-22.5 97l97 608q1 8 53 8h16.5t16 -1t14 -2.5t4.5 -4.5l-94 -598q-9 -52 47 -52h22q11 0 13 -7.5t-3 -37.5q-4 -30 -8.5 -38t-14.5 -8z" />
    <glyph glyph-name="dummy1" horiz-adv-x="0" 
 />
    <glyph glyph-name="dummy2" horiz-adv-x="0" 
 />
    </font>
</defs>
</svg>
